<svg version="1.1" xmlns="http://www.w3.org/2000/svg" xmlns:xlink="http://www.w3.org/1999/xlink" width="52.94646" height="24.8457" viewBox="0,0,52.94646,24.8457"><g transform="translate(-213.59054,-167.57715)"><g data-paper-data="{&quot;isPaintingLayer&quot;:true}" fill-rule="nonzero" stroke-linecap="butt" stroke-linejoin="miter" stroke-miterlimit="10" stroke-dasharray="" stroke-dashoffset="0" style="mix-blend-mode: normal"><path d="M226.75434,185.21408c0,3.0148 -2.55506,5.45877 -5.7069,5.45877c-3.15183,0 -5.7069,-2.44397 -5.7069,-5.45877c0,-3.0148 2.55506,-5.45877 5.7069,-5.45877c3.15183,0 5.7069,2.44397 5.7069,5.45877z" fill="#000000" stroke="#000000" stroke-width="3.5"/><path d="M220.85128,183.1259c0,1.55697 -1.26217,2.81914 -2.81914,2.81914c-1.55697,0 -2.81914,-1.26217 -2.81914,-2.81914c0,-1.55697 1.26217,-2.81914 2.81914,-2.81914c1.55697,0 2.81914,1.26217 2.81914,2.81914z" fill="#ffffff" stroke="none" stroke-width="0"/><g><path d="M264.787,173.81435c0,2.47821 -2.1003,4.4872 -4.69116,4.4872c-2.59085,0 -4.69116,-2.00898 -4.69116,-4.4872c0,-2.47821 2.1003,-4.4872 4.69116,-4.4872c2.59085,0 4.69116,2.00898 4.69116,4.4872z" fill="#000000" stroke="#000000" stroke-width="3.5"/><path d="M260.00407,172.47306c0,1.27985 -1.03753,2.31738 -2.31738,2.31738c-1.27985,0 -2.31737,-1.03752 -2.31737,-2.31738c0,-1.27985 1.03752,-2.31738 2.31737,-2.31738c1.27985,0 2.31738,1.03752 2.31738,2.31738z" fill="#ffffff" stroke="none" stroke-width="0"/></g></g></g></svg>