<svg version="1.1" xmlns="http://www.w3.org/2000/svg" xmlns:xlink="http://www.w3.org/1999/xlink" width="1440.94791" height="369.13699" viewBox="0,0,1440.94791,369.13699"><g transform="translate(400.47396,3.73677)"><g data-paper-data="{&quot;isPaintingLayer&quot;:true}" fill-rule="nonzero" stroke-linejoin="miter" stroke-miterlimit="10" stroke-dasharray="" stroke-dashoffset="0" style="mix-blend-mode: normal"><g><path d="M81,0h479v360h-479z" fill="#dbffe2" stroke="none" stroke-width="1" stroke-linecap="butt"/><g fill="#ffffff" stroke="#ffffff" stroke-width="15" stroke-linecap="round"><g><path d="M329.61137,39.2l0.66866,37.1l-63.90474,-33.9l-62.56742,34.6l-65.71967,-34.6l-57.12262,30v-37.8l55.7853,-29.7l65.81519,34.7l62.56742,-34.7l64.47788,34.3"/><path d="M560.96754,21.5v36.8l-30.08968,-16l-62.56742,34.6l-65.71967,-34.6l-65.81519,34.6l-0.66866,-37.1l1.33732,-1l63.80922,-34l65.81519,34.7l62.56742,-34.7l31.33147,16.7"/></g><g><path d="M333.71885,132.1l0.57314,37.1l-63.80922,-34l-62.56742,34.7l-65.81519,-34.7l-61.13458,32.2v-37.8l59.89278,-31.8l65.71967,34.6l62.56742,-34.6l64.5734,34.3"/><path d="M560.96754,112.2v36.7l-25.9822,-13.8l-62.56742,34.6l-65.81519,-34.6l-65.81519,34.6l-0.57314,-37.1l1.2418,-1l63.90474,-34l65.71967,34.7l62.56742,-34.7l27.31951,14.6"/></g><g><path d="M84.02231,315l63.90474,-34l65.71967,34.6l62.56742,-34.6l64.5734,34.3l0.66866,37.1l-63.80922,-33.9l-62.56742,34.6l-65.81519,-34.6l-65.81519,34.6l-0.66866,-37.1z"/><path d="M560.96754,291.7v36.8l-18.91351,-10.1l-62.56742,34.6l-65.81519,-34.6l-65.81519,34.6l-0.57314,-37.1l1.2418,-1l63.90474,-34l65.71967,34.7l62.56742,-34.7l20.25083,10.8"/></g><g><path d="M336.68006,222.5l0.66866,37.1l-63.90474,-33.9l-62.56742,34.6l-65.71967,-34.6l-64.19131,33.8v-37.9l62.85399,-33.4l65.81519,34.7l62.56742,-34.7l64.47788,34.3"/><path d="M560.96754,201.1v36.7l-23.02099,-12.2l-62.56742,34.6l-65.71967,-34.6l-65.81519,34.6l-0.66866,-37.1l1.33732,-1l63.80922,-34l65.81519,34.7l62.56742,-34.7l24.26279,13"/></g></g></g><path d="M560,21l0.3,0.3" fill="none" stroke="#000000" stroke-width="2" stroke-linecap="round"/><g data-paper-data="{&quot;index&quot;:null}"><path d="M86.99359,360h-479v-360h479z" fill="#dbffe2" stroke="none" stroke-width="1" stroke-linecap="butt"/><g fill="#ffffff" stroke="#ffffff" stroke-width="15" stroke-linecap="round"><g><path d="M-161.61779,39.2l64.47788,-34.3l62.56742,34.7l65.8152,-34.7l55.7853,29.7v37.8l-57.12262,-30l-65.71967,34.6l-62.56742,-34.6l-63.90474,33.9l0.66866,-37.1"/><path d="M-392.97396,21.5l31.33147,-16.7l62.56742,34.7l65.8152,-34.7l63.80921,34l1.33732,1l-0.66866,37.1l-65.81519,-34.6l-65.71967,34.6l-62.56742,-34.6l-30.08967,16v-36.8"/></g><g><path d="M-165.72526,132.1l64.57339,-34.3l62.56742,34.6l65.71967,-34.6l59.89278,31.8v37.8l-61.13458,-32.2l-65.81519,34.7l-62.56743,-34.7l-63.80921,34l0.57314,-37.1"/><path d="M-392.97396,112.2l27.31952,-14.6l62.56742,34.7l65.71967,-34.7l63.90474,34l1.24179,1l-0.57314,37.1l-65.81519,-34.6l-65.8152,34.6l-62.56742,-34.6l-25.98219,13.8v-36.7"/></g><g><path d="M85.21308,316l-0.66866,37.1l-65.8152,-34.6l-65.8152,34.6l-62.56742,-34.6l-63.80921,33.9l0.66866,-37.1l64.5734,-34.3l62.56742,34.6l65.71967,-34.6l63.90474,34z"/><path d="M-392.97396,291.7l20.25083,-10.8l62.56742,34.7l65.71967,-34.7l63.90473,34l1.2418,1l-0.57314,37.1l-65.81519,-34.6l-65.81519,34.6l-62.56742,-34.6l-18.91351,10.1v-36.8"/></g><g><path d="M-168.68647,222.5l64.47788,-34.3l62.56742,34.7l65.8152,-34.7l62.85399,33.4v37.9l-64.1913,-33.8l-65.71968,34.6l-62.56742,-34.6l-63.90474,33.9l0.66866,-37.1"/><path d="M-392.97396,201.1l24.26279,-13l62.56742,34.7l65.81519,-34.7l63.80922,34l1.33731,1l-0.66866,37.1l-65.81519,-34.6l-65.71967,34.6l-62.56742,-34.6l-23.02099,12.2v-36.7"/></g></g></g><g data-paper-data="{&quot;index&quot;:null}"><path d="M1032.93954,360h-479v-360h479z" fill="#dbffe2" stroke="none" stroke-width="1" stroke-linecap="butt"/><g fill="#ffffff" stroke="#ffffff" stroke-width="15" stroke-linecap="round"><g><path d="M784.32816,39.2l64.47788,-34.3l62.56742,34.7l65.8152,-34.7l55.7853,29.7v37.8l-57.12262,-30l-65.71967,34.6l-62.56742,-34.6l-63.90474,33.9l0.66866,-37.1"/><path d="M552.97199,21.5l31.33147,-16.7l62.56743,34.7l65.81519,-34.7l63.80922,34l1.33732,1l-0.66866,37.1l-65.8152,-34.6l-65.71967,34.6l-62.56742,-34.6l-30.08968,16v-36.8"/></g><g><path d="M780.22069,132.1l64.5734,-34.3l62.56742,34.6l65.71967,-34.6l59.89278,31.8v37.8l-61.13457,-32.2l-65.81519,34.7l-62.56743,-34.7l-63.80921,34l0.57314,-37.1"/><path d="M552.97199,112.2l27.31952,-14.6l62.56742,34.7l65.71967,-34.7l63.90474,34l1.2418,1l-0.57314,37.1l-65.8152,-34.6l-65.81519,34.6l-62.56742,-34.6l-25.9822,13.8v-36.7"/></g><g><path d="M1031.15903,316l-0.66866,37.1l-65.81519,-34.6l-65.8152,34.6l-62.56742,-34.6l-63.80922,33.9l0.66866,-37.1l64.5734,-34.3l62.56742,34.6l65.71967,-34.6l63.90474,34z"/><path d="M552.97199,291.7l20.25083,-10.8l62.56742,34.7l65.71967,-34.7l63.90474,34l1.2418,1l-0.57314,37.1l-65.8152,-34.6l-65.81519,34.6l-62.56742,-34.6l-18.91351,10.1v-36.8"/></g><g><path d="M777.25948,222.5l64.47788,-34.3l62.56742,34.7l65.8152,-34.7l62.85398,33.4v37.9l-64.1913,-33.8l-65.71967,34.6l-62.56742,-34.6l-63.90474,33.9l0.66866,-37.1"/><path d="M552.97199,201.1l24.26279,-13l62.56742,34.7l65.8152,-34.7l63.80922,34l1.33731,1l-0.66865,37.1l-65.8152,-34.6l-65.71967,34.6l-62.56742,-34.6l-23.02099,12.2v-36.7"/></g></g></g></g></g></svg>