<svg version="1.1" xmlns="http://www.w3.org/2000/svg" xmlns:xlink="http://www.w3.org/1999/xlink" width="115.6424" height="103.97463" viewBox="0,0,115.6424,103.97463"><defs><linearGradient x1="181.7526" y1="128.6331" x2="181.7526" y2="232.6077" gradientUnits="userSpaceOnUse" id="color-1"><stop offset="0" stop-color="#ff00bf"/><stop offset="1" stop-color="#ff0000"/></linearGradient></defs><g transform="translate(-181.75256,-128.63311)"><g data-paper-data="{&quot;isPaintingLayer&quot;:true}" fill-rule="nonzero" stroke-linecap="butt" stroke-linejoin="miter" stroke-miterlimit="10" stroke-dasharray="" stroke-dashoffset="0" style="mix-blend-mode: normal"><path d="M229.1225,194.6793c0,0 9.391,-1.8197 12.7071,-2.7992c3.3139,-0.978 8.8551,-3.4197 8.8551,-3.4197c0,0 0.9915,13.9471 -7.3816,15.7448c-8.3718,1.8011 -12.1025,-4.1373 -14.1806,-9.5259z" fill="#ffccf2" stroke="#231f20" stroke-width="2.07326"/><path d="M235.019,226.787c-2.4891,-2.7891 -8.7039,-8.2267 -13.811,-12.0835c-15.1318,-11.4273 -17.1913,-13.081 -23.3352,-18.7382c-11.3264,-10.4295 -16.1366,-20.9078 -16.1202,-35.1156c0.008,-6.9356 0.4809,-9.6077 2.4231,-13.6958c3.2951,-6.9361 8.1492,-12.0899 14.355,-15.2422c4.3953,-2.2325 6.5633,-3.2245 13.9031,-3.265c7.6783,-0.0424 9.2946,0.8527 13.8112,3.334c5.4975,3.0202 11.1558,9.4747 12.3255,14.0597l0.7225,2.8318l1.7815,-3.9c10.0674,-22.0395 42.2093,-21.7097 53.3946,0.5479c3.5484,7.0606 3.938,22.137 0.7916,30.6293c-4.1046,11.0782 -11.8136,19.5239 -29.6346,32.466c-11.6873,8.4878 -24.9146,21.3299 -25.8353,23.1336c-1.0689,2.0938 -0.0511,0.3281 -4.7718,-4.962z" fill="url(#color-1)" stroke="none" stroke-width="0.18069"/></g></g></svg>