<svg version="1.1" xmlns="http://www.w3.org/2000/svg" xmlns:xlink="http://www.w3.org/1999/xlink" width="21.30366" height="17.73431" viewBox="0,0,21.30366,17.73431"><g transform="translate(-226.84967,-171.01524)"><g data-paper-data="{&quot;isPaintingLayer&quot;:true}" fill-rule="nonzero" stroke-linejoin="miter" stroke-miterlimit="10" stroke-dasharray="" stroke-dashoffset="0" style="mix-blend-mode: normal"><g data-paper-data="{&quot;index&quot;:null}" fill="#000000" stroke="#000000" stroke-linecap="butt"><path d="M243.70937,181.36216c-0.94158,0 3.04204,0.32593 2.2091,0.61565c-0.83293,0.28972 -7.60509,0.47079 -5.54085,0.83294c2.06424,0.36215 8.8364,-3.11446 5.6495,-0.10864c-3.1869,3.00583 -11.15414,1.88317 -9.0899,2.64368c2.06424,0.76051 14.81183,-3.54905 7.49645,-0.36215c-7.31538,3.1869 3.62147,3.15068 -8.87261,2.2091c-12.49408,-0.94159 -8.80018,-17.52794 3.87498,-14.41347c12.67516,3.11446 -2.71611,-0.36215 -4.88899,0.18107c-2.17288,0.54322 7.89482,0.36215 10.97307,2.82475c3.07826,2.4626 -3.83876,-1.77452 -9.19854,-1.70209c-5.35978,0.07242 7.24295,1.05022 9.85041,3.47661c2.60746,2.42638 -1.41238,-0.57944 -2.89718,-0.57944c-1.48481,0 2.7161,0.83294 3.83876,2.24531c1.12266,1.41237 -2.64367,-0.65187 -4.23712,-0.65187c-1.59344,0 3.29555,0.76051 4.01984,1.4848c0.72429,0.7243 -3.54905,0.76051 -5.72193,0.36215c-2.17289,-0.39836 4.23712,0.47079 5.35978,0.47079c1.12266,0 -1.88317,0.47079 -2.82475,0.47079z" stroke-width="2"/><path d="" stroke-width="1.5"/><path d="" stroke-width="1.5"/><path d="" stroke-width="1.5"/><path d="M233.27956,187.04784c-0.68808,-0.07243 -0.68808,-0.21728 0,-0.10864c0.68808,0.10865 1.41649,0.15257 2.31774,0.28972c0.90124,0.13715 -0.25351,0 -0.65187,-0.03621c-0.39836,-0.03622 -0.9778,-0.07243 -1.66588,-0.14486z" stroke-width="1.5"/><path d="" stroke-width="1.5"/><path d="" stroke-width="1.5"/><path d="" stroke-width="1.5"/><path d="" stroke-width="1.5"/><path d="" stroke-width="1.5"/><path d="" stroke-width="1.5"/><path d="M231.54124,171.87389c-0.61565,0 -0.65186,-0.10865 -0.03621,-0.14486c0.61565,-0.03622 1.19508,0.03621 1.77452,0.03621c0.57944,0 1.15887,0.10865 1.66588,0.14486c0.50701,0.03621 0.50701,0.07243 0.76051,0.10864c0.2535,0.03621 0.507,0.07243 0.72429,0.10864c0.21729,0.03621 0.86915,0.14486 1.2313,0.2535c0.36214,0.10864 0.68808,0.18107 0.94158,0.2535c0.507,0.14486 1.02462,-0.01061 0.79672,0.21729c-0.2279,0.2279 -0.32593,-0.07243 -0.83294,-0.18107c-0.507,-0.10865 -0.57943,-0.14486 -0.94158,-0.21729c-0.36215,-0.07243 -0.79672,-0.14486 -1.2313,-0.21729c-0.21729,-0.03621 -0.43458,-0.07243 -0.68808,-0.10864c-0.2535,-0.03622 -0.50701,-0.07243 -0.76051,-0.07243c-0.2535,0 -1.05022,-0.10865 -1.62966,-0.14486c-0.57943,-0.03621 -1.15887,-0.03621 -1.77452,-0.03621z" stroke-width="1.5"/><path d="M245.55633,175.78509c0,0 -0.2535,-0.18108 -0.61565,-0.43458c-0.36215,-0.2535 -0.47079,-0.2535 -0.76051,-0.39836c-0.28972,-0.14486 -0.68808,-0.28972 -1.05023,-0.43458c-0.36215,-0.14486 -0.79673,-0.32594 -1.26752,-0.43458c-0.47079,-0.10865 -0.94158,-0.25351 -1.44859,-0.36215c-0.507,-0.10865 -1.01401,-0.18108 -1.55723,-0.28972c-0.54322,-0.10865 -1.08644,-0.10865 -1.62966,-0.14486c-0.54322,-0.03621 -0.54322,-0.03621 -0.83294,-0.03621c-0.28972,0 -0.24202,-0.0291 -0.39836,-0.03621c-0.15633,-0.00711 0.14486,-0.03621 -0.39836,0c-0.54322,0.03621 -1.08644,0 -1.59345,0.03621c-0.507,0.03621 -1.01401,0.07243 -1.4848,0.10864c-0.4708,0.03621 -0.94159,0.14486 -1.33995,0.18107c-0.39836,0.03621 -0.2535,-0.10865 -0.03621,-0.14486c0.43458,-0.07243 0.86916,-0.14486 1.33995,-0.21729c0.47079,-0.07243 0.97779,-0.10865 1.4848,-0.14486c0.50701,-0.03621 1.05023,-0.03621 1.59345,-0.03621c0.54322,0 0.22958,-0.00767 0.39836,0c0.16878,0.00767 0.10864,0.03621 0.39836,0.03621c0.28972,0 0.54322,0.03621 0.83294,0.03621c0.28972,0 1.12266,0.10864 1.66588,0.18107c0.54322,0.07243 1.08644,0.18108 1.59345,0.28972c0.50701,0.10864 1.01401,0.2535 1.44859,0.39836c0.43458,0.14486 0.86916,0.32593 1.26752,0.47079c0.39836,0.14486 0.72429,0.32594 1.01401,0.50701c0.28972,0.18108 0.54322,0.32594 0.76051,0.43458c0.21729,0.10865 0.61565,0.43458 0.61565,0.43458z" stroke-width="1.5"/><path d="M246.20822,177.55959c0,0.49172 -0.50701,-0.10864 -1.19509,-0.2535c-0.68808,-0.14486 -0.79673,-0.18108 -1.26752,-0.28972c-0.47079,-0.10865 -0.94158,-0.18108 -1.44859,-0.28972c-0.50701,-0.10865 -0.9778,-0.21729 -1.44859,-0.28972c-0.4708,-0.07243 -0.43458,-0.07243 -0.65187,-0.10864c-0.21729,-0.03622 -0.43458,-0.03622 -0.61565,-0.07243c-0.18108,-0.03622 -0.36215,-0.03622 -0.50701,-0.07243c-0.14486,-0.03621 -0.28972,-0.03621 -0.39836,-0.03621c-0.10865,0 -0.36215,0.1059 -0.36215,-0.03621c0,-0.14211 0.14486,-0.03621 0.36215,-0.03621c0.10864,0 0.2535,0 0.39836,0c0.14486,0 0.32594,0 0.50701,0.03621c0.18107,0.03622 0.83294,0.07243 1.30373,0.14486c0.47079,0.07243 0.94158,0.14486 1.44859,0.2535c0.50701,0.10864 0.9778,0.21729 1.44859,0.32593c0.47079,0.10864 0.86915,0.21729 1.2313,0.32593c0.7243,0.21729 1.19509,-0.09336 1.19509,0.39836z" stroke-width="1.5"/><path d="M247.14979,179.26166c0.1822,0.72879 -0.76051,-0.10864 -1.84695,-0.2535c-1.08645,-0.14486 -1.23131,-0.14486 -1.9556,-0.2535c-0.72429,-0.10865 -1.4848,-0.21729 -2.24531,-0.28972c-0.76051,-0.07243 -1.52102,-0.18107 -2.24531,-0.2535c-0.7243,-0.07243 -1.37616,-0.14486 -1.9556,-0.18107c-0.57943,-0.03621 -0.57943,-0.03621 -0.79672,-0.03621c-0.21729,0 -0.43458,-0.03621 -0.61565,-0.03621c-0.36215,0 -0.54322,0.212 -0.54322,0c0,-0.212 0.21729,0 0.54322,-0.03621c0.32593,-0.03621 0.39836,-0.03621 0.61565,-0.03621c0.2535,0 0.507,0 0.79672,0c0.28972,0 1.23131,0.03621 1.9556,0.10864c0.72429,0.07243 1.4848,0.14486 2.24531,0.21729c0.76051,0.07243 1.52102,0.21729 2.24531,0.32593c0.72429,0.10864 1.33994,0.21729 1.91938,0.32593c0.57944,0.10864 1.70097,-0.33043 1.88317,0.39836z" stroke-width="1.5"/><path d="M246.96873,180.09462c1.16205,-0.09525 -0.32593,0.07243 -0.76051,0.14486c-0.43457,0.07243 -1.26751,0.18108 -2.17288,0.28972c-0.90537,0.10864 -1.95559,0.18107 -3.07825,0.2535c-1.12266,0.07243 -1.15887,0.07243 -1.73831,0.07243c-0.61565,0 -1.19509,0 -1.81074,0c-0.61565,0 -1.2313,-0.03622 -1.81074,-0.07243c-0.57944,-0.03621 -1.15887,-0.07243 -1.73831,-0.10864c-0.57943,-0.03622 -1.12265,-0.07243 -1.62966,-0.14486c-0.50701,-0.07243 -0.50701,-0.03622 -0.76051,-0.07243c-0.25351,-0.03622 -0.21729,-0.18107 0.03621,-0.14486c0.2535,0.03622 0.50701,0.03622 0.76051,0.07243c0.2535,0.03621 1.05022,0.07243 1.62966,0.10864c0.57944,0.03621 1.15887,0.10864 1.73831,0.10864c0.57943,0 1.15887,0.03621 1.77452,0.03621c0.57943,0 1.19508,0 1.77452,0c0.57944,0 1.15887,-0.03621 1.73831,-0.03621c0.57943,0 2.17288,-0.10864 3.07825,-0.18107c0.90537,-0.07243 1.80756,-0.23068 2.96961,-0.32593z" stroke-width="1.5"/><path d="M245.9185,181.97778c0.20175,0.80699 -0.79672,0.25351 -2.06424,0.50701c-1.26752,0.2535 -1.33995,0.21729 -2.13667,0.32593c-0.79673,0.10865 -1.66588,0.18108 -2.49882,0.21729c-0.83294,0.03621 -0.83294,0.03621 -1.26752,0.03621c-0.43458,0 -0.83294,0 -1.2313,0c-0.39836,0 -0.79672,-0.03622 -1.15887,-0.07243c-0.36214,-0.03621 -0.68808,-0.07243 -1.01401,-0.10864c-0.32593,-0.03621 -0.61565,-0.07243 -0.86915,-0.10864c-0.25351,-0.03621 -0.4708,-0.07243 -0.65187,-0.10864c-0.36215,-0.07243 -0.57944,0.12144 -0.57944,-0.10864c0,-0.23008 0.21729,0 0.57944,0.03621c0.36215,0.03622 0.39837,0.03622 0.65187,0.07243c0.2535,0.03622 0.54322,0.03622 0.86915,0.07243c0.32593,0.03621 0.65186,0.03621 1.01401,0.03621c0.36215,0 0.76051,0.03621 1.15887,0.03621c0.39836,0 0.83294,0 1.2313,0c0.43458,0 0.83294,0 1.26752,-0.03621c0.43457,-0.03621 1.66588,-0.10864 2.4626,-0.18107c0.79672,-0.07243 1.52102,-0.14486 2.13667,-0.2535c0.61565,-0.10865 1.8987,-1.16914 2.10045,-0.36215z" stroke-width="1.5"/><path d="M245.77363,182.88315c-0.18107,0.10865 -0.2535,0.25351 -0.47079,0.43458c-0.21728,0.18107 -0.47079,0.32593 -0.79672,0.54322c-0.32594,0.21729 -0.68808,0.39837 -1.12266,0.57944c-0.43457,0.18108 -0.90536,0.32594 -1.41237,0.50701c-0.507,0.18107 -0.507,0.10864 -0.79672,0.18107c-0.28972,0.07243 -0.2535,0.07243 -0.39836,0.10864c-0.14486,0.03622 -0.28972,0.03622 -0.43458,0.07243c-0.14486,0.03621 -0.57943,0.07243 -0.86915,0.10864c-0.28972,0.03622 -0.61565,0.03622 -0.90537,0.07243c-0.28972,0.03621 -1.2313,0.03621 -1.84695,0.03621c-0.61565,0 -1.2313,-0.10865 -1.84695,-0.14486c-0.61565,-0.03621 -1.19508,-0.14486 -1.77452,-0.2535c-0.57943,-0.10864 -1.12265,-0.18107 -1.62966,-0.32593c-0.50701,-0.14486 -0.4708,-0.32593 0.03621,-0.21729c0.507,0.10865 1.05022,0.18108 1.62966,0.28972c0.57943,0.10865 1.15887,0.18108 1.77452,0.21729c0.61565,0.03621 1.2313,0.10864 1.84695,0.10864c0.61565,0 1.2313,0.03621 1.84695,0c0.61565,-0.03621 0.61565,-0.03621 0.90537,-0.03621c0.28971,0 0.57943,-0.07243 0.86915,-0.10864c0.28972,-0.03622 0.28972,-0.03622 0.43458,-0.07243c0.14486,-0.03622 0.2535,-0.03622 0.39836,-0.07243c0.28971,-0.07243 0.54322,-0.14486 0.79672,-0.18107c0.2535,-0.03621 0.97779,-0.28972 1.41237,-0.47079c0.43458,-0.18108 0.83294,-0.36215 1.15887,-0.50701c0.32593,-0.14486 0.61565,-0.32594 0.83294,-0.50701c0.21729,-0.18107 0.36215,-0.28972 0.47079,-0.39836c0.10865,-0.10865 0.22071,-0.17014 0.14486,-0.14486c-0.07584,0.02528 -0.07243,0.07243 -0.2535,0.18107z" stroke-width="1.5"/><path d="" stroke-width="1.5"/><path d="" stroke-width="1.5"/><path d="" stroke-width="1.5"/></g><path d="M238.59621,175.40324c0,0 1.89756,0.15065 3.09129,0.97707c1.15922,0.80253 1.43555,2.82547 1.43555,2.82547" data-paper-data="{&quot;index&quot;:null}" fill="none" stroke="#b9b9b9" stroke-width="5" stroke-linecap="round"/></g></g></svg>