<svg version="1.1" xmlns="http://www.w3.org/2000/svg" xmlns:xlink="http://www.w3.org/1999/xlink" width="74.89447" height="15.49988" viewBox="0,0,74.89447,15.49988"><g transform="translate(-171.89118,-172.19653)"><g data-paper-data="{&quot;isPaintingLayer&quot;:true}" fill-rule="nonzero" stroke="none" stroke-width="1" stroke-linecap="butt" stroke-linejoin="miter" stroke-miterlimit="10" stroke-dasharray="" stroke-dashoffset="0" style="mix-blend-mode: normal"><g data-paper-data="{&quot;index&quot;:null}"><g><path d="M245.55435,182.4453c-0.83293,0.28972 -5.54085,0.83294 -5.54085,0.83294c2.06424,0.36215 5.6495,-0.10864 5.6495,-0.10864c-3.1869,3.00583 -9.0899,2.64368 -9.0899,2.64368c2.06424,0.76051 7.49645,-0.36215 7.49645,-0.36215c-7.31538,3.1869 -15.86206,0.28972 -15.86206,0.28972c3.07825,1.19509 6.98944,1.91938 6.98944,1.91938c-12.49408,-0.94158 -14.9929,-4.27334 -14.9929,-4.27334c-3.47662,2.82475 -6.84459,0.18107 -6.84459,0.18107c0.65186,1.2313 3.54904,2.06424 3.54904,2.06424c-5.83057,-0.83294 -6.95323,-5.6495 -6.95323,-5.6495c-0.18108,-2.42638 3.00582,-7.24294 9.48826,-4.30955c0,0 6.95323,-5.54086 19.62839,-2.42639c0,0 -2.71611,-0.36215 -4.88899,0.18107c0,0 7.89482,0.36215 10.97307,2.82475c0,0 -3.83876,-1.77452 -9.19854,-1.70209c0,0 7.24295,1.05022 9.85041,3.47661c0,0 -1.41238,-0.57944 -2.89718,-0.57944c0,0 2.7161,0.83294 3.83876,2.24531c0,0 -2.64367,-0.65187 -4.23712,-0.65187c0,0 3.29555,0.76051 4.01984,1.4848c0,0 -3.54905,0.76051 -5.72193,0.36215c0,0 4.23712,0.47079 5.35978,0.47079c0,0 -1.88317,0.47079 -2.82475,0.47079z" fill="#f2c063"/><path d="M219.47974,175.67313c0,0 -0.61565,-0.28972 -1.41237,-0.54322c-0.47079,-0.14486 -1.01401,-0.25351 -1.62966,-0.28972c-0.32593,0 -0.61565,0 -0.94158,0c-0.32593,0 -0.61565,0.03621 -0.94158,0.10864l-0.47079,0.10864c-0.18107,0.03622 -0.32593,0.10865 -0.47079,0.14486c-0.14486,0.07243 -0.28972,0.10864 -0.43458,0.18107c-0.14486,0.07243 -0.2535,0.14486 -0.39836,0.21729c-0.2535,0.18108 -0.507,0.32594 -0.72429,0.50701c-0.21729,0.18107 -0.39837,0.36215 -0.57944,0.54322c-0.32593,0.32593 -0.57943,0.65187 -0.72429,0.90537c-0.14486,0.2535 -0.21729,0.39836 -0.21729,0.39836c0,0 0.03621,-0.14486 0.18107,-0.39836c0.07243,-0.10865 0.14486,-0.25351 0.2535,-0.43458c0.10864,-0.18107 0.21729,-0.36215 0.39836,-0.54322c0.18108,-0.18108 0.36215,-0.39837 0.57944,-0.57944c0.21728,-0.18107 0.47079,-0.36215 0.72429,-0.54322c0.10864,-0.07243 0.2535,-0.14486 0.39836,-0.21729c0.14486,-0.07243 0.28972,-0.14486 0.43458,-0.21729c0.18107,-0.07243 0.32593,-0.10864 0.47079,-0.18107l0.47079,-0.14486c0.32593,-0.07243 0.65187,-0.10864 0.9778,-0.10864c0.32593,0 0.61565,0 0.94158,0.03621c0.28971,0.03622 0.57943,0.07243 0.86915,0.14486c0.2535,0.07243 0.54322,0.14486 0.76051,0.21729c0.47079,0.18107 0.83294,0.32593 1.08644,0.47079c0.2535,0.14486 0.39836,0.21729 0.39836,0.21729z" fill="#d18b44"/><path d="M213.35942,183.56793c0,0 0.10865,0.07243 0.21729,0.2535c0.18107,0.10865 0.43458,0.25351 0.76051,0.36215c0.14486,0.07243 0.32594,0.10864 0.50701,0.18107c0.18108,0.03622 0.36215,0.10865 0.57944,0.14486c0.21729,0.03622 0.43458,0.07243 0.65187,0.07243c0.21729,0.03621 0.43458,0 0.65187,0c0.21729,0 0.43458,-0.07243 0.65187,-0.07243c0.21729,-0.03622 0.43458,-0.10865 0.65187,-0.14486c0.21729,-0.07243 0.39837,-0.10864 0.57944,-0.18107c0.18108,-0.07243 0.36215,-0.14486 0.50701,-0.21729c0.18108,-0.07243 0.32594,-0.14486 0.43458,-0.21729c0.14486,-0.07243 0.2535,-0.14486 0.32593,-0.18107c0.18108,-0.10865 0.28972,-0.14486 0.28972,-0.14486c0,0 -0.10864,0.07243 -0.2535,0.18107c-0.07243,0.07243 -0.18108,0.14486 -0.28972,0.21729c-0.10864,0.10864 -0.2535,0.18107 -0.39836,0.2535c-0.14486,0.07243 -0.32594,0.18107 -0.50701,0.2535c-0.18108,0.07243 -0.36215,0.14486 -0.57944,0.21729c-0.21729,0.03622 -0.43458,0.10865 -0.65187,0.14486c-0.21729,0.03622 -0.47079,0.07243 -0.68808,0.07243c-0.21729,0 -0.47079,0 -0.68808,-0.03621c-0.21729,-0.03621 -0.43458,-0.07243 -0.65187,-0.10864c-0.21729,-0.03621 -0.43458,-0.10864 -0.61565,-0.18107c-0.18108,-0.07243 -0.36215,-0.14486 -0.50701,-0.21729c-0.32593,-0.14486 -0.54322,-0.32594 -0.72429,-0.43458c-0.18107,-0.14486 -0.2535,-0.21729 -0.2535,-0.21729z" fill="#d18b44"/><path d="M216.9447,185.63214c0,0 -0.14486,0 -0.36215,0c-0.21729,0 -0.54322,-0.03622 -0.94158,-0.14486c-0.18107,-0.03621 -0.39836,-0.10864 -0.61565,-0.18107c-0.21729,-0.07243 -0.47079,-0.14486 -0.68808,-0.2535c-0.21729,-0.10865 -0.47079,-0.21729 -0.68808,-0.36215c-0.2535,-0.14486 -0.47079,-0.28972 -0.68808,-0.43458c-0.21729,-0.14486 -0.39836,-0.32594 -0.61565,-0.50701c-0.18107,-0.18107 -0.36215,-0.36215 -0.54322,-0.54322c-0.18107,-0.18107 -0.32593,-0.36215 -0.47079,-0.54322c-0.14486,-0.18107 -0.25351,-0.36215 -0.36215,-0.54322c-0.10865,-0.18107 -0.21729,-0.32593 -0.28972,-0.47079c-0.07243,-0.14486 -0.14486,-0.25351 -0.18107,-0.36215c-0.07243,-0.21729 -0.14486,-0.32593 -0.14486,-0.32593c0,0 0.07243,0.10865 0.18107,0.28972c0.07243,0.10865 0.14486,0.21729 0.21729,0.36215c0.10864,0.14486 0.21729,0.28972 0.32593,0.43458c0.14486,0.14486 0.2535,0.36215 0.39836,0.50701c0.14486,0.14486 0.28972,0.32594 0.47079,0.50701c0.18107,0.14486 0.36215,0.32594 0.54322,0.50701c0.21729,0.14486 0.39836,0.32593 0.61565,0.47079c0.21729,0.14486 0.43458,0.32594 0.65187,0.43458c0.21729,0.14486 0.43458,0.25351 0.65187,0.36215c0.21729,0.10865 0.43458,0.21729 0.65187,0.28972c0.21729,0.07243 0.43458,0.18108 0.61565,0.21729c0.7243,0.25351 1.26752,0.28972 1.26752,0.28972z" fill="#d18b44"/><path d="M221.00078,184.0025c0,0 0.03622,0.03622 0.14486,0.14486c0.10864,0.07243 0.21729,0.18108 0.39836,0.28972c0.14486,0.10865 0.36215,0.25351 0.61565,0.36215c0.2535,0.14486 0.54322,0.2535 0.86915,0.39836c0.32594,0.14486 0.68808,0.28972 1.05023,0.39836c0.36215,0.14486 0.79673,0.21729 1.19509,0.36215c0.43458,0.10864 0.86915,0.21729 1.30373,0.32593c0.43458,0.10865 0.90537,0.18108 1.33995,0.28972c0.43458,0.07243 0.90537,0.18107 1.33995,0.2535c0.43458,0.07243 0.86915,0.14486 1.30373,0.21729c0.86916,0.14486 1.66588,0.25351 2.35396,0.36215c1.41237,0.14486 2.31774,0.28972 2.31774,0.28972c0,0 -0.25351,0 -0.65187,-0.03621c-0.39836,-0.03622 -0.9778,-0.07243 -1.66588,-0.14486c-0.68808,-0.10865 -1.48481,-0.14486 -2.35396,-0.28972c-0.43458,-0.07243 -0.90537,-0.14486 -1.33995,-0.21729c-0.47079,-0.07243 -0.90537,-0.18107 -1.37616,-0.2535c-0.43458,-0.10864 -0.90537,-0.21729 -1.33995,-0.32593c-0.43458,-0.10865 -0.86915,-0.25351 -1.30373,-0.36215c-0.43458,-0.14486 -0.83294,-0.2535 -1.19509,-0.39836c-0.39836,-0.14486 -0.7243,-0.28972 -1.05023,-0.43458c-0.28972,-0.14486 -0.57944,-0.28972 -0.83294,-0.43458c-0.2535,-0.14486 -0.43458,-0.28972 -0.61565,-0.39836c-0.14486,-0.10865 -0.28972,-0.21729 -0.36215,-0.28972c-0.07243,-0.07243 -0.14486,-0.10864 -0.14486,-0.10864z" fill="#d18b44"/><path d="M211.36766,180.70697c0,0 0.07243,0.07243 0.10864,0.14486c0.07243,0.10864 0.21729,0.28972 0.39836,0.47079c0.10864,0.10865 0.21729,0.18108 0.32593,0.28972c0.10865,0.10865 0.21729,0.18108 0.36215,0.28972c0.14486,0.07243 0.28972,0.18107 0.43458,0.2535c0.14486,0.07243 0.32593,0.14486 0.47079,0.21729c0.14486,0.07243 0.28972,0.14486 0.47079,0.18107c0.14486,0.07243 0.32593,0.10865 0.47079,0.14486c0.18107,0.03621 0.32593,0.07243 0.47079,0.10864c0.18108,0.03622 0.28972,0.07243 0.43458,0.07243c0.28972,0.03622 0.50701,0.07243 0.65187,0.07243c0.18107,0.03621 0.2535,0.03621 0.2535,0.03621c0,0 -0.10864,0.03621 -0.2535,0.03621c-0.14486,0 -0.39837,0.07242 -0.65187,0.03621c-0.14486,-0.03621 -0.28972,-0.03621 -0.43458,-0.03621c-0.14486,-0.03622 -0.28972,-0.03622 -0.47079,-0.07243c-0.18108,0 -0.32594,-0.07243 -0.50701,-0.10864c-0.18108,-0.03621 -0.32594,-0.10864 -0.50701,-0.18107c-0.14486,-0.07243 -0.32593,-0.18107 -0.47079,-0.2535c-0.14486,-0.10865 -0.28972,-0.18108 -0.43458,-0.28972c-0.14486,-0.10864 -0.25351,-0.21729 -0.36215,-0.32593c-0.10865,-0.10864 -0.21729,-0.21729 -0.28972,-0.32593c-0.18108,-0.21729 -0.28972,-0.39836 -0.36215,-0.54322c-0.07243,-0.14486 -0.10864,-0.21729 -0.10864,-0.21729z" fill="#d18b44"/><path d="M214.59076,181.86583c0,0 0.10864,0.03621 0.32593,0.10864c0.18107,0.03621 0.47079,0.10864 0.79672,0.18107c0.18107,0.03622 0.36215,0.03622 0.54322,0.07243c0.18107,0 0.39836,0 0.61565,0.03621c0.21729,0 0.43458,0 0.65187,0c0.2535,-0.03622 0.47079,-0.03622 0.68808,-0.07243l0.32593,-0.03621c0.10864,-0.03622 0.21729,-0.03622 0.32593,-0.07243c0.21729,-0.03621 0.39836,-0.10864 0.61565,-0.18107c0.21729,-0.07243 0.39837,-0.18107 0.57944,-0.2535c0.18107,-0.07243 0.32593,-0.14486 0.47079,-0.2535c0.14486,-0.10864 0.28972,-0.18107 0.39836,-0.2535c0.10865,-0.07243 0.21729,-0.14486 0.28972,-0.21729c0.14486,-0.10864 0.2535,-0.18107 0.2535,-0.18107c0,0 -0.07243,0.07243 -0.21729,0.21729c-0.07243,0.07243 -0.14486,0.14486 -0.2535,0.2535c-0.10864,0.10865 -0.2535,0.18108 -0.39836,0.28972c-0.14486,0.10865 -0.28972,0.21729 -0.47079,0.28972c-0.18108,0.10865 -0.36215,0.21729 -0.57944,0.28972c-0.21729,0.07243 -0.43458,0.18108 -0.65187,0.21729c-0.10864,0 -0.21729,0.03622 -0.32593,0.07243c-0.14486,0.03622 -0.25351,0.03622 -0.36215,0.07243c-0.21729,0.03621 -0.47079,0.03621 -0.68808,0.03621c-0.2535,0.03621 -0.47079,0 -0.68808,0c-0.21729,0 -0.43458,-0.03622 -0.61565,-0.07243c-0.18107,-0.03621 -0.36215,-0.07243 -0.54322,-0.10864c-0.32593,-0.10865 -0.61565,-0.21729 -0.79672,-0.28972c-0.18108,-0.07243 -0.28972,-0.14486 -0.28972,-0.14486z" fill="#d18b44"/><path d="M220.38509,177.30276c0,0 -0.21728,-0.28972 -0.72429,-0.54322c-0.10865,-0.07243 -0.21729,-0.10864 -0.36215,-0.18107c-0.10864,-0.07243 -0.2535,-0.10864 -0.39836,-0.18107c-0.18107,-0.03622 -0.32593,-0.10865 -0.47079,-0.14486c-0.14486,-0.03621 -0.28972,-0.07243 -0.47079,-0.10864c-0.14486,-0.03622 -0.28972,-0.03622 -0.47079,-0.07243c-0.14486,-0.03622 -0.32593,-0.07243 -0.47079,-0.07243c-0.14486,0 -0.28972,-0.03621 -0.43458,-0.03621c-0.14486,0 -0.28972,0 -0.39836,0c-0.2535,0 -0.47079,0 -0.61565,0c-0.14486,0 -0.21729,0 -0.21729,0c0,0 0.07243,0 0.21729,-0.03621c0.14486,0 0.36215,-0.07243 0.61565,-0.07243c0.10864,-0.03621 0.2535,-0.03621 0.39836,-0.03621c0.14486,0 0.32593,0 0.47079,0c0.18108,0 0.32594,0 0.50701,0.03621c0.18108,0 0.32594,0.03622 0.50701,0.07243c0.18108,0.03622 0.36215,0.10865 0.50701,0.14486c0.18107,0.03621 0.32593,0.10864 0.47079,0.18107c0.14486,0.07243 0.28972,0.14486 0.39836,0.21729c0.14486,0.07243 0.25351,0.14486 0.36215,0.21729c0.18108,0.14486 0.32594,0.32594 0.43458,0.43458c0.10865,0.10864 0.14486,0.18107 0.14486,0.18107z" fill="#d18b44"/><path d="M211.58494,179.11351c0,0 0.07243,-0.07243 0.18107,-0.18107c0.14486,-0.10864 0.32594,-0.2535 0.57944,-0.39836c0.10864,-0.07243 0.2535,-0.14486 0.39836,-0.21729c0.14486,-0.07243 0.28972,-0.14486 0.47079,-0.18107c0.32593,-0.14486 0.72429,-0.21729 1.08644,-0.28972c0.21729,-0.03622 0.39837,-0.07243 0.57944,-0.07243c0.18107,-0.03621 0.36215,-0.03621 0.54322,-0.03621c0.36215,0 0.68808,0.03622 0.9778,0.07243c0.28972,0.03622 0.54322,0.10865 0.68808,0.14486c0.14486,0.03622 0.2535,0.07243 0.2535,0.07243c0,0 -0.07243,0 -0.2535,0c-0.18107,0 -0.39836,-0.03621 -0.68808,-0.03621c-0.10865,0 -0.28972,0 -0.43458,0c-0.18108,0 -0.32594,0 -0.50701,0c-0.18107,0 -0.36215,0.03621 -0.54322,0.03621c-0.18107,0 -0.36215,0.03622 -0.54322,0.07243c-0.36215,0.07243 -0.7243,0.14486 -1.05023,0.2535c-0.36215,0.10864 -0.65187,0.21729 -0.90537,0.32593c-0.2535,0.10865 -0.47079,0.21729 -0.61565,0.28972c-0.14486,0.10865 -0.21729,0.14486 -0.21729,0.14486z" fill="#d18b44"/><path d="M214.44589,179.18598c0,0 0.47079,-0.10865 1.12266,-0.14486c0.32594,-0.03621 0.7243,-0.07243 1.12266,-0.10864c0.39836,-0.03622 0.86915,-0.07243 1.30373,-0.07243c0.43458,0 0.86915,0 1.30373,0.03621c0.39837,0.03622 0.79673,0.07243 1.12266,0.14486c0.14486,0.03621 0.28972,0.07243 0.43458,0.10864c0.10864,0.03621 0.2535,0.07243 0.32593,0.10864c0.18108,0.07243 0.28972,0.10864 0.28972,0.10864c0,0 -0.10865,-0.03622 -0.28972,-0.07243c-0.07243,-0.03622 -0.18107,-0.03622 -0.32593,-0.07243c-0.10865,-0.03622 -0.25351,-0.03622 -0.43458,-0.07243c-0.32594,-0.03622 -0.7243,-0.07243 -1.12266,-0.07243c-0.43458,-0.03621 -0.86915,0 -1.30373,0c-0.43458,0 -0.90537,0 -1.30373,0.03621c-0.39837,0 -0.79673,0.03621 -1.12266,0.03621c-0.68808,0 -1.12266,0.03621 -1.12266,0.03621z" fill="#d18b44"/><path d="M221.00076,177.66494c0,0 0.54322,-0.21729 1.37616,-0.43458c0.43457,-0.14486 0.94158,-0.28972 1.4848,-0.39836c0.54322,-0.10865 1.12265,-0.21729 1.70209,-0.28972c0.28971,-0.07243 0.57943,-0.07243 0.86915,-0.10864c0.28971,-0.03622 0.57943,-0.03622 0.86915,-0.07243c0.2535,-0.03621 0.54322,-0.03621 0.79672,-0.03621c0.2535,0 0.507,0 0.72429,0c0.47079,0 0.83294,0.03622 1.08644,0.07243c0.2535,0.03621 0.39836,0.03621 0.39836,0.03621c0,0 -0.14486,0 -0.39836,0c-0.28972,0 -0.65186,0 -1.08644,0c-0.21728,0 -0.47079,0 -0.72429,0.03621c-0.2535,0 -0.507,0 -0.79672,0.03621c-0.2535,0.03622 -0.54322,0.03622 -0.83294,0.07243c-0.28971,0.03621 -0.57943,0.07243 -0.86915,0.10864c-0.57943,0.07243 -1.15887,0.18108 -1.70209,0.28972c-0.54322,0.10864 -1.05022,0.21729 -1.4848,0.32593c-0.83293,0.18108 -1.41237,0.36215 -1.41237,0.36215z" fill="#d18b44"/><path d="M220.13162,175.20234c0,0 0.2535,-0.18108 0.61565,-0.36215c0.2535,-0.14486 0.54322,-0.32593 0.86915,-0.47079c0.18107,-0.07243 0.36215,-0.14486 0.54322,-0.2535c0.21729,-0.07243 0.39836,-0.14486 0.61565,-0.2535c0.39836,-0.18108 0.86915,-0.32594 1.37616,-0.50701c0.50701,-0.18107 1.01401,-0.36215 1.59345,-0.47079c0.28971,-0.07243 0.57943,-0.14486 0.86915,-0.21729c0.28971,-0.03622 0.57943,-0.10865 0.86915,-0.14486l0.43458,-0.07243l0.47079,-0.03621c0.28972,-0.03621 0.61565,-0.07243 0.90537,-0.10864c0.61565,-0.07243 1.2313,-0.07243 1.84695,-0.10864c0.61565,0 1.19508,0.03621 1.77452,0.03621c0.57944,0.03622 1.15887,0.10865 1.66588,0.14486c0.2535,0.03621 0.50701,0.07243 0.76051,0.10864c0.2535,0.03621 0.507,0.07243 0.72429,0.10864c0.47079,0.07243 0.86915,0.14486 1.2313,0.2535c0.36214,0.10864 0.68808,0.18107 0.94158,0.2535c0.507,0.14486 0.79672,0.21729 0.79672,0.21729c0,0 -0.32593,-0.07243 -0.83294,-0.18107c-0.2535,-0.07243 -0.57943,-0.14486 -0.94158,-0.21729c-0.36215,-0.10865 -0.79672,-0.14486 -1.2313,-0.21729c-0.21729,-0.03621 -0.43458,-0.07243 -0.68808,-0.10864c-0.2535,-0.03622 -0.50701,-0.07243 -0.76051,-0.07243c-0.507,-0.07243 -1.05022,-0.10865 -1.62966,-0.14486c-0.57943,-0.03621 -1.15887,-0.03621 -1.77452,-0.03621c-0.57944,0.03621 -1.19509,0.03621 -1.81074,0.10864c-0.28972,0.03621 -0.61565,0.07243 -0.90537,0.10864l-0.43458,0.03621l-0.43458,0.07243c-0.28971,0.03622 -0.57943,0.10865 -0.86915,0.14486c-0.28972,0.03621 -0.54322,0.10864 -0.83294,0.18107c-0.57944,0.14486 -1.08644,0.28972 -1.59345,0.43458c-0.507,0.14486 -0.97779,0.28972 -1.41237,0.47079c-0.43458,0.14486 -0.83294,0.32593 -1.15887,0.47079c-0.32593,0.14486 -0.61565,0.32594 -0.86915,0.43458c-0.47079,0.21729 -0.72429,0.39836 -0.72429,0.39836z" fill="#d18b44"/><path d="M244.57655,175.81798c-0.18107,-0.10864 -0.47079,-0.2535 -0.76051,-0.39836c-0.32594,-0.14486 -0.68808,-0.28972 -1.05023,-0.43458c-0.39837,-0.14486 -0.79673,-0.32594 -1.26752,-0.43458c-0.47079,-0.14486 -0.94158,-0.25351 -1.44859,-0.36215c-0.507,-0.10865 -1.01401,-0.18108 -1.55723,-0.28972c-0.54322,-0.03622 -1.08644,-0.10865 -1.62966,-0.14486c-0.28972,0 -0.54322,-0.03621 -0.83294,-0.03621l-0.39836,-0.03621h-0.39836c-0.54322,0.03621 -1.08644,0 -1.59345,0.03621c-0.507,0.03621 -1.01401,0.07243 -1.4848,0.10864c-0.4708,0.07243 -0.94159,0.14486 -1.33995,0.18107c-0.18108,0.03622 -0.39837,0.03622 -0.57944,0.07243c-0.21729,0 -0.36215,0.03622 -0.54322,0.07243c-0.32593,0.03622 -0.61565,0.10865 -0.86915,0.14486c-0.47079,0.10865 -0.76051,0.14486 -0.76051,0.14486c0,0 0.2535,-0.07243 0.72429,-0.18107c0.2535,-0.03621 0.54322,-0.10864 0.86915,-0.18107c0.18107,-0.03621 0.36215,-0.07243 0.54322,-0.10864c0.18108,-0.03621 0.36215,-0.07243 0.57944,-0.10864c0.43458,-0.07243 0.86916,-0.14486 1.33995,-0.21729c0.47079,-0.07243 0.97779,-0.10865 1.4848,-0.14486c0.50701,-0.03621 1.05023,-0.03621 1.59345,-0.03621h0.39836l0.39836,0.03621c0.28972,0 0.54322,0.03621 0.83294,0.03621c0.57944,0.03621 1.12266,0.10864 1.66588,0.18107c0.54322,0.07243 1.08644,0.18108 1.59345,0.28972c0.50701,0.10864 1.01401,0.2535 1.44859,0.39836c0.4708,0.14486 0.86916,0.32593 1.26752,0.47079c0.36214,0.18108 0.72429,0.32594 1.01401,0.50701c0.28972,0.14486 0.54322,0.32594 0.76051,0.43458c0.39836,0.25351 0.61565,0.43458 0.61565,0.43458c0,0 -0.2535,-0.18108 -0.61565,-0.43458z" fill="#d18b44"/><path d="M245.84408,178.02708c0,0 -0.50701,-0.10864 -1.19509,-0.2535c-0.36215,-0.10865 -0.79673,-0.18108 -1.26752,-0.28972c-0.47079,-0.07243 -0.94158,-0.18108 -1.44859,-0.28972c-0.50701,-0.10865 -0.9778,-0.21729 -1.44859,-0.28972c-0.21729,-0.03621 -0.43458,-0.07243 -0.65187,-0.10864c-0.21729,-0.03622 -0.43458,-0.03622 -0.61565,-0.07243c-0.18108,-0.03622 -0.36215,-0.03622 -0.50701,-0.07243c-0.14486,-0.03621 -0.28972,-0.03621 -0.39836,-0.03621c-0.25351,-0.03621 -0.36215,-0.03621 -0.36215,-0.03621c0,0 0.14486,-0.03621 0.36215,-0.03621c0.10864,0 0.2535,0 0.39836,0c0.14486,0.03621 0.32594,0 0.50701,0.03621c0.39836,0.03622 0.83294,0.07243 1.30373,0.14486c0.47079,0.07243 0.94158,0.14486 1.44859,0.2535c0.50701,0.10864 0.9778,0.21729 1.44859,0.32593c0.43458,0.10864 0.86915,0.21729 1.2313,0.32593c0.7243,0.21729 1.19509,0.39836 1.19509,0.39836z" fill="#d18b44"/><path d="M246.78565,179.72915c0,0 -0.76051,-0.10864 -1.84695,-0.2535c-0.57944,-0.07243 -1.23131,-0.14486 -1.9556,-0.2535c-0.72429,-0.10865 -1.4848,-0.21729 -2.24531,-0.28972c-0.76051,-0.10864 -1.52102,-0.18107 -2.24531,-0.2535c-0.7243,-0.07243 -1.37616,-0.14486 -1.9556,-0.18107c-0.28971,0 -0.57943,-0.03621 -0.79672,-0.03621c-0.2535,-0.03621 -0.43458,-0.03621 -0.61565,-0.03621c-0.36215,0 -0.54322,0 -0.54322,0c0,0 0.21729,0 0.54322,-0.03621c0.18107,-0.03621 0.39836,-0.03621 0.61565,-0.03621c0.2535,0 0.507,0 0.79672,0c0.57944,0.03621 1.23131,0.03621 1.9556,0.10864c0.72429,0.03622 1.4848,0.14486 2.24531,0.21729c0.76051,0.10864 1.52102,0.21729 2.24531,0.32593c0.68808,0.10864 1.33994,0.21729 1.91938,0.32593c1.12266,0.21729 1.88317,0.39836 1.88317,0.39836z" fill="#d18b44"/><path d="M246.60458,180.5621c0,0 -0.32593,0.07243 -0.76051,0.14486c-0.54322,0.07243 -1.26751,0.18108 -2.17288,0.28972c-0.90537,0.10864 -1.95559,0.18107 -3.07825,0.2535c-0.57944,0.03622 -1.15887,0.07243 -1.73831,0.07243c-0.61565,0 -1.19509,0 -1.81074,0c-0.61565,-0.03622 -1.2313,-0.03622 -1.81074,-0.07243c-0.57944,-0.03621 -1.15887,-0.07243 -1.73831,-0.10864c-0.57943,0 -1.12265,-0.07243 -1.62966,-0.14486c-0.2535,0 -0.50701,-0.03622 -0.76051,-0.07243c-0.21729,-0.03621 -0.47079,-0.07243 -0.68808,-0.10864c-0.47079,-0.07243 -0.86915,-0.10864 -1.2313,-0.18107c-0.36214,-0.07243 -0.68808,-0.14486 -0.94158,-0.18107c-0.507,-0.07243 -0.79672,-0.14486 -0.79672,-0.14486c0,0 0.32593,0.03621 0.83294,0.10864c0.2535,0.03622 0.57943,0.07243 0.94158,0.14486c0.36215,0.03622 0.79672,0.10865 1.2313,0.14486c0.21729,0 0.43458,0.03622 0.68808,0.07243c0.2535,0.03622 0.50701,0.03622 0.76051,0.07243c0.54322,0.03621 1.05022,0.07243 1.62966,0.10864c0.57944,0.03621 1.15887,0.10864 1.73831,0.10864c0.57943,0 1.15887,0.03621 1.77452,0.03621c0.57943,0 1.19508,0 1.77452,0c0.57944,0 1.15887,-0.03621 1.73831,-0.03621c1.12265,-0.03621 2.17288,-0.10864 3.07825,-0.18107c1.77452,-0.14486 2.96961,-0.32593 2.96961,-0.32593z" fill="#d18b44"/><path d="M245.55436,182.44527c0,0 -0.79672,0.25351 -2.06424,0.50701c-0.61565,0.10864 -1.33995,0.21729 -2.13667,0.32593c-0.79673,0.10865 -1.66588,0.18108 -2.49882,0.21729c-0.43458,0.03621 -0.83294,0.03621 -1.26752,0.03621c-0.43458,0.03621 -0.83294,0 -1.2313,0c-0.39836,0 -0.79672,-0.03622 -1.15887,-0.07243c-0.36214,-0.03621 -0.68808,-0.07243 -1.01401,-0.10864c-0.32593,-0.03621 -0.61565,-0.07243 -0.86915,-0.10864c-0.25351,-0.03621 -0.4708,-0.07243 -0.65187,-0.10864c-0.36215,-0.07243 -0.57944,-0.10864 -0.57944,-0.10864c0,0 0.21729,0 0.57944,0.03621c0.18108,0.03622 0.39837,0.03622 0.65187,0.07243c0.2535,0.03622 0.54322,0.03622 0.86915,0.07243c0.28972,0 0.65186,0.03621 1.01401,0.03621c0.36215,0 0.76051,0.03621 1.15887,0.03621c0.39836,0 0.83294,0 1.2313,0c0.43458,0 0.83294,0 1.26752,-0.03621c0.83294,-0.03621 1.66588,-0.10864 2.4626,-0.18107c0.76051,-0.07243 1.52102,-0.14486 2.13667,-0.2535c1.26751,-0.18108 2.10045,-0.36215 2.10045,-0.36215z" fill="#d18b44"/><path d="M245.66299,183.16957c0,0 -0.07243,0.07243 -0.2535,0.18107c-0.10864,0.10865 -0.2535,0.25351 -0.47079,0.43458c-0.21728,0.14486 -0.47079,0.32593 -0.79672,0.54322c-0.32594,0.18108 -0.68808,0.39837 -1.12266,0.57944c-0.43457,0.21729 -0.90536,0.32594 -1.41237,0.50701c-0.2535,0.03621 -0.507,0.10864 -0.79672,0.18107c-0.10864,0.03621 -0.2535,0.07243 -0.39836,0.10864c-0.14486,0.03622 -0.28972,0.03622 -0.43458,0.07243c-0.28971,0.03621 -0.57943,0.07243 -0.86915,0.10864c-0.28972,0.03622 -0.61565,0.03622 -0.90537,0.07243c-0.61565,0.07242 -1.2313,0.03621 -1.84695,0.03621c-0.61565,0 -1.2313,-0.10865 -1.84695,-0.14486c-0.61565,-0.03621 -1.19508,-0.14486 -1.77452,-0.2535c-0.54322,-0.10864 -1.12265,-0.18107 -1.62966,-0.32593c-0.50701,-0.14486 -1.01401,-0.25351 -1.44859,-0.36215c-0.47079,-0.10865 -0.86915,-0.25351 -1.2313,-0.36215c-0.36214,-0.10865 -0.68808,-0.21729 -0.94158,-0.28972c-0.507,-0.14486 -0.79672,-0.2535 -0.79672,-0.2535c0,0 0.32593,0.07243 0.83294,0.21729c0.2535,0.07243 0.57943,0.14486 0.94158,0.2535c0.36215,0.07243 0.76051,0.21729 1.2313,0.28972c0.43458,0.07243 0.94158,0.18108 1.44859,0.28972c0.507,0.14486 1.05022,0.18108 1.62966,0.28972c0.57943,0.07243 1.15887,0.18108 1.77452,0.21729c0.61565,0.03621 1.2313,0.10864 1.84695,0.10864c0.61565,0 1.2313,0.03621 1.84695,0c0.32593,0 0.61565,-0.03621 0.90537,-0.03621c0.28971,-0.03621 0.57943,-0.07243 0.86915,-0.10864c0.14486,-0.03622 0.28972,-0.03622 0.43458,-0.07243c0.14486,0 0.2535,-0.03622 0.39836,-0.07243c0.28971,-0.07243 0.54322,-0.14486 0.79672,-0.18107c0.507,-0.18107 0.97779,-0.28972 1.41237,-0.47079c0.43458,-0.14486 0.83294,-0.36215 1.15887,-0.50701c0.32593,-0.18108 0.61565,-0.32594 0.83294,-0.50701c0.21729,-0.14486 0.36215,-0.28972 0.47079,-0.39836c0.10865,-0.07243 0.14486,-0.14486 0.14486,-0.14486z" fill="#d18b44"/><path d="M221.3267,182.19177c0,0 0.18107,0.10864 0.47079,0.2535c0.28972,0.14486 0.7243,0.32594 1.12266,0.50701c0.39836,0.18108 0.83294,0.32594 1.15887,0.43458c0.18107,0.03621 0.28972,0.07243 0.39836,0.10864c0.07243,0 0.14486,0.03621 0.14486,0.03621c0,0 -0.03622,0 -0.14486,0c-0.07243,0 -0.21729,0 -0.39836,-0.03621c-0.18108,0 -0.36215,-0.03621 -0.57944,-0.10864c-0.21729,-0.03622 -0.43458,-0.14486 -0.65187,-0.21729c-0.39836,-0.18107 -0.79672,-0.39836 -1.08644,-0.61565c-0.28972,-0.18108 -0.43458,-0.36215 -0.43458,-0.36215z" fill="#d18b44"/><path d="M223.75308,181.5037c0.65186,0.14486 1.4848,0.36215 2.31774,0.54322c0.43458,0.10865 0.83294,0.18108 1.2313,0.28972c0.39836,0.07243 0.76051,0.18107 1.08644,0.2535c0.61565,0.18108 1.05023,0.28972 1.05023,0.28972c0,0 -0.43457,-0.03622 -1.08644,-0.14486c-0.32593,-0.07243 -0.68808,-0.14486 -1.08644,-0.21729c-0.39836,-0.10865 -0.79672,-0.18108 -1.2313,-0.28972c-0.43458,-0.10864 -0.83294,-0.21729 -1.2313,-0.32593c-0.36215,-0.10864 -0.7243,-0.21729 -1.05023,-0.32593c-0.61565,-0.18108 -1.01401,-0.36215 -1.01401,-0.36215c0,0 0.43457,0.07243 1.01401,0.28972z" fill="#d18b44"/><path d="M220.24025,183.38686c2.24531,-2.53503 0.72429,-6.22894 -0.76051,-7.71374c2.35396,1.84695 3.6939,5.21492 0.76051,7.71374z" fill="#db4570"/></g><g><path d="M211.73824,180.2724c0,0 -2.77704,-0.03621 -6.54415,-0.10864c-1.37644,-0.03621 -2.19748,0.2535 -3.76711,0.21729c-7.34104,-0.10865 -16.46904,-0.43458 -17.14519,-0.21729c-1.08667,0.36215 -4.70889,-0.07243 -5.40919,-0.07243c-0.7003,0 -6.4717,0.507 -6.80978,0.39836c-0.33807,-0.07243 -0.07244,-1.73831 -0.07244,-1.73831c0,0 4.25007,-0.18107 5.69896,-0.39836c1.44889,-0.18107 4.27422,-0.2535 6.06119,-0.39836c1.35229,-0.10865 13.37808,-0.10865 21.29867,0.10864c3.9603,0.10864 6.83393,0.47079 6.83393,0.47079c0.26563,0.83294 -0.14489,1.73831 -0.14489,1.73831z" fill="#694932"/><path d="M188.16965,178.89622c-0.45882,-0.07243 -1.01423,-0.14486 -1.61793,-0.21729c-0.28978,-0.03621 -0.6037,-0.07243 -0.91763,-0.10864c-0.31393,-0.03621 -0.62786,-0.03621 -0.94178,-0.03621c-2.55971,0.10864 -5.09526,0.2535 -5.09526,0.2535c0,0 0.652,-0.07243 1.59378,-0.18107c0.96593,-0.07243 2.22163,-0.18107 3.50148,-0.2535c0.652,-0.03621 1.27985,0.07243 1.88356,0.14486c0.57956,0.07243 1.13497,0.18107 1.61793,0.2535c0.45881,0.07243 0.86933,0.14486 1.13496,0.21729c0.26563,0.07243 0.43467,0.10864 0.43467,0.10864c0,0 -0.652,-0.07243 -1.59378,-0.18107z" fill="#4f3726"/><path d="M186.98639,179.07732c0,0 -0.16904,0 -0.41052,0c-0.24148,0 -0.57955,0 -0.89348,0c-0.33807,0 -0.652,0.03621 -0.89348,0.03621c-0.24148,0.03621 -0.41052,0.03621 -0.41052,0.03621c0,0 0.16904,-0.07243 0.41052,-0.14486c0.24148,-0.07243 0.55541,-0.10864 0.89348,-0.10864c0.31392,0 0.652,0.03622 0.89348,0.07243c0.24148,0.07243 0.41052,0.10864 0.41052,0.10864z" fill="#4f3726"/><path d="M183.36416,179.5481c0,0 -0.24148,0.03622 -0.6037,0.07243c-0.16904,0 -0.38637,0.03621 -0.6037,0.03621c-0.21734,0.03621 -0.45882,0.03621 -0.7003,0.03621c-0.24148,0 -0.48296,0 -0.7003,0c-0.21733,0 -0.43466,-0.03621 -0.6037,-0.03621c-0.36222,-0.03621 -0.6037,-0.10864 -0.6037,-0.10864c0,0 0.96593,-0.03621 1.90771,-0.03621c0.24149,0 0.48297,0 0.7003,0c0.21733,0 0.43466,0 0.6037,0c0.36222,0.03621 0.6037,0.03621 0.6037,0.03621z" fill="#4f3726"/><path d="M179.59706,179.25838c-0.31393,0 -0.7003,0 -1.11082,0c-0.41052,0 -0.84518,0.03622 -1.27985,0.07243c-0.86933,0.07243 -1.76282,0.07243 -2.41482,0.07243c-0.652,0 -1.08667,-0.03621 -1.08667,-0.03621c0,0 0.43467,-0.03622 1.08667,-0.07243c0.31392,-0.03622 0.70029,-0.03622 1.11081,-0.07243c0.41052,-0.03621 0.84519,-0.07243 1.27985,-0.10864c0.86933,-0.07243 1.76282,-0.03621 2.41482,0c0.652,0.07243 1.08667,0.10864 1.08667,0.10864c0,0 -0.43467,0 -1.08667,0.03621z" fill="#4f3726"/><path d="M172.78727,179.94645c0,0 0.26563,-0.03622 0.62785,-0.07243c0.19319,0 0.43467,-0.03621 0.67615,-0.03621c0.24148,0 0.50711,-0.03621 0.77274,-0.03621c0.26563,-0.03621 0.53126,-0.03621 0.77274,-0.03621c0.24149,0 0.48296,0 0.67615,0c0.19318,0 0.36222,0 0.48296,0c0.12074,0 0.19319,0 0.19319,0c0,0 -0.0483,0 -0.16904,0.03621c-0.12074,0 -0.28978,0.03622 -0.48296,0.07243c-0.19319,0.03622 -0.43467,0.07243 -0.67615,0.07243c-0.24148,0 -0.50711,0.03621 -0.77274,0.03621c-0.26563,0 -0.53126,0 -0.77274,0c-0.24149,0 -0.48297,0 -0.67615,0c-0.38637,0 -0.652,-0.03621 -0.652,-0.03621z" fill="#4f3726"/><path d="M178.34135,178.71516c0.07245,-0.03621 0.16904,-0.03621 0.28978,-0.03621c0.0966,0 0.21734,0.03621 0.28978,0.03621c0.09659,0 0.14489,0.03621 0.14489,0.03621c0,0 -0.07245,0.03621 -0.14489,0.03621c-0.07245,0.03621 -0.16904,0.03621 -0.28978,0.03621c-0.0966,0 -0.21734,-0.03621 -0.28978,-0.03621c-0.09659,-0.03621 -0.14489,-0.03621 -0.14489,-0.03621c0,0 0.0483,0 0.14489,-0.03621z" fill="#4f3726"/><path d="M177.90668,179.65675c0.07244,-0.03621 0.14488,-0.03621 0.24148,-0.03621c0.09659,0 0.16904,0.03621 0.24148,0.03621c0.07244,0 0.12074,0.03621 0.12074,0.03621c0,0 -0.0483,0.03621 -0.12074,0.03621c-0.07244,0.03621 -0.14488,0.03621 -0.24148,0.03621c-0.09659,0 -0.16904,-0.03621 -0.24148,-0.03621c-0.07244,-0.03621 -0.12074,-0.03621 -0.12074,-0.03621c0,0 0.0483,-0.03621 0.12074,-0.03621z" fill="#4f3726"/><path d="M182.90535,179.0411c0.09659,-0.03621 0.24148,-0.03621 0.38637,-0.03621c0.14489,0 0.28978,0.03621 0.38637,0.03621c0.0966,0 0.16904,0.03621 0.16904,0.03621c0,0 -0.07245,0.03621 -0.16904,0.03621c-0.09659,0.03621 -0.24148,0.03621 -0.38637,0.03621c-0.14489,0 -0.28977,-0.03621 -0.38637,-0.03621c-0.09659,-0.03621 -0.16904,-0.03621 -0.16904,-0.03621c0,0 0.07244,0 0.16904,-0.03621z" fill="#4f3726"/><path d="M187.78327,179.14974c0.07244,0 0.14489,0.03621 0.21733,0.03621c0.09659,0.03622 0.16904,0.03622 0.21733,0.07243c0.04829,0 0.09659,0.03621 0.09659,0.03621c0,0 -0.04829,0 -0.09659,0c-0.07244,0 -0.14489,-0.03621 -0.21733,-0.03621c-0.09659,-0.03622 -0.16904,-0.03622 -0.21733,-0.07243c-0.04829,0 -0.09659,-0.03621 -0.09659,-0.03621c0,0 0.04829,0 0.09659,0z" fill="#4f3726"/><path d="M189.69098,179.5481c-0.07244,0 -0.19319,0 -0.28978,-0.03621c-0.12074,-0.03621 -0.21734,-0.07243 -0.28978,-0.10864c-0.07244,-0.03622 -0.12074,-0.07243 -0.12074,-0.07243c0,0 0.07245,0 0.14489,0c0.07245,0 0.19319,0 0.28978,0.03621c0.12074,0.03621 0.21734,0.07243 0.28978,0.10864c0.07244,0.03622 0.12074,0.07243 0.12074,0.07243c0,0 -0.0483,0 -0.14489,0z" fill="#4f3726"/><path d="M172.61824,179.22218c0.0483,-0.03621 0.12075,-0.03621 0.19319,-0.03621c0.07244,0 0.14488,0.03621 0.19318,0.03621c0.07244,0 0.09659,0.03621 0.09659,0.03621c0,0 -0.04829,0.03621 -0.09659,0.03621c-0.04829,0.03621 -0.12074,0.03621 -0.19318,0.03621c-0.07245,0 -0.14489,0 -0.16904,0c-0.07244,-0.03621 -0.09659,-0.03621 -0.09659,-0.03621c0,0 0.02414,-0.03622 0.07244,-0.07243z" fill="#4f3726"/><path d="M186.52757,179.51189c-0.31392,0 -0.72444,0.03622 -1.15911,0.07243c-0.41052,0.03621 -0.84518,0.10864 -1.15911,0.18107c-0.16904,0.03622 -0.28978,0.03622 -0.38637,0.07243c-0.09659,0.03621 -0.14489,0.03621 -0.14489,0.03621c0,0 0.0483,-0.03622 0.14489,-0.07243c0.09659,-0.03622 0.21733,-0.10865 0.38637,-0.14486c0.14489,-0.03622 0.33807,-0.10865 0.53126,-0.14486c0.19318,-0.03621 0.41052,-0.07243 0.62785,-0.10864c0.43467,-0.03622 0.86934,0 1.18326,0.03621c0.31393,0.03621 0.53126,0.10864 0.53126,0.10864c0,0 -0.21733,0 -0.55541,-0.03621z" fill="#4f3726"/><path d="M181.26329,180.27241c0,0 -0.38637,0 -0.96593,0.03621c-0.57956,0 -1.3523,0 -2.10089,0c-0.38637,0 -0.74859,0 -1.11081,0c-0.33807,0.03621 -0.67614,0.03621 -0.96592,0.03621c-0.26563,0 -0.50711,0.03621 -0.67615,0.03621c-0.16904,0.03621 -0.26563,0.03621 -0.26563,0.03621c0,0 0.09659,-0.03621 0.31392,-0.03621c0.07245,-0.03622 0.16904,-0.03622 0.28978,-0.07243c0.12074,-0.03622 0.24148,-0.07243 0.38637,-0.07243c0.26562,-0.03622 0.6037,-0.07243 0.96592,-0.07243c0.33807,-0.03621 0.72445,-0.03621 1.11082,-0.03621c0.36222,0.03621 0.74859,0.03621 1.11081,0.03621c0.33807,0 0.67614,0.03621 0.96592,0.03621c0.55541,0.03622 0.94178,0.07243 0.94178,0.07243z" fill="#4f3726"/><path d="M191.52624,178.64274c0.67615,0.07243 1.44889,0.14486 2.26993,0.18107c0.41052,0 0.84519,-0.03622 1.27985,-0.07243c0.43467,-0.03621 0.89348,-0.03621 1.32815,-0.03621c1.78697,0 3.54978,0.10864 4.87793,0.18107c1.32815,0.10864 2.22163,0.18107 2.22163,0.18107c0,0 -0.89348,-0.03622 -2.22163,-0.07243c-0.652,-0.03622 -1.44889,-0.03622 -2.26993,-0.07243c-0.84519,0 -1.71452,-0.03621 -2.608,-0.03621c-0.45882,0 -0.89348,0 -1.32815,0.03621c-0.43467,0.03621 -0.86933,0.07242 -1.27985,0.03621c-0.84519,-0.03622 -1.61793,-0.10865 -2.26993,-0.21729c-0.652,-0.10865 -1.20741,-0.21729 -1.59378,-0.28972c-0.38637,-0.07243 -0.6037,-0.10864 -0.6037,-0.10864c0,0 0.86933,0.14486 2.19748,0.28972z" fill="#4f3726"/><path d="M201.37868,179.40323c0.45882,0 1.01422,0.03621 1.59378,0.03621c0.28977,0 0.57956,0 0.89348,0c0.28978,0 0.60371,0 0.91763,-0.03621c0.31393,0 0.62785,-0.03621 0.91763,-0.10864c0.28977,-0.07243 0.57955,-0.21729 0.86933,-0.28972c0.57956,-0.14485 1.13496,-0.14485 1.59378,-0.10864c0.48296,0 0.86933,0.07243 1.13496,0.10864c0.28978,0.03622 0.43467,0.07243 0.43467,0.07243c0,0 -0.6037,-0.10864 -1.54548,-0.10864c-0.45882,0 -0.99007,0 -1.56963,0.14486c-0.26563,0.03622 -0.5554,0.21729 -0.86933,0.28972c-0.31393,0.07243 -0.62785,0.10865 -0.94178,0.14486c-1.25571,0.07243 -2.48726,0 -3.42904,-0.07243c-0.91763,-0.10864 -1.54548,-0.18107 -1.54548,-0.18107c0,0 0.62785,0.03621 1.54548,0.10864z" fill="#4f3726"/><path d="M204.32477,178.7876c0,0 0.12074,-0.03622 0.26563,-0.07243c0.09659,-0.03622 0.19319,-0.03622 0.31393,-0.07243c0.0966,-0.03622 0.21734,-0.03622 0.33808,-0.07243c0.12074,0 0.24148,-0.03621 0.36222,-0.03621c0.12074,0 0.21734,0 0.31393,0c0.16904,0 0.28978,0.03621 0.28978,0.03621c0,0 -0.12074,0.03622 -0.28978,0.07243c-0.09659,0.03622 -0.19319,0.07243 -0.31393,0.07243c-0.0966,0 -0.21734,0.03621 -0.33808,0.03621c-0.0966,0 -0.21734,0.03621 -0.33808,0.03621c-0.12074,0 -0.21734,0 -0.31393,0c-0.16904,0 -0.28978,0 -0.28978,0z" fill="#4f3726"/><path d="M206.95691,179.62052c0,0 0.28978,-0.03621 0.72445,-0.10864c0.19319,0 0.45882,0 0.72445,0c0.26563,0 0.5554,0 0.84518,0c0.28978,0 0.57956,0 0.84519,0c0.26563,0 0.50711,0 0.72445,0c0.19319,0 0.38637,-0.03621 0.50711,-0.03621c0.12074,-0.03621 0.19318,-0.03621 0.19318,-0.03621c0,0 -0.07244,0.03622 -0.19318,0.07243c-0.12074,0.03621 -0.28977,0.07243 -0.50711,0.10864c-0.19319,0.03622 -0.45882,0.07243 -0.72445,0.07243c-0.26563,0 -0.55541,0.03621 -0.84519,0.03621c-0.28977,0 -0.57955,0 -0.84518,0c-0.26563,0 -0.50711,-0.03621 -0.72445,-0.03621c-0.43467,-0.03622 -0.72445,-0.07243 -0.72445,-0.07243z" fill="#4f3726"/><path d="M199.39854,179.98266c0,0 -0.26563,0 -0.6037,-0.03621c-0.19318,-0.03621 -0.41051,-0.03621 -0.62785,-0.03621c-0.24148,0 -0.48296,-0.03621 -0.72444,-0.03621c-0.24149,0 -0.50711,-0.03621 -0.72445,-0.03621c-0.24148,0 -0.43466,-0.03621 -0.62785,-0.03621c-0.36222,-0.03622 -0.6037,-0.07243 -0.6037,-0.07243c0,0 0.24148,-0.03621 0.6037,-0.03621c0.19318,0 0.41051,0 0.62785,0c0.24149,0 0.48297,0.03621 0.72445,0.03621c0.24148,0.03622 0.5071,0.03622 0.72444,0.07243c0.24148,0 0.43466,0.03622 0.62785,0.07243c0.36222,0.07243 0.6037,0.10864 0.6037,0.10864z" fill="#4f3726"/><path d="M195.82461,179.29458c0,0 -0.24148,0.07243 -0.6037,0.07243c-0.16904,0.03621 -0.38637,0.07243 -0.6037,0.10864c-0.21733,0.03622 -0.45882,0.03622 -0.7003,0.07243c-0.24149,0 -0.48296,0 -0.7003,0c-0.21733,0 -0.43466,0 -0.6037,-0.03621c-0.09659,0 -0.16904,0 -0.24148,-0.03621c-0.07244,0 -0.14488,0 -0.19318,-0.03621c-0.12074,-0.03622 -0.16904,-0.07243 -0.16904,-0.07243c0,0 0.07244,0 0.16904,0.03621c0.04829,0.03621 0.12074,0.03621 0.19318,0.03621c0.07244,0 0.14489,0 0.24148,0c0.16904,0 0.38637,0 0.6037,0c0.21734,0 0.45882,-0.03621 0.7003,-0.03621c0.24148,0 0.48296,0 0.7003,-0.03621c0.21733,0 0.43466,-0.03621 0.6037,-0.03621c0.36222,-0.03621 0.6037,-0.03621 0.6037,-0.03621z" fill="#4f3726"/><path d="M194.35158,179.80161c0.0483,-0.03621 0.14489,-0.03621 0.24148,-0.03621c0.07244,0 0.16904,0.03621 0.24148,0.03621c0.07244,0.03621 0.12074,0.03621 0.12074,0.03621c0,0 -0.0483,0.03621 -0.12074,0.03621c-0.04829,0.03621 -0.14488,0.03621 -0.24148,0.03621c-0.07244,0 -0.16904,-0.03621 -0.24148,-0.03621c-0.07244,-0.03621 -0.12074,-0.03621 -0.12074,-0.03621c0,0 0.0483,0 0.12074,-0.03621z" fill="#4f3726"/><path d="M194.23084,178.28058c0.07244,-0.03621 0.16904,-0.03621 0.26563,-0.03621c0.09659,0 0.19319,0 0.26563,0c0.07244,0.03621 0.12074,0.03621 0.12074,0.03621c0,0 -0.0483,0.03621 -0.12074,0.03621c-0.07245,0.03621 -0.16904,0.03621 -0.26563,0.03621c-0.09659,0 -0.19319,-0.03621 -0.26563,-0.03621c-0.07244,-0.03621 -0.12074,-0.03621 -0.12074,-0.03621c0,0 0.0483,0 0.12074,0z" fill="#4f3726"/><path d="M198.33602,179.33081c0.04829,-0.03621 0.14488,-0.03621 0.24148,-0.03621c0.07244,0 0.16904,0.03621 0.24148,0.03621c0.07244,0.03621 0.12074,0.03621 0.12074,0.03621c0,0 -0.0483,0.03621 -0.12074,0.03621c-0.0483,0.03621 -0.14489,0.03621 -0.24148,0.03621c-0.07244,0 -0.16904,-0.03621 -0.24148,-0.03621c-0.07244,-0.03621 -0.12074,-0.03621 -0.12074,-0.03621c0,0 0.0483,0 0.12074,-0.03621z" fill="#4f3726"/><path d="M205.91854,179.69296c0.0483,-0.03621 0.14489,-0.03621 0.24148,-0.03621c0.07244,0 0.16904,0.03621 0.24148,0.03621c0.07244,0.03621 0.12074,0.03621 0.12074,0.03621c0,0 -0.0483,0.03621 -0.12074,0.03621c-0.04829,0.03621 -0.14489,0.03621 -0.24148,0.03621c-0.07244,0 -0.16904,-0.03621 -0.24148,-0.03621c-0.07244,-0.03621 -0.12074,-0.03621 -0.12074,-0.03621c0,0 0.0483,0 0.12074,-0.03621z" fill="#4f3726"/><path d="M198.98803,178.28059c0,0 0.28977,0 0.72444,0c0.21733,0 0.48296,0.03621 0.74859,0.03621c0.26563,0 0.55541,0.03621 0.84519,0.03621c1.15911,0.10864 2.31822,0.18107 2.31822,0.18107c0,0 -0.28978,0.03621 -0.72445,0.03621c-0.21733,0 -0.48296,0 -0.74859,0c-0.26563,0 -0.55541,-0.03621 -0.84519,-0.03621c-0.28978,-0.03622 -0.57956,-0.03622 -0.84519,-0.07243c-0.28977,0 -0.53126,-0.03622 -0.74859,-0.07243c-0.43466,-0.03621 -0.72444,-0.10864 -0.72444,-0.10864z" fill="#4f3726"/><path d="M190.24639,179.36703c0,0 0.67615,0.14486 1.304,0.28972c0.33807,0.07243 0.67615,0.14486 0.91763,0.18107c0.14489,0 0.24149,0.03621 0.31393,0.03621c0.07244,0.03621 0.12074,0.03621 0.12074,0.03621c0,0 -0.16904,0.03621 -0.41052,0.03621c-0.12074,-0.03621 -0.26563,-0.03621 -0.43467,-0.03621c-0.14489,0 -0.31392,-0.03622 -0.48296,-0.07243c-0.33807,-0.07243 -0.67615,-0.18108 -0.91763,-0.28972c-0.26563,-0.07243 -0.41052,-0.18107 -0.41052,-0.18107z" fill="#4f3726"/><path d="M199.83322,179.72917c0,0 0.16903,0 0.43466,0c0.24148,0 0.55541,0 0.89348,0.03621c0.31393,0 0.652,0.03622 0.89348,0.07243c0.24148,0 0.41052,0.03621 0.41052,0.03621c0,0 -0.16904,0.03622 -0.41052,0.07243c-0.26563,0.03621 -0.57956,0.03621 -0.91763,0c-0.31393,0 -0.652,-0.07243 -0.89348,-0.10864c-0.24149,-0.07243 -0.41052,-0.10864 -0.41052,-0.10864z" fill="#4f3726"/><path d="M209.49246,178.60651c0.19319,0.03621 0.48296,0.07243 0.77274,0.10864c0.28977,0.03622 0.5554,0.10865 0.77274,0.14486c0.21733,0.03622 0.36222,0.07243 0.36222,0.07243c0,0 -0.14489,0 -0.36222,0c-0.21733,0 -0.50711,-0.03622 -0.79689,-0.07243c-0.28978,-0.03621 -0.55541,-0.10864 -0.77274,-0.18107c-0.21733,-0.03621 -0.36222,-0.10864 -0.36222,-0.10864c0,0 0.14489,0 0.38637,0.03621z" fill="#4f3726"/></g></g></g></g></svg>