<svg version="1.1" xmlns="http://www.w3.org/2000/svg" xmlns:xlink="http://www.w3.org/1999/xlink" width="649" height="360" viewBox="0,0,649,360"><g transform="translate(5.4,-0.2)"><g data-paper-data="{&quot;isPaintingLayer&quot;:true}" fill-rule="nonzero" stroke-width="1" stroke-linecap="butt" stroke-linejoin="miter" stroke-miterlimit="10" stroke-dasharray="" stroke-dashoffset="0" style="mix-blend-mode: normal"><path d="M-5.4,0.2h649v360h-649z" fill="#d0bdea" stroke="none"/><g stroke="none"><g fill="#ead6ff"><path d="M299.79126,336.38833c-11.062,-9.4 -38.84869,-27.9 -61.63114,-40.9c-67.42553,-38.7 -76.64386,-44.3 -104.03548,-63.4c-50.56914,-35.4 -71.903,-70.9 -71.903,-119c0,-23.5 2.10705,-32.5 10.79862,-46.4c14.74933,-23.5 36.34657,-40.9 64.00157,-51.6c19.62188,-7.6 29.23529,-10.9 62.02622,-11.1c34.23952,-0.1 41.4825,2.9 61.63114,11.3c24.49443,10.2 49.779,32.1 54.91493,47.6l3.16057,9.6l7.90143,-13.2c44.90645,-74.6 188.1857,-73.5 238.09639,1.9c15.80286,23.9 17.51483,74.9 3.55564,103.7c-18.30498,37.5 -52.67619,66.1 -132.08555,109.9c-52.14943,28.7 -111.14676,72.2 -115.22917,78.3c-4.74086,7.1 -0.26338,1.2 -21.20217,-16.7z"/></g><g fill="#f2e9ff"><path d="M302.82014,302.48833c-9.35002,-7.4 -32.79093,-21.8 -52.01774,-32.1c-57.02198,-30.3 -64.79172,-34.7 -87.96924,-49.7c-42.66772,-27.7 -60.841,-55.5 -60.70931,-93.2c0,-18.4 1.84367,-25.5 9.08664,-36.3c12.37891,-18.4 30.68388,-32.1 54.12479,-40.4c16.593,-5.9 24.75781,-8.6 52.41281,-8.7c28.97191,-0.1 35.02967,2.3 52.01774,8.8c20.67541,8 42.00926,25.1 46.48674,37.3l2.7655,7.5l6.71621,-10.3c37.92686,-58.4 158.95041,-57.5 201.09136,1.5c13.43243,18.7 14.88102,58.7 3.02888,81.3c-15.40779,29.4 -44.51138,51.8 -111.67353,86.1c-43.98462,22.5 -93.89531,56.6 -97.31926,61.4c-4.0824,5.6 -0.26338,0.9 -18.0416,-13.2z"/></g></g><path d="M530,1v0v0v0z" fill="none" stroke="#ffffff"/></g></g></svg>