<svg version="1.1" xmlns="http://www.w3.org/2000/svg" xmlns:xlink="http://www.w3.org/1999/xlink" width="48.31808" height="29.3" viewBox="0,0,48.31808,29.3"><g transform="translate(-215.84096,-165.35)"><g data-paper-data="{&quot;isPaintingLayer&quot;:true}" fill-rule="nonzero" stroke="none" stroke-width="1" stroke-linecap="butt" stroke-linejoin="miter" stroke-miterlimit="10" stroke-dasharray="" stroke-dashoffset="0" style="mix-blend-mode: normal"><g><g><path d="M233.43244,191.15c-6.8,0 -16.6,-1.8 -17.5,-9.2c-0.9,-7.4 5,-12.7 10.7,-15.4l10.9,-1.2c0,0 13.9,0.9 14.8,13.6c0.9,12.7 -15.1,12.2 -18.9,12.2z" fill="#ffeb17"/><path d="M225.94165,168.73115c-0.04791,-0.5502 2.94615,-1.26031 6.68742,-1.58608c3.74127,-0.32576 6.813,-0.14382 6.8609,0.40638c0.04791,0.5502 -2.94615,1.26031 -6.68742,1.58608c-3.74127,0.32576 -6.813,0.14382 -6.8609,-0.40638z" fill="#c6ab39"/><path d="M236.03244,191.25c0,0 2,-0.1 4.8,-0.6c1.4,-0.3 3.1,-0.7 4.8,-1.3c1.7,-0.6 3.4,-1.6 4.6,-3c0.6,-0.7 1.1,-1.5 1.4,-2.4c0.1,-0.4 0.2,-0.9 0.3,-1.4c0.1,-0.5 0.1,-0.9 0.2,-1.3c0.1,-0.9 0.1,-1.8 0,-2.6c-0.1,-0.8 -0.2,-1.6 -0.4,-2.3c-0.4,-1.4 -0.8,-2.5 -1.3,-3.3c-0.4,-0.7 -0.7,-1.1 -0.7,-1.1c0,0 0.3,0.4 0.8,1.1c0.5,0.7 1.1,1.8 1.5,3.2c0.2,0.7 0.4,1.5 0.5,2.3c0.1,0.4 0.1,0.9 0.1,1.3c0,0.4 0,0.9 -0.1,1.4c-0.1,0.5 -0.1,0.9 -0.2,1.4c-0.1,0.5 -0.2,0.9 -0.3,1.4c-0.3,1 -0.8,1.9 -1.4,2.6c-1.3,1.5 -3.2,2.5 -4.9,3.1c-1.7,0.6 -3.4,1 -4.9,1.2c-1.5,0.2 -2.7,0.3 -3.5,0.3c-0.8,0 -1.3,0 -1.3,0z" fill="#d8ba3d"/><path d="M227.93244,190.75c0,0 -0.9,-0.1 -2.2,-0.7c-0.6,-0.3 -1.4,-0.7 -2.1,-1.2c-0.4,-0.3 -0.7,-0.5 -1.1,-0.9c-0.3,-0.3 -0.7,-0.7 -0.9,-1.1c-0.1,-0.2 -0.3,-0.4 -0.4,-0.6l-0.3,-0.6c-0.3,-0.4 -0.4,-0.8 -0.5,-1.3c-0.2,-0.4 -0.2,-0.8 -0.3,-1.2c-0.1,-0.4 -0.1,-0.8 -0.1,-1.1c0,-0.4 -0.1,-0.7 0,-1c0,-0.3 0.1,-0.5 0.1,-0.7c0,-0.4 0.1,-0.6 0.1,-0.6c0,0 0,0.2 0,0.6c0,0.2 0,0.4 0,0.7c0,0.3 0.1,0.6 0.1,0.9c0,0.3 0.1,0.7 0.2,1.1c0.1,0.4 0.2,0.8 0.4,1.2c0.2,0.4 0.3,0.8 0.6,1.2l0.3,0.6c0.1,0.2 0.3,0.4 0.4,0.5c0.3,0.4 0.6,0.7 0.9,1c0.3,0.3 0.7,0.6 1,0.9c0.7,0.5 1.4,1 2,1.3c0.9,0.7 1.8,1 1.8,1z" fill="#d8ba3d"/><path d="M231.33244,190.45c0,0 -0.3,0 -0.7,-0.1c-0.2,-0.1 -0.5,-0.2 -0.8,-0.3c-0.3,-0.1 -0.6,-0.3 -1,-0.6c-0.2,-0.1 -0.3,-0.3 -0.5,-0.4c-0.2,-0.2 -0.3,-0.3 -0.5,-0.5c-0.2,-0.2 -0.3,-0.4 -0.4,-0.6c-0.2,-0.2 -0.3,-0.4 -0.4,-0.7c-0.1,-0.2 -0.2,-0.5 -0.3,-0.7c-0.1,-0.3 -0.2,-0.5 -0.3,-0.8c-0.2,-0.5 -0.3,-1.1 -0.4,-1.6c-0.1,-0.5 -0.1,-1.1 -0.1,-1.6c-0.1,-0.5 0,-1.1 0,-1.6c0,-0.5 0.1,-1 0.1,-1.5c0.1,-0.5 0.1,-0.9 0.2,-1.3c0.1,-0.4 0.2,-0.8 0.2,-1.1c0.1,-0.3 0.1,-0.6 0.2,-0.8c0.1,-0.5 0.2,-0.7 0.2,-0.7c0,0 -0.1,1.1 -0.4,2.7c0,0.4 -0.1,0.8 -0.1,1.3c-0.1,0.5 -0.1,0.9 -0.1,1.4c0,0.5 -0.1,1 0,1.5c0.1,0.5 0.1,1.1 0.2,1.6c0.1,0.5 0.1,1.1 0.3,1.5c0.1,0.2 0.2,0.5 0.2,0.7c0.1,0.2 0.2,0.5 0.3,0.7c0.1,0.2 0.2,0.4 0.4,0.6c0.1,0.2 0.2,0.4 0.4,0.6c0.1,0.2 0.3,0.3 0.4,0.5c0.1,0.2 0.3,0.3 0.5,0.4c0.3,0.3 0.6,0.5 0.9,0.6c0.3,0.2 0.5,0.3 0.8,0.4c0.5,0.4 0.7,0.4 0.7,0.4z" fill="#d8ba3d"/><path d="M239.83244,190.45c0,0 0.3,-0.1 0.8,-0.4c0.5,-0.3 1.2,-0.7 2,-1.3c0.4,-0.3 0.8,-0.6 1.2,-1c0.4,-0.4 0.8,-0.8 1.2,-1.3c0.2,-0.2 0.4,-0.5 0.6,-0.7c0.2,-0.2 0.4,-0.5 0.5,-0.8c0.2,-0.3 0.3,-0.6 0.5,-0.8l0.3,-0.9l0.2,-0.5l0.1,-0.5c0.1,-0.3 0.1,-0.6 0.2,-0.9c0.1,-0.6 0,-1.3 0.1,-1.9c-0.1,-0.6 -0.2,-1.2 -0.2,-1.8c-0.1,-0.6 -0.3,-1.1 -0.4,-1.5c-0.1,-0.2 -0.1,-0.5 -0.2,-0.7c-0.1,-0.2 -0.2,-0.4 -0.2,-0.6c-0.2,-0.4 -0.3,-0.7 -0.4,-1c-0.2,-0.5 -0.3,-0.9 -0.3,-0.9c0,0 0.2,0.3 0.4,0.8c0.1,0.3 0.3,0.6 0.5,0.9c0.1,0.2 0.2,0.4 0.3,0.6c0.1,0.2 0.2,0.4 0.2,0.7c0.2,0.5 0.4,1 0.5,1.6c0.1,0.6 0.2,1.2 0.3,1.8c0,0.6 0,1.3 0,2c-0.1,0.3 -0.1,0.7 -0.2,1l-0.1,0.5l-0.2,0.5l-0.4,1c-0.2,0.3 -0.3,0.6 -0.5,0.9c-0.2,0.3 -0.3,0.6 -0.6,0.8c-0.2,0.3 -0.4,0.5 -0.6,0.8c-0.4,0.5 -0.9,0.9 -1.3,1.2c-0.4,0.4 -0.9,0.7 -1.3,1c-0.9,0.5 -1.6,0.9 -2.2,1.1c-0.5,0.2 -0.8,0.3 -0.8,0.3z" fill="#d8ba3d"/><path d="M235.33244,190.75c0,0 0.3,-0.2 0.8,-0.6c0.5,-0.4 1.2,-1 1.8,-1.8c0.4,-0.4 0.7,-0.9 1,-1.4c0.3,-0.5 0.7,-1.1 0.9,-1.7c0.3,-0.6 0.5,-1.3 0.7,-1.9c0.2,-0.7 0.3,-1.4 0.4,-2.1c0,-0.7 0.1,-1.4 0,-2.1c-0.1,-0.7 -0.1,-1.4 -0.2,-2c-0.1,-0.7 -0.2,-1.3 -0.4,-1.9c-0.2,-0.6 -0.4,-1.1 -0.5,-1.7c-0.1,-0.5 -0.3,-1 -0.5,-1.4c-0.2,-0.4 -0.3,-0.8 -0.4,-1.1c-0.2,-0.6 -0.4,-0.9 -0.4,-0.9c0,0 0.2,0.3 0.5,0.9c0.1,0.3 0.3,0.6 0.5,1c0.2,0.4 0.4,0.8 0.6,1.4c0.2,0.5 0.4,1.1 0.6,1.7c0.2,0.6 0.3,1.2 0.5,1.9c0.2,0.7 0.2,1.4 0.3,2.1c0.1,0.7 0,1.5 0,2.2c-0.1,0.7 -0.2,1.5 -0.4,2.2c-0.2,0.7 -0.4,1.4 -0.8,2c-0.3,0.6 -0.7,1.2 -1,1.7c-0.4,0.5 -0.7,1 -1.1,1.4c-0.4,0.4 -0.7,0.7 -1.1,1c-0.3,0.3 -0.7,0.5 -0.9,0.7c-0.6,0.2 -0.9,0.4 -0.9,0.4z" fill="#d8ba3d"/><path d="M231.13244,171.15c0,0 -0.3,0.9 -0.7,2.3c-0.2,0.7 -0.4,1.5 -0.5,2.4c-0.2,0.9 -0.3,1.8 -0.3,2.7c0,0.5 0,0.9 0,1.4c0,0.5 0.1,0.9 0.1,1.3c0.1,0.4 0.2,0.8 0.3,1.2c0.1,0.4 0.2,0.7 0.4,1.1c0.2,0.3 0.3,0.6 0.4,0.9c0.1,0.3 0.3,0.4 0.4,0.6c0.2,0.3 0.4,0.5 0.4,0.5c0,0 -0.2,-0.2 -0.5,-0.5c-0.1,-0.2 -0.3,-0.3 -0.5,-0.6c-0.2,-0.2 -0.3,-0.5 -0.5,-0.8c-0.2,-0.3 -0.3,-0.7 -0.5,-1.1c-0.2,-0.4 -0.2,-0.8 -0.4,-1.3c-0.1,-0.4 -0.1,-0.9 -0.2,-1.4c0,-0.5 -0.1,-1 0,-1.4c0.1,-1 0.2,-1.9 0.4,-2.8c0.1,-0.4 0.2,-0.9 0.3,-1.3c0.1,-0.4 0.3,-0.8 0.4,-1.1c0.5,-1.3 1,-2.1 1,-2.1z" fill="#d8ba3d"/><path d="M224.43244,170.35c0,0 -0.4,0.3 -0.9,0.9c-0.3,0.3 -0.6,0.6 -0.8,1c-0.3,0.4 -0.6,0.8 -0.8,1.2c-0.3,0.4 -0.5,0.9 -0.7,1.3c-0.2,0.4 -0.4,0.9 -0.5,1.2c-0.1,0.4 -0.2,0.7 -0.3,0.9c-0.1,0.2 -0.1,0.3 -0.1,0.3c0,0 0,-0.1 0,-0.4c0,-0.2 0,-0.6 0.1,-1c0.1,-0.4 0.2,-0.8 0.4,-1.3c0.2,-0.5 0.4,-1 0.7,-1.4c0.3,-0.5 0.6,-0.9 0.9,-1.3c0.3,-0.4 0.7,-0.7 1,-0.9c0.5,-0.3 1,-0.5 1,-0.5z" fill="#d8ba3d"/><path d="M235.53244,173.05c0,0 0.3,0.9 0.7,2.2c0.2,0.7 0.3,1.5 0.4,2.3c0,0.4 0.1,0.9 0.1,1.3c0,0.5 0,0.9 0,1.4c0,0.5 -0.1,0.9 -0.1,1.4c0,0.5 -0.2,0.9 -0.2,1.3c-0.1,0.4 -0.3,0.8 -0.4,1.2c-0.2,0.4 -0.3,0.7 -0.5,1c-0.2,0.3 -0.4,0.6 -0.5,0.8c-0.1,0.2 -0.4,0.4 -0.5,0.5c-0.3,0.3 -0.5,0.4 -0.5,0.4c0,0 0.1,-0.2 0.4,-0.5c0.1,-0.2 0.3,-0.3 0.4,-0.6c0.1,-0.2 0.3,-0.5 0.4,-0.8c0.1,-0.3 0.3,-0.6 0.4,-1c0.1,-0.4 0.2,-0.8 0.3,-1.2c0.1,-0.4 0.2,-0.8 0.2,-1.3c0,-0.4 0.1,-0.9 0.1,-1.3c0,-0.9 0,-1.8 -0.1,-2.6c-0.1,-0.8 -0.1,-1.6 -0.3,-2.3c-0.1,-1.3 -0.3,-2.2 -0.3,-2.2z" fill="#d8ba3d"/></g><g><path d="M253.63244,194.55c-3.7,0 -8.9,-1 -9.4,-4.9c-0.5,-4 2.7,-6.9 5.7,-8.3l5.9,-0.6c0,0 7.5,0.5 8,7.3c0.5,6.9 -8.1,6.5 -10.2,6.5z" fill="#ffb32e"/><path d="M249.53264,182.56785c-0.04791,-0.5502 1.56351,-1.13992 3.5992,-1.31718c2.03569,-0.17725 3.72478,0.12508 3.77268,0.67528c0.04791,0.5502 -1.56351,1.13992 -3.5992,1.31718c-2.03569,0.17725 -3.72478,-0.12508 -3.77268,-0.67528z" fill="#b27839"/><path d="M255.13244,194.65c0,0 1.1,0 2.6,-0.3c0.4,-0.1 0.8,-0.2 1.3,-0.3c0.4,-0.1 0.9,-0.3 1.4,-0.4c0.5,-0.2 0.9,-0.4 1.4,-0.7c0.2,-0.1 0.4,-0.3 0.6,-0.5c0.2,-0.2 0.4,-0.4 0.5,-0.6c0.1,-0.2 0.3,-0.4 0.4,-0.6c0.1,-0.2 0.2,-0.5 0.3,-0.7c0.1,-0.5 0.2,-1 0.3,-1.5c0.1,-1 0,-1.9 -0.2,-2.7c-0.2,-0.8 -0.5,-1.4 -0.7,-1.8c-0.2,-0.4 -0.4,-0.6 -0.4,-0.6c0,0 0.2,0.2 0.4,0.6c0.2,0.4 0.6,1 0.8,1.8c0.2,0.8 0.4,1.7 0.3,2.7c0,0.5 -0.1,1 -0.2,1.5c-0.1,0.3 -0.2,0.5 -0.3,0.8c-0.1,0.2 -0.3,0.5 -0.4,0.7c-0.2,0.2 -0.4,0.4 -0.6,0.6c-0.2,0.2 -0.4,0.3 -0.7,0.5c-0.5,0.3 -0.9,0.5 -1.4,0.7c-0.5,0.2 -0.9,0.3 -1.4,0.4c-0.5,0.1 -0.9,0.2 -1.3,0.2c-1.7,0.2 -2.7,0.2 -2.7,0.2z" fill="#d8ba3d"/><path d="M250.63244,194.35c0,0 -0.5,-0.1 -1.2,-0.4c-0.3,-0.2 -0.7,-0.4 -1.1,-0.6c-0.4,-0.3 -0.8,-0.6 -1.1,-1c-0.2,-0.2 -0.3,-0.4 -0.4,-0.6c-0.1,-0.2 -0.2,-0.5 -0.3,-0.7c-0.1,-0.2 -0.1,-0.5 -0.2,-0.7c-0.1,-0.2 -0.1,-0.4 -0.1,-0.6c0,-0.2 0,-0.4 0,-0.5c0,-0.2 0,-0.3 0,-0.4c0,-0.2 0,-0.3 0,-0.3c0,0 0,0.1 0,0.3c0,0.1 0,0.2 0,0.4c0,0.2 0,0.3 0.1,0.5c0,0.2 0,0.4 0.1,0.6c0.1,0.2 0.1,0.4 0.2,0.6c0.1,0.2 0.2,0.4 0.3,0.6c0.1,0.2 0.2,0.4 0.4,0.6c0.3,0.4 0.6,0.7 1,1c0.4,0.3 0.7,0.5 1.1,0.7c0.8,0.4 1.2,0.5 1.2,0.5z" fill="#d88e45"/><path d="M252.53244,194.25c0,0 -0.1,0 -0.4,-0.1c-0.2,-0.1 -0.6,-0.2 -1,-0.5c-0.2,-0.1 -0.4,-0.3 -0.5,-0.5c-0.2,-0.2 -0.3,-0.4 -0.4,-0.7c-0.1,-0.2 -0.2,-0.5 -0.3,-0.8c-0.1,-0.3 -0.1,-0.6 -0.2,-0.9c-0.1,-0.3 0,-0.6 -0.1,-0.9c0,-0.3 0,-0.6 0,-0.9c0,-0.6 0.1,-1.1 0.2,-1.5c0.1,-0.4 0.2,-0.8 0.2,-1c0.1,-0.2 0.1,-0.4 0.1,-0.4c0,0 -0.1,0.6 -0.2,1.4c0,0.4 -0.1,0.9 -0.1,1.5c0,0.3 0,0.6 0,0.8c0,0.3 0,0.6 0.1,0.8c0.1,0.3 0.1,0.6 0.2,0.8c0.1,0.3 0.2,0.5 0.3,0.8c0.1,0.2 0.3,0.5 0.4,0.7c0.2,0.2 0.3,0.4 0.5,0.5c0.3,0.3 0.6,0.5 0.9,0.5c0.2,0.4 0.3,0.4 0.3,0.4z" fill="#d88e45"/><path d="M257.13244,194.25c0,0 0.7,-0.3 1.5,-0.9c0.4,-0.3 0.9,-0.7 1.3,-1.2c0.2,-0.3 0.4,-0.5 0.6,-0.8l0.3,-0.5l0.2,-0.5c0.2,-0.3 0.2,-0.7 0.2,-1c0,-0.3 0,-0.7 0,-1c0,-0.3 -0.1,-0.6 -0.1,-0.9c-0.1,-0.3 -0.2,-0.6 -0.2,-0.8c-0.1,-0.5 -0.3,-0.9 -0.4,-1.2c-0.1,-0.3 -0.2,-0.5 -0.2,-0.5c0,0 0.1,0.2 0.2,0.4c0.1,0.3 0.4,0.7 0.5,1.2c0.1,0.3 0.2,0.5 0.3,0.8c0.1,0.3 0.1,0.6 0.2,1c0,0.3 0,0.7 0,1.1c-0.1,0.4 -0.1,0.7 -0.2,1.1l-0.2,0.5l-0.3,0.5c-0.2,0.3 -0.4,0.6 -0.6,0.9c-0.5,0.5 -1,0.9 -1.4,1.2c-1,0.4 -1.7,0.6 -1.7,0.6z" fill="#d88e45"/><path d="M254.73244,194.35c0,0 0.7,-0.4 1.4,-1.3c0.4,-0.4 0.8,-1 1,-1.7c0.2,-0.3 0.3,-0.7 0.4,-1c0.1,-0.4 0.1,-0.7 0.2,-1.1c0,-0.4 0.1,-0.8 0,-1.1c0,-0.4 0,-0.8 -0.1,-1.1c-0.1,-0.4 -0.1,-0.7 -0.2,-1c-0.1,-0.3 -0.2,-0.6 -0.3,-0.9c-0.2,-0.6 -0.4,-1 -0.5,-1.3c-0.1,-0.3 -0.2,-0.5 -0.2,-0.5c0,0 0.1,0.2 0.2,0.5c0.1,0.3 0.4,0.7 0.6,1.3c0.1,0.3 0.2,0.6 0.3,0.9c0.1,0.3 0.2,0.7 0.3,1c0.1,0.4 0.1,0.7 0.1,1.1c0.1,0.4 0,0.8 0,1.2c-0.1,0.4 -0.1,0.8 -0.2,1.2c-0.1,0.4 -0.2,0.7 -0.4,1.1c-0.1,0.3 -0.4,0.6 -0.5,0.9c-0.2,0.3 -0.4,0.5 -0.6,0.7c-0.4,0.4 -0.8,0.7 -1.1,0.9c-0.3,0.1 -0.4,0.2 -0.4,0.2z" fill="#d88e45"/><path d="M252.43244,183.85c0,0 -0.2,0.5 -0.4,1.2c-0.1,0.4 -0.2,0.8 -0.3,1.3c-0.1,0.5 -0.2,1 -0.2,1.5c0,0.5 0,1 0.1,1.5c0.1,0.2 0.1,0.5 0.2,0.7c0.1,0.2 0.1,0.4 0.2,0.6c0.2,0.3 0.3,0.6 0.5,0.8c0.1,0.2 0.2,0.3 0.2,0.3c0,0 -0.1,-0.1 -0.2,-0.3c-0.2,-0.2 -0.4,-0.4 -0.6,-0.8c-0.2,-0.3 -0.4,-0.8 -0.5,-1.3c-0.1,-0.5 -0.1,-1 -0.1,-1.5c0.1,-1 0.3,-2.1 0.6,-2.8c0.2,-0.8 0.5,-1.2 0.5,-1.2z" fill="#d88e45"/><path d="M248.83244,183.45c0,0 -0.2,0.2 -0.5,0.5c-0.3,0.3 -0.6,0.7 -0.9,1.2c-0.3,0.5 -0.5,1 -0.6,1.4c-0.1,0.4 -0.2,0.7 -0.2,0.7c0,0 0,-0.1 0,-0.2c0,-0.1 0,-0.3 0.1,-0.5c0.1,-0.4 0.3,-1 0.6,-1.5c0.3,-0.5 0.7,-0.9 1,-1.2c0.2,-0.3 0.5,-0.4 0.5,-0.4z" fill="#d88e45"/><path d="M254.83244,184.85c0,0 0.2,0.5 0.4,1.2c0.2,0.7 0.3,1.7 0.3,2.7c0,0.2 0,0.5 -0.1,0.7c0,0.2 -0.1,0.5 -0.1,0.7c-0.1,0.5 -0.3,0.9 -0.5,1.2c-0.1,0.2 -0.2,0.3 -0.3,0.4c-0.1,0.1 -0.2,0.2 -0.3,0.3c-0.2,0.1 -0.2,0.2 -0.2,0.2c0,0 0.1,-0.1 0.2,-0.3c0.1,-0.1 0.2,-0.2 0.2,-0.3c0.1,-0.1 0.2,-0.3 0.2,-0.4c0.1,-0.2 0.1,-0.3 0.2,-0.5c0,-0.2 0.1,-0.4 0.2,-0.6c0,-0.2 0.1,-0.5 0.1,-0.7c0,-0.2 0,-0.5 0,-0.7c0,-1 -0.1,-1.9 -0.2,-2.7c0,-0.7 -0.1,-1.2 -0.1,-1.2z" fill="#d88e45"/></g></g></g></g></svg>