<svg version="1.1" xmlns="http://www.w3.org/2000/svg" xmlns:xlink="http://www.w3.org/1999/xlink" width="85.82527" height="130.67024" viewBox="0,0,85.82527,130.67024"><g transform="translate(-197.33737,-113.91488)"><g data-paper-data="{&quot;isPaintingLayer&quot;:true}" stroke-miterlimit="10" stroke-dasharray="" stroke-dashoffset="0" style="mix-blend-mode: normal"><g><g><g><path d="M265.56185,232.61424c-3.05844,3.97597 1.34571,10.09285 1.34571,10.09285c-4.83233,4.58766 -11.19389,-0.67286 -11.19389,-0.67286c4.28181,-2.32441 5.93337,-14.68051 5.93337,-14.68051" fill="#f06aae" fill-rule="nonzero" stroke="none" stroke-width="1" stroke-linecap="butt" stroke-linejoin="miter"/><g fill="none" fill-rule="evenodd" stroke="#f06aae" stroke-linecap="round" stroke-linejoin="round"><path d="M256.01952,123.12214l-5.44402,-0.36701" stroke-width="2"/><g><path d="M207.45151,120.18604l4.34298,-1.83506" stroke-width="2"/><g><path d="M264.70548,123.42799l2.14091,-5.07701" stroke-width="2"/><g><path d="M261.40237,241.60605c0,0 3.24194,-20.30803 -3.24194,-27.52595c-6.54506,-7.27908 -11.25505,-16.69907 -12.29492,-21.77608c-1.10104,-5.07701 -18.83998,-9.787 -19.57401,-15.23102c-0.73403,-5.44402 -7.95194,-1.83506 -9.05298,-5.07701c-1.10104,-3.24194 6.54506,-12.66194 3.24194,-21.04206c-3.30311,-8.38012 -0.36701,-16.69907 -0.36701,-16.69907" stroke-width="5"/><path d="M255.16316,152.42198c-2.14091,9.787 1.46805,9.787 2.20208,16.69907c0.67286,6.91207 -6.91207,10.15402 2.87493,19.57401c9.787,9.41999 -4.71,22.08193 -4.71,22.08193" stroke-width="5"/><path d="M274.92067,128.93318c3.24194,6.91207 -6.54506,9.41999 -6.54506,24.65101c0,15.23102 10.52103,18.10596 10.52103,18.10596c0.67286,17.4331 -7.27908,20.67504 -7.27908,20.67504c-1.10104,9.05298 5.44402,11.25505 4.71,15.96505c-0.73403,4.71 -8.38012,3.97597 -6.54506,12.29492c1.77389,8.31895 -7.27908,13.02895 -7.27908,13.02895" stroke-width="5"/><path d="M232.40837,184.7191c0,0 -3.24194,2.87493 -10.15402,2.87493c-6.91207,0 -7.95194,-7.58493 -12.29492,-7.27908c-4.34298,0.36701 -7.95194,-3.97597 -7.58493,-11.25505" stroke-width="5"/><path d="M249.47446,203.19207c0,0 -11.62207,8.68597 -15.23102,2.50792c-3.60896,-6.17805 -9.787,-5.44402 -14.497,-2.87493c-4.71,2.50792 -6.91207,-6.91207 -7.58493,-8.31895c0,0 -7.58493,0.73403 -10.15402,-5.81103" stroke-width="3"/><path d="M276.63339,148.44601c3.67013,3.97597 1.83506,9.05298 1.83506,9.05298c5.81103,5.81103 0.36701,14.12999 0.36701,14.12999" stroke-width="3"/><path d="M269.41548,144.10303c0,0 -5.07701,-2.50792 -5.81103,-8.31895c-0.73403,-5.81103 2.87493,-11.25505 -1.10104,-15.59804" stroke-width="3"/><path d="M233.1424,129.30019c0.73403,5.44402 -3.60896,8.31895 -3.60896,8.31895c0,0 0.67286,8.68597 0,12.66194c-0.67286,3.97597 -7.95194,5.07701 -7.95194,5.07701" stroke-width="3"/><path d="M229.53344,137.61914c0,0 -2.50792,-1.83506 -2.50792,-5.07701" stroke-width="3"/><path d="M219.37942,143.73602c0,0 -5.81103,0 -9.41999,-6.54506c0,0 4.71,-7.95194 -0.36701,-11.62207c-5.07701,-3.60896 -1.46805,-10.15402 -1.46805,-10.15402" stroke-width="3"/><path d="M211.06047,129.60603c0,0 -3.60896,0.73403 -6.91207,-0.36701" stroke-width="3"/><path d="M202.74152,153.52302c1.03987,8.38012 7.58493,1.46805 7.95194,11.98908c0.36701,10.52103 -6.91207,9.787 -6.91207,9.787" stroke-width="3"/><path d="M211.7945,149.54705c2.50792,5.07701 -2.20208,10.15402 -2.20208,10.15402" stroke-width="3"/><path d="M237.48538,149.8529c0.36701,10.15402 5.44402,6.48389 9.05298,13.76297c3.60896,7.27908 -3.97597,11.62207 -3.97597,11.62207c5.44402,6.91207 -1.10104,11.62207 -1.10104,11.62207" stroke-width="3"/><path d="M263.23743,128.505c0,0 -7.95194,-1.83506 -7.58493,-11.98908" stroke-width="3"/><path d="M242.56239,175.29911c0,0 -6.54506,-2.20208 -5.81103,-10.52103" stroke-width="3"/><path d="M248.00641,150.64809c2.56909,9.41999 -2.87493,10.52103 -2.87493,10.52103" stroke-width="3"/><path d="M266.54055,165.14509c2.87493,6.91207 -1.83506,9.41999 -1.83506,9.41999c0,7.58493 -8.68597,7.95194 -8.68597,7.95194" stroke-width="3"/><path d="M255.65251,160.06808l4.71,-3.60896" stroke-width="3"/><path d="M228.4324,202.09103c0,0 2.20208,9.41999 -3.97597,10.88804c-6.17805,1.46805 -14.497,-5.81103 -14.497,-5.81103c0,0 -4.34298,4.71 -10.15402,3.24194" stroke-width="3"/><path d="M279.20248,217.68906c-1.83506,4.34298 -9.41999,2.87493 -9.41999,2.87493" stroke-width="3"/><path d="M269.78249,181.11014c2.56909,2.9361 1.46805,10.88804 1.46805,10.88804" stroke-width="3"/><path d="M261.40237,200.31713c0,0 -5.81103,-0.36701 -6.54506,-8.68597" stroke-width="3"/><path d="M281.40456,123.48916c1.77389,12.29492 -6.17805,12.66194 -6.17805,12.66194" stroke-width="3"/><path d="M235.71149,141.2281c0,2.87493 -5.81103,4.34298 -5.81103,4.34298" stroke-width="2"/><path d="M233.38707,133.76551l3.36428,-1.59039" stroke-width="2"/><path d="M209.95943,137.25213c0,0 -11.25505,1.46805 -11.62207,-9.05298" stroke-width="2"/><path d="M225.55747,164.04405l-5.81103,1.46805" stroke-width="2"/><path d="M199.07139,180.37611l6.17805,-0.73403" stroke-width="2"/><path d="M219.37942,181.11014l2.87493,6.48389" stroke-width="2"/><path d="M220.11345,160.80211l-3.24194,-3.67013" stroke-width="2"/><path d="M220.48046,151.0151l3.24194,-6.54506" stroke-width="2"/><path d="M236.44551,179.64209l0.67286,5.81103" stroke-width="2"/><path d="M202.00749,205.39414l2.87493,4.34298" stroke-width="2"/><path d="M207.0845,193.03805v-6.17805" stroke-width="2"/><path d="M208.12437,201.357l5.81103,-0.67286" stroke-width="2"/><path d="M219.37942,212.97907l-4.34298,3.60896" stroke-width="2"/><path d="M199.80542,198.48207c1.83506,0 10.15402,8.68597 10.15402,8.68597" stroke-width="2"/><path d="M227.69838,210.77699l1.83506,4.71" stroke-width="2"/><path d="M243.66343,206.43401l-3.60896,-1.77389" stroke-width="2"/><path d="M224.82345,201.357l-3.97597,-3.97597" stroke-width="2"/><path d="M256.32536,220.93101l4.71,3.97597" stroke-width="2"/><path d="M248.37342,185.08611l-2.50792,7.21792" stroke-width="2"/><path d="M255.65251,171.99599l-3.67013,-6.11688" stroke-width="2"/><path d="M237.85239,170.95612l2.9361,-4.71" stroke-width="2"/><path d="M241.15551,158.23302l0.67286,-6.8509" stroke-width="2"/><path d="M264.33847,139.02602l-3.97597,-3.24194" stroke-width="2"/><path d="M269.41548,160.06808l2.87493,-3.97597" stroke-width="2"/><path d="M248.74043,210.40998l3.60896,-2.14091" stroke-width="2"/><path d="M259.99549,206.43401l4.71,-0.73403" stroke-width="2"/><path d="M276.26638,208.26907l2.56909,-7.95194" stroke-width="2"/><path d="M277.00041,183.25105l-3.24194,-5.81103" stroke-width="2"/><path d="M268.31444,198.48207l4.71,3.60896" stroke-width="2"/><path d="M268.68145,210.10414l1.46805,5.74986" stroke-width="2"/><path d="M262.3199,169.97742l2.38558,4.58766" stroke-width="2"/><path d="M255.16316,178.60222l-4.46532,-1.46805" stroke-width="2"/><path d="M276.02171,140.12706l-4.46532,0.61169" stroke-width="2"/><path d="M276.93924,123.73383l3.54779,6.8509" stroke-width="2"/><path d="M278.46846,157.49899l-4.83233,-5.44402" stroke-width="2"/><path d="M274.24781,168.4482l0.55052,-6.54506" stroke-width="2"/><path d="M275.71586,189.91844l4.46532,-1.46805" stroke-width="2"/></g></g></g></g></g><path d="M264.46081,236.59021c0,0 0,-0.12234 -0.06117,-0.30584c0,-0.18351 -0.06117,-0.48935 -0.06117,-0.91753c0,-0.36701 0.06117,-0.79519 0.24468,-1.22338c0.12234,-0.24468 0.24468,-0.42818 0.48935,-0.61169c0.24468,-0.18351 0.42818,-0.24468 0.61169,-0.36701c0.36701,-0.24468 0.73403,-0.55052 1.10104,-0.85636c0.30584,-0.30584 0.67286,-0.61169 0.91753,-0.85636c0.55052,-0.48935 0.85636,-0.85636 0.85636,-0.85636c0,0 -0.24468,0.42818 -0.73403,0.9787c-0.48935,0.55052 -1.10104,1.28454 -1.9574,1.83506c-0.18351,0.12234 -0.48935,0.24468 -0.61169,0.36701c-0.18351,0.12234 -0.30584,0.30584 -0.42818,0.48935c-0.18351,0.36701 -0.30584,0.79519 -0.30584,1.16221c-0.06117,0.67286 -0.06117,1.16221 -0.06117,1.16221z" fill="#c9307f" fill-rule="nonzero" stroke="none" stroke-width="1" stroke-linecap="butt" stroke-linejoin="miter"/><path d="M263.78795,230.04516c0,0 0,-0.24468 0,-0.73403c0,-0.48935 0,-1.16221 -0.06117,-1.9574c-0.06117,-0.79519 -0.12234,-1.77389 -0.24468,-2.81376c-0.06117,-0.48935 -0.12234,-1.03987 -0.24468,-1.59039c-0.12234,-0.55052 -0.18351,-1.03987 -0.30584,-1.59039c-0.12234,-0.55052 -0.24468,-1.03987 -0.36701,-1.59039c-0.18351,-0.48935 -0.30584,-1.03987 -0.48935,-1.52922c-0.18351,-0.48935 -0.30584,-0.9787 -0.55052,-1.34571c-0.18351,-0.42818 -0.36701,-0.85636 -0.55052,-1.22338c-0.18351,-0.36701 -0.36701,-0.67286 -0.55052,-0.9787c-0.18351,-0.30584 -0.30584,-0.55052 -0.48935,-0.73403c-0.24468,-0.42818 -0.42818,-0.61169 -0.42818,-0.61169c0,0 0.18351,0.24468 0.42818,0.61169c0.12234,0.18351 0.30584,0.42818 0.48935,0.67286c0.18351,0.30584 0.36701,0.61169 0.61169,0.9787c0.24468,0.36701 0.36701,0.79519 0.61169,1.16221c0.24468,0.42818 0.36701,0.91753 0.55052,1.34571c0.18351,0.48935 0.30584,0.9787 0.48935,1.52922c0.18351,0.48935 0.24468,1.03987 0.42818,1.59039c0.12234,0.55052 0.18351,1.10104 0.30584,1.59039c0.06117,0.55052 0.18351,1.03987 0.18351,1.59039c0.12234,1.03987 0.12234,2.01857 0.12234,2.81376c0.18351,1.71273 0.06117,2.81376 0.06117,2.81376z" fill="#c9307f" fill-rule="nonzero" stroke="none" stroke-width="1" stroke-linecap="butt" stroke-linejoin="miter"/><path d="M271.06704,219.15711c0,0 -0.06117,-0.12234 -0.12234,-0.36701c0,-0.12234 -0.06117,-0.30584 -0.06117,-0.42818c0,-0.18351 0,-0.36701 0,-0.61169c0,-0.24468 0.06117,-0.42818 0.12234,-0.73403c0.06117,-0.24468 0.18351,-0.48935 0.30584,-0.73403c0.12234,-0.24468 0.24468,-0.48935 0.42818,-0.73403c0.18351,-0.24468 0.30584,-0.48935 0.55052,-0.67286c0.18351,-0.24468 0.42818,-0.42818 0.61169,-0.61169c0.18351,-0.18351 0.42818,-0.36701 0.67286,-0.55052c0.42818,-0.30584 0.91753,-0.55052 1.22338,-0.79519c0.36701,-0.24468 0.67286,-0.42818 0.85636,-0.61169c0.18351,-0.18351 0.30584,-0.24468 0.30584,-0.24468c0,0 -0.36701,0.42818 -1.03987,0.9787c-0.36701,0.24468 -0.73403,0.55052 -1.16221,0.85636c-0.24468,0.18351 -0.42818,0.30584 -0.61169,0.48935c-0.18351,0.18351 -0.36701,0.42818 -0.55052,0.61169c-0.18351,0.24468 -0.36701,0.42818 -0.48935,0.67286c-0.18351,0.24468 -0.30584,0.48935 -0.42818,0.67286c-0.12234,0.24468 -0.24468,0.48935 -0.30584,0.67286c-0.06117,0.24468 -0.12234,0.42818 -0.18351,0.67286c-0.06117,0.42818 -0.06117,0.79519 -0.06117,1.03987c-0.06117,0.30584 -0.06117,0.42818 -0.06117,0.42818z" fill="#c9307f" fill-rule="nonzero" stroke="none" stroke-width="1" stroke-linecap="butt" stroke-linejoin="miter"/><path d="M281.34339,168.20353c-0.24468,0.91753 -0.61169,1.89623 -0.91753,2.81376v-0.06117c0.12234,0.73403 0.12234,1.52922 0.18351,2.26324c0.06117,0.73403 0,1.52922 0,2.26324c0,0.73403 -0.12234,1.52922 -0.24468,2.26324c-0.06117,0.36701 -0.12234,0.73403 -0.24468,1.10104c-0.06117,0.36701 -0.18351,0.73403 -0.30584,1.10104c0.06117,-0.36701 0.18351,-0.73403 0.18351,-1.10104c0.06117,-0.36701 0.12234,-0.73403 0.12234,-1.10104c0,-0.36701 0.06117,-0.73403 0.06117,-1.10104c0,-0.36701 0.06117,-0.73403 0.06117,-1.10104c0,-0.73403 0,-1.52922 0,-2.26324c0,-0.73403 -0.06117,-1.52922 -0.12234,-2.26324v-0.06117c0.48935,-0.91753 0.85636,-1.83506 1.22338,-2.75259z" fill="#c9307f" fill-rule="nonzero" stroke="none" stroke-width="1" stroke-linecap="butt" stroke-linejoin="miter"/><path d="M238.76993,188.26688c0,0 0.79519,0.36701 2.01857,0.9787c0.55052,0.30584 1.28454,0.73403 1.9574,1.22338c0.36701,0.24468 0.67286,0.48935 1.03987,0.79519c0.30584,0.30584 0.67286,0.61169 0.85636,1.10104c0.06117,0.12234 0.06117,0.24468 0.12234,0.36701l0.06117,0.30584c0,0.24468 0.06117,0.42818 0.12234,0.67286c0.06117,0.42818 0.18351,0.85636 0.30584,1.22338c0.24468,0.79519 0.42818,1.52922 0.67286,2.20208c0.42818,1.28454 0.73403,2.07974 0.73403,2.07974c0,0 -0.42818,-0.79519 -0.91753,-2.01857c-0.24468,-0.61169 -0.55052,-1.34571 -0.73403,-2.14091c-0.12234,-0.42818 -0.24468,-0.79519 -0.30584,-1.28454c-0.06117,-0.24468 -0.12234,-0.42818 -0.12234,-0.67286l-0.06117,-0.30584c0,-0.12234 -0.06117,-0.18351 -0.06117,-0.30584c-0.18351,-0.36701 -0.48935,-0.67286 -0.79519,-0.9787c-0.30584,-0.30584 -0.61169,-0.55052 -0.9787,-0.79519c-0.67286,-0.48935 -1.28454,-0.91753 -1.89623,-1.28454c-1.22338,-0.73403 -2.01857,-1.16221 -2.01857,-1.16221z" fill="#c9307f" fill-rule="nonzero" stroke="none" stroke-width="1" stroke-linecap="butt" stroke-linejoin="miter"/><path d="M233.81525,206.67869c0,0 0.12234,0.24468 0.48935,0.55052c0.06117,0.06117 0.18351,0.18351 0.30584,0.24468c0.12234,0.06117 0.24468,0.18351 0.36701,0.24468c0.30584,0.18351 0.61169,0.36701 0.9787,0.48935c0.36701,0.18351 0.79519,0.24468 1.22338,0.36701c0.42818,0.06117 0.91753,0.12234 1.40688,0.12234c0.48935,0 0.9787,-0.06117 1.52922,-0.12234c0.48935,-0.06117 1.03987,-0.24468 1.52922,-0.36701c0.48935,-0.12234 1.03987,-0.36701 1.52922,-0.48935c0.48935,-0.18351 0.9787,-0.42818 1.40688,-0.61169c0.48935,-0.18351 0.91753,-0.42818 1.28454,-0.61169c0.42818,-0.24468 0.79519,-0.42818 1.16221,-0.61169c1.40688,-0.85636 2.32441,-1.40688 2.32441,-1.40688c0,0 -0.24468,0.18351 -0.61169,0.42818c-0.36701,0.24468 -0.91753,0.67286 -1.59039,1.10104c-0.36701,0.18351 -0.73403,0.42818 -1.10104,0.67286c-0.42818,0.24468 -0.79519,0.48935 -1.28454,0.67286c-0.48935,0.18351 -0.91753,0.42818 -1.40688,0.61169c-0.48935,0.18351 -0.9787,0.36701 -1.52922,0.55052c-0.55052,0.12234 -1.03987,0.24468 -1.59039,0.36701c-0.55052,0.06117 -1.03987,0.12234 -1.59039,0.12234c-0.48935,0 -0.9787,-0.06117 -1.46805,-0.12234c-0.42818,-0.12234 -0.85636,-0.24468 -1.22338,-0.42818c-0.36701,-0.18351 -0.67286,-0.36701 -0.9787,-0.55052c-0.12234,-0.12234 -0.24468,-0.18351 -0.36701,-0.30584c-0.12234,-0.12234 -0.18351,-0.18351 -0.24468,-0.30584c-0.42818,-0.36701 -0.55052,-0.61169 -0.55052,-0.61169z" fill="#c9307f" fill-rule="nonzero" stroke="none" stroke-width="1" stroke-linecap="butt" stroke-linejoin="miter"/><path d="M220.96981,214.14128c0,0 0.18351,0 0.55052,0c0.18351,0 0.36701,0 0.61169,0c0.24468,0 0.48935,-0.06117 0.79519,-0.06117c0.30584,-0.06117 0.61169,-0.06117 0.91753,-0.12234c0.18351,-0.06117 0.30584,-0.06117 0.48935,-0.12234c0.18351,-0.06117 0.36701,-0.12234 0.48935,-0.12234c0.36701,-0.06117 0.67286,-0.24468 1.03987,-0.36701c0.18351,-0.06117 0.30584,-0.18351 0.48935,-0.30584l0.24468,-0.12234l0.24468,-0.18351l0.48935,-0.36701c0.12234,-0.12234 0.24468,-0.24468 0.42818,-0.42818c0.30584,-0.24468 0.48935,-0.55052 0.67286,-0.85636l0.18351,-0.24468l0.12234,-0.24468c0.06117,-0.18351 0.18351,-0.30584 0.24468,-0.42818c0.18351,-0.30584 0.24468,-0.61169 0.30584,-0.85636c0.06117,-0.30584 0.18351,-0.55052 0.18351,-0.79519c0.06117,-0.24468 0.06117,-0.42818 0.12234,-0.61169c0.06117,-0.36701 0.12234,-0.55052 0.12234,-0.55052c0,0 0,0.18351 -0.06117,0.55052c0,0.18351 0,0.36701 -0.06117,0.61169c0,0.24468 -0.06117,0.48935 -0.18351,0.79519c-0.06117,0.30584 -0.12234,0.61169 -0.30584,0.91753c-0.06117,0.18351 -0.12234,0.30584 -0.18351,0.48935l-0.12234,0.24468l-0.18351,0.24468c-0.24468,0.30584 -0.42818,0.67286 -0.73403,0.91753c-0.12234,0.12234 -0.24468,0.30584 -0.42818,0.42818l-0.48935,0.36701l-0.24468,0.18351l-0.24468,0.12234c-0.18351,0.12234 -0.36701,0.18351 -0.55052,0.30584c-0.36701,0.12234 -0.73403,0.30584 -1.10104,0.36701c-0.18351,0.06117 -0.36701,0.12234 -0.55052,0.12234c-0.18351,0 -0.36701,0.06117 -0.55052,0.06117c-0.30584,0.06117 -0.67286,0.06117 -0.9787,0.12234c-0.9787,0.06117 -1.77389,-0.06117 -1.77389,-0.06117z" fill="#c9307f" fill-rule="nonzero" stroke="none" stroke-width="1" stroke-linecap="butt" stroke-linejoin="miter"/><path d="M222.5602,189.06208c0,0 0.73403,0 1.83506,-0.12234c0.55052,-0.06117 1.16221,-0.12234 1.83506,-0.24468c0.67286,-0.12234 1.40688,-0.30584 2.07974,-0.48935c0.36701,-0.12234 0.73403,-0.18351 1.03987,-0.30584c0.36701,-0.12234 0.67286,-0.24468 0.9787,-0.36701c0.30584,-0.12234 0.61169,-0.24468 0.91753,-0.42818c0.24468,-0.12234 0.55052,-0.24468 0.79519,-0.42818c0.24468,-0.12234 0.42818,-0.30584 0.61169,-0.42818c0.18351,-0.12234 0.30584,-0.24468 0.48935,-0.36701c0.24468,-0.18351 0.42818,-0.30584 0.42818,-0.30584c0,0 -0.12234,0.12234 -0.36701,0.36701c-0.12234,0.12234 -0.24468,0.24468 -0.42818,0.36701c-0.18351,0.12234 -0.36701,0.30584 -0.61169,0.42818c-0.24468,0.18351 -0.48935,0.30584 -0.73403,0.48935c-0.24468,0.18351 -0.55052,0.30584 -0.91753,0.48935c-0.30584,0.18351 -0.67286,0.30584 -0.9787,0.42818c-0.36701,0.12234 -0.67286,0.24468 -1.03987,0.36701c-0.73403,0.18351 -1.46805,0.36701 -2.14091,0.42818c-0.67286,0.12234 -1.34571,0.12234 -1.89623,0.18351c-1.16221,0.06117 -1.89623,-0.06117 -1.89623,-0.06117z" fill="#c9307f" fill-rule="nonzero" stroke="none" stroke-width="1" stroke-linecap="butt" stroke-linejoin="miter"/><path d="M220.96981,175.29911c0,0 0.18351,-0.06117 0.61169,-0.18351c0.18351,-0.06117 0.42818,-0.06117 0.73403,-0.06117c0.30584,0 0.61169,0.06117 0.91753,0.18351c0.30584,0.12234 0.67286,0.30584 0.9787,0.61169c0.30584,0.30584 0.48935,0.67286 0.61169,1.10104c0.12234,0.42818 0.24468,0.79519 0.42818,1.22338c0.18351,0.42818 0.36701,0.79519 0.55052,1.16221c0.91753,1.52922 2.38558,2.63026 3.48662,3.36428c0.55052,0.36701 1.03987,0.67286 1.40688,0.85636c0.36701,0.18351 0.55052,0.30584 0.55052,0.30584c0,0 -0.18351,-0.12234 -0.55052,-0.24468c-0.36701,-0.18351 -0.85636,-0.42818 -1.40688,-0.79519c-1.16221,-0.67286 -2.63026,-1.77389 -3.60896,-3.30311c-0.48935,-0.73403 -0.79519,-1.65156 -1.03987,-2.44675c-0.12234,-0.36701 -0.30584,-0.73403 -0.55052,-0.9787c-0.24468,-0.24468 -0.55052,-0.42818 -0.85636,-0.55052c-0.61169,-0.24468 -1.16221,-0.24468 -1.52922,-0.24468c-0.48935,-0.06117 -0.73403,0 -0.73403,0z" fill="#c9307f" fill-rule="nonzero" stroke="none" stroke-width="1" stroke-linecap="butt" stroke-linejoin="miter"/><path d="M221.5815,162.69834c0,0 0.24468,-0.67286 0.48935,-1.65156c0.12234,-0.48935 0.24468,-1.10104 0.36701,-1.71273c0.12234,-0.61169 0.18351,-1.34571 0.24468,-2.01857c0.06117,-0.36701 0.06117,-0.67286 0.06117,-1.03987c0,-0.36701 0,-0.67286 0,-0.9787c0,-0.30584 -0.06117,-0.61169 -0.06117,-0.91753c0,-0.30584 -0.06117,-0.55052 -0.06117,-0.85636c-0.06117,-0.24468 -0.06117,-0.48935 -0.06117,-0.73403c-0.06117,-0.18351 -0.06117,-0.36701 -0.06117,-0.55052c-0.06117,-0.30584 -0.06117,-0.48935 -0.06117,-0.48935c0,0 0.06117,0.18351 0.12234,0.48935c0.06117,0.30584 0.18351,0.73403 0.30584,1.22338c0.06117,0.24468 0.12234,0.55052 0.12234,0.85636c0,0.30584 0.06117,0.61169 0.06117,0.91753c0,0.30584 0.06117,0.67286 0,1.03987c0,0.36701 0,0.67286 -0.06117,1.03987c-0.06117,0.67286 -0.12234,1.40688 -0.24468,2.01857c-0.12234,0.67286 -0.30584,1.22338 -0.42818,1.71273c-0.42818,1.03987 -0.73403,1.65156 -0.73403,1.65156z" fill="#c9307f" fill-rule="nonzero" stroke="none" stroke-width="1" stroke-linecap="butt" stroke-linejoin="miter"/><path d="M208.8584,181.84416c0,0 0.36701,-0.12234 0.91753,-0.12234c0.30584,0 0.61169,0.06117 0.91753,0.12234c0.18351,0.06117 0.36701,0.12234 0.48935,0.18351c0.18351,0.06117 0.30584,0.18351 0.48935,0.24468c0.18351,0.12234 0.30584,0.18351 0.42818,0.30584c0.12234,0.12234 0.24468,0.24468 0.42818,0.36701c0.24468,0.24468 0.42818,0.48935 0.61169,0.73403c0.18351,0.24468 0.24468,0.42818 0.30584,0.55052c0.06117,0.12234 0.12234,0.24468 0.12234,0.24468c0,0 -0.06117,-0.06117 -0.18351,-0.18351c-0.12234,-0.12234 -0.24468,-0.30584 -0.42818,-0.48935c-0.06117,-0.12234 -0.18351,-0.18351 -0.30584,-0.30584c-0.12234,-0.12234 -0.24468,-0.24468 -0.36701,-0.30584c-0.24468,-0.24468 -0.55052,-0.42818 -0.85636,-0.61169c-0.61169,-0.36701 -1.28454,-0.61169 -1.83506,-0.67286c-0.36701,-0.12234 -0.73403,-0.06117 -0.73403,-0.06117z" fill="#c9307f" fill-rule="nonzero" stroke="none" stroke-width="1" stroke-linecap="butt" stroke-linejoin="miter"/><path d="M256.69238,180.62079c0,0 -0.06117,-0.12234 -0.06117,-0.30584c0,-0.24468 -0.06117,-0.55052 -0.06117,-0.91753c0,-0.36701 0.06117,-0.79519 0.12234,-1.28454c0.06117,-0.48935 0.18351,-0.9787 0.30584,-1.40688c0.12234,-0.48935 0.30584,-0.9787 0.42818,-1.40688c0.12234,-0.42818 0.30584,-0.85636 0.48935,-1.16221c0.12234,-0.36701 0.30584,-0.61169 0.36701,-0.79519c0.12234,-0.18351 0.18351,-0.30584 0.18351,-0.30584c0,0 -0.12234,0.48935 -0.36701,1.16221c-0.12234,0.36701 -0.24468,0.73403 -0.36701,1.22338c-0.12234,0.42818 -0.30584,0.91753 -0.42818,1.40688c-0.12234,0.48935 -0.24468,0.9787 -0.36701,1.40688c-0.12234,0.42818 -0.18351,0.85636 -0.24468,1.22338c-0.06117,0.36701 -0.06117,0.67286 -0.06117,0.91753c0.06117,0.12234 0.06117,0.24468 0.06117,0.24468z" fill="#c9307f" fill-rule="nonzero" stroke="none" stroke-width="1" stroke-linecap="butt" stroke-linejoin="miter"/><path d="M269.84366,152.42198c0,0 0,-0.9787 0.18351,-2.38558c0.06117,-0.73403 0.18351,-1.52922 0.36701,-2.38558c0.18351,-0.85636 0.42818,-1.77389 0.67286,-2.69143c0.12234,-0.42818 0.30584,-0.91753 0.48935,-1.34571c0.18351,-0.42818 0.30584,-0.85636 0.48935,-1.28454c0.18351,-0.42818 0.36701,-0.79519 0.55052,-1.16221c0.18351,-0.36701 0.36701,-0.73403 0.55052,-0.9787c0.18351,-0.30584 0.36701,-0.55052 0.48935,-0.79519c0.18351,-0.24468 0.30584,-0.42818 0.42818,-0.61169c0.24468,-0.30584 0.36701,-0.48935 0.36701,-0.48935c0,0 -0.12234,0.18351 -0.36701,0.55052c-0.12234,0.18351 -0.24468,0.36701 -0.36701,0.61169c-0.12234,0.24468 -0.30584,0.55052 -0.48935,0.85636c-0.18351,0.30584 -0.30584,0.67286 -0.48935,1.03987c-0.18351,0.36701 -0.30584,0.73403 -0.48935,1.16221c-0.18351,0.42818 -0.30584,0.85636 -0.48935,1.28454c-0.18351,0.42818 -0.30584,0.85636 -0.42818,1.34571c-0.30584,0.91753 -0.55052,1.83506 -0.73403,2.69143c-0.18351,0.85636 -0.36701,1.65156 -0.48935,2.38558c-0.12234,1.22338 -0.24468,2.20208 -0.24468,2.20208z" fill="#c9307f" fill-rule="nonzero" stroke="none" stroke-width="1" stroke-linecap="butt" stroke-linejoin="miter"/><path d="M245.31498,179.45858c-0.12234,-0.67286 -0.30584,-1.34571 -0.55052,-1.9574c-0.12234,-0.30584 -0.30584,-0.61169 -0.42818,-0.91753c-0.18351,-0.30584 -0.36701,-0.55052 -0.55052,-0.85636c-0.06117,-0.06117 -0.06117,-0.12234 0,-0.18351c0.61169,-0.42818 1.22338,-0.9787 1.71273,-1.59039c0.55052,-0.55052 0.9787,-1.22338 1.40688,-1.89623c0.42818,-0.67286 0.73403,-1.34571 0.9787,-2.14091c0.24468,-0.73403 0.42818,-1.52922 0.55052,-2.32441c0,0.79519 -0.12234,1.59039 -0.36701,2.32441c-0.24468,0.79519 -0.55052,1.52922 -0.9787,2.20208c-0.42818,0.67286 -0.85636,1.34571 -1.40688,1.9574c-0.55052,0.61169 -1.16221,1.10104 -1.77389,1.59039l0.06117,-0.18351c0.42818,0.55052 0.73403,1.16221 0.9787,1.83506c0.18351,0.79519 0.36701,1.46805 0.36701,2.14091z" fill="#c9307f" fill-rule="nonzero" stroke="none" stroke-width="1" stroke-linecap="butt" stroke-linejoin="miter"/><path d="M277.24508,172.66885c0,0 -0.18351,-0.06117 -0.48935,-0.18351c-0.30584,-0.12234 -0.73403,-0.30584 -1.16221,-0.55052c-0.48935,-0.24468 -1.03987,-0.55052 -1.59039,-0.9787c-0.55052,-0.36701 -1.10104,-0.85636 -1.65156,-1.34571c-0.24468,-0.24468 -0.48935,-0.48935 -0.73403,-0.79519c-0.24468,-0.24468 -0.42818,-0.55052 -0.67286,-0.79519c-0.24468,-0.24468 -0.36701,-0.55052 -0.55052,-0.79519c-0.18351,-0.24468 -0.30584,-0.48935 -0.42818,-0.73403c-0.24468,-0.48935 -0.42818,-0.85636 -0.55052,-1.16221c-0.12234,-0.30584 -0.18351,-0.42818 -0.18351,-0.42818c0,0 0.06117,0.18351 0.24468,0.42818c0.06117,0.12234 0.18351,0.30584 0.24468,0.48935c0.12234,0.18351 0.24468,0.36701 0.36701,0.61169c0.12234,0.24468 0.30584,0.48935 0.48935,0.73403c0.18351,0.24468 0.36701,0.48935 0.55052,0.73403c0.24468,0.24468 0.42818,0.55052 0.67286,0.79519c0.24468,0.24468 0.48935,0.48935 0.73403,0.73403c0.48935,0.48935 1.03987,0.91753 1.59039,1.34571c0.55052,0.36701 1.03987,0.73403 1.46805,1.03987c1.03987,0.61169 1.65156,0.85636 1.65156,0.85636z" fill="#c9307f" fill-rule="nonzero" stroke="none" stroke-width="1" stroke-linecap="butt" stroke-linejoin="miter"/><path d="M230.63448,149.48588c0,-0.55052 0,-1.16221 0,-1.71273c0,-0.55052 0.06117,-1.16221 0.06117,-1.71273c0,-0.06117 0.06117,-0.12234 0.12234,-0.12234c0.55052,-0.18351 1.10104,-0.36701 1.65156,-0.61169c0.24468,-0.12234 0.55052,-0.24468 0.79519,-0.36701c0.24468,-0.12234 0.48935,-0.30584 0.73403,-0.55052c-0.06117,0.12234 -0.18351,0.24468 -0.30584,0.36701c-0.12234,0.12234 -0.24468,0.18351 -0.36701,0.30584c-0.24468,0.18351 -0.48935,0.30584 -0.79519,0.48935c-0.55052,0.30584 -1.10104,0.48935 -1.71273,0.67286l0.12234,-0.12234c-0.06117,0.55052 -0.06117,1.16221 -0.12234,1.71273c-0.06117,0.48935 -0.12234,1.03987 -0.18351,1.65156z" fill="#c9307f" fill-rule="nonzero" stroke="none" stroke-width="1" stroke-linecap="butt" stroke-linejoin="miter"/><path d="M227.2702,202.09103c0,0 -0.12234,-0.12234 -0.30584,-0.12234c-0.24468,-0.06117 -0.55052,-0.06117 -0.91753,-0.06117c-0.36701,0.06117 -0.79519,0.12234 -1.28454,0.24468c-0.48935,0.12234 -0.9787,0.24468 -1.46805,0.42818c-0.48935,0.12234 -0.9787,0.30584 -1.46805,0.48935c-0.42818,0.18351 -0.85636,0.30584 -1.22338,0.48935c-0.73403,0.30584 -1.22338,0.42818 -1.22338,0.42818c0,0 0.42818,-0.24468 1.16221,-0.61169c0.36701,-0.18351 0.79519,-0.36701 1.22338,-0.55052c0.42818,-0.18351 0.91753,-0.36701 1.46805,-0.55052c0.48935,-0.18351 0.9787,-0.30584 1.46805,-0.36701c0.48935,-0.12234 0.91753,-0.12234 1.34571,-0.12234c0.18351,0 0.36701,0 0.55052,0.06117c0.18351,0 0.30584,0.06117 0.42818,0.12234c0.18351,0 0.24468,0.12234 0.24468,0.12234z" fill="#c9307f" fill-rule="nonzero" stroke="none" stroke-width="1" stroke-linecap="butt" stroke-linejoin="miter"/><path d="M262.99276,203.68142c0,0 0.12234,-0.24468 0.30584,-0.61169c0.18351,-0.36701 0.42818,-0.9787 0.73403,-1.65156c0.12234,-0.36701 0.24468,-0.73403 0.36701,-1.16221c0.12234,-0.42818 0.24468,-0.85636 0.30584,-1.28454c0.12234,-0.42818 0.18351,-0.91753 0.24468,-1.40688c0,-0.48935 0.12234,-0.9787 0.06117,-1.46805v-0.73403c0,-0.24468 -0.06117,-0.48935 -0.06117,-0.73403c-0.06117,-0.24468 -0.06117,-0.48935 -0.12234,-0.73403c-0.06117,-0.24468 -0.12234,-0.48935 -0.18351,-0.67286c-0.12234,-0.42818 -0.24468,-0.85636 -0.42818,-1.28454c-0.06117,-0.18351 -0.12234,-0.36701 -0.24468,-0.55052c-0.12234,-0.18351 -0.18351,-0.36701 -0.24468,-0.48935c-0.18351,-0.30584 -0.30584,-0.67286 -0.48935,-0.91753c-0.18351,-0.24468 -0.30584,-0.48935 -0.42818,-0.67286c-0.24468,-0.36701 -0.36701,-0.55052 -0.36701,-0.55052c0,0 0.18351,0.18351 0.42818,0.55052c0.12234,0.18351 0.30584,0.36701 0.48935,0.61169c0.18351,0.24468 0.36701,0.55052 0.55052,0.85636c0.12234,0.18351 0.18351,0.30584 0.30584,0.48935c0.06117,0.18351 0.18351,0.36701 0.24468,0.55052c0.18351,0.42818 0.36701,0.79519 0.48935,1.28454c0.06117,0.24468 0.12234,0.48935 0.18351,0.67286c0.06117,0.24468 0.06117,0.48935 0.12234,0.73403c0,0.24468 0.06117,0.48935 0.12234,0.73403v0.73403c0.06117,0.48935 -0.06117,1.03987 -0.06117,1.52922c-0.06117,0.48935 -0.12234,0.9787 -0.24468,1.46805c-0.18351,0.91753 -0.48935,1.77389 -0.79519,2.44675c-0.30584,0.67286 -0.61169,1.22338 -0.79519,1.65156c-0.30584,0.42818 -0.48935,0.61169 -0.48935,0.61169z" fill="#c9307f" fill-rule="nonzero" stroke="none" stroke-width="1" stroke-linecap="butt" stroke-linejoin="miter"/></g><path d="M267.58042,230.71801l6.17805,-1.40688" fill="none" fill-rule="evenodd" stroke="#f06aae" stroke-width="2" stroke-linecap="round" stroke-linejoin="round"/></g></g></g></svg>