<svg version="1.1" xmlns="http://www.w3.org/2000/svg" xmlns:xlink="http://www.w3.org/1999/xlink" width="31.78571" height="31.41861" viewBox="0,0,31.78571,31.41861"><g transform="translate(-224.32143,-162.83139)"><g data-paper-data="{&quot;isPaintingLayer&quot;:true}" fill-rule="nonzero" stroke="none" stroke-width="0.5" stroke-linecap="butt" stroke-linejoin="miter" stroke-miterlimit="10" stroke-dasharray="" stroke-dashoffset="0" style="mix-blend-mode: normal"><path d="M225.67678,169.81594c0,-1.80612 1.46415,-3.27026 3.27026,-3.27026c1.80612,0 3.27026,1.46415 3.27026,3.27026c0,1.80612 -1.46415,3.27026 -3.27026,3.27026c-1.80612,0 -3.27026,-1.46415 -3.27026,-3.27026z" fill="#6e533d"/><path d="M248.11813,167.77269c0,-1.80612 1.46415,-3.27026 3.27026,-3.27026c1.80612,0 3.27026,1.46415 3.27026,3.27026c0,1.80612 -1.46415,3.27026 -3.27026,3.27026c-1.80612,0 -3.27026,-1.46415 -3.27026,-3.27026z" fill="#6e533d"/><path d="M234.43398,184.97991c0,-1.80612 1.46415,-3.27026 3.27026,-3.27026c1.80612,0 3.27026,1.46415 3.27026,3.27026c0,1.80612 -1.46415,3.27026 -3.27026,3.27026c-1.80612,0 -3.27026,-1.46415 -3.27026,-3.27026z" fill="#af8460"/><path d="M232.64511,175.64124c0,-1.80612 1.46415,-3.27026 3.27026,-3.27026c1.80612,0 3.27026,1.46415 3.27026,3.27026c0,1.80612 -1.46415,3.27026 -3.27026,3.27026c-1.80612,0 -3.27026,-1.46415 -3.27026,-3.27026z" fill="#af8460"/><path d="M249.56662,176.02486c0,-1.80612 1.46415,-3.27026 3.27026,-3.27026c1.80612,0 3.27026,1.46415 3.27026,3.27026c0,1.80612 -1.46415,3.27026 -3.27026,3.27026c-1.80612,0 -3.27026,-1.46415 -3.27026,-3.27026z" fill="#af8460"/><path d="M240.53035,171.87741c0,-1.80612 1.46415,-3.27026 3.27026,-3.27026c1.80612,0 3.27026,1.46415 3.27026,3.27026c0,1.80612 -1.46415,3.27026 -3.27026,3.27026c-1.80612,0 -3.27026,-1.46415 -3.27026,-3.27026z" fill="#977253"/><path d="M224.32143,179.99506c0,-1.80612 1.46415,-3.27026 3.27026,-3.27026c1.80612,0 3.27026,1.46415 3.27026,3.27026c0,1.80612 -1.46415,3.27026 -3.27026,3.27026c-1.80612,0 -3.27026,-1.46415 -3.27026,-3.27026z" fill="#977253"/><path d="M242.73791,180.94858c0,-1.80612 1.46415,-3.27026 3.27026,-3.27026c1.80612,0 3.27026,1.46415 3.27026,3.27026c0,1.80612 -1.46415,3.27026 -3.27026,3.27026c-1.80612,0 -3.27026,-1.46415 -3.27026,-3.27026z" fill="#6e533d"/><path d="M228.04048,187.88677c0,-1.80612 1.46415,-3.27026 3.27026,-3.27026c1.80612,0 3.27026,1.46415 3.27026,3.27026c0,1.80612 -1.46415,3.27026 -3.27026,3.27026c-1.80612,0 -3.27026,-1.46415 -3.27026,-3.27026z" fill="#6e533d"/><path d="M245.00353,190.97974c0,-1.80612 1.46415,-3.27026 3.27026,-3.27026c1.80612,0 3.27026,1.46415 3.27026,3.27026c0,1.80612 -1.46415,3.27026 -3.27026,3.27026c-1.80612,0 -3.27026,-1.46415 -3.27026,-3.27026z" fill="#af8460"/><path d="M234.81964,166.10165c0,-1.80612 1.46415,-3.27026 3.27026,-3.27026c1.80612,0 3.27026,1.46415 3.27026,3.27026c0,1.80612 -1.46415,3.27026 -3.27026,3.27026c-1.80612,0 -3.27026,-1.46415 -3.27026,-3.27026z" fill="#977253"/></g></g></svg>