<svg version="1.1" xmlns="http://www.w3.org/2000/svg" xmlns:xlink="http://www.w3.org/1999/xlink" width="54.59664" height="73.70288" viewBox="0,0,54.59664,73.70288"><g transform="translate(-212.70168,-143.14856)"><g data-paper-data="{&quot;isPaintingLayer&quot;:true}" fill-rule="nonzero" stroke="none" stroke-width="1" stroke-linecap="butt" stroke-linejoin="miter" stroke-miterlimit="10" stroke-dasharray="" stroke-dashoffset="0" style="mix-blend-mode: normal"><g><g><path d="M250.88086,207.59908c0.3,-3.6 4.7,-19.9 5.6,-25.1c0.9,-5.2 11.3,-3.8 10.8,1.4c-1.7,19.9 -9.4,23.1 -11.7,25.3c-1.4,1.5 -5,2 -4.7,-1.6z" fill="#f6a600"/><path d="M261.91034,183.18434c-2.03446,-0.19219 -3.62477,-0.97203 -3.55205,-1.74183c0.07272,-0.7698 1.78093,-1.23804 3.81539,-1.04585c2.03446,0.19219 3.62477,0.97203 3.55205,1.74183c-0.07272,0.7698 -1.78093,1.23804 -3.81539,1.04585z" fill="#b27839"/><path d="M266.28086,185.49908c0,0 -0.3,0.2 -0.7,0.4c-0.5,0.2 -1.1,0.4 -1.8,0.5c-0.3,0 -0.7,0 -1,0c-0.3,0 -0.6,-0.1 -0.8,-0.2c-0.2,-0.1 -0.4,-0.2 -0.6,-0.2c-0.1,-0.1 -0.2,-0.1 -0.2,-0.1c0,0 0.1,0 0.2,0c0.1,0 0.3,0 0.6,0.1c0.5,0 1.1,0 1.7,-0.1c0.6,-0.1 1.3,-0.2 1.7,-0.2c0.6,-0.1 0.9,-0.2 0.9,-0.2z" fill="#c98439"/><path d="M263.38086,188.09908c0,0 -0.4,0.1 -1.1,0.2c-0.6,0.1 -1.5,0.1 -2.4,-0.1c-0.4,-0.1 -0.9,-0.2 -1.2,-0.4c-0.4,-0.2 -0.7,-0.4 -0.9,-0.6c-0.2,-0.2 -0.4,-0.5 -0.5,-0.6c-0.1,-0.2 -0.1,-0.3 -0.1,-0.3c0,0 0.1,0.1 0.2,0.2c0.1,0.1 0.1,0.2 0.2,0.2c0.1,0.1 0.2,0.2 0.3,0.2c0.3,0.2 0.6,0.3 0.9,0.5c0.4,0.1 0.7,0.2 1.2,0.3c0.4,0.1 0.8,0.1 1.2,0.2c0.4,0 0.8,0.1 1.1,0.1c0.7,0.1 1.1,0.1 1.1,0.1z" fill="#c98439"/><path d="M258.98086,191.69908c0,0 -0.2,0.1 -0.5,0.1c-0.3,0 -0.7,0 -1,-0.1c-0.4,-0.1 -0.7,-0.3 -0.9,-0.5c-0.2,-0.2 -0.3,-0.4 -0.3,-0.4c0,0 0.2,0 0.4,0.1c0.2,0.1 0.6,0.2 0.9,0.3c0.3,0.1 0.6,0.2 0.9,0.3c0.3,0.2 0.5,0.2 0.5,0.2z" fill="#c98439"/><path d="M265.18086,190.79908c0,0 -0.1,0.1 -0.4,0.3c-0.3,0.1 -0.6,0.3 -1,0.3c-0.2,0 -0.4,0 -0.6,0c-0.2,0 -0.3,-0.1 -0.5,-0.1c-0.3,-0.1 -0.4,-0.2 -0.4,-0.2c0,0 0.2,0 0.5,-0.1c0.3,0 0.6,-0.1 1,-0.1c0.3,0 0.7,0 1,-0.1c0.2,0 0.4,0 0.4,0z" fill="#c98439"/><path d="M263.68086,195.99908c0,0 -0.3,0.2 -0.9,0.3c-0.5,0.1 -1.3,0.2 -2,0.2c-0.4,0 -0.7,-0.1 -1.1,-0.2c-0.3,-0.1 -0.6,-0.2 -0.9,-0.3c-0.3,-0.1 -0.5,-0.2 -0.6,-0.3c-0.1,-0.1 -0.2,-0.1 -0.2,-0.1c0,0 0.1,0 0.3,0c0.2,0 0.4,0.1 0.6,0.1c0.5,0.1 1.2,0.2 1.9,0.2c0.7,0 1.4,0.1 1.9,0c0.6,0.2 1,0.1 1,0.1z" fill="#c98439"/><path d="M259.68086,198.69908c0,0 -0.4,0.1 -0.9,0.1c-0.5,0 -1.3,0 -2,-0.1c-0.7,-0.1 -1.4,-0.4 -1.9,-0.6c-0.5,-0.3 -0.7,-0.6 -0.7,-0.6c0,0 0.1,0 0.2,0.1c0.1,0.1 0.3,0.1 0.6,0.2c0.5,0.2 1.2,0.3 1.8,0.4c0.7,0.1 1.4,0.2 1.9,0.3c0.7,0.1 1,0.2 1,0.2z" fill="#c98439"/><path d="M260.48086,202.59908c0,0 -0.2,0.1 -0.5,0.1c-0.3,0 -0.7,0.1 -1.1,0.1c-0.4,0 -0.8,-0.1 -1,-0.2c-0.3,-0.1 -0.4,-0.2 -0.4,-0.2c0,0 0.2,0 0.5,0c0.3,0 0.7,0 1,0c0.4,0 0.7,0.1 1,0.2c0.3,0 0.5,0 0.5,0z" fill="#c98439"/><path d="M256.58086,200.89908c0,0 -0.2,0.1 -0.4,0.1c-0.2,0 -0.6,0 -0.9,-0.1c-0.3,-0.1 -0.6,-0.3 -0.8,-0.5c-0.2,-0.2 -0.2,-0.4 -0.2,-0.4c0,0 0.2,0.1 0.4,0.1c0.2,0.1 0.5,0.2 0.8,0.3c0.3,0.1 0.6,0.2 0.8,0.3c0.2,0.1 0.3,0.2 0.3,0.2z" fill="#c98439"/><path d="M257.38086,205.69908c0,0 -0.2,0.1 -0.6,0.2c-0.4,0.1 -0.9,0.1 -1.4,0c-0.2,-0.1 -0.5,-0.1 -0.7,-0.3c-0.2,-0.1 -0.4,-0.3 -0.5,-0.4c-0.3,-0.3 -0.4,-0.5 -0.4,-0.5c0,0 0.1,0 0.2,0.1c0.1,0.1 0.2,0.1 0.4,0.2c0.3,0.2 0.7,0.3 1.2,0.4c0.4,0.1 0.9,0.2 1.3,0.2c0.2,0.1 0.5,0.1 0.5,0.1z" fill="#c98439"/></g><g><path d="M247.28086,210.89908c-4.6,0.3 -3.4,-13.2 0,-26.1c3.4,-12.9 1.8,-21.2 2.8,-24c0.9,-2.8 8.6,-4.3 11.7,1.2c3.1,5.5 -0.7,23.1 -4.6,28.9c-7.5,10.8 -4.7,19.7 -9.9,20z" fill="#f6a600"/><path d="M250.78086,164.69908c0,0 0.2,-0.3 0.7,-0.6c0.5,-0.3 1.2,-0.6 1.9,-0.7c0.7,-0.1 1.5,-0.2 2.1,-0.1c0.3,0 0.5,0.1 0.7,0.1c0.2,0 0.3,0 0.3,0c0,0 -0.4,0.1 -0.9,0.2c-0.5,0.1 -1.3,0.2 -2,0.3c-0.7,0.1 -1.4,0.3 -1.9,0.5c-0.6,0.1 -0.9,0.3 -0.9,0.3z" fill="#c98439"/><path d="M253.88086,166.59908c0,0 0.4,-0.2 1,-0.4c0.3,-0.1 0.7,-0.1 1.1,-0.2c0.4,0 0.9,0 1.3,0.1c0.9,0.1 1.7,0.4 2.3,0.7c0.3,0.1 0.5,0.3 0.7,0.4c0.2,0.1 0.2,0.2 0.2,0.2c0,0 -0.1,0 -0.3,-0.1c-0.2,-0.1 -0.4,-0.1 -0.7,-0.2c-0.3,-0.1 -0.7,-0.2 -1,-0.3c-0.4,-0.1 -0.8,-0.2 -1.2,-0.2c-0.8,-0.1 -1.7,-0.2 -2.3,-0.1c-0.7,0 -1.1,0.1 -1.1,0.1z" fill="#c98439"/><path d="M250.78086,170.69908c0,0 0.3,-0.3 0.7,-0.5c0.5,-0.3 1.1,-0.6 1.9,-0.7c0.4,-0.1 0.7,-0.1 1.1,-0.1c0.3,0 0.7,0 0.9,0c0.3,0 0.5,0.1 0.6,0.1c0.2,0 0.2,0.1 0.2,0.1c0,0 -0.1,0 -0.2,0c-0.2,0 -0.4,0 -0.6,0.1c-0.5,0 -1.2,0.2 -1.9,0.3c-1.4,0.2 -2.7,0.7 -2.7,0.7z" fill="#c98439"/><path d="M253.68086,173.09908c0,0 0.2,-0.1 0.6,-0.2c0.4,-0.1 0.9,-0.2 1.4,-0.2c0.5,0 1,0.1 1.4,0.3c0.4,0.1 0.6,0.3 0.6,0.3c0,0 -0.3,0 -0.6,0c-0.4,0 -0.8,0 -1.3,0c-0.5,0 -1,0 -1.3,-0.1c-0.5,-0.1 -0.8,-0.1 -0.8,-0.1z" fill="#c98439"/><path d="M256.78086,175.59908c0,0 0.3,-0.1 0.6,-0.2c0.4,-0.1 0.9,-0.1 1.5,-0.1c0.5,0 1.1,0.2 1.4,0.4c0.4,0.2 0.5,0.5 0.5,0.5c0,0 -0.1,0 -0.2,-0.1c-0.1,-0.1 -0.3,-0.1 -0.4,-0.1c-0.4,-0.1 -0.9,-0.1 -1.4,-0.2c-0.5,0 -1,-0.1 -1.4,-0.1c-0.3,0 -0.6,-0.1 -0.6,-0.1z" fill="#c98439"/><path d="M248.98086,181.29908c0,0 0.1,-0.4 0.6,-0.7c0.4,-0.3 1.2,-0.6 1.9,-0.6c0.4,0 0.7,0.1 1,0.1c0.3,0.1 0.6,0.2 0.8,0.3c0.2,0.1 0.4,0.2 0.6,0.3c0.1,0.1 0.2,0.1 0.2,0.1c0,0 -0.3,0 -0.8,-0.1c-0.2,0 -0.5,-0.1 -0.8,-0.1c-0.3,0 -0.6,-0.1 -1,-0.1c-0.6,0 -1.3,0.1 -1.7,0.3c-0.5,0.2 -0.8,0.5 -0.8,0.5z" fill="#c98439"/><path d="M252.78086,184.19908c0,0 0.3,-0.2 0.9,-0.2c0.5,-0.1 1.3,-0.1 2,0.2c0.2,0.1 0.3,0.1 0.5,0.2c0.2,0.1 0.3,0.2 0.5,0.3c0.2,0.1 0.3,0.2 0.4,0.3c0.1,0.1 0.2,0.2 0.3,0.3c0.2,0.2 0.3,0.4 0.4,0.6c0.1,0.1 0.1,0.2 0.1,0.2c0,0 -0.1,-0.1 -0.2,-0.2c-0.1,-0.1 -0.3,-0.3 -0.5,-0.4c-0.1,-0.1 -0.2,-0.2 -0.3,-0.3c-0.1,-0.1 -0.3,-0.2 -0.4,-0.2c-0.3,-0.2 -0.6,-0.3 -0.9,-0.4c-0.3,-0.1 -0.7,-0.2 -1,-0.3c-0.3,-0.1 -0.6,-0.1 -0.9,-0.1c-0.6,0 -0.9,0 -0.9,0z" fill="#c98439"/><path d="M250.78086,177.79908c0,0 0.5,-0.2 1.4,-0.4c0.4,-0.1 0.9,-0.1 1.5,0c0.3,0 0.6,0.1 0.8,0.1c0.3,0.1 0.6,0.1 0.8,0.3c0.3,0.1 0.5,0.2 0.8,0.4c0.3,0.1 0.5,0.3 0.7,0.5c0.2,0.1 0.4,0.4 0.6,0.5c0.2,0.2 0.3,0.4 0.5,0.5c0.1,0.2 0.3,0.3 0.3,0.5c0.1,0.2 0.2,0.3 0.2,0.4c0.1,0.2 0.2,0.4 0.2,0.4c0,0 -0.1,-0.1 -0.3,-0.3c-0.1,-0.1 -0.2,-0.2 -0.3,-0.3c-0.1,-0.1 -0.3,-0.3 -0.4,-0.4c-0.1,-0.1 -0.3,-0.3 -0.5,-0.5c-0.2,-0.1 -0.4,-0.3 -0.6,-0.4c-0.2,-0.1 -0.4,-0.3 -0.7,-0.4c-0.2,-0.1 -0.5,-0.2 -0.7,-0.3c-0.5,-0.2 -1,-0.3 -1.5,-0.4c-0.5,-0.1 -1,-0.1 -1.4,-0.1c-0.8,-0.2 -1.4,-0.1 -1.4,-0.1z" fill="#c98439"/><path d="M248.28086,187.29908c0,0 0.2,-0.3 0.6,-0.5c0.4,-0.3 1.1,-0.5 1.7,-0.6c0.2,0 0.3,0 0.5,0c0.2,0 0.3,0 0.5,0.1c0.3,0.1 0.6,0.2 0.8,0.3c0.2,0.1 0.4,0.2 0.5,0.3c0.1,0.1 0.2,0.1 0.2,0.1c0,0 -0.1,0 -0.2,0c-0.1,0 -0.3,-0.1 -0.6,-0.1c-0.2,-0.1 -0.5,-0.1 -0.8,-0.1c-0.3,0 -0.6,0 -0.9,0c-1.1,-0.1 -2.3,0.5 -2.3,0.5z" fill="#c98439"/><path d="M251.98086,189.09908c0,0 0.2,0 0.5,0c0.3,0 0.7,0.1 1.1,0.2c0.4,0.1 0.7,0.4 1,0.6c0.2,0.2 0.3,0.4 0.3,0.4c0,0 -0.2,-0.1 -0.5,-0.2c-0.3,-0.1 -0.6,-0.2 -1,-0.3c-0.4,-0.1 -0.7,-0.3 -1,-0.4c-0.3,-0.2 -0.4,-0.3 -0.4,-0.3z" fill="#c98439"/><path d="M246.08086,194.49908c0,0 0.2,-0.4 0.7,-1c0.3,-0.2 0.6,-0.5 1,-0.8c0.2,-0.1 0.4,-0.2 0.7,-0.3c0.2,-0.1 0.5,-0.1 0.7,-0.1c0.3,0 0.5,0 0.8,0.1c0.2,0 0.5,0.2 0.7,0.2c0.4,0.2 0.8,0.5 1,0.7c0.3,0.2 0.4,0.5 0.6,0.7c0.1,0.2 0.2,0.3 0.2,0.3c0,0 -0.1,-0.1 -0.3,-0.2c-0.2,-0.1 -0.4,-0.3 -0.7,-0.5c-0.1,-0.1 -0.3,-0.2 -0.5,-0.3c-0.2,-0.1 -0.4,-0.2 -0.6,-0.2c-0.4,-0.1 -0.8,-0.2 -1.3,-0.2c-0.9,0 -1.7,0.5 -2.3,0.9c-0.3,0.4 -0.7,0.7 -0.7,0.7z" fill="#c98439"/><path d="M248.28086,197.29908c0,0 0.3,-0.2 0.7,-0.2c0.4,-0.1 1.1,-0.1 1.7,0.2c0.3,0.1 0.5,0.3 0.8,0.5c0.2,0.2 0.4,0.4 0.5,0.6c0.1,0.2 0.2,0.4 0.2,0.5c0,0.1 0.1,0.2 0.1,0.2l-0.1,-0.1c-0.1,-0.1 -0.2,-0.2 -0.4,-0.4c-0.3,-0.3 -0.7,-0.6 -1.2,-0.8c-0.2,-0.1 -0.5,-0.2 -0.7,-0.3c-0.2,0 -0.5,-0.1 -0.7,-0.1c-0.6,-0.2 -0.9,-0.1 -0.9,-0.1z" fill="#c98439"/><path d="M245.08086,200.59908c0,0 0.2,-0.2 0.7,-0.4c0.4,-0.2 1,-0.4 1.6,-0.4c0.3,0 0.6,0 0.9,0c0.3,0 0.5,0.2 0.7,0.2c0.2,0.1 0.4,0.2 0.5,0.3c0.1,0.1 0.1,0.1 0.1,0.1c0,0 -0.1,0 -0.2,-0.1c-0.1,-0.1 -0.3,-0.1 -0.5,-0.1c-0.2,0 -0.4,-0.1 -0.7,-0.1c-0.3,0 -0.5,0 -0.8,0c-0.6,0 -1.1,0.1 -1.6,0.2c-0.4,0.2 -0.7,0.3 -0.7,0.3z" fill="#c98439"/><path d="M246.68086,203.49908c0,0 0.2,-0.1 0.6,-0.2c0.4,-0.1 0.9,-0.1 1.4,0.1c0.3,0.1 0.5,0.2 0.7,0.3c0.2,0.1 0.4,0.3 0.5,0.4c0.1,0.1 0.2,0.3 0.3,0.4c0.1,0.1 0.1,0.2 0.1,0.2c0,0 -0.1,0 -0.2,-0.1c-0.1,-0.1 -0.2,-0.1 -0.4,-0.2c-0.3,-0.2 -0.8,-0.3 -1.2,-0.5c-0.2,-0.1 -0.5,-0.1 -0.7,-0.2c-0.2,0 -0.4,-0.1 -0.6,-0.1c-0.2,-0.1 -0.5,-0.1 -0.5,-0.1z" fill="#c98439"/></g><g><path d="M235.18086,207.79908c-13.3,-16.3 -10.1,-59.9 -8,-62.5c2.1,-2.6 13.4,-3.5 15.5,1.1c2.1,4.6 -3.8,44.5 3.2,56.2c6.9,11.7 -5.8,11.2 -10.7,5.2z" fill="#f6a600"/><path d="M228.18086,146.89908c0,-0.99411 3.08924,-1.8 6.9,-1.8c3.81076,0 6.9,0.80589 6.9,1.8c0,0.99411 -3.08924,1.8 -6.9,1.8c-3.81076,0 -6.9,-0.80589 -6.9,-1.8z" fill="#b27839"/><path d="M226.08086,163.29908c0,0 0.3,0.2 0.8,0.4c0.5,0.3 1.1,0.6 1.7,1c0.3,0.2 0.6,0.3 0.9,0.5c0.3,0.1 0.6,0.3 0.8,0.3c0.2,0.1 0.5,0.1 0.6,0.2c0.2,0 0.2,0 0.2,0c0,0 -0.1,0 -0.2,0.1c-0.2,0 -0.4,0.1 -0.7,0.1c-0.3,0 -0.6,-0.1 -1,-0.2c-0.3,-0.1 -0.7,-0.3 -1,-0.4c-0.7,-0.4 -1.2,-0.8 -1.6,-1.2c-0.3,-0.5 -0.5,-0.8 -0.5,-0.8z" fill="#c98439"/><path d="M227.48086,169.49908c0,0 0.3,0.1 0.8,0.3c0.5,0.2 1.2,0.4 1.8,0.6c0.3,0.1 0.7,0.2 1,0.3c0.3,0.1 0.6,0.1 0.9,0.2c0.3,0 0.5,0 0.6,0c0.2,0 0.2,0 0.2,0c0,0 -0.1,0 -0.2,0.1c-0.1,0.1 -0.4,0.2 -0.6,0.2c-0.3,0 -0.6,0.1 -0.9,0c-0.3,0 -0.7,-0.1 -1.1,-0.2c-0.3,-0.1 -0.7,-0.2 -1,-0.4c-0.3,-0.2 -0.6,-0.3 -0.8,-0.5c-0.5,-0.3 -0.7,-0.6 -0.7,-0.6z" fill="#c98439"/><path d="M226.48086,174.29908c0,0 0.5,0.1 1.2,0.4c0.4,0.1 0.8,0.2 1.2,0.3c0.4,0.1 0.9,0.2 1.4,0.3c0.5,0.1 1,0.2 1.4,0.2c0.5,0.1 0.9,0.1 1.2,0.1c0.4,0 0.7,0 0.9,0c0.2,0 0.3,0 0.3,0c0,0 -0.1,0 -0.3,0.1c-0.2,0.1 -0.5,0.2 -0.9,0.2c-0.2,0 -0.4,0 -0.6,0.1c-0.2,0 -0.5,0 -0.7,0c-0.5,0 -1,-0.1 -1.5,-0.2c-0.5,-0.1 -1,-0.2 -1.4,-0.4c-0.4,-0.2 -0.8,-0.4 -1.2,-0.5c-0.6,-0.3 -1,-0.6 -1,-0.6z" fill="#c98439"/><path d="M230.88086,159.79908c0,0 0.6,0.2 1.6,0.3c0.5,0.1 1.1,0.1 1.7,0.1c0.6,0 1.3,0 1.9,-0.1c0.6,-0.1 1.3,-0.2 1.9,-0.4c0.3,-0.1 0.6,-0.2 0.8,-0.3c0.3,-0.1 0.5,-0.2 0.7,-0.3c0.2,-0.1 0.4,-0.2 0.6,-0.3c0.2,-0.1 0.3,-0.2 0.5,-0.3c0.3,-0.1 0.4,-0.2 0.4,-0.2c0,0 -0.1,0.1 -0.3,0.3c-0.2,0.2 -0.5,0.5 -1,0.7c-0.2,0.1 -0.4,0.3 -0.7,0.4c-0.3,0.1 -0.5,0.3 -0.8,0.4c-0.3,0.1 -0.6,0.2 -1,0.3c-0.3,0.1 -0.7,0.2 -1,0.2c-1.4,0.2 -2.8,0 -3.7,-0.3c-0.5,-0.1 -0.9,-0.3 -1.1,-0.4c-0.4,0 -0.5,-0.1 -0.5,-0.1z" fill="#c98439"/><path d="M233.98086,167.89908c0,0 0.3,0 0.8,0c0.2,0 0.5,0 0.8,0c0.3,0 0.6,0 0.9,0c0.3,0 0.6,0 0.9,-0.1c0.3,0 0.5,0 0.8,-0.1c0.2,0 0.4,-0.1 0.6,-0.1c0.1,0 0.2,0 0.2,0c0,0 -0.2,0.2 -0.7,0.4c-0.2,0.1 -0.5,0.2 -0.8,0.3c-0.3,0.1 -0.6,0.1 -0.9,0.1c-0.3,0 -0.6,0 -0.9,0c-0.3,0 -0.6,-0.1 -0.8,-0.2c-0.6,-0.1 -0.9,-0.3 -0.9,-0.3z" fill="#c98439"/><path d="M227.98086,151.69908c0,0 0.4,0.2 0.9,0.4c0.3,0.1 0.6,0.2 1,0.3c0.4,0.1 0.7,0.2 1.1,0.3c0.4,0.1 0.8,0.2 1.1,0.2c0.4,0 0.7,0.1 1,0.1c0.3,0 0.6,0 0.7,0c0.2,0 0.3,0 0.3,0c0,0 -0.1,0 -0.3,0.1c-0.2,0.1 -0.4,0.2 -0.7,0.2c-0.3,0.1 -0.7,0.1 -1.1,0.1c-0.4,0 -0.8,-0.1 -1.2,-0.2c-0.4,-0.1 -0.8,-0.2 -1.2,-0.4c-0.4,-0.2 -0.7,-0.4 -0.9,-0.5c-0.4,-0.2 -0.7,-0.6 -0.7,-0.6z" fill="#c98439"/><path d="M229.78086,179.99908c0,0 0.7,0.1 1.7,0.1c0.5,0 1.1,0 1.7,0c0.6,0 1.3,-0.1 2,-0.1c0.3,0 0.7,-0.1 1,-0.2c0.3,-0.1 0.6,-0.2 0.9,-0.3c0.3,-0.1 0.6,-0.2 0.8,-0.3c0.2,-0.1 0.5,-0.2 0.7,-0.4c0.2,-0.1 0.4,-0.3 0.6,-0.4c0.2,-0.1 0.3,-0.3 0.4,-0.3c0.2,-0.2 0.4,-0.3 0.4,-0.3c0,0 -0.1,0.1 -0.3,0.4c-0.2,0.3 -0.5,0.6 -0.9,0.9c-0.2,0.2 -0.4,0.3 -0.7,0.5c-0.3,0.2 -0.6,0.3 -0.8,0.4c-0.3,0.1 -0.6,0.2 -1,0.3c-0.3,0.1 -0.7,0.2 -1,0.2c-0.7,0.1 -1.4,0.1 -2,0.1c-0.7,0 -1.3,-0.1 -1.8,-0.2c-1.1,-0.2 -1.7,-0.4 -1.7,-0.4z" fill="#c98439"/><path d="M227.98086,183.99908c0,0 0.4,0 0.9,0.1c0.3,0 0.6,0 0.9,0.1c0.3,0 0.7,0.1 1,0.1c0.7,0 1.4,0.1 1.9,0.1c0.3,0 0.5,0 0.7,0c0.2,0 0.3,0 0.3,0c0,0 -0.1,0 -0.2,0.1c-0.1,0.1 -0.4,0.2 -0.6,0.2c-0.3,0.1 -0.6,0.2 -0.9,0.2c-0.3,0 -0.7,0 -1.1,0c-0.4,0 -0.7,-0.1 -1.1,-0.2c-0.3,-0.1 -0.6,-0.2 -0.9,-0.3c-0.5,-0.2 -0.9,-0.4 -0.9,-0.4z" fill="#c98439"/><path d="M232.18086,189.09908c0,0 0.5,-0.1 1.3,-0.2c0.4,0 0.8,-0.1 1.3,-0.2c0.5,-0.1 1,-0.2 1.5,-0.3c0.5,-0.1 1,-0.3 1.4,-0.5c0.4,-0.2 0.8,-0.4 1.2,-0.6c0.2,-0.1 0.3,-0.2 0.4,-0.3c0.1,-0.1 0.2,-0.2 0.3,-0.3c0.2,-0.2 0.2,-0.3 0.2,-0.3c0,0 0,0.1 -0.2,0.3c-0.1,0.1 -0.1,0.2 -0.2,0.4c-0.1,0.1 -0.2,0.3 -0.4,0.4c-0.2,0.1 -0.3,0.3 -0.5,0.4c-0.2,0.1 -0.4,0.3 -0.6,0.4c-0.5,0.2 -1,0.4 -1.5,0.6c-1.1,0.3 -2.2,0.3 -3,0.3c-0.6,0 -1.2,-0.1 -1.2,-0.1z" fill="#c98439"/><path d="M229.98086,193.99908c0,0 0.3,-0.1 0.8,-0.1c0.5,0 1.1,-0.1 1.7,-0.1c0.6,0 1.3,0.1 1.7,0.1c0.5,0 0.8,0.1 0.8,0.1c0,0 -0.3,0.1 -0.8,0.2c-0.5,0.1 -1.1,0.2 -1.8,0.2c-0.6,0 -1.3,-0.1 -1.7,-0.2c-0.4,-0.1 -0.7,-0.2 -0.7,-0.2z" fill="#c98439"/><path d="M233.08086,197.69908c0,0 0.2,-0.1 0.5,-0.3c0.3,-0.1 0.7,-0.3 1.2,-0.4c0.4,-0.1 0.9,-0.1 1.2,-0.2c0.3,0 0.6,0 0.6,0c0,0 -0.2,0.1 -0.5,0.3c-0.3,0.1 -0.7,0.3 -1.2,0.4c-0.4,0.1 -0.9,0.1 -1.2,0.2c-0.3,0.1 -0.6,0 -0.6,0z" fill="#c98439"/><path d="M235.48086,203.09908c0,0 0.5,0 1.3,-0.1c0.7,-0.1 1.7,-0.3 2.6,-0.6c0.2,-0.1 0.4,-0.2 0.6,-0.3c0.2,-0.1 0.4,-0.2 0.6,-0.4c0.2,-0.1 0.4,-0.3 0.5,-0.4c0.2,-0.1 0.3,-0.3 0.4,-0.4c0.1,-0.1 0.2,-0.3 0.3,-0.4c0.1,-0.1 0.2,-0.2 0.2,-0.3c0.1,-0.2 0.2,-0.3 0.2,-0.3c0,0 0,0.1 -0.1,0.3c-0.1,0.2 -0.2,0.5 -0.4,0.9c-0.1,0.2 -0.2,0.3 -0.4,0.5c-0.1,0.2 -0.3,0.4 -0.5,0.5c-0.4,0.3 -0.8,0.6 -1.3,0.8c-0.5,0.2 -1,0.3 -1.5,0.4c-0.5,0.1 -0.9,0 -1.3,0c-0.7,0 -1.2,-0.2 -1.2,-0.2z" fill="#c98439"/></g><g><path d="M243.88086,215.19908c-2.5,-3 -11.6,-7.8 -11.4,-32.2c0.1,-6.4 12.9,-6.9 13.4,-0.5c0.5,6.4 4,26.8 4,31.2c-0.1,4.5 -4.4,3.4 -6,1.5z" fill="#ffb32e"/><path d="M234.68086,180.99908c0,-0.93888 2.01472,-1.7 4.5,-1.7c2.48528,0 4.5,0.76112 4.5,1.7c0,0.93888 -2.01472,1.7 -4.5,1.7c-2.48528,0 -4.5,-0.76112 -4.5,-1.7z" fill="#b27839"/><path d="M233.58086,185.09908c0,0 0.4,0.1 1,0.3c0.6,0.2 1.3,0.4 2.1,0.5c0.8,0.2 1.5,0.2 2.1,0.2c0.3,0 0.5,0 0.7,0c0.2,0 0.3,0 0.3,0c0,0 -0.1,0 -0.3,0.1c-0.2,0.1 -0.4,0.2 -0.7,0.2c-0.2,0 -0.3,0 -0.5,0.1c-0.2,0 -0.4,0 -0.6,0c-0.4,0 -0.8,-0.1 -1.2,-0.1c-0.8,-0.2 -1.6,-0.5 -2.1,-0.8c-0.5,-0.3 -0.8,-0.5 -0.8,-0.5z" fill="#d88e45"/><path d="M236.88086,188.59908c0,0 0.5,0.1 1.3,0.1c0.4,0 0.8,0 1.3,0c0.5,0 1,0 1.5,-0.1c0.5,0 1,-0.2 1.5,-0.3c0.2,-0.1 0.4,-0.1 0.6,-0.2c0.2,-0.1 0.4,-0.2 0.6,-0.3c0.2,-0.1 0.3,-0.2 0.4,-0.3c0.1,-0.1 0.2,-0.2 0.3,-0.2c0.2,-0.1 0.3,-0.2 0.3,-0.2c0,0 -0.1,0.1 -0.2,0.3c-0.1,0.1 -0.1,0.2 -0.3,0.3c-0.1,0.1 -0.3,0.2 -0.4,0.4c-0.3,0.2 -0.7,0.5 -1.2,0.7c-0.5,0.2 -1,0.3 -1.5,0.3c-1.1,0.1 -2.1,0 -2.9,-0.2c-0.9,-0.1 -1.3,-0.3 -1.3,-0.3z" fill="#d88e45"/><path d="M241.78086,193.49908c0,0 0.2,-0.1 0.5,-0.1c0.3,-0.1 0.7,-0.2 1.1,-0.3c0.4,-0.1 0.8,-0.2 1.1,-0.3c0.3,-0.1 0.5,-0.1 0.5,-0.1c0,0 -0.1,0.2 -0.4,0.4c-0.3,0.2 -0.7,0.4 -1.1,0.5c-0.4,0.1 -0.9,0.1 -1.2,0.1c-0.3,-0.1 -0.5,-0.2 -0.5,-0.2z" fill="#d88e45"/><path d="M234.38086,191.59908c0,0 0.2,0 0.6,0.1c0.3,0.1 0.8,0.1 1.2,0.2c0.4,0.1 0.8,0.2 1.2,0.2c0.2,0 0.3,0.1 0.4,0.1c0.1,0 0.2,0 0.2,0c0,0 -0.2,0.1 -0.6,0.2c-0.2,0 -0.4,0.1 -0.6,0.1c-0.2,0 -0.4,0 -0.7,-0.1c-0.5,-0.1 -0.9,-0.3 -1.2,-0.4c-0.3,-0.2 -0.5,-0.4 -0.5,-0.4z" fill="#d88e45"/><path d="M235.58086,198.19908c0,0 1.7,0.3 3.5,0.4c0.9,0 1.7,0 2.4,-0.1c0.3,0 0.6,0 0.8,-0.1c0.2,0 0.3,0 0.3,0c0,0 -0.1,0 -0.3,0.1c-0.2,0.1 -0.4,0.2 -0.8,0.3c-0.3,0.1 -0.7,0.2 -1.1,0.2c-0.4,0.1 -0.9,0.1 -1.3,0.1c-0.9,0 -1.8,-0.2 -2.4,-0.4c-0.7,-0.3 -1.1,-0.5 -1.1,-0.5z" fill="#d88e45"/><path d="M240.08086,201.89908c0,0 0.4,0 1.1,0c0.6,0 1.5,-0.1 2.4,-0.1c0.8,-0.1 1.7,-0.2 2.3,-0.3c0.3,-0.1 0.6,-0.1 0.7,-0.2c0.2,-0.1 0.3,-0.1 0.3,-0.1c0,0 -0.1,0.1 -0.2,0.2c-0.1,0.1 -0.4,0.3 -0.7,0.4c-0.3,0.1 -0.7,0.3 -1.1,0.4c-0.4,0.1 -0.8,0.2 -1.3,0.2c-0.9,0.1 -1.8,0 -2.4,-0.1c-0.6,-0.3 -1.1,-0.4 -1.1,-0.4z" fill="#d88e45"/><path d="M238.68086,206.59908c0,0 0.2,-0.1 0.6,-0.1c0.3,0 0.8,-0.1 1.3,-0.1c0.5,0 0.9,0 1.3,0.1c0.3,0 0.6,0.1 0.6,0.1c0,0 -0.2,0.1 -0.6,0.2c-0.3,0.1 -0.8,0.1 -1.3,0.1c-0.5,0 -0.9,-0.1 -1.3,-0.2c-0.4,0 -0.6,-0.1 -0.6,-0.1z" fill="#d88e45"/><path d="M243.58086,204.89908c0,0 0.2,-0.1 0.5,-0.2c0.3,-0.1 0.6,-0.2 1,-0.3c0.4,-0.1 0.7,-0.2 1,-0.2c0.3,-0.1 0.5,-0.1 0.5,-0.1c0,0 -0.1,0.2 -0.3,0.4c-0.2,0.2 -0.6,0.4 -1,0.5c-0.4,0.1 -0.8,0.1 -1.1,0.1c-0.4,-0.1 -0.6,-0.2 -0.6,-0.2z" fill="#d88e45"/><path d="M242.18086,210.69908c0,0 0.3,0 0.8,0c0.4,0 1,0 1.6,-0.1c0.6,-0.1 1.1,-0.2 1.5,-0.4c0.2,-0.1 0.4,-0.2 0.5,-0.2c0.1,-0.1 0.2,-0.1 0.2,-0.1c0,0 -0.1,0.3 -0.5,0.6c-0.1,0.1 -0.2,0.1 -0.3,0.2c-0.1,0.1 -0.2,0.1 -0.4,0.2c-0.3,0.1 -0.6,0.2 -0.9,0.2c-0.6,0.1 -1.2,0 -1.7,-0.1c-0.5,-0.2 -0.8,-0.3 -0.8,-0.3z" fill="#d88e45"/></g><g><path d="M233.28086,213.29908c-3.3,-2.8 -13.5,-6 -20.4,-33.8c-1.8,-7.3 10.5,-11.1 12.8,-3.9c2.4,7.2 11.7,29.5 13,34.6c1.2,5 -3.3,4.9 -5.4,3.1z" fill="#f6a600"/><path d="M214.40996,176.70328c-0.27449,-1.06989 1.45446,-2.43786 3.8617,-3.05545c2.40724,-0.61759 4.58121,-0.25094 4.8557,0.81895c0.27449,1.06989 -1.45446,2.43786 -3.8617,3.05545c-2.40724,0.61759 -4.58121,0.25094 -4.8557,-0.81895z" fill="#b27839"/><path d="M214.48086,181.59908c0,0 0.4,0 1,0.1c0.6,0.1 1.4,0.1 2.2,0.1c0.8,0 1.5,-0.1 2.1,-0.2c0.3,-0.1 0.5,-0.1 0.7,-0.2c0.2,-0.1 0.3,-0.1 0.3,-0.1c0,0 -0.1,0.1 -0.2,0.2c-0.1,0.1 -0.3,0.3 -0.6,0.4c-0.1,0.1 -0.3,0.1 -0.5,0.2c-0.2,0.1 -0.4,0.1 -0.5,0.2c-0.4,0.1 -0.8,0.1 -1.2,0.2c-0.4,0 -0.8,0 -1.2,-0.1c-0.4,-0.1 -0.7,-0.2 -1,-0.3c-0.7,-0.3 -1.1,-0.5 -1.1,-0.5z" fill="#c98439"/><path d="M218.68086,184.79908c0,0 0.5,-0.1 1.3,-0.2c0.4,-0.1 0.8,-0.2 1.3,-0.3c0.5,-0.1 1,-0.3 1.4,-0.5c0.5,-0.2 0.9,-0.4 1.3,-0.7c0.2,-0.1 0.4,-0.3 0.5,-0.4c0.2,-0.2 0.3,-0.3 0.4,-0.4c0.1,-0.2 0.2,-0.3 0.3,-0.4c0.1,-0.1 0.2,-0.2 0.2,-0.3c0.1,-0.2 0.2,-0.3 0.2,-0.3c0,0 0,0.1 -0.1,0.4c-0.1,0.2 -0.2,0.6 -0.4,0.9c-0.1,0.2 -0.3,0.3 -0.4,0.5c-0.1,0.2 -0.3,0.3 -0.5,0.5c-0.2,0.2 -0.4,0.3 -0.7,0.5c-0.2,0.1 -0.5,0.3 -0.7,0.4c-0.5,0.2 -1,0.4 -1.5,0.4c-0.5,0.1 -1,0.1 -1.4,0.1c-0.6,-0.1 -1.2,-0.2 -1.2,-0.2z" fill="#c98439"/><path d="M224.88086,189.09908c0,0 0.2,-0.1 0.5,-0.3c0.3,-0.2 0.6,-0.4 1,-0.6c0.3,-0.2 0.7,-0.4 1,-0.6c0.1,-0.1 0.3,-0.2 0.3,-0.2c0.1,-0.1 0.1,-0.1 0.1,-0.1c0,0 -0.1,0.2 -0.3,0.5c-0.2,0.3 -0.5,0.6 -0.9,0.9c-0.2,0.1 -0.4,0.2 -0.6,0.3c-0.2,0.1 -0.4,0.1 -0.6,0.1c-0.2,0.1 -0.5,0 -0.5,0z" fill="#c98439"/><path d="M217.28086,188.89908c0,0 0.2,0 0.6,-0.1c0.2,0 0.4,0 0.6,0c0.2,0 0.4,0 0.6,0c0.4,0 0.9,0 1.2,0c0.2,0 0.3,0 0.4,0c0.1,0 0.2,0 0.2,0c0,0 -0.2,0.2 -0.5,0.3c-0.2,0.1 -0.4,0.2 -0.6,0.2c-0.2,0.1 -0.5,0.1 -0.7,0.1c-0.5,0 -0.9,-0.1 -1.3,-0.2c-0.4,-0.2 -0.5,-0.3 -0.5,-0.3z" fill="#c98439"/><path d="M220.38086,195.99908c0,0 0.5,0 1.1,-0.1c0.3,0 0.7,-0.1 1.1,-0.1c0.4,-0.1 0.8,-0.1 1.2,-0.2c0.4,-0.1 0.8,-0.2 1.2,-0.3c0.4,-0.1 0.8,-0.2 1.1,-0.3c0.3,-0.1 0.6,-0.2 0.8,-0.3c0.2,-0.1 0.3,-0.1 0.3,-0.1c0,0 -0.1,0.1 -0.2,0.2c-0.2,0.1 -0.4,0.3 -0.7,0.5c-0.3,0.2 -0.6,0.4 -1,0.5c-0.4,0.2 -0.8,0.3 -1.3,0.4c-0.9,0.2 -1.8,0.2 -2.5,0.1c-0.7,-0.1 -1.1,-0.3 -1.1,-0.3z" fill="#c98439"/><path d="M225.78086,199.09908c0,0 0.4,-0.1 1,-0.3c0.6,-0.2 1.4,-0.4 2.3,-0.7c0.4,-0.1 0.8,-0.3 1.2,-0.4c0.4,-0.2 0.7,-0.3 1,-0.5c0.3,-0.2 0.5,-0.3 0.6,-0.4c0.1,-0.1 0.2,-0.2 0.2,-0.2c0,0 0,0.1 -0.2,0.3c-0.1,0.2 -0.3,0.4 -0.5,0.6c-0.3,0.2 -0.6,0.5 -0.9,0.7c-0.2,0.1 -0.4,0.2 -0.6,0.3c-0.2,0.1 -0.4,0.2 -0.6,0.2c-0.8,0.3 -1.7,0.4 -2.4,0.5c-0.7,-0.1 -1.1,-0.1 -1.1,-0.1z" fill="#c98439"/><path d="M225.78086,204.79908c0,0 0.2,-0.1 0.5,-0.3c0.3,-0.1 0.8,-0.3 1.2,-0.4c0.2,0 0.4,-0.1 0.7,-0.1c0.2,0 0.4,-0.1 0.6,-0.1c0.3,0 0.6,-0.1 0.6,-0.1c0,0 -0.2,0.2 -0.5,0.4c-0.3,0.2 -0.7,0.4 -1.2,0.5c-0.2,0 -0.5,0.1 -0.7,0.1c-0.2,0 -0.4,0 -0.6,0c-0.4,0.1 -0.6,0 -0.6,0z" fill="#c98439"/><path d="M230.08086,201.69908c0,0 0.2,-0.1 0.4,-0.3c0.2,-0.2 0.5,-0.4 0.9,-0.6c0.3,-0.2 0.6,-0.4 0.9,-0.5c0.1,-0.1 0.2,-0.1 0.3,-0.2c0.1,0 0.1,-0.1 0.1,-0.1c0,0 0,0.2 -0.2,0.5c-0.2,0.3 -0.4,0.6 -0.8,0.8c-0.2,0.1 -0.4,0.2 -0.5,0.2c-0.2,0.1 -0.4,0.1 -0.5,0.1c-0.4,0.2 -0.6,0.1 -0.6,0.1z" fill="#c98439"/><path d="M230.28086,208.59908c0,0 0.3,-0.1 0.7,-0.2c0.4,-0.1 1,-0.3 1.5,-0.5c0.3,-0.1 0.5,-0.2 0.7,-0.4c0.2,-0.1 0.4,-0.3 0.6,-0.4c0.2,-0.1 0.3,-0.3 0.4,-0.4c0.1,-0.1 0.2,-0.2 0.2,-0.2c0,0 0,0.3 -0.3,0.7c-0.1,0.2 -0.3,0.4 -0.5,0.6c-0.2,0.2 -0.5,0.4 -0.8,0.5c-0.3,0.1 -0.6,0.2 -0.9,0.3c-0.3,0.1 -0.6,0 -0.8,0c-0.5,0.1 -0.8,0 -0.8,0z" fill="#c98439"/></g><g><path d="M252.98086,216.49908c-3.4,0.7 -8.5,-13.3 -4.8,-21.3c3.7,-8 10.9,-1.5 9.3,4.8c-1.6,6.5 0.5,15.5 -4.5,16.5z" fill="#ffb32e"/><path d="M255.98086,195.89908c-0.2,1.3 -1.7,1.8 -3.3,1.5c-1.5,-0.2 -2.9,-1.5 -2.7,-2.8c0.2,-1.3 2,-2.2 3.5,-1.9c1.5,0.2 2.7,1.9 2.5,3.2z" fill="#b27839"/><path d="M248.28086,197.29908c0,0 0.3,0.4 0.7,1c0.2,0.3 0.5,0.6 0.9,0.9c0.4,0.3 0.7,0.5 1.2,0.7c0.2,0.1 0.4,0.1 0.7,0.2c0.2,0.1 0.5,0 0.7,0.1c0.2,0 0.4,0 0.6,-0.1c0.2,0 0.4,-0.1 0.6,-0.1c0.4,-0.1 0.6,-0.2 0.8,-0.3c0.2,-0.1 0.3,-0.1 0.3,-0.1c0,0 -0.1,0.1 -0.3,0.2c-0.2,0.1 -0.4,0.3 -0.8,0.5c-0.2,0.1 -0.4,0.2 -0.6,0.2c-0.2,0 -0.4,0.1 -0.7,0.1c-0.2,0 -0.5,0.1 -0.8,0c-0.3,0 -0.5,-0.1 -0.8,-0.2c-0.5,-0.2 -1,-0.5 -1.3,-0.8c-0.4,-0.3 -0.6,-0.7 -0.8,-1c-0.3,-0.8 -0.4,-1.3 -0.4,-1.3z" fill="#d88e45"/><path d="M251.58086,202.19908c0,0 0.3,0 0.8,0c0.4,0 1,-0.1 1.6,-0.1c0.3,0 0.6,-0.1 0.8,-0.2c0.3,-0.1 0.5,-0.1 0.7,-0.2c0.2,-0.1 0.4,-0.2 0.5,-0.3c0.1,-0.1 0.2,-0.1 0.2,-0.1c0,0 0,0.1 -0.1,0.2c-0.1,0.1 -0.2,0.3 -0.4,0.4c-0.2,0.1 -0.4,0.3 -0.7,0.4c-0.3,0.1 -0.6,0.2 -0.9,0.2c-0.6,0.1 -1.2,0 -1.7,-0.1c-0.5,-0.1 -0.8,-0.2 -0.8,-0.2z" fill="#d88e45"/><path d="M248.18086,201.99908c0,0 0.2,0.3 0.5,0.6c0.2,0.2 0.4,0.3 0.6,0.5c0.2,0.2 0.5,0.3 0.8,0.4c0.3,0.1 0.6,0.2 0.9,0.2c0.3,0 0.6,0.1 0.8,0c0.2,0 0.4,0 0.6,0c0.1,0 0.2,0 0.2,0c0,0 -0.1,0 -0.2,0.1c-0.1,0 -0.3,0.2 -0.6,0.2c-0.2,0.1 -0.5,0.1 -0.9,0.1c-0.3,0 -0.7,-0.1 -1,-0.2c-0.3,-0.1 -0.6,-0.3 -0.9,-0.5c-0.2,-0.2 -0.4,-0.5 -0.5,-0.7c-0.3,-0.3 -0.3,-0.7 -0.3,-0.7z" fill="#d88e45"/><path d="M251.88086,205.39908c0,0 0.2,0 0.5,-0.1c0.3,0 0.7,0 1.1,-0.1c0.4,0 0.8,0 1.1,-0.1c0.1,0 0.3,0 0.4,-0.1c0.1,0 0.1,0 0.1,0c0,0 -0.1,0.2 -0.4,0.4c-0.3,0.2 -0.7,0.3 -1.2,0.3c-0.4,0 -0.9,-0.1 -1.2,-0.2c-0.2,0 -0.4,-0.1 -0.4,-0.1z" fill="#d88e45"/><path d="M249.48086,206.49908c0,0 0.2,0 0.4,-0.1c0.2,0 0.6,0 0.9,0c0.3,0 0.6,0.1 0.9,0.2c0.2,0.1 0.4,0.2 0.4,0.2c0,0 -0.2,0.1 -0.4,0.1c-0.3,0 -0.6,0.1 -0.9,0c-0.3,0 -0.6,-0.1 -0.9,-0.2c-0.3,-0.1 -0.4,-0.2 -0.4,-0.2z" fill="#d88e45"/><path d="M249.18086,208.29908c0,0 0.2,0.2 0.6,0.3c0.4,0.1 0.9,0.1 1.4,0.1c0.5,0 1.1,-0.1 1.5,-0.2c0.4,-0.1 0.7,-0.1 0.7,-0.1c0,0 -0.2,0.2 -0.6,0.4c-0.2,0.1 -0.4,0.2 -0.7,0.3c-0.3,0.1 -0.5,0.1 -0.8,0.2c-0.3,0 -0.6,0 -0.9,-0.1c-0.3,0 -0.5,-0.2 -0.7,-0.3c-0.2,-0.1 -0.3,-0.3 -0.4,-0.4c-0.1,-0.1 -0.1,-0.2 -0.1,-0.2z" fill="#d88e45"/><path d="M251.08086,210.59908c0,0 0.3,0 0.8,0c0.2,0 0.5,0 0.8,-0.1c0.3,0 0.6,-0.1 0.9,-0.1c0.3,-0.1 0.6,-0.1 0.9,-0.2c0.1,-0.1 0.3,-0.1 0.4,-0.2c0.1,-0.1 0.2,-0.1 0.3,-0.2c0.2,-0.1 0.4,-0.2 0.4,-0.4c0.1,-0.1 0.2,-0.1 0.2,-0.1c0,0 -0.1,0.3 -0.4,0.7c-0.2,0.2 -0.4,0.4 -0.7,0.5c-0.3,0.2 -0.6,0.3 -0.9,0.3c-0.3,0.1 -0.7,0.1 -1,0.1c-0.3,0 -0.6,-0.1 -0.8,-0.1c-0.6,-0.1 -0.9,-0.2 -0.9,-0.2z" fill="#d88e45"/><path d="M249.78086,212.29908c0,0 0.2,-0.1 0.6,-0.1c0.3,-0.1 0.8,-0.1 1.3,-0.1c0.5,0 0.9,0 1.3,-0.1c0.3,0 0.6,0 0.6,0c0,0 -0.2,0.1 -0.5,0.3c-0.3,0.1 -0.8,0.3 -1.3,0.3c-0.5,0 -1,0 -1.3,-0.1c-0.5,-0.1 -0.7,-0.2 -0.7,-0.2z" fill="#d88e45"/><path d="M252.18086,213.79908c0,0 0.2,0 0.4,-0.1c0.3,0 0.6,-0.1 0.9,-0.1c0.3,0 0.7,-0.1 0.9,-0.1c0.1,0 0.2,0 0.3,0c0.1,0 0.1,0 0.1,0c0,0 -0.1,0.2 -0.4,0.3c-0.2,0.2 -0.6,0.3 -1,0.3c-0.4,0 -0.7,0 -1,-0.1c0,-0.1 -0.2,-0.2 -0.2,-0.2z" fill="#d88e45"/></g><g><path d="M231.88086,206.19908c-2.4,-4 3,-9.7 7.5,-5.1c4.4,4.6 2,15 -1.1,15.2c-4.7,0.3 -4,-6.1 -6.4,-10.1z" fill="#ffb32e"/><path d="M234.18086,200.39908c1.4,-0.5 3,-0.2 3.4,0.6c0.4,0.8 -0.7,1.9 -2,2.4c-1.3,0.5 -2.7,0.4 -3.1,-0.4c-0.4,-0.8 0.5,-2.2 1.7,-2.6z" fill="#b27839"/><path d="M239.58086,202.39908c0,0 -0.1,0.4 -0.4,1c-0.2,0.3 -0.4,0.6 -0.7,0.9c-0.3,0.3 -0.7,0.6 -1.1,0.8c-0.2,0.1 -0.4,0.2 -0.6,0.2c-0.2,0 -0.4,0.1 -0.6,0.1c-0.4,0 -0.8,0 -1.1,0c-0.3,0 -0.6,-0.1 -0.8,-0.2c-0.2,-0.1 -0.3,-0.1 -0.3,-0.1c0,0 0.1,0 0.3,0c0.2,0 0.4,0 0.8,0c0.3,0 0.7,0 1,-0.1c0.2,0 0.4,-0.1 0.6,-0.1c0.2,-0.1 0.4,-0.1 0.6,-0.2c0.4,-0.2 0.7,-0.4 1,-0.6c0.3,-0.3 0.5,-0.5 0.7,-0.8c0.4,-0.5 0.6,-0.9 0.6,-0.9z" fill="#d88e45"/><path d="M237.38086,206.39908c0,0 -0.2,0.2 -0.6,0.3c-0.4,0.2 -0.9,0.3 -1.4,0.4c-0.3,0 -0.5,0 -0.8,0c-0.3,0 -0.5,-0.1 -0.7,-0.1c-0.4,-0.1 -0.6,-0.3 -0.6,-0.3c0,0 0.1,0 0.2,0c0.1,0 0.3,0 0.5,0.1c0.4,0 0.9,0 1.4,-0.1c0.3,0 0.5,-0.1 0.8,-0.1c0.2,0 0.5,-0.1 0.7,-0.1c0.2,-0.1 0.5,-0.1 0.5,-0.1z" fill="#d88e45"/><path d="M240.28086,205.59908c0,0 0,0.3 -0.2,0.7c-0.1,0.2 -0.2,0.4 -0.4,0.6c-0.2,0.2 -0.4,0.4 -0.7,0.5c-0.3,0.1 -0.5,0.2 -0.8,0.3c-0.3,0.1 -0.5,0.1 -0.7,0.1c-0.2,0 -0.4,0 -0.5,0c-0.1,0 -0.2,0 -0.2,0c0,0 0.3,-0.1 0.7,-0.2c0.2,0 0.4,-0.1 0.7,-0.2c0.2,-0.1 0.5,-0.2 0.7,-0.3c0.5,-0.2 0.9,-0.6 1.1,-0.9c0.2,-0.3 0.3,-0.6 0.3,-0.6z" fill="#d88e45"/><path d="M237.58086,208.59908c0,0 -0.2,0.1 -0.4,0.3c-0.3,0.1 -0.6,0.3 -1,0.3c-0.2,0 -0.4,0 -0.6,0.1c-0.2,0 -0.4,0 -0.5,-0.1c-0.3,-0.1 -0.4,-0.2 -0.4,-0.2c0,0 0.2,0 0.5,0c0.3,0 0.6,-0.1 1,-0.2c0.2,0 0.4,-0.1 0.5,-0.1c0.2,0 0.3,0 0.5,-0.1c0.2,0 0.4,0 0.4,0z" fill="#d88e45"/><path d="M239.88086,208.89908c0,0 -0.1,0.1 -0.3,0.2c-0.2,0.1 -0.5,0.2 -0.7,0.3c-0.3,0.1 -0.6,0.1 -0.8,0.2c-0.2,0 -0.4,0 -0.4,0c0,0 0.1,-0.1 0.3,-0.2c0.2,-0.1 0.5,-0.2 0.7,-0.3c0.3,-0.1 0.6,-0.1 0.8,-0.2c0.2,0 0.4,0 0.4,0z" fill="#d88e45"/><path d="M240.38086,209.99908c0,0 0,0.1 -0.1,0.2c-0.1,0.1 -0.2,0.2 -0.3,0.4c-0.3,0.3 -0.8,0.4 -1.3,0.5c-0.3,0 -0.5,0 -0.7,0c-0.2,0 -0.5,0 -0.6,0c-0.4,-0.1 -0.6,-0.1 -0.6,-0.1c0,0 0.3,-0.1 0.6,-0.1c0.4,-0.1 0.9,-0.1 1.3,-0.2c0.2,0 0.5,-0.1 0.7,-0.1c0.2,-0.1 0.4,-0.1 0.6,-0.2c0.2,-0.2 0.4,-0.4 0.4,-0.4z" fill="#d88e45"/><path d="M238.98086,211.89908c0,0 -0.2,0.2 -0.6,0.3c-0.4,0.2 -1,0.3 -1.5,0.4c-0.3,0 -0.6,0 -0.9,0c-0.3,0 -0.5,-0.1 -0.7,-0.2c-0.2,-0.1 -0.3,-0.2 -0.4,-0.3c-0.1,-0.1 -0.1,-0.1 -0.1,-0.1c0,0 0.1,0 0.2,0.1c0.1,0.1 0.3,0.1 0.5,0.2c0.2,0 0.4,0.1 0.7,0.1c0.3,0 0.5,0 0.8,0c0.3,0 0.5,0 0.8,-0.1c0.3,0 0.5,-0.1 0.7,-0.1c0.2,-0.3 0.5,-0.3 0.5,-0.3z" fill="#d88e45"/><path d="M240.38086,212.79908c0,0 -0.2,0.1 -0.5,0.2c-0.3,0.1 -0.7,0.2 -1.1,0.3c-0.4,0.1 -0.9,0.1 -1.2,0.1c-0.3,0 -0.5,-0.1 -0.5,-0.1c0,0 0.2,-0.1 0.5,-0.1c0.3,-0.1 0.7,-0.1 1.1,-0.2c0.4,-0.1 0.8,-0.1 1.1,-0.1c0.4,-0.1 0.6,-0.1 0.6,-0.1z" fill="#d88e45"/><path d="M238.48086,214.29908c0,0 -0.1,0.1 -0.3,0.2c-0.1,0 -0.2,0.1 -0.4,0.2c-0.1,0 -0.3,0.1 -0.5,0.1c-0.3,0 -0.7,0 -0.9,0c-0.2,-0.1 -0.4,-0.2 -0.4,-0.2c0,0 0.2,0 0.4,-0.1c0.2,0 0.5,-0.1 0.8,-0.1c0.3,0 0.6,-0.1 0.8,-0.1c0.3,0 0.5,0 0.5,0z" fill="#d88e45"/></g><path d="M239.18086,215.89908c0,0 0.7,-0.8 1.2,-2.1c0.1,-0.3 0.3,-0.7 0.4,-1.1c0.1,-0.4 0.2,-0.8 0.3,-1.3c0.1,-0.4 0.1,-0.9 0.1,-1.4c0,-0.5 0,-1 -0.1,-1.4c-0.1,-0.5 -0.1,-1 -0.2,-1.4c-0.1,-0.5 -0.2,-0.9 -0.4,-1.4c-0.2,-0.4 -0.3,-0.8 -0.4,-1.2c-0.2,-0.4 -0.3,-0.7 -0.5,-1.1c-0.3,-0.7 -0.6,-1.2 -0.8,-1.6c-0.2,-0.4 -0.3,-0.6 -0.3,-0.6c0,0 0.1,0.2 0.4,0.6c0.1,0.2 0.3,0.4 0.5,0.6c0.2,0.2 0.4,0.5 0.5,0.9c0.2,0.3 0.4,0.7 0.6,1.1c0.2,0.4 0.3,0.8 0.5,1.3c0.2,0.4 0.3,0.9 0.4,1.4c0.2,0.5 0.2,1 0.3,1.5c0.1,0.5 0,1 0,1.5c-0.1,0.5 -0.1,1 -0.2,1.4c-0.1,0.5 -0.2,0.9 -0.4,1.3c-0.1,0.4 -0.3,0.8 -0.5,1.1c-0.6,1.2 -1.4,1.9 -1.4,1.9z" fill="#c98439"/><path d="M248.58086,216.39908c0,0 0.1,0 0.2,-0.1c0.1,-0.1 0.3,-0.2 0.4,-0.5c0.1,-0.2 0.2,-0.6 0.3,-0.9c0,-0.4 0.1,-0.8 0.1,-1.3c0,-0.5 0,-1 0,-1.5c0,-0.5 -0.1,-1.1 -0.1,-1.7c-0.1,-1.2 -0.3,-2.5 -0.4,-3.7c-0.1,-0.6 -0.2,-1.3 -0.3,-1.9c-0.1,-0.6 -0.2,-1.2 -0.3,-1.8c-0.2,-1.2 -0.4,-2.3 -0.6,-3.2c-0.3,-1.9 -0.5,-3.2 -0.5,-3.2c0,0 0.3,1.2 0.8,3.1c0.2,0.9 0.5,2 0.7,3.2c0.1,0.6 0.2,1.2 0.3,1.8c0.1,0.6 0.2,1.3 0.3,1.9c0.2,1.3 0.3,2.5 0.4,3.8c0.1,1.2 0.1,2.3 0,3.3c0,0.5 -0.1,0.9 -0.2,1.3c-0.1,0.4 -0.2,0.7 -0.4,1c-0.2,0.2 -0.3,0.4 -0.5,0.5c-0.1,-0.1 -0.2,-0.2 -0.2,-0.1z" fill="#c98439"/><path d="M232.38086,187.09908c0,0 -0.2,-0.7 -0.3,-1.8c0,-0.6 -0.1,-1.2 0,-1.9c0,-0.4 0.1,-0.7 0.2,-1.1c0.1,-0.4 0.2,-0.7 0.4,-1.1c0.2,-0.3 0.3,-0.7 0.6,-1c0.2,-0.3 0.5,-0.6 0.8,-0.8c0.1,-0.1 0.3,-0.2 0.4,-0.3c0.2,-0.1 0.3,-0.2 0.4,-0.2c0.1,-0.1 0.3,-0.2 0.4,-0.2c0.1,0 0.3,-0.1 0.4,-0.1c0.3,-0.1 0.5,-0.2 0.7,-0.2c0.2,0 0.4,0 0.6,-0.1c0.3,0 0.5,0 0.5,0c0,0 -0.2,0.1 -0.5,0.1c-0.2,0 -0.3,0.1 -0.6,0.1c-0.2,0.1 -0.4,0.2 -0.7,0.3c-0.1,0.1 -0.3,0.1 -0.4,0.2c-0.1,0.1 -0.2,0.2 -0.4,0.3c-0.1,0.1 -0.3,0.2 -0.4,0.3c-0.1,0.1 -0.2,0.2 -0.4,0.3c-0.3,0.2 -0.5,0.5 -0.7,0.8c-0.2,0.3 -0.3,0.6 -0.5,0.9c-0.1,0.3 -0.3,0.7 -0.4,1c-0.1,0.3 -0.2,0.7 -0.2,1c-0.1,0.7 -0.2,1.3 -0.2,1.9c0.3,0.9 0.3,1.6 0.3,1.6z" fill="#c98439"/><path d="M255.68086,192.79908c0,0 0.8,-1.3 1.8,-3.3c0.5,-1 1,-2.2 1.6,-3.5c0.5,-1.3 1.1,-2.7 1.5,-4.1c0.2,-0.7 0.4,-1.4 0.6,-2.1c0.2,-0.7 0.3,-1.4 0.5,-2.1c0.2,-0.7 0.3,-1.4 0.4,-2c0.1,-0.6 0.2,-1.2 0.3,-1.8c0.1,-0.6 0.1,-1.1 0.2,-1.5c0,-0.5 0.1,-0.9 0.1,-1.2c0.1,-0.7 0.1,-1 0.1,-1c0,0 0,0.4 0,1c0,0.7 0,1.6 -0.1,2.7c0,0.6 -0.1,1.2 -0.2,1.8c-0.1,0.6 -0.1,1.3 -0.3,2c-0.2,0.7 -0.3,1.4 -0.5,2.1c-0.2,0.7 -0.4,1.5 -0.6,2.2c-0.4,1.4 -1,2.9 -1.6,4.2c-0.6,1.3 -1.2,2.5 -1.7,3.5c-1.2,1.9 -2.1,3.1 -2.1,3.1z" fill="#c98439"/><path d="M233.38086,199.89908c0,0 -0.4,0.3 -0.9,1c-0.2,0.3 -0.5,0.7 -0.6,1.2c-0.1,0.2 -0.2,0.5 -0.2,0.7c-0.1,0.2 0,0.5 -0.1,0.8c0,0.3 0,0.5 0.1,0.8c0.1,0.2 0.1,0.5 0.2,0.7c0.1,0.2 0.2,0.5 0.2,0.7c0.1,0.2 0.2,0.4 0.3,0.6c0.2,0.4 0.3,0.7 0.5,0.9c0.1,0.2 0.2,0.3 0.2,0.3c0,0 -0.1,-0.1 -0.3,-0.3c-0.1,-0.2 -0.4,-0.4 -0.6,-0.8c-0.1,-0.2 -0.2,-0.4 -0.4,-0.6c-0.1,-0.2 -0.2,-0.4 -0.3,-0.7c-0.1,-0.2 -0.2,-0.5 -0.2,-0.8c-0.1,-0.3 -0.1,-0.6 -0.1,-0.9c0,-0.3 0,-0.6 0.1,-0.9c0.1,-0.3 0.2,-0.5 0.3,-0.8c0.1,-0.2 0.3,-0.5 0.4,-0.7c0.1,-0.2 0.3,-0.4 0.4,-0.5c0.3,-0.3 0.6,-0.5 0.8,-0.6c0.1,0 0.2,-0.1 0.2,-0.1z" fill="#c98439"/><path d="M217.68086,193.89908c0,0 0.6,1.4 1.7,3.4c0.5,1 1.2,2.1 2,3.4c0.7,1.2 1.6,2.5 2.5,3.7c0.5,0.6 0.9,1.2 1.4,1.8c0.5,0.6 0.9,1.1 1.4,1.6c0.5,0.5 0.9,1 1.4,1.5c0.5,0.4 0.9,0.9 1.4,1.2c0.4,0.4 0.8,0.7 1.2,1c0.4,0.3 0.7,0.5 1,0.7c0.5,0.4 0.9,0.6 0.9,0.6c0,0 -0.3,-0.2 -0.9,-0.5c-0.3,-0.2 -0.6,-0.4 -1,-0.6c-0.4,-0.3 -0.8,-0.6 -1.3,-0.9c-0.5,-0.3 -0.9,-0.8 -1.4,-1.2c-0.5,-0.4 -1,-0.9 -1.5,-1.4c-0.5,-0.5 -1,-1.1 -1.5,-1.6c-0.5,-0.6 -0.9,-1.2 -1.4,-1.8c-0.9,-1.2 -1.7,-2.5 -2.5,-3.7c-0.7,-1.2 -1.3,-2.4 -1.8,-3.5c-1.2,-2.2 -1.6,-3.7 -1.6,-3.7z" fill="#c98439"/><path d="M256.58086,208.39908c0,0 0.7,-0.6 1.7,-1.6c0.5,-0.5 1,-1.1 1.6,-1.8c0.6,-0.7 1.1,-1.4 1.7,-2.2c0.3,-0.4 0.5,-0.8 0.8,-1.2c0.3,-0.4 0.5,-0.8 0.7,-1.2c0.2,-0.4 0.4,-0.8 0.6,-1.1c0.2,-0.4 0.3,-0.7 0.5,-1c0.3,-0.6 0.5,-1.2 0.7,-1.6c0.2,-0.4 0.2,-0.6 0.2,-0.6c0,0 -0.1,0.2 -0.2,0.6c-0.1,0.4 -0.2,1 -0.5,1.7c-0.1,0.3 -0.2,0.7 -0.4,1.1c-0.2,0.4 -0.3,0.8 -0.5,1.2c-0.2,0.4 -0.4,0.8 -0.7,1.2c-0.2,0.4 -0.5,0.8 -0.8,1.2c-0.5,0.8 -1.1,1.5 -1.7,2.2c-0.6,0.7 -1.2,1.2 -1.7,1.7c-1.2,0.9 -2,1.4 -2,1.4z" fill="#c98439"/><path d="M253.08086,191.59908c0,0 0.7,0.1 1.7,0.6c0.2,0.1 0.5,0.3 0.8,0.5c0.2,0.2 0.5,0.4 0.7,0.7c0.5,0.5 0.9,1.2 1.1,1.9c0.1,0.4 0.3,0.7 0.3,1.1c0.1,0.4 0.1,0.7 0.1,1.1c0,0.3 0,0.7 0,1c0,0.3 -0.1,0.6 -0.1,0.9c0,0.5 -0.2,1 -0.3,1.3c-0.1,0.3 -0.1,0.5 -0.1,0.5c0,0 0,-0.2 0,-0.5c0,-0.3 0.1,-0.8 0.1,-1.3c0,-0.3 0,-0.6 0,-0.9c0,-0.3 -0.1,-0.6 -0.1,-1c0,-0.3 -0.1,-0.7 -0.2,-1c0,-0.3 -0.2,-0.7 -0.3,-1c-0.1,-0.3 -0.3,-0.6 -0.4,-0.9c-0.2,-0.3 -0.3,-0.6 -0.6,-0.8c-0.2,-0.3 -0.4,-0.5 -0.6,-0.7c-0.2,-0.2 -0.4,-0.4 -0.7,-0.5c-0.7,-0.8 -1.4,-1 -1.4,-1z" fill="#c98439"/><path d="M242.18086,178.29908c0,0 0,-1.3 -0.1,-3.3c0,-1 0,-2.1 0,-3.4c0,-1.2 0.1,-2.5 0.1,-3.9c0.1,-1.3 0.1,-2.6 0.2,-3.9c0.1,-1.2 0.1,-2.4 0.2,-3.4c0.1,-1 0.2,-1.8 0.2,-2.4c0.1,-0.6 0.1,-0.9 0.1,-0.9c0,0 0,1.3 0,3.3c0,1 0,2.1 0,3.4c0,1.2 -0.1,2.5 -0.1,3.9c-0.1,1.3 -0.1,2.6 -0.1,3.9c-0.1,1.2 -0.1,2.4 -0.2,3.4c-0.2,2 -0.3,3.3 -0.3,3.3z" fill="#c98439"/></g></g></g></svg>