<svg version="1.1" xmlns="http://www.w3.org/2000/svg" xmlns:xlink="http://www.w3.org/1999/xlink" width="87.34902" height="125.1285" viewBox="0,0,87.34902,125.1285"><g transform="translate(-196.32549,-117.43575)"><g data-paper-data="{&quot;isPaintingLayer&quot;:true}" fill-rule="nonzero" stroke="none" stroke-width="1" stroke-linecap="butt" stroke-linejoin="miter" stroke-miterlimit="10" stroke-dasharray="" stroke-dashoffset="0" style="mix-blend-mode: normal"><g><g fill="#ffde8a" opacity="0.9"><path d="M246.22585,120.25673c-10.32463,1.29058 -11.77653,16.53554 -12.98645,24.44034c-0.72595,4.75901 -1.29058,9.43736 -2.33917,14.11571c-0.72595,3.22645 -1.69389,6.93686 -4.03306,9.3567c-5.48496,5.56562 -26.29555,19.1167 -12.42182,27.0215c4.3557,2.5005 10.40529,2.01653 14.11571,5.64628c3.14579,3.06513 1.61322,7.34017 -0.80661,10.32463c-3.06513,3.79108 -7.58215,6.77554 -12.09918,8.46943c-3.22645,1.29058 -8.06612,2.25851 -10.56662,-0.88727c-1.0486,-1.29058 0.80661,-3.14579 1.85521,-1.85521c3.14579,3.87174 10.72794,-0.72595 13.63174,-2.74248c3.14579,-2.09719 10.8086,-8.46943 5.24298,-12.09918c-4.3557,-2.82314 -10.08265,-2.41984 -14.27703,-5.72694c-3.9524,-3.14579 -5.24298,-7.58215 -3.22645,-12.2605c2.33917,-5.4043 7.17885,-9.51802 11.53455,-13.3091c3.30711,-2.9038 6.29157,-4.92033 7.66281,-9.19538c2.82314,-8.71141 2.9038,-18.14877 5.00099,-27.0215c1.77455,-7.42083 5.16232,-15.80959 13.7124,-16.85819c1.69389,-0.16132 1.61322,2.41984 0,2.58116z"/></g><g fill="#ffde8a" opacity="0.9"><path d="M246.38717,117.83689c8.79207,2.58116 8.63075,13.95439 8.87273,21.37522c0.40331,9.43736 0.16132,20.97191 6.93686,28.4734c6.04959,6.61422 18.47141,14.43835 13.55108,25.08563c-2.01653,4.43637 -6.21091,6.37223 -10.40529,8.14678c-5.00099,2.09719 -9.11471,4.92033 -9.76,10.8086c-1.12926,10.00199 13.38976,8.95339 19.68133,8.22744c1.69389,-0.24198 1.69389,2.41984 0,2.58116c-7.17885,0.80661 -20.89125,1.4519 -22.26249,-8.38876c-0.64529,-4.3557 1.37124,-9.27604 4.75901,-12.09918c3.54909,-2.9038 8.14678,-3.71041 11.93786,-6.21091c5.48496,-3.62975 5.4043,-9.84067 1.93587,-14.84166c-3.14579,-4.59769 -7.9048,-7.66281 -11.53455,-11.93786c-6.29157,-7.34017 -6.8562,-17.6648 -7.17885,-26.86018c-0.24198,-6.4529 1.0486,-19.52001 -7.01752,-21.93984c-1.61322,-0.48397 -0.96793,-2.98446 0.48397,-2.41984z"/></g><path d="M248.48436,213.25909c0.56463,-1.93587 -2.09719,-3.9524 -3.30711,-5.08166c-1.53256,-1.37124 -3.22645,-2.74248 -4.67835,-4.27504c-2.09719,-2.33917 -3.22645,-5.56562 -1.20992,-8.38876c2.25851,-3.06513 6.29157,-4.59769 9.19538,-6.93686c4.43637,-3.54909 6.69488,-8.46943 7.34017,-14.03505c0.80661,-6.21091 0.24198,-12.66381 -0.24198,-18.87472c-0.56463,-7.25951 -1.4519,-14.59968 -3.06513,-21.69786c-0.96793,-4.11372 -2.25851,-12.01852 -6.77554,-13.95439c-1.61322,-0.64529 -0.24198,-2.9038 1.29058,-2.25851c5.32364,2.33917 6.93686,11.13124 8.06612,16.13224c1.61322,7.34017 2.5005,14.84166 3.06513,22.34315c0.56463,6.69488 1.12926,13.7124 0,20.32662c-0.80661,4.92033 -2.98446,9.59868 -6.69488,12.98645c-1.69389,1.53256 -3.54909,2.74248 -5.4043,3.9524c-1.61322,1.0486 -3.46843,2.01653 -4.59769,3.54909c-4.19438,5.72694 11.37323,10.40529 9.59868,17.10017c-0.48397,1.61322 -2.98446,0.88727 -2.58116,-0.88727z" fill="#f7b5bc"/><path d="M207.18583,209.54867c-0.80661,-4.19438 -0.24198,-8.38876 2.9038,-11.45389c2.98446,-2.9038 7.34017,-4.3557 11.29257,-5.64628c4.11372,-1.37124 8.95339,-2.17785 12.74447,-4.43637c3.79108,-2.17785 5.4043,-7.34017 6.69488,-11.21191c2.01653,-6.13025 3.79108,-12.42182 5.24298,-18.7134c1.85521,-7.50149 3.22645,-15.1643 3.79108,-22.82712c0.16132,-2.98446 1.4519,-14.68034 -3.54909,-15.08364c-1.53256,-0.16132 -1.53256,-2.58116 0,-2.41984c6.61422,0.56463 6.21091,10.48596 6.04959,15.1643c-0.56463,14.51901 -4.51703,28.79605 -8.63075,42.66977c-1.29058,4.19438 -2.82314,8.87273 -5.72694,12.2605c-2.74248,3.14579 -7.17885,4.19438 -10.96992,5.4043c-7.98546,2.5005 -19.76199,4.83967 -17.6648,15.72893c0.32264,1.53256 -2.01653,2.17785 -2.17785,0.56463z" fill="#f2e5d1"/><path d="M207.26649,239.39331c-4.11372,-5.00099 -6.69488,-10.48596 -8.38876,-16.69687c-1.4519,-5.24298 -3.54909,-10.88926 -2.01653,-16.37422c1.29058,-4.67835 4.67835,-8.38876 8.06612,-11.77653c2.98446,-2.98446 8.06612,-6.4529 7.50149,-11.29257c-0.48397,-4.27504 -2.74248,-8.14678 -2.58116,-12.58315c0.16132,-4.27504 2.25851,-8.14678 5.48496,-10.88926c3.46843,-2.98446 7.82414,-4.59769 12.34116,-5.08166c4.19438,-0.48397 7.25951,-1.12926 10.32463,-4.27504c7.66281,-7.9048 8.55009,-20.64927 6.93686,-30.9739c-0.32264,-1.69389 2.25851,-2.41984 2.5005,-0.72595c1.69389,10.72794 0.80661,23.23042 -6.29157,32.02249c-2.17785,2.66182 -4.92033,4.92033 -8.22744,5.88827c-2.09719,0.56463 -4.27504,0.40331 -6.37223,0.80661c-2.25851,0.40331 -4.51703,1.12926 -6.61422,2.25851c-4.27504,2.33917 -7.50149,6.4529 -7.42083,11.53455c0.08066,4.27504 2.33917,7.98546 2.66182,12.17984c0.24198,3.79108 -2.17785,6.77554 -4.67835,9.3567c-3.87174,3.87174 -8.55009,7.58215 -10.64728,12.82513c-2.09719,5.24298 0,10.48596 1.37124,15.56761c1.61322,5.96893 3.9524,11.45389 7.9048,16.29356c1.0486,1.29058 -0.80661,3.14579 -1.85521,1.93587z" fill="#ef8989"/><g fill="#fce4b4" opacity="0.6"><path d="M263.00338,224.8743c-3.30711,-4.11372 -5.88827,-8.79207 -3.79108,-14.11571c1.12926,-2.82314 3.30711,-5.00099 4.27504,-7.9048c1.12926,-3.38777 -0.08066,-6.4529 -0.88727,-9.67934c-1.0486,-4.11372 -4.3557,-8.3081 -2.41984,-12.66381c1.77455,-3.87174 5.64628,-6.21091 8.14678,-9.43736c3.71041,-4.83967 1.77455,-12.17984 0.16132,-17.50348c-2.33917,-7.50149 -5.88827,-14.761 -10.24397,-21.37522c-2.82314,-4.27504 -6.93686,-10.64728 -12.34116,-12.01852c-1.61322,-0.40331 -0.88727,-2.9038 0.72595,-2.5005c6.13025,1.61322 10.72794,8.3081 13.95439,13.22844c4.3557,6.53356 7.82414,13.7124 10.24397,21.21389c1.69389,5.4043 3.54909,12.42182 1.29058,17.90679c-1.53256,3.54909 -4.83967,6.04959 -7.42083,8.79207c-1.53256,1.61322 -2.9038,3.54909 -2.33917,5.88827c0.24198,1.29058 1.0486,2.33917 1.53256,3.54909c0.56463,1.37124 0.88727,2.82314 1.29058,4.27504c0.64529,2.58116 1.61322,5.16232 1.53256,7.82414c-0.16132,2.33917 -0.96793,4.43637 -2.09719,6.4529c-1.53256,2.74248 -3.71041,5.08166 -3.54909,8.46943c0.16132,2.98446 2.01653,5.56562 3.79108,7.82414c1.0486,1.29058 -0.72595,3.22645 -1.85521,1.77455z"/></g><g fill="#fce4b4" opacity="0.6"><path d="M235.33659,242.45844c-1.77455,-0.32264 -3.87174,-1.12926 -4.19438,-3.22645c-0.32264,-1.93587 1.0486,-3.9524 2.01653,-5.48496c2.9038,-4.43637 9.11471,-11.69587 5.88827,-17.34216c-1.20992,-2.09719 -3.46843,-3.46843 -5.32364,-5.00099c-1.93587,-1.61322 -3.79108,-3.38777 -5.08166,-5.56562c-1.53256,-2.66182 -2.17785,-5.80761 -3.22645,-8.71141c-0.88727,-2.41984 -1.77455,-4.92033 -1.77455,-7.58215c0,-5.16232 3.46843,-8.87273 6.37223,-12.74447c2.25851,-2.98446 4.27504,-6.13025 6.21091,-9.3567c5.24298,-8.55009 10.16331,-17.74546 13.14777,-27.42481c1.93587,-6.13025 4.51703,-17.01951 -3.54909,-19.92331c-1.53256,-0.56463 -0.88727,-3.06513 0.72595,-2.5005c8.79207,3.14579 8.06612,13.22844 6.13025,20.64927c-2.5005,9.76 -7.25951,18.87472 -12.2605,27.50547c-2.09719,3.62975 -4.3557,7.17885 -6.69488,10.56662c-2.58116,3.62975 -6.29157,7.01752 -7.17885,11.45389c-0.56463,2.82314 0.32264,5.56562 1.29058,8.14678c1.0486,3.06513 1.69389,6.53356 3.46843,9.27604c2.66182,4.19438 7.98546,6.04959 10.32463,10.48596c2.5005,4.75901 -0.24198,10.40529 -2.74248,14.51901c-1.37124,2.17785 -2.98446,4.27504 -4.27504,6.53356c-1.20992,2.17785 -0.96793,2.98446 1.53256,3.46843c1.69389,0.40331 0.96793,2.9038 -0.80661,2.25851z"/></g><path d="M233.2394,227.7781c-4.59769,-3.30711 -8.55009,-7.42083 -11.93786,-11.93786c-2.25851,-2.9038 -4.59769,-6.04959 -5.88827,-9.59868c-2.01653,-5.48496 -1.61322,-11.29257 0.16132,-16.69687c1.37124,-4.27504 2.98446,-8.38876 6.37223,-11.45389c3.14579,-2.82314 6.8562,-5.08166 10.40529,-7.34017c3.46843,-2.25851 7.50149,-4.59769 9.92133,-8.06612c1.61322,-2.33917 2.33917,-5.4043 3.06513,-8.06612c1.0486,-3.87174 1.77455,-7.74347 2.33917,-11.69587c0.96793,-6.8562 2.33917,-17.10017 -2.41984,-22.90778c-1.0486,-1.29058 0.80661,-3.14579 1.85521,-1.85521c5.08166,6.29157 4.19438,16.29356 3.30711,23.79505c-0.80661,6.61422 -2.01653,13.55108 -4.59769,19.68133c-2.98446,7.17885 -11.69587,10.8086 -17.74546,15.00298c-3.62975,2.5005 -6.53356,5.08166 -8.3081,9.27604c-2.5005,5.88827 -4.11372,12.2605 -2.09719,18.55207c1.0486,3.46843 3.30711,6.53356 5.48496,9.3567c3.30711,4.27504 7.01752,8.38876 11.45389,11.53455c1.37124,0.96793 0.08066,3.22645 -1.37124,2.41984z" fill="#f7b5bc"/><path d="M247.11312,119.93408c-5.32364,5.80761 -7.09819,12.90579 -3.46843,20.1653c3.14579,6.29157 8.63075,11.29257 14.03505,15.64827c2.5005,2.01653 5.08166,3.87174 7.74347,5.72694c2.17785,1.53256 4.59769,2.74248 6.21091,4.83967c1.85521,2.25851 3.22645,5.64628 2.17785,8.55009c-0.96793,2.66182 -3.87174,4.03306 -6.29157,5.08166c-1.53256,0.72595 -3.62975,1.0486 -4.51703,2.74248c-0.64529,1.20992 -0.48397,2.66182 -0.24198,3.9524c0.64529,3.71041 2.58116,7.25951 4.43637,10.56662c1.69389,3.06513 3.62975,6.04959 5.16232,9.19538c0.72595,1.4519 2.01653,4.27504 -0.24198,5.08166c-0.96793,0.32264 -2.01653,-0.16132 -2.9038,-0.48397c-2.58116,-1.12926 -4.59769,-1.37124 -6.8562,0.56463c-4.67835,4.11372 -5.16232,12.34116 -2.25851,17.58414c0.80661,1.4519 -1.4519,2.74248 -2.25851,1.29058c-3.22645,-5.80761 -2.9038,-13.55108 1.0486,-18.95538c1.53256,-2.09719 3.62975,-3.79108 6.21091,-4.11372c1.29058,-0.16132 2.58116,0 3.79108,0.48397c0.32264,0.08066 2.17785,0.72595 2.33917,0.96793c0.08066,0.16132 0,0 0,0.08066c0,-0.24198 -0.48397,0.56463 -0.40331,0.56463c0,0 -0.16132,-0.72595 -0.24198,-0.96793c-0.56463,-1.29058 -1.29058,-2.58116 -2.01653,-3.79108c-2.01653,-3.54909 -4.19438,-7.01752 -5.88827,-10.64728c-1.53256,-3.06513 -3.06513,-6.69488 -2.74248,-10.16331c0.40331,-4.11372 3.54909,-5.08166 6.8562,-6.53356c1.77455,-0.72595 4.11372,-1.77455 4.59769,-3.87174c0.40331,-2.09719 -0.96793,-4.59769 -2.25851,-6.04959c-1.85521,-2.09719 -4.83967,-3.54909 -7.09819,-5.16232c-5.24298,-3.71041 -10.40529,-7.74347 -14.761,-12.50249c-3.87174,-4.27504 -7.34017,-9.3567 -8.14678,-15.24497c-0.80661,-6.29157 1.93587,-11.93786 6.13025,-16.45488c1.20992,-1.29058 3.06513,0.56463 1.85521,1.85521z" fill="#ef8989"/></g><g><g><path d="M283.41066,148.56881c-1.85521,6.13025 -10.48596,10.56662 -16.53554,12.09918c-10.32463,2.66182 -21.29456,5.72694 -31.78051,3.87174c-23.95637,-4.19438 -28.15076,-14.11571 -28.15076,-14.11571c-4.59769,-6.77554 0.24198,-18.55207 6.13025,-22.58513c11.45389,-7.9048 24.1177,-12.42182 37.66878,-9.51802c6.21091,1.29058 12.01852,2.82314 17.6648,5.96893c11.37323,6.29157 16.53554,18.95538 15.00298,24.27902z" fill="#f4c76e" opacity="0.9"/><path d="M282.52339,150.10137c-0.48397,0.96793 -1.12926,1.93587 -1.93587,2.82314c-0.32264,-1.20992 -0.64529,-2.41984 -1.0486,-3.62975c-0.96793,-2.66182 -2.9038,-4.83967 -4.59769,-7.17885c-3.06513,-4.27504 -5.32364,-9.19538 -9.51802,-12.58315c-1.85521,-1.53256 -3.79108,-2.9038 -5.72694,-4.27504c0.24198,0.32264 0.40331,0.56463 0.64529,0.80661c1.85521,2.25851 3.54909,4.51703 4.59769,7.25951c1.20992,2.98446 1.69389,6.13025 2.66182,9.19538c1.12926,3.54909 2.66182,5.56562 5.88827,7.34017c1.93587,1.12926 3.9524,2.25851 5.16232,4.19438c0.08066,0.16132 0.24198,0.40331 0.32264,0.56463c-0.64529,0.56463 -1.37124,1.12926 -2.09719,1.61322c-0.32264,-0.56463 -0.72595,-1.12926 -1.12926,-1.61322c-1.53256,-1.69389 -3.9524,-2.41984 -5.80761,-3.71041c-1.85521,-1.20992 -3.06513,-2.82314 -3.9524,-4.83967c-2.33917,-5.48496 -2.41984,-11.53455 -6.13025,-16.37422c-1.69389,-2.25851 -3.54909,-4.43637 -5.72694,-6.21091c2.41984,3.30711 4.03306,7.25951 4.51703,10.40529c0.80661,5.48496 0.16132,11.05058 1.29058,16.45488c0.88727,4.11372 2.66182,7.74347 5.32364,10.8086c-0.96793,0.24198 -1.85521,0.48397 -2.82314,0.72595c-4.51703,-5.80761 -5.80761,-12.98645 -5.96893,-20.5686c-0.08066,-5.08166 -0.40331,-9.59868 -3.06513,-13.95439c-1.37124,-2.25851 -3.46843,-5.16232 -6.04959,-6.53356c-0.08066,0 -0.16132,0 -0.24198,0c3.54909,5.56562 2.9038,12.17984 2.33917,18.7134c-0.32264,4.59769 -0.80661,9.59868 0.24198,14.11571c0.80661,3.62975 2.98446,6.69488 4.27504,10.16331c-0.80661,0.16132 -1.69389,0.32264 -2.58116,0.48397c-1.12926,-3.06513 -3.06513,-5.80761 -3.9524,-8.95339c-1.12926,-4.11372 -0.96793,-8.55009 -0.72595,-12.74447c0.32264,-6.69488 2.17785,-14.43835 -1.69389,-20.32662c-1.85521,2.25851 -2.33917,5.64628 -2.5005,8.55009c-0.32264,4.59769 0.08066,9.19538 0.40331,13.7124c0.48397,7.01752 0.08066,15.1643 -4.43637,20.5686c-1.0486,-0.08066 -2.17785,-0.24198 -3.22645,-0.40331c6.61422,-5.88827 5.24298,-16.69687 4.75901,-24.84365c-0.24198,-4.92033 -0.88727,-12.34116 1.69389,-17.34216c-1.29058,1.29058 -2.25851,2.9038 -2.98446,4.27504c-2.17785,3.9524 -3.62975,8.38876 -5.00099,12.74447c-1.20992,3.87174 -2.41984,7.74347 -4.27504,11.37323c-2.01653,3.79108 -5.4043,6.69488 -7.9048,10.08265c-0.88727,-0.32264 -1.69389,-0.64529 -2.5005,-0.96793c2.66182,-3.79108 6.37223,-6.93686 8.46943,-11.21191c2.09719,-4.19438 3.22645,-8.63075 4.67835,-13.06711c1.0486,-3.14579 2.66182,-8.14678 5.08166,-12.01852c-2.33917,1.53256 -4.83967,2.9038 -7.01752,4.67835c-4.03306,3.38777 -7.98546,7.17885 -11.45389,11.21191c-3.22645,3.79108 -7.17885,7.82414 -7.74347,12.98645c-0.08066,0.80661 -0.16132,1.61322 -0.16132,2.41984c-1.12926,-0.88727 -1.93587,-1.69389 -2.5005,-2.41984c0.48397,-3.87174 2.17785,-7.01752 4.75901,-10.24397c4.19438,-5.08166 8.46943,-9.67934 13.3091,-14.11571c3.14579,-2.9038 7.25951,-4.92033 10.64728,-7.58215c-0.72595,0.24198 -1.53256,0.48397 -2.25851,0.80661c-2.5005,1.12926 -4.75901,3.14579 -7.17885,4.51703c-2.33917,1.37124 -4.75901,2.5005 -7.17885,3.79108c-4.3557,2.25851 -10.24397,3.79108 -13.3091,7.9048c-0.40331,0.56463 -1.20992,1.69389 -1.85521,2.98446c0.40331,-2.5005 1.37124,-5.00099 2.66182,-7.17885c2.58116,-1.93587 5.64628,-3.22645 8.79207,-4.75901c3.22645,-1.61322 6.4529,-3.22645 9.51802,-5.00099c2.9038,-1.69389 5.56562,-4.11372 8.79207,-5.24298c1.20992,-0.32264 2.41984,-0.64529 3.62975,-0.88727c3.9524,-0.32264 7.9048,-0.16132 11.93786,0.72595c1.85521,0.40331 3.62975,0.80661 5.4043,1.29058c0.16132,0.08066 0.24198,0.08066 0.32264,0.16132c3.62975,2.01653 7.01752,4.43637 10.24397,7.01752c4.43637,3.46843 6.8562,8.14678 10.00199,12.66381c1.85521,2.66182 4.19438,5.08166 5.4043,8.14678c0.32264,0.72595 0.56463,1.53256 0.48397,2.5005z" fill="#fefefe" opacity="0.4"/><path d="M281.15215,137.76021c0.08066,1.12926 0,2.17785 -0.40331,3.06513c-2.01653,4.75901 -12.58315,14.27703 -30.00596,15.72893c-20.5686,1.69389 -34.76497,-4.11372 -38.15274,-7.50149c-3.14579,-3.14579 -5.00099,-9.51802 -4.83967,-14.92232c1.4519,-2.66182 3.30711,-4.92033 5.32364,-6.29157c11.45389,-7.9048 24.1177,-12.42182 37.66878,-9.51802c6.21091,1.29058 12.01852,2.82314 17.6648,5.96893c6.04959,3.38777 10.32463,8.55009 12.74447,13.47042z" fill="#efc25e" opacity="0.7"/></g><g><g><g><g fill="#fefefe"><path d="M223.23741,140.18004c-0.16132,-3.06513 0.24198,-6.53356 2.98446,-6.93686c2.74248,-0.40331 4.19438,3.38777 4.92033,6.53356c-1.12926,-0.24198 -2.66182,-0.32264 -4.27504,-0.16132c-1.37124,0.08066 -2.58116,0.32264 -3.62975,0.56463z"/></g><path d="M227.27047,139.61542c-0.64529,0.08066 -1.29058,-0.40331 -1.61322,-1.12926c0.56463,0 1.0486,-0.48397 1.0486,-1.0486c0,-0.56463 -0.48397,-1.0486 -1.0486,-1.0486h-0.08066c0.24198,-0.48397 0.56463,-0.88727 1.0486,-0.96793c0.88727,-0.16132 1.69389,0.72595 1.85521,1.85521c0.16132,1.20992 -0.32264,2.25851 -1.20992,2.33917z" fill="#323a3d"/></g><path d="M223.56005,127.11293c1.93587,-0.08066 3.71041,-0.88727 5.64628,-1.0486c0.88727,-0.08066 0.88727,1.29058 0,1.37124c-1.93587,0.16132 -3.71041,0.96793 -5.64628,1.0486c-0.88727,0.08066 -0.88727,-1.29058 0,-1.37124z" fill="#323a3d"/></g><g><g><path d="M257.19577,138.88946c0.08066,-3.71041 1.0486,-7.58215 4.03306,-7.25951c2.33917,0.24198 3.54909,3.87174 3.9524,7.01752c-1.12926,-0.24198 -2.9038,-0.40331 -4.75901,-0.24198c-1.20992,0.08066 -2.25851,0.24198 -3.22645,0.48397z" fill="#fefefe"/><path d="M262.43875,136.30831c0.08066,1.12926 -0.56463,2.09719 -1.37124,2.17785c-0.56463,0 -1.0486,-0.40331 -1.37124,-1.0486c0.48397,-0.16132 0.80661,-0.56463 0.80661,-1.0486c0,-0.56463 -0.40331,-0.96793 -0.88727,-1.0486c0.24198,-0.72595 0.72595,-1.20992 1.29058,-1.20992c0.88727,-0.08066 1.61322,0.88727 1.53256,2.17785z" fill="#323a3d"/></g><path d="M258.24437,125.49971c1.93587,0.32264 3.87174,0.40331 5.80761,0.80661c0.80661,0.16132 0.48397,1.4519 -0.40331,1.29058c-1.93587,-0.40331 -3.87174,-0.48397 -5.80761,-0.80661c-0.88727,-0.16132 -0.48397,-1.4519 0.40331,-1.29058z" fill="#323a3d"/></g><path d="M234.85262,147.19757c3.71041,1.0486 7.42083,1.20992 11.21191,0.88727c3.30711,-0.24198 6.53356,-0.56463 9.43736,-2.17785c0.80661,-0.40331 1.53256,0.80661 0.72595,1.20992c-2.9038,1.61322 -6.13025,2.01653 -9.3567,2.25851c-4.19438,0.40331 -8.3081,0.32264 -12.34116,-0.88727c-0.88727,-0.24198 -0.48397,-1.53256 0.32264,-1.29058z" fill="#323a3d"/></g></g></g></g></svg>