<svg version="1.1" xmlns="http://www.w3.org/2000/svg" xmlns:xlink="http://www.w3.org/1999/xlink" width="44.98724" height="109.13314" viewBox="0,0,44.98724,109.13314"><g transform="translate(-217.50638,-125.43343)"><g data-paper-data="{&quot;isPaintingLayer&quot;:true}" fill-rule="nonzero" stroke="none" stroke-width="1" stroke-linecap="butt" stroke-linejoin="miter" stroke-miterlimit="10" stroke-dasharray="" stroke-dashoffset="0" style="mix-blend-mode: normal"><g><path d="M243.45184,233.63343c0,0 -1.5,-2.2 -1,-6.5c0.5,-3.9 3.1,-9.9 2.8,-12.3c-0.7,-4.8 -2.8,-10 -1.6,-13.1c2.3,-6.6 8.4,-7.4 8.5,-12.9c0,-5.5 -6,-8.4 -5.1,-14.5c0.8,-6.1 6,-5.8 7.7,-13.4c1.6,-6.9 -1.5,-9.8 -4.1,-12.7c0,0 2.7,0.4 4.8,2.1c3.4,2.7 7.9,4.8 6.9,12.1c-1,7.2 -8,8.6 -5.6,13.7c2.4,5.1 4.5,8.6 3.1,16.9c-1.1,6.8 -7.3,10.6 -8.7,15.2c-0.8,2.6 1.7,7.4 1,11c-0.6,3.2 -2.3,4.7 -4.2,7.8c-2.4,3.8 -4,6.8 -4.5,6.6z" fill="#2b992b"/><path d="M243.55184,233.23343c0,0 0,-1.5 0.6,-4c0.3,-1.3 0.7,-2.8 1.4,-4.5c0.6,-1.7 1.5,-3.6 2,-5.7c0.6,-2.1 0,-4.4 -0.9,-6.8c-0.4,-1.2 -0.8,-2.5 -0.9,-3.9c-0.1,-1.4 0.1,-2.8 0.6,-4.1c0.8,-2.7 2.8,-5 4.6,-7.3c0.9,-1.1 1.8,-2.3 2.5,-3.6c0.7,-1.2 1.2,-2.6 1.1,-4c0,-2.9 -1.3,-5.6 -2.5,-8.3c-0.6,-1.3 -1.2,-2.7 -1.5,-4.1c-0.4,-1.4 -0.4,-2.9 0.3,-4.3c0.7,-1.3 1.6,-2.3 2.4,-3.4c0.8,-1.1 1.6,-2.1 2.3,-3.1c1.4,-2.1 2.5,-4.2 2.8,-6.3c0.4,-2.1 -0.1,-4.1 -1,-5.6c-0.8,-1.6 -2,-2.7 -3,-3.5c-0.5,-0.4 -0.9,-0.8 -1.3,-1.1c-0.4,-0.3 -0.7,-0.6 -1,-0.7c-0.6,-0.4 -0.9,-0.6 -0.9,-0.6c0,0 0.3,0.2 0.9,0.6c0.3,0.2 0.7,0.4 1.1,0.7c0.4,0.3 0.9,0.6 1.4,1c1,0.8 2.2,1.9 3.3,3.4c0.5,0.8 1,1.6 1.3,2.7c0.3,1 0.4,2.2 0.2,3.3c-0.3,2.3 -1.5,4.6 -3,6.7c-0.8,1 -1.6,2.1 -2.5,3.1c-0.8,1 -1.8,2 -2.5,3.2c-0.6,1.2 -0.7,2.6 -0.3,4c0.3,1.4 0.9,2.7 1.5,4c0.6,1.3 1.3,2.6 1.9,4c0.6,1.4 1,2.9 1.1,4.4c0,1.6 -0.6,3.1 -1.4,4.4c-0.8,1.3 -1.7,2.4 -2.7,3.6c-1.8,2.3 -3.8,4.4 -4.6,7c-0.4,1.3 -0.6,2.6 -0.5,3.9c0.1,1.3 0.6,2.5 1,3.7c0.5,1.2 0.9,2.4 1.1,3.6c0.2,1.2 0.1,2.5 -0.1,3.5c-0.5,2.2 -1.4,4.1 -2.1,5.7c-0.7,1.6 -1.2,3.1 -1.5,4.4c-1,2.5 -1.2,4 -1.2,4z" fill="#2a8230"/><path d="M244.45184,205.13343c0,0 -0.2,-0.5 -0.1,-1.4c0,-0.4 0.1,-0.9 0.2,-1.4c0.1,-0.2 0.2,-0.5 0.3,-0.8c0.1,-0.3 0.2,-0.5 0.4,-0.8c0.1,-0.2 0.3,-0.5 0.5,-0.7c0.2,-0.2 0.4,-0.4 0.6,-0.6c0.2,-0.2 0.4,-0.3 0.6,-0.5c0.2,-0.2 0.4,-0.3 0.6,-0.3c0.4,-0.2 0.7,-0.3 0.9,-0.4c0.2,-0.1 0.4,-0.1 0.4,-0.1c0,0 -0.1,0.1 -0.3,0.3c-0.1,0.1 -0.2,0.2 -0.3,0.3c-0.1,0.1 -0.2,0.3 -0.4,0.4c-0.1,0.1 -0.3,0.3 -0.4,0.5c-0.1,0.2 -0.3,0.3 -0.4,0.5c-0.3,0.4 -0.6,0.8 -0.8,1.2c-0.3,0.4 -0.5,0.9 -0.7,1.3c-0.2,0.4 -0.4,0.8 -0.5,1.2c-0.4,0.7 -0.6,1.3 -0.6,1.3z" fill="#53aa2b"/><path d="M243.35184,227.53343c0,0 -0.1,-0.3 -0.1,-0.7c0,-0.4 0,-1 0.2,-1.6c0.1,-0.3 0.2,-0.6 0.3,-0.8c0.1,-0.3 0.3,-0.5 0.4,-0.6c0.3,-0.3 0.6,-0.4 0.6,-0.4c0,0 0,0.1 -0.1,0.2c-0.1,0.1 -0.2,0.2 -0.3,0.4c-0.1,0.2 -0.2,0.4 -0.3,0.6c-0.1,0.2 -0.2,0.5 -0.2,0.8c-0.1,0.3 -0.1,0.5 -0.2,0.8c0,0.3 -0.1,0.5 -0.1,0.7c-0.1,0.3 -0.2,0.6 -0.2,0.6z" fill="#53aa2b"/><path d="M248.05184,176.63343c0,0 -0.3,-0.4 -0.4,-1.2c-0.1,-0.4 -0.1,-0.8 0,-1.3c0,-0.5 0.2,-1 0.4,-1.4c0.2,-0.5 0.4,-0.9 0.7,-1.3c0.3,-0.4 0.6,-0.7 0.8,-0.9c0.5,-0.5 1,-0.7 1,-0.7c0,0 0,0.1 -0.1,0.3c-0.1,0.2 -0.2,0.4 -0.4,0.8c-0.1,0.2 -0.2,0.3 -0.3,0.5c-0.1,0.2 -0.2,0.4 -0.3,0.5c-0.2,0.4 -0.4,0.8 -0.5,1.2c-0.2,0.4 -0.3,0.8 -0.4,1.2c-0.1,0.4 -0.2,0.8 -0.3,1.1c-0.2,0.7 -0.2,1.2 -0.2,1.2z" fill="#53aa2b"/><path d="M250.95184,210.43343c0,0 -0.1,-0.3 0,-0.9c0,-0.5 0.1,-1.3 0.4,-2.2c0.3,-0.9 1,-1.8 1.7,-2.7c0.7,-0.9 1.4,-1.9 2.2,-2.9c1.5,-1.9 2.9,-4 3.6,-5.6c0.4,-0.8 0.6,-1.6 0.8,-2.1c0.1,-0.5 0.2,-0.8 0.2,-0.8c0,0 0,0.3 -0.1,0.8c-0.1,0.5 -0.3,1.3 -0.6,2.1c-0.3,0.9 -0.8,1.8 -1.4,2.8c-0.6,1 -1.3,2 -2,3c-0.7,1 -1.5,2 -2.2,2.9c-0.7,0.9 -1.3,1.8 -1.6,2.6c-0.4,0.8 -0.5,1.6 -0.7,2.1c-0.3,0.6 -0.3,0.9 -0.3,0.9z" fill="#2a8230"/><path d="M250.65184,168.03343c0,0 0.6,-0.6 1.3,-1.7c0.4,-0.5 0.8,-1.2 1.1,-1.9c0.4,-0.7 0.7,-1.5 1,-2.3c0.2,-0.4 0.2,-0.8 0.4,-1.2c0.1,-0.4 0.2,-0.8 0.2,-1.2c0.1,-0.4 0.1,-0.8 0.1,-1.1c0.1,-0.4 0,-0.7 0.1,-1c0,-0.3 0,-0.6 0,-0.9c0,-0.3 0,-0.5 0,-0.7c0,-0.4 0,-0.6 0,-0.6c0,0 0,0.2 0.1,0.6c0,0.2 0.1,0.4 0.1,0.7c0.1,0.3 0,0.6 0.1,0.9c0,0.3 0,0.7 0,1.1c0,0.4 0,0.8 -0.1,1.2c-0.1,0.4 -0.1,0.8 -0.2,1.2c-0.1,0.4 -0.2,0.8 -0.3,1.3c-0.3,0.8 -0.7,1.6 -1,2.3c-0.4,0.7 -0.8,1.3 -1.3,1.8c-0.9,1 -1.6,1.5 -1.6,1.5z" fill="#2a8230"/><path d="M231.05184,220.93343c-1.2,-3.9 0.4,-8.1 -0.5,-11c-1.5,-5.1 -7.6,-7.2 -8.9,-15c-1.6,-9.4 0.8,-13.3 3.5,-19.1c2.7,-5.8 -6.4,-6.7 -7.5,-14.9c-1.1,-8.2 4.3,-10.4 7.4,-16.9c1.3,-2.8 -0.7,-7.5 -0.7,-7.5c3.6,0.6 9.1,11.4 3.9,21.6c-4,7.9 6.9,8.7 7.9,15.6c1,6.8 -5.9,10.2 -5.8,16.4c0.1,6.2 6.9,7.2 9.6,14.6c1.2,3.6 -0.8,9.9 -1.5,15.3c-0.8,5.9 0,13.5 0,13.5c-1,0.4 -5.8,-7.2 -7.4,-12.6z" fill="#2b992b"/><path d="M238.25184,233.23343c0,0 -0.6,-1.6 -1.3,-4.4c-0.4,-1.4 -0.8,-3.2 -1.1,-5.2c-0.2,-1 -0.3,-2.1 -0.4,-3.2c-0.1,-1.1 -0.1,-2.4 0.1,-3.7c0.2,-1.3 0.7,-2.5 0.9,-3.8c0.3,-1.3 0.2,-2.7 -0.2,-4c-0.2,-0.7 -0.4,-1.4 -0.7,-2c-0.2,-0.7 -0.6,-1.3 -1,-2c-0.8,-1.3 -1.8,-2.4 -2.8,-3.6c-1,-1.2 -2.1,-2.3 -3.2,-3.6c-1,-1.3 -2,-2.7 -2.5,-4.4c-0.2,-0.9 -0.3,-1.8 -0.1,-2.7c0.2,-0.8 0.6,-1.7 1,-2.4c0.8,-1.5 1.8,-2.9 2.7,-4.3c0.9,-1.4 1.8,-2.8 2.4,-4.3c0.6,-1.5 0.8,-3.2 0.3,-4.7c-0.3,-0.8 -0.7,-1.4 -1.2,-2.1c-0.5,-0.6 -1,-1.3 -1.5,-1.9c-1,-1.2 -2.1,-2.4 -3.2,-3.6c-1,-1.2 -2.1,-2.4 -2.9,-3.6c-0.9,-1.3 -1.6,-2.6 -1.9,-4.2c-0.1,-0.8 -0.1,-1.6 0.1,-2.3c0.2,-0.8 0.6,-1.4 1,-2c0.7,-1.2 1.6,-2.2 2.3,-3.2c1.5,-2 2.5,-4.1 2.6,-6.1c0.1,-1 0,-1.9 -0.2,-2.8c-0.2,-0.8 -0.4,-1.6 -0.7,-2.3c-0.5,-1.4 -1.1,-2.4 -1.5,-3c-0.4,-0.7 -0.6,-1 -0.6,-1c0,0 0.2,0.3 0.7,1c0.4,0.7 1.1,1.6 1.6,3c0.6,1.3 1.2,3.1 1,5.2c-0.1,2.1 -0.9,4.4 -2.2,6.6c-0.6,1.1 -1.4,2.2 -2.1,3.3c-0.3,0.6 -0.7,1.2 -0.9,1.7c-0.2,0.6 -0.2,1.2 -0.1,1.9c0.2,1.3 0.8,2.6 1.6,3.9c0.8,1.3 1.7,2.5 2.7,3.7c1,1.2 2,2.4 3,3.7c0.5,0.6 1,1.3 1.5,1.9c0.5,0.7 1,1.3 1.3,2.2c0.3,0.8 0.4,1.7 0.4,2.5c-0.1,0.9 -0.3,1.7 -0.6,2.5c-0.6,1.6 -1.4,3.1 -2.3,4.5c-0.9,1.4 -1.7,2.9 -2.4,4.3c-0.4,0.8 -0.6,1.5 -0.8,2.3c-0.2,0.7 -0.2,1.5 0,2.2c0.3,1.5 1.2,2.9 2.2,4.2c0.9,1.3 2,2.5 3,3.7c1,1.2 2,2.4 2.8,3.7c0.4,0.7 0.7,1.4 1,2.1c0.3,0.7 0.5,1.4 0.7,2.1c0.4,1.4 0.6,2.9 0.3,4.3c-0.2,1.4 -0.7,2.6 -0.8,3.8c-0.2,1.2 -0.1,2.4 -0.1,3.5c0.1,1.1 0.2,2.2 0.3,3.2c0.3,2 0.6,3.8 0.9,5.2c0.5,2.5 0.9,4.2 0.9,4.2z" fill="#2a8230"/><path d="M238.55184,208.03343c0,0 -0.2,-0.6 -0.5,-1.4c-0.2,-0.4 -0.4,-0.9 -0.6,-1.4c-0.2,-0.5 -0.5,-1 -0.8,-1.5c-0.3,-0.5 -0.6,-0.9 -1,-1.4c-0.2,-0.2 -0.3,-0.4 -0.5,-0.6c-0.2,-0.2 -0.3,-0.4 -0.5,-0.5c-0.2,-0.1 -0.3,-0.3 -0.4,-0.4c-0.1,-0.1 -0.3,-0.2 -0.3,-0.3c-0.2,-0.2 -0.3,-0.3 -0.3,-0.3c0,0 0.2,0 0.4,0.1c0.3,0.1 0.6,0.2 1.1,0.4c0.2,0.1 0.4,0.2 0.7,0.4c0.2,0.2 0.5,0.3 0.7,0.5c0.2,0.2 0.5,0.4 0.6,0.7c0.2,0.3 0.4,0.5 0.6,0.8c0.2,0.3 0.3,0.6 0.4,0.9c0.1,0.3 0.2,0.6 0.3,0.9c0.2,0.6 0.3,1.1 0.3,1.6c0,0.9 -0.2,1.5 -0.2,1.5z" fill="#53aa2b"/><path d="M234.55184,176.93343c0,0 0,-0.6 -0.2,-1.3c-0.1,-0.4 -0.2,-0.8 -0.3,-1.2c0,-0.2 -0.2,-0.4 -0.2,-0.7c-0.1,-0.2 -0.2,-0.5 -0.3,-0.7c-0.1,-0.2 -0.2,-0.5 -0.3,-0.7c-0.1,-0.2 -0.2,-0.5 -0.3,-0.7c-0.1,-0.2 -0.2,-0.4 -0.3,-0.6c-0.1,-0.2 -0.2,-0.4 -0.3,-0.6c-0.2,-0.4 -0.3,-0.6 -0.4,-0.9c-0.1,-0.2 -0.2,-0.4 -0.2,-0.4c0,0 0.1,0.1 0.3,0.2c0.2,0.1 0.5,0.3 0.8,0.6c0.3,0.3 0.6,0.6 0.9,1.1c0.3,0.4 0.6,0.9 0.8,1.4c0.2,0.5 0.4,1.1 0.4,1.6c0.1,0.5 0,1 0,1.4c-0.1,1.1 -0.4,1.5 -0.4,1.5z" fill="#53aa2b"/><path d="M228.75184,148.93343c0,0 0.1,-0.3 0.1,-0.7c0.1,-0.4 0.1,-1 0.1,-1.5c0,-0.3 0,-0.5 -0.1,-0.8c0,-0.3 -0.1,-0.5 -0.1,-0.7c0,-0.2 0,-0.4 -0.1,-0.5c0,-0.1 0,-0.2 0,-0.2c0,0 0.2,0.2 0.4,0.6c0.2,0.4 0.4,1 0.5,1.6c0,0.3 0,0.6 -0.1,0.9c-0.1,0.3 -0.2,0.5 -0.3,0.8c-0.2,0.3 -0.4,0.5 -0.4,0.5z" fill="#53aa2b"/><path d="M230.95184,212.53343c0,0 0.1,-0.3 0,-0.9c-0.1,-0.5 -0.2,-1.3 -0.6,-2.1c-0.3,-0.9 -1,-1.7 -1.8,-2.6c-0.8,-0.9 -1.6,-1.8 -2.4,-2.8c-0.8,-1 -1.6,-2 -2.3,-3c-0.7,-1 -1.2,-2 -1.5,-2.9c-0.4,-0.9 -0.5,-1.7 -0.6,-2.2c-0.1,-0.5 -0.1,-0.9 -0.1,-0.9c0,0 0.1,0.3 0.2,0.8c0.1,0.5 0.4,1.3 0.8,2.1c0.8,1.7 2.3,3.7 3.9,5.6c0.8,0.9 1.7,1.9 2.4,2.8c0.7,0.9 1.5,1.8 1.8,2.8c0.3,0.9 0.4,1.7 0.3,2.3c0,0.7 -0.1,1 -0.1,1z" fill="#2a8230"/><path d="M229.75184,165.63343c0,0 -0.6,-0.2 -1.3,-0.9c-0.2,-0.2 -0.3,-0.4 -0.5,-0.6c-0.2,-0.2 -0.3,-0.5 -0.4,-0.8c-0.1,-0.3 -0.2,-0.6 -0.3,-0.9c0,-0.3 -0.1,-0.7 -0.1,-1c0,-0.3 0,-0.7 0.1,-1c0.1,-0.3 0.1,-0.6 0.2,-0.9c0.1,-0.3 0.2,-0.6 0.3,-0.8c0.1,-0.3 0.2,-0.5 0.4,-0.7c0.2,-0.4 0.5,-0.8 0.6,-1c0.2,-0.2 0.3,-0.4 0.3,-0.4c0,0 -0.1,0.1 -0.2,0.4c-0.1,0.3 -0.3,0.6 -0.5,1.1c-0.1,0.2 -0.2,0.5 -0.3,0.7c-0.1,0.3 -0.1,0.5 -0.2,0.8c-0.2,0.6 -0.3,1.2 -0.2,1.8c0,0.3 0,0.6 0.1,0.9c0.1,0.3 0.1,0.6 0.2,0.9c0.2,0.6 0.5,1 0.8,1.4c0.4,0.6 1,1 1,1z" fill="#2a8230"/><path d="M236.45184,221.83343c-0.9,-5.9 -7.3,-9.2 -7.5,-17.9c-0.3,-10.6 2.9,-14.6 6.8,-20.5c3.9,-5.9 -7.4,-9.5 -7.4,-18.7c0,-9.2 14.5,-13.3 8.3,-23.7c-6.2,-10.4 4.2,-15.4 4.2,-15.4c-7.4,9.5 4.7,7.7 7.1,19.3c2.4,11.6 -7.7,10.7 -8,20.5c-0.3,9.8 8.3,9.8 8.3,17.5c0,7.7 -8,10.4 -8.9,17.2c-0.9,6.8 6.5,8.9 8.3,17.5c1.8,8.6 -7,16.9 -7,16.9c-2.1,0.5 -3.1,-4.7 -4.2,-12.7z" fill="#3aaa26"/><path d="M240.65184,234.53343c0,0 0.7,-1.8 1.6,-5c0.4,-1.6 0.9,-3.6 1,-5.9c0.1,-1.1 0,-2.4 -0.3,-3.6c-0.2,-0.6 -0.4,-1.2 -0.8,-1.7c-0.4,-0.5 -0.9,-1.1 -1.3,-1.6c-1.8,-2.2 -3.7,-4.8 -5.1,-7.8c-0.7,-1.5 -1.4,-3.1 -1.7,-4.9c-0.1,-0.4 -0.1,-0.9 -0.1,-1.4v-0.7l0.1,-0.7c0.1,-0.9 0.4,-1.9 0.8,-2.7c1.8,-3.4 4.7,-5.8 6.9,-8.8c1.1,-1.5 2.1,-3.2 2.2,-5v-0.7c0,-0.2 -0.1,-0.5 -0.1,-0.7c0,-0.2 0,-0.5 -0.1,-0.7l-0.2,-0.6c-0.1,-0.4 -0.4,-0.8 -0.6,-1.3c-0.2,-0.4 -0.5,-0.8 -0.7,-1.2c-1.9,-3.3 -4.4,-6.3 -6.2,-9.7c-0.9,-1.7 -1.7,-3.5 -1.7,-5.6v-0.8c0,-0.3 0.1,-0.5 0.2,-0.7c0.1,-0.5 0.4,-1 0.6,-1.4c0.5,-0.8 1.1,-1.5 1.6,-2.2c2.2,-2.8 4.6,-5.4 6.1,-8.2c0.7,-1.4 1.2,-3 1.1,-4.5c-0.1,-1.5 -0.8,-2.8 -1.6,-4c-1.6,-2.3 -3.5,-4.2 -4.5,-6.5c-1.1,-2.2 -0.8,-4.6 -0.1,-6.2c0.8,-1.6 1.6,-2.6 2.2,-3.3c0.6,-0.7 1,-1 1,-1c0,0 -0.3,0.4 -0.8,1.1c-0.5,0.7 -1.2,1.9 -1.8,3.4c-0.5,1.5 -0.7,3.5 0.3,5.6c0.9,2.1 2.5,4.2 4,6.6c0.8,1.2 1.6,2.6 1.8,4.2c0.2,1.6 -0.3,3.3 -0.9,4.8c-1.4,3.1 -3.6,5.9 -5.7,8.7l-0.8,1.1c-0.2,0.4 -0.6,0.8 -0.7,1.1c-0.2,0.4 -0.4,0.7 -0.5,1.1c0,0.2 -0.1,0.4 -0.2,0.6v0.6c-0.1,1.7 0.6,3.4 1.3,5.1c1.6,3.4 3.8,6.5 5.7,9.9c0.5,0.9 1,1.6 1.3,2.6l0.3,0.7c0.1,0.2 0.1,0.5 0.1,0.7c0,0.2 0.1,0.5 0.1,0.7v0.7c-0.1,2 -1,3.8 -2.1,5.4c-1,1.6 -2.3,3.1 -3.4,4.5c-1.1,1.4 -2.3,2.9 -3,4.3c-0.8,1.6 -1,3.2 -0.7,4.8c0.3,1.6 0.8,3.2 1.5,4.7c1.4,2.9 3.2,5.5 4.9,7.7c0.4,0.6 0.9,1.1 1.3,1.7c0.4,0.6 0.7,1.3 0.9,1.9c0.3,1.3 0.3,2.6 0.2,3.8c-0.2,2.4 -0.8,4.3 -1.3,5.9c-0.5,1.6 -1,2.8 -1.4,3.7c-0.5,1 -0.7,1.4 -0.7,1.4z" fill="#2d8c31"/><path d="M236.75184,224.23343c0,0 -0.2,-1.4 -0.7,-3.5c-0.1,-0.5 -0.3,-1.1 -0.5,-1.6c-0.2,-0.5 -0.6,-1.1 -0.9,-1.7c-0.7,-1.1 -1.6,-2.3 -2.3,-3.6c-0.8,-1.2 -1.5,-2.5 -2.1,-3.7c-0.6,-1.3 -1,-2.5 -1.1,-3.6c-0.2,-1.1 -0.2,-2 -0.2,-2.6c0,-0.3 0.1,-0.6 0.1,-0.7c0,-0.2 0,-0.3 0,-0.3c0,0 0,0.4 0,1c0,0.6 0.1,1.5 0.4,2.6c0.5,2.1 1.8,4.7 3.4,7.1c0.8,1.2 1.6,2.4 2.3,3.6c0.4,0.6 0.7,1.2 0.9,1.8c0.3,0.6 0.4,1.2 0.5,1.7c0.3,2 0.2,3.5 0.2,3.5z" fill="#2d8c31"/><path d="M235.65184,183.63343c0,0 0.4,-0.5 0.6,-1.4c0.1,-0.2 0.1,-0.5 0.1,-0.7c0,-0.3 0,-0.5 0,-0.8c-0.1,-0.6 -0.2,-1.2 -0.5,-1.7c-0.1,-0.3 -0.3,-0.5 -0.4,-0.8c-0.1,-0.3 -0.3,-0.5 -0.5,-0.8c-0.3,-0.5 -0.7,-0.9 -0.9,-1.3c-0.1,-0.2 -0.3,-0.3 -0.4,-0.5c-0.1,-0.1 -0.2,-0.3 -0.3,-0.4c-0.2,-0.2 -0.3,-0.3 -0.3,-0.3c0,0 0.1,0.1 0.3,0.3c0.2,0.2 0.5,0.4 0.8,0.8c0.3,0.4 0.7,0.7 1,1.2c0.2,0.2 0.4,0.5 0.5,0.8c0.2,0.3 0.3,0.5 0.4,0.8c0.3,0.6 0.4,1.2 0.5,1.8c0,0.3 0,0.6 0,0.9c0,0.3 -0.1,0.5 -0.2,0.8c-0.1,0.5 -0.3,0.8 -0.5,1c-0.1,0.1 -0.2,0.3 -0.2,0.3z" fill="#2d8c31"/><path d="M241.95184,172.93343c0,0 -0.7,-0.8 -1.3,-2.1c-0.3,-0.7 -0.7,-1.5 -0.9,-2.4c-0.1,-0.5 -0.2,-0.9 -0.3,-1.4c0,-0.5 -0.1,-1 -0.1,-1.5v-0.8l0.1,-0.7c0,-0.5 0.2,-1 0.3,-1.4c0.1,-0.5 0.3,-0.9 0.5,-1.3c0.2,-0.4 0.4,-0.7 0.6,-1.1c0.2,-0.3 0.4,-0.6 0.6,-0.8c0.2,-0.2 0.4,-0.4 0.5,-0.6c0.3,-0.3 0.5,-0.5 0.5,-0.5c0,0 -0.1,0.2 -0.4,0.6c-0.1,0.2 -0.3,0.4 -0.4,0.6c-0.2,0.2 -0.3,0.6 -0.5,0.9c-0.2,0.3 -0.4,0.7 -0.5,1.1c-0.1,0.4 -0.3,0.8 -0.4,1.2c-0.1,0.4 -0.2,0.9 -0.3,1.4l-0.1,0.7v0.7c0,0.5 0,1 0.1,1.4c0.1,0.5 0.1,0.9 0.2,1.4c0.2,0.9 0.4,1.7 0.7,2.4c0.6,1.3 1.1,2.2 1.1,2.2z" fill="#2d8c31"/><path d="M245.55184,149.83343c0,0 0.2,-0.5 0.2,-1.3c0,-0.2 0,-0.4 0,-0.6c0,-0.2 0,-0.4 0,-0.6c-0.1,-0.4 -0.1,-0.9 -0.2,-1.4c0,-0.2 -0.1,-0.5 -0.2,-0.7c-0.1,-0.2 -0.1,-0.5 -0.2,-0.7c-0.1,-0.2 -0.1,-0.5 -0.2,-0.7c-0.1,-0.2 -0.1,-0.4 -0.2,-0.6c-0.1,-0.4 -0.2,-0.7 -0.3,-0.9c-0.1,-0.2 -0.1,-0.4 -0.1,-0.4c0,0 0.1,0.1 0.3,0.2c0.2,0.2 0.5,0.4 0.7,0.7c0.3,0.3 0.6,0.7 0.8,1.2c0.3,0.5 0.5,1 0.6,1.6c0.1,0.3 0.1,0.6 0.1,0.9c0,0.3 0,0.6 0,0.8c-0.1,0.5 -0.2,1 -0.4,1.4c-0.2,0.4 -0.5,0.7 -0.6,0.8c-0.1,0.3 -0.3,0.3 -0.3,0.3z" fill="#6bc134"/><path d="M245.95184,186.63343c0,0 0,-0.6 0,-1.5c0,-0.2 0,-0.4 -0.1,-0.7c0,-0.2 -0.1,-0.5 -0.1,-0.7c0,-0.3 -0.1,-0.5 -0.1,-0.8c-0.1,-0.3 -0.1,-0.5 -0.2,-0.8c-0.1,-0.3 -0.1,-0.5 -0.2,-0.8c-0.1,-0.3 -0.1,-0.5 -0.2,-0.8c-0.1,-0.2 -0.2,-0.5 -0.2,-0.7c-0.1,-0.2 -0.2,-0.4 -0.2,-0.7c-0.1,-0.4 -0.3,-0.8 -0.3,-1c-0.1,-0.3 -0.1,-0.4 -0.1,-0.4c0,0 0.1,0.1 0.3,0.3c0.2,0.2 0.5,0.4 0.8,0.8c0.3,0.3 0.6,0.8 0.9,1.3c0.3,0.5 0.5,1.1 0.7,1.7c0.1,0.6 0.2,1.2 0.2,1.8c0,0.6 -0.1,1.1 -0.2,1.6c-0.6,0.9 -1,1.4 -1,1.4z" fill="#6bc134"/><path d="M246.25184,222.63343c0,0 -0.1,-0.7 -0.3,-1.7c-0.1,-0.5 -0.3,-1 -0.4,-1.6c-0.2,-0.6 -0.4,-1.2 -0.7,-1.7c-0.2,-0.6 -0.6,-1.1 -0.8,-1.6c-0.1,-0.3 -0.3,-0.5 -0.5,-0.7c-0.1,-0.2 -0.3,-0.4 -0.5,-0.6c-0.2,-0.2 -0.3,-0.4 -0.4,-0.5c-0.1,-0.2 -0.2,-0.3 -0.3,-0.4c-0.2,-0.2 -0.3,-0.4 -0.3,-0.4c0,0 0.2,0.1 0.4,0.2c0.3,0.1 0.7,0.3 1.1,0.6c0.2,0.2 0.5,0.3 0.7,0.5c0.2,0.2 0.5,0.4 0.7,0.7c0.2,0.3 0.4,0.5 0.6,0.8c0.2,0.3 0.4,0.6 0.5,0.9c0.1,0.3 0.3,0.7 0.4,1c0.1,0.3 0.2,0.7 0.2,1c0.1,0.7 0.1,1.3 0,1.8c-0.1,1 -0.4,1.7 -0.4,1.7z" fill="#6bc134"/></g></g></g></svg>