<svg version="1.1" xmlns="http://www.w3.org/2000/svg" xmlns:xlink="http://www.w3.org/1999/xlink" width="95" height="91.95536" viewBox="0,0,95,91.95536"><defs><radialGradient cx="240" cy="180" r="46.5" gradientUnits="userSpaceOnUse" id="color-1"><stop offset="0" stop-color="#ff8080"/><stop offset="1" stop-color="#ff8080" stop-opacity="0"/></radialGradient><radialGradient cx="240" cy="180" r="46.5" gradientUnits="userSpaceOnUse" id="color-2"><stop offset="0" stop-color="#ff8080"/><stop offset="1" stop-color="#ff8080" stop-opacity="0"/></radialGradient><radialGradient cx="240" cy="180" r="46.5" gradientUnits="userSpaceOnUse" id="color-3"><stop offset="0" stop-color="#ff8080"/><stop offset="1" stop-color="#ff8080" stop-opacity="0"/></radialGradient></defs><g transform="translate(-192.5,-134.02232)"><g data-paper-data="{&quot;isPaintingLayer&quot;:true}" fill-rule="nonzero" stroke-linejoin="miter" stroke-miterlimit="10" stroke-dasharray="" stroke-dashoffset="0" style="mix-blend-mode: normal"><path d="M193.5,180c0,-24.84049 20.81876,-44.97768 46.5,-44.97768c25.68124,0 46.5,20.13719 46.5,44.97768c0,24.84049 -20.81876,44.97768 -46.5,44.97768c-25.68124,0 -46.5,-20.13719 -46.5,-44.97768z" fill="url(#color-1)" stroke="#000000" stroke-width="2" stroke-linecap="butt"/><path d="M193.5,180c0,-24.84049 20.81876,-44.97768 46.5,-44.97768c25.68124,0 46.5,20.13719 46.5,44.97768c0,24.84049 -20.81876,44.97768 -46.5,44.97768c-25.68124,0 -46.5,-20.13719 -46.5,-44.97768z" fill="url(#color-2)" stroke="#000000" stroke-width="2" stroke-linecap="butt"/><path d="M193.5,180c0,-24.84049 20.81876,-44.97768 46.5,-44.97768c25.68124,0 46.5,20.13719 46.5,44.97768c0,24.84049 -20.81876,44.97768 -46.5,44.97768c-25.68124,0 -46.5,-20.13719 -46.5,-44.97768z" fill="url(#color-3)" stroke="#000000" stroke-width="2" stroke-linecap="butt"/><path d="M212.45982,172.52679c0,0 0.94564,-8.33848 5.52858,-13.01592c4.35481,-4.4446 14.1232,-5.25194 14.1232,-5.25194" fill="none" stroke="#ffffff" stroke-width="13" stroke-linecap="round"/></g></g></svg>