<svg version="1.1" xmlns="http://www.w3.org/2000/svg" xmlns:xlink="http://www.w3.org/1999/xlink" width="1451.00197" height="369.13699" viewBox="0,0,1451.00197,369.13699"><g transform="translate(404.50098,3.73678)"><g data-paper-data="{&quot;isPaintingLayer&quot;:true}" fill-rule="nonzero" stroke-linejoin="miter" stroke-miterlimit="10" stroke-dasharray="" stroke-dashoffset="0" style="mix-blend-mode: normal"><g><path d="M81,0h479v360h-479z" fill="#99ffae" stroke="none" stroke-width="1" stroke-linecap="butt"/><g fill="#e5e5e5" stroke="#e5e5e5" stroke-width="15" stroke-linecap="round"><g><path d="M329.61137,39.2l0.66866,37.1l-63.90474,-33.9l-62.56742,34.6l-65.71967,-34.6l-57.12262,30v-37.8l55.7853,-29.7l65.81519,34.7l62.56742,-34.7l64.47788,34.3"/><path d="M560.96754,21.5v36.8l-30.08968,-16l-62.56742,34.6l-65.71967,-34.6l-65.81519,34.6l-0.66866,-37.1l1.33732,-1l63.80922,-34l65.81519,34.7l62.56742,-34.7l31.33147,16.7"/></g><g><path d="M333.71885,132.1l0.57314,37.1l-63.80922,-34l-62.56742,34.7l-65.81519,-34.7l-61.13458,32.2v-37.8l59.89278,-31.8l65.71967,34.6l62.56742,-34.6l64.5734,34.3"/><path d="M560.96754,112.2v36.7l-25.9822,-13.8l-62.56742,34.6l-65.81519,-34.6l-65.81519,34.6l-0.57314,-37.1l1.2418,-1l63.90474,-34l65.71967,34.7l62.56742,-34.7l27.31951,14.6"/></g><g><path d="M84.02231,315l63.90474,-34l65.71967,34.6l62.56742,-34.6l64.5734,34.3l0.66866,37.1l-63.80922,-33.9l-62.56742,34.6l-65.81519,-34.6l-65.81519,34.6l-0.66866,-37.1z"/><path d="M560.96754,291.7v36.8l-18.91351,-10.1l-62.56742,34.6l-65.81519,-34.6l-65.81519,34.6l-0.57314,-37.1l1.2418,-1l63.90474,-34l65.71967,34.7l62.56742,-34.7l20.25083,10.8"/></g><g><path d="M336.68006,222.5l0.66866,37.1l-63.90474,-33.9l-62.56742,34.6l-65.71967,-34.6l-64.19131,33.8v-37.9l62.85399,-33.4l65.81519,34.7l62.56742,-34.7l64.47788,34.3"/><path d="M560.96754,201.1v36.7l-23.02099,-12.2l-62.56742,34.6l-65.71967,-34.6l-65.81519,34.6l-0.66866,-37.1l1.33732,-1l63.80922,-34l65.81519,34.7l62.56742,-34.7l24.26279,13"/></g></g></g><path d="M560,21l0.3,0.3" fill="none" stroke="#000000" stroke-width="2" stroke-linecap="round"/><g data-paper-data="{&quot;index&quot;:null}"><path d="M1038.96657,360h-479v-360h479z" fill="#99ffae" stroke="none" stroke-width="1" stroke-linecap="butt"/><g fill="#e5e5e5" stroke="#e5e5e5" stroke-width="15" stroke-linecap="round"><g><path d="M790.35519,39.2l64.47788,-34.3l62.56742,34.7l65.81519,-34.7l55.7853,29.7v37.8l-57.12262,-30l-65.71967,34.6l-62.56742,-34.6l-63.90474,33.9l0.66866,-37.1"/><path d="M558.99902,21.5l31.33147,-16.7l62.56742,34.7l65.81519,-34.7l63.80922,34l1.33732,1l-0.66866,37.1l-65.81519,-34.6l-65.71967,34.6l-62.56742,-34.6l-30.08968,16v-36.8"/></g><g><path d="M786.24772,132.1l64.5734,-34.3l62.56742,34.6l65.71967,-34.6l59.89278,31.8v37.8l-61.13458,-32.2l-65.81519,34.7l-62.56742,-34.7l-63.80922,34l0.57314,-37.1"/><path d="M558.99902,112.2l27.31951,-14.6l62.56742,34.7l65.71967,-34.7l63.90474,34l1.2418,1l-0.57314,37.1l-65.81519,-34.6l-65.81519,34.6l-62.56742,-34.6l-25.9822,13.8v-36.7"/></g><g><path d="M1037.18604,316l-0.66866,37.1l-65.81519,-34.6l-65.81519,34.6l-62.56742,-34.6l-63.80922,33.9l0.66866,-37.1l64.5734,-34.3l62.56742,34.6l65.71967,-34.6l63.90474,34z"/><path d="M558.99902,291.7l20.25083,-10.8l62.56742,34.7l65.71967,-34.7l63.90474,34l1.2418,1l-0.57314,37.1l-65.81519,-34.6l-65.81519,34.6l-62.56742,-34.6l-18.91351,10.1v-36.8"/></g><g><path d="M783.2865,222.5l64.47788,-34.3l62.56742,34.7l65.81519,-34.7l62.85399,33.4v37.9l-64.19131,-33.8l-65.71967,34.6l-62.56742,-34.6l-63.90474,33.9l0.66866,-37.1"/><path d="M558.99902,201.1l24.26279,-13l62.56742,34.7l65.81519,-34.7l63.80922,34l1.33732,1l-0.66866,37.1l-65.81519,-34.6l-65.71967,34.6l-62.56742,-34.6l-23.02099,12.2v-36.7"/></g></g></g><g data-paper-data="{&quot;index&quot;:null}"><path d="M82.96656,360h-479v-360h479z" fill="#99ffae" stroke="none" stroke-width="1" stroke-linecap="butt"/><g fill="#e5e5e5" stroke="#e5e5e5" stroke-width="15" stroke-linecap="round"><g><path d="M-165.6448,39.2l64.47788,-34.3l62.56742,34.7l65.81519,-34.7l55.7853,29.7v37.8l-57.12262,-30l-65.71967,34.6l-62.56742,-34.6l-63.90474,33.9l0.66866,-37.1"/><path d="M-397.00097,21.5l31.33147,-16.7l62.56742,34.7l65.81519,-34.7l63.80922,34l1.33732,1l-0.66866,37.1l-65.81519,-34.6l-65.71967,34.6l-62.56742,-34.6l-30.08968,16v-36.8"/></g><g><path d="M-169.75228,132.1l64.5734,-34.3l62.56742,34.6l65.71967,-34.6l59.89278,31.8v37.8l-61.13458,-32.2l-65.81519,34.7l-62.56742,-34.7l-63.80922,34l0.57314,-37.1"/><path d="M-397.00097,112.2l27.31951,-14.6l62.56742,34.7l65.71967,-34.7l63.90474,34l1.2418,1l-0.57314,37.1l-65.81519,-34.6l-65.81519,34.6l-62.56742,-34.6l-25.9822,13.8v-36.7"/></g><g><path d="M81.18604,316l-0.66866,37.1l-65.81519,-34.6l-65.81519,34.6l-62.56742,-34.6l-63.80922,33.9l0.66866,-37.1l64.5734,-34.3l62.56742,34.6l65.71967,-34.6l63.90474,34z"/><path d="M-397.00098,291.7l20.25083,-10.8l62.56742,34.7l65.71967,-34.7l63.90474,34l1.2418,1l-0.57314,37.1l-65.81519,-34.6l-65.81519,34.6l-62.56742,-34.6l-18.91351,10.1v-36.8"/></g><g><path d="M-172.71349,222.5l64.47788,-34.3l62.56742,34.7l65.81519,-34.7l62.85399,33.4v37.9l-64.19131,-33.8l-65.71967,34.6l-62.56742,-34.6l-63.90474,33.9l0.66866,-37.1"/><path d="M-397.00098,201.1l24.26279,-13l62.56742,34.7l65.81519,-34.7l63.80922,34l1.33732,1l-0.66866,37.1l-65.81519,-34.6l-65.71967,34.6l-62.56742,-34.6l-23.02099,12.2v-36.7"/></g></g></g></g></g></svg>