<svg version="1.1" xmlns="http://www.w3.org/2000/svg" xmlns:xlink="http://www.w3.org/1999/xlink" width="112.91704" height="119.66164" viewBox="0,0,112.91704,119.66164"><defs><radialGradient cx="223.16258" cy="182.34197" r="42.11353" gradientUnits="userSpaceOnUse" id="color-1"><stop offset="0" stop-color="#484b4a"/><stop offset="1" stop-color="#262928"/></radialGradient><radialGradient cx="235.41669" cy="179.26858" r="28.3942" gradientUnits="userSpaceOnUse" id="color-2"><stop offset="0" stop-color="#ff9999"/><stop offset="1" stop-color="#ff0000"/></radialGradient><radialGradient cx="215.45062" cy="215.53652" r="14.05416" gradientUnits="userSpaceOnUse" id="color-3"><stop offset="0" stop-color="#b7b7b7"/><stop offset="1" stop-color="#a2a2a2"/></radialGradient><radialGradient cx="275.7702" cy="176.67273" r="14.05416" gradientUnits="userSpaceOnUse" id="color-4"><stop offset="0" stop-color="#b7b7b7"/><stop offset="1" stop-color="#a2a2a2"/></radialGradient><radialGradient cx="211.91229" cy="144.15675" r="14.05621" gradientUnits="userSpaceOnUse" id="color-5"><stop offset="0" stop-color="#b7b7b7"/><stop offset="1" stop-color="#a2a2a2"/></radialGradient><radialGradient cx="207.09132" cy="127.61054" r="148.73822" gradientUnits="userSpaceOnUse" id="color-6"><stop offset="0" stop-color="#4a504b"/><stop offset="1" stop-color="#282727"/></radialGradient></defs><g transform="translate(-192.96454,-121.18938)"><g data-paper-data="{&quot;isPaintingLayer&quot;:true}" fill-rule="nonzero" stroke-linejoin="miter" stroke-miterlimit="10" stroke-dasharray="" stroke-dashoffset="0" style="mix-blend-mode: normal"><path d="M230.60135,201.75444c0.34755,-0.22496 1.14922,0.32347 2.16407,1.39264c1.01514,1.06779 2.24292,2.65549 3.44214,4.50825c1.19922,1.85276 2.14492,3.62303 2.70338,4.98642c0.55984,1.36368 0.73189,2.31963 0.38434,2.54458c-0.34755,0.22496 -1.14922,-0.32347 -2.16407,-1.39264c-1.01514,-1.06779 -2.24292,-2.65549 -3.44214,-4.50825c-1.19922,-1.85276 -2.14492,-3.62303 -2.70338,-4.98642c-0.55984,-1.36368 -0.73189,-2.31963 -0.38434,-2.54458z" fill="#000000" stroke="none" stroke-width="1" stroke-linecap="butt"/><path d="M206.23822,126.75465c1.76042,-1.13945 3.44674,-2.03082 4.74968,-2.55015c1.30156,-0.51963 2.22057,-0.66777 2.44552,-0.32022c0.22496,0.34755 -0.28653,1.12531 -1.29358,2.09995c-1.00735,0.97602 -2.5111,2.14946 -4.27151,3.28891c-1.76042,1.13945 -3.44674,2.03082 -4.74968,2.55015c-1.30156,0.51963 -2.22057,0.66777 -2.44552,0.32022c-0.22496,-0.34755 0.28653,-1.12531 1.29358,-2.09995c1.00735,-0.97602 2.5111,-2.14946 4.27151,-3.28891z" fill="#000000" stroke="#ff7c7c" stroke-width="2" stroke-linecap="butt"/><path d="M248.56707,159.3931c0.37022,-0.23963 0.87663,-0.19337 1.39557,0.07467c0.51894,0.26805 1.04957,0.75843 1.46905,1.40652c0.41948,0.64809 0.64957,1.333 0.68161,1.9162c0.03204,0.5832 -0.13314,1.06415 -0.50336,1.30378c-0.37022,0.23963 -0.87663,0.19337 -1.39557,-0.07467c-0.51894,-0.26805 -1.04957,-0.75843 -1.46905,-1.40652c-0.41948,-0.64809 -0.64957,-1.333 -0.68161,-1.9162c-0.03204,-0.5832 0.13314,-1.06415 0.50336,-1.30378z" fill="#ff7c7c" stroke="none" stroke-width="1" stroke-linecap="butt"/><path d="M227.73097,124.99344c0.50957,-0.32983 1.34296,-0.05447 2.27696,0.65607c0.934,0.71054 1.96999,1.85655 2.88449,3.26942c0.91449,1.41287 1.53578,2.82731 1.80154,3.97037c0.26576,1.14306 0.17571,2.01613 -0.33387,2.34595c-0.50957,0.32983 -1.34296,0.05447 -2.27696,-0.65607c-0.934,-0.71054 -1.96999,-1.85655 -2.88449,-3.26942c-0.91449,-1.41287 -1.53578,-2.82731 -1.80154,-3.97037c-0.26576,-1.14306 -0.17571,-2.01613 0.33387,-2.34595z" fill="#ff7c7c" stroke="none" stroke-width="1" stroke-linecap="butt"/><path d="M218.30294,124.33723c3.49767,0.0868 6.66122,0.40368 8.94663,0.84571c2.28544,0.44189 3.69281,1.00887 3.67831,1.59562c-0.01458,0.58681 -1.44836,1.08327 -3.75289,1.41134c-2.30453,0.32807 -5.4799,0.48781 -8.97751,0.40109c-3.49775,-0.08675 -6.66122,-0.40368 -8.94671,-0.84565c-2.28544,-0.44189 -3.69281,-1.00887 -3.67831,-1.59562c0.01458,-0.58681 1.44836,-1.08327 3.75289,-1.41134c2.30461,-0.32813 5.4799,-0.48781 8.9776,-0.40115z" fill="#ff7c7c" stroke="none" stroke-width="0.23928" stroke-linecap="butt"/><path d="M200.3081,155.10254c0.62928,-0.79361 2.14895,-0.75983 4.09546,-0.06439c1.9466,0.69539 4.32031,2.05251 6.65773,3.90603c2.3375,1.85346 4.20001,3.85535 5.32086,5.59218c1.1208,1.73675 1.50001,3.20877 0.87073,4.00238c-0.62928,0.79361 -2.14895,0.75983 -4.09546,0.06439c-1.94651,-0.69545 -4.32023,-2.05257 -6.65779,-3.90611c-2.3375,-1.85346 -4.20001,-3.85535 -5.32073,-5.59215c-1.1208,-1.73675 -1.5001,-3.20871 -0.87082,-4.00232z" fill="#ff7c7c" stroke="none" stroke-width="0.24921" stroke-linecap="butt"/><path d="M231.74739,130.83982c1.28173,-0.22782 3.26558,1.30433 5.00487,4.04411c0.80163,1.27162 1.6602,4.31736 2.29495,7.17539c0.63483,2.85797 0.95455,5.50478 0.9583,7.47223c0.00365,1.96692 -0.3086,3.25456 -0.93778,3.39426c-0.62912,0.13978 -1.4571,-0.89465 -2.28652,-2.67813c-0.82944,-1.78406 -1.6602,-4.31736 -2.29495,-7.17539c-0.63483,-2.85797 -0.43369,-4.86442 -0.9583,-7.47223c-0.359,-1.76634 -2.10432,-4.63158 -1.78057,-4.76024z" fill="#ff7c7c" stroke="none" stroke-width="0.35247" stroke-linecap="round"/><path d="M218.80263,173.29128c0.65637,-0.09309 1.35721,0.57027 1.95937,1.71739c0.60222,1.14721 1.10552,2.77798 1.36694,4.61939c0.26129,1.84138 0.23164,3.54778 -0.02756,4.81728c-0.25919,1.2695 -0.74781,2.10155 -1.40412,2.19473c-0.65631,0.09318 -1.35724,-0.57013 -1.95945,-1.71733c-0.60213,-1.14726 -1.10552,-2.77798 -1.3668,-4.61936c-0.26143,-1.84141 -0.23169,-3.54786 0.02742,-4.81731c0.25925,-1.26942 0.74789,-2.1016 1.40421,-2.19478z" fill="#000000" stroke="none" stroke-width="0.25052" stroke-linecap="butt"/><path d="M260.26612,163.10175c2.07376,-0.12641 4.03482,-2.17953 5.99697,-1.4973c1.38185,0.48356 1.4375,2.82159 1.05038,4.28122c-0.38706,1.45971 -1.51843,2.57521 -3.03399,3.19798c-1.51524,0.62327 -3.4144,0.75425 -5.33658,0.24436c-1.92221,-0.50975 -3.14956,-1.71952 -4.5142,-2.85687c-1.4981,-1.24453 -4.78223,-3.31054 -4.36758,-4.40133c0.40482,-1.0631 4.05373,0.25375 6.05972,0.51952c1.41072,0.18733 2.77433,0.72056 4.14528,0.51242z" fill="#ff7c7c" stroke="none" stroke-width="0.33373" stroke-linecap="round"/><path d="M272.52662,161.1046c4.43453,-1.04908 9.19801,-2.24162 13.60286,-1.14378c4.51831,1.12721 8.83699,3.63212 11.56764,7.85091c2.73065,4.21879 3.45726,9.17283 2.42556,13.76822c-1.03212,4.59566 -3.82224,8.83294 -8.12514,11.61804c-4.30291,2.7851 -9.24937,3.28858 -13.92641,2.65505c-4.47411,-0.60692 -9.95043,-2.02959 -12.1846,-5.95448c-3.11831,-5.4876 -0.88641,-12.20242 -1.50034,-18.27432c-0.18684,-1.86217 -2.51164,-4.04071 -1.32494,-5.49971c2.22943,-2.73094 6.0764,-3.97851 9.46537,-5.01994z" fill="none" stroke="#ff7c7c" stroke-width="5.46439" stroke-linecap="round"/><path d="M206.95589,204.67125c2.81948,-3.3991 7.07553,-5.4737 9.78218,-8.71675c1.46255,-1.75166 0.65665,-7.0682 2.78782,-6.25677c8.43542,3.20937 16.29879,8.7403 22.26546,15.4828c1.90105,2.2197 -0.41913,5.90397 -1.07998,8.64966c-0.99588,4.15052 -1.87152,8.43453 -4.05271,12.16404c-1.75441,2.71377 -4.23434,5.07463 -7.39267,6.5738c-4.13166,1.91177 -8.98627,3.42894 -13.46418,2.46999c-4.47793,-0.95882 -8.59043,-3.62387 -11.27207,-7.76694c-2.68159,-4.14298 -3.00868,-8.93822 -2.46999,-13.46418c0.42689,-3.55674 2.75392,-6.49999 4.89612,-9.13564z" fill="none" stroke="#ff7c7c" stroke-width="5.00589" stroke-linecap="round"/><path d="M211.15298,165.18018c-0.23804,-0.59745 0.33119,-1.48751 0.93,-1.634c1.07448,-0.26295 2.32457,0.53032 3.51445,0.51633c1.81176,0.04317 3.72808,0.10932 5.44663,-0.42935c2.54102,-0.79657 5.10323,-1.90013 7.1253,-3.48613c2.26314,-1.77634 4.09511,-4.1222 5.81899,-6.48709c1.06697,-1.46417 1.27967,-3.54385 2.32814,-5.00164c0.26674,-0.36968 1.00413,-0.63683 1.35342,-0.24277c0.96646,1.09084 1.30996,2.64351 2.1164,3.88391c0.55375,1.06625 1.16345,2.08735 1.95793,3.02495c1.4392,1.69957 2.78074,3.62794 4.52599,4.90428c2.18174,1.59514 4.58552,2.88241 7.02654,3.7314c1.95433,0.67752 3.88536,0.92724 5.72178,0.91705c2.18435,-0.0934 4.2522,-0.74702 6.20393,-1.22447c0.93547,-0.22836 1.64947,-1.17413 2.67427,-1.02743c0.51911,0.07544 0.99288,0.94616 0.82948,1.52721c-0.34288,1.16524 -1.65949,1.62481 -2.28802,2.60674c-1.0869,1.71054 -2.1869,3.4485 -2.81354,5.47997c-0.71525,2.32098 -1.30053,4.84074 -1.09725,7.39471c0.19111,2.58854 1.14376,5.1598 2.1447,7.73554c0.48087,1.23671 1.41023,2.28128 2.18256,3.37199c0.52362,0.73959 1.72347,1.17883 1.7806,2.01392c0.03294,0.9501 -0.7753,1.87062 -1.57861,1.9833c-2.26143,0.3159 -4.73286,-0.85909 -7.04716,-0.69242c-1.90242,0.13606 -3.73719,0.72041 -5.42405,1.44679c-1.48626,0.64025 -2.85052,1.44121 -4.1693,2.46407c-1.597,1.23678 -3.23058,2.47852 -4.52938,4.05749c-1.25088,1.52031 -2.24008,3.30008 -3.00611,5.18245c-0.53927,1.32761 -0.4929,3.02853 -0.81467,4.51459c-0.11563,0.51535 -0.15681,1.24659 -0.57499,1.56836c-0.99749,0.76893 -2.28929,1.8471 -3.6755,1.7223c-0.59451,-0.10966 -0.07197,-1.52257 -0.30688,-2.19376c-0.39863,-1.12436 -0.7295,-2.34428 -1.36545,-3.33803c-1.2574,-1.96031 -2.56559,-3.86237 -4.07833,-5.6866c-1.19973,-1.43229 -2.34827,-3.15633 -4.03302,-4.05063c-1.87204,-0.99392 -3.96301,-1.06983 -5.95301,-1.21301c-1.89693,-0.03545 -3.78571,0.31512 -5.60654,0.67366c-1.01441,0.20024 -1.76594,1.40807 -2.84239,1.13612c-0.56352,-0.14092 -0.59017,-1.28282 -0.39184,-1.83383c0.24855,-0.68524 1.21867,-0.71375 1.63001,-1.28958c0.78599,-1.07766 1.50872,-2.17833 2.05214,-3.46254c0.61808,-1.44474 1.11167,-2.96935 1.40206,-4.58984c0.51468,-2.86955 1.2643,-5.73868 1.10701,-8.76138c-0.10712,-2.06457 -1.0261,-4.14267 -1.97268,-6.08784c-0.84218,-1.92889 -2.1517,-3.64307 -3.33301,-5.39509c-0.87699,-1.30027 -2.38297,-2.26657 -2.97061,-3.7297z" fill="#ff7c7c" stroke="none" stroke-width="0.365" stroke-linecap="round"/><path d="M230.45017,165.59695c3.97878,-2.5753 8.63,-3.29292 12.93023,-2.37179c4.3004,0.92066 8.2499,3.48001 10.82515,7.45871c2.5753,3.97878 3.29292,8.63 2.37185,12.93031c-0.92058,4.30035 -3.47998,8.24976 -7.45876,10.82507c-3.97869,2.57525 -8.62986,3.29295 -12.93017,2.37188c-4.3004,-0.92066 -8.2499,-3.48001 -10.82521,-7.45879c-2.57525,-3.97869 -3.29287,-8.62991 -2.37179,-12.93023c0.92066,-4.3004 3.48001,-8.2499 7.45871,-10.82515z" fill="none" stroke="url(#color-1)" stroke-width="0.6844" stroke-linecap="butt"/><path d="M230.00661,164.56051c4.25959,-2.75706 9.23922,-3.52548 13.84332,-2.53957c4.60424,0.98594 8.83247,3.72618 11.58953,7.98576c2.75706,4.25959 3.52557,9.23916 2.53957,13.84332c-0.98591,4.60411 -3.72609,8.83241 -7.98568,11.58947c-4.25959,2.75706 -9.23922,3.52548 -13.84332,2.53957c-4.60419,-0.98586 -8.83241,-3.72609 -11.58947,-7.98568c-2.75706,-4.25959 -3.52557,-9.23916 -2.53963,-13.84341c0.98591,-4.60411 3.72609,-8.83241 7.98568,-11.58947z" fill="url(#color-2)" stroke="#262928" stroke-width="0.74459" stroke-linecap="butt"/><path d="M239.90743,207.19123c1.34489,1.16573 -0.03058,3.58325 -0.18203,5.36372c-0.27562,2.878 0.09135,5.96773 -1.09927,8.61212c-1.93247,4.29229 -3.74221,8.87119 -8.02068,11.64048c-4.27856,2.76934 -9.28012,3.54088 -13.90427,2.55067c-4.6241,-0.99012 -8.87119,-3.74221 -11.64048,-8.02068c-2.76929,-4.27848 -2.90668,-9.21055 -2.55067,-13.90427c0.25033,-3.30226 2.49001,-6.11011 4.3881,-8.73809c1.04892,-1.6264 2.71895,-2.7233 4.29596,-3.80122c1.24187,-0.84908 2.67427,-1.27937 4.00267,-1.7947c1.1337,-0.29127 6.30751,-0.79502 9.23822,0.14285c5.51474,1.76506 11.09974,4.14957 15.47245,7.94912z" fill="none" stroke="#ff7c7c" stroke-width="3.76986" stroke-linecap="round"/><path d="M229.99904,203.21636l4.23283,2.85888l3.2802,6.63214" fill="none" stroke="#ff7c7c" stroke-width="3" stroke-linecap="round"/><g fill="none" stroke-linecap="butt"><path d="M223.30265,205.40497c3.13321,0.67065 6.01086,2.53543 7.88718,5.43428c1.87637,2.89894 2.39918,6.28779 1.72798,9.42088c-0.67068,3.13335 -2.53537,6.01095 -5.43431,7.88731c-2.89885,1.87631 -6.28779,2.39918 -9.42094,1.7279c-3.1333,-0.67059 -6.01081,-2.53534 -7.88718,-5.43428c-1.87631,-2.89885 -2.39927,-6.28773 -1.72798,-9.42088c0.67059,-3.1333 2.53543,-6.01086 5.43428,-7.88718c2.89894,-1.87637 6.28773,-2.39927 9.42097,-1.72804z" stroke="#282727" stroke-width="7.00532"/><path d="M224.12442,201.43231c4.15213,0.88905 7.96547,3.36024 10.45193,7.20176c2.48652,3.8416 3.17941,8.33242 2.29021,12.48452c-0.88905,4.15213 -3.36016,7.96542 -7.20176,10.45193c-3.84152,2.48646 -8.33242,3.17941 -12.48452,2.29021c-4.15205,-0.88911 -7.96533,-3.36021 -10.45185,-7.20182c-2.48646,-3.84152 -3.17941,-8.33242 -2.2903,-12.48446c0.88911,-4.15205 3.36024,-7.96547 7.20176,-10.45193c3.8416,-2.48652 8.33247,-3.17932 12.48452,-2.29021z" stroke="#b7b7b7" stroke-width="1.66863"/><path d="M222.23255,210.36137c1.68225,0.36023 3.22725,1.36142 4.23461,2.91776c1.00741,1.55642 1.28813,3.37593 0.9279,5.05818c-0.3602,1.68212 -1.36139,3.22712 -2.91781,4.23452c-1.55642,1.00741 -3.37584,1.28808 -5.05804,0.92793c-1.68225,-0.36023 -3.22717,-1.36148 -4.23458,-2.9179c-1.00735,-1.55634 -1.28816,-3.37579 -0.92793,-5.05804c0.36029,-1.68217 1.36139,-3.22712 2.91781,-4.23452c1.55642,-1.00741 3.37593,-1.28813 5.05804,-0.92793z" stroke="url(#color-3)" stroke-width="2.41226"/><path d="M222.51962,209.54756c2.04772,0.43828 3.92839,1.65699 5.15467,3.55155c1.22628,1.89457 1.56794,4.1093 1.12925,6.15693c-0.43822,2.0478 -1.6569,3.92834 -3.55147,5.15462c-1.89457,1.22628 -4.10933,1.56808 -6.15702,1.1293c-2.04772,-0.43828 -3.92825,-1.65696 -5.15453,-3.55152c-1.22628,-1.89457 -1.56808,-4.10933 -1.12938,-6.15696c0.43828,-2.04772 1.65704,-3.92831 3.55161,-5.15459c1.89457,-1.22628 4.10925,-1.56802 6.15688,-1.12933z" stroke="#d3d3d3" stroke-width="2.39576"/></g><g fill="none"><path d="M269.72975,163.81628c1.46431,-1.83416 3.77589,-3.29033 6.17378,-3.83285c3.30963,-0.70263 7.00233,-0.9647 10.28263,0.24255c4.41669,1.62777 8.87125,3.74229 11.64053,8.02077c2.76929,4.27848 3.54088,9.28012 2.55062,13.90419c-0.9902,4.62416 -3.74221,8.87119 -8.02077,11.64053c-4.27848,2.76929 -9.19724,2.58586 -13.90419,2.55062c-2.97981,-0.02342 -5.7195,-1.61728 -8.49667,-2.56436c-1.22743,-0.48166 -3.08025,-0.29289 -3.49877,-1.71576c-1.67382,-5.67782 -2.87613,-11.76305 -2.19571,-17.64484c0.45844,-3.96275 2.99138,-7.49646 5.46855,-10.60086z" stroke="#ff7c7c" stroke-width="3.76986" stroke-linecap="round"/><g stroke-linecap="butt"><path d="M275.07791,167.76136c2.89885,-1.87631 6.28773,-2.39927 9.42088,-1.72798c3.1333,0.67059 6.01086,2.53543 7.88718,5.43428c1.87637,2.89894 2.39927,6.28773 1.72798,9.42088c-0.67059,3.1333 -2.53537,6.01095 -5.43423,7.88726c-2.89894,1.87637 -6.28779,2.39918 -9.42102,1.72795c-3.13321,-0.67065 -6.01081,-2.53534 -7.88718,-5.43428c-1.87631,-2.89885 -2.39918,-6.28779 -1.72798,-9.42088c0.67068,-3.13335 2.53543,-6.01086 5.43437,-7.88723z" stroke="#282727" stroke-width="7.00532"/><path d="M272.85732,164.2776c3.84152,-2.48646 8.33247,-3.17932 12.48452,-2.29021c4.15205,0.88911 7.96539,3.3603 10.45185,7.20182c2.48652,3.8416 3.17941,8.33242 2.2903,12.48446c-0.88905,4.15213 -3.36024,7.96547 -7.20176,10.45193c-3.8416,2.48652 -8.33242,3.17941 -12.48452,2.29021c-4.15213,-0.88905 -7.96542,-3.36016 -10.45193,-7.20176c-2.48646,-3.84152 -3.17941,-8.33242 -2.29021,-12.48452c0.88911,-4.15205 3.36016,-7.96542 7.20176,-10.45193z" stroke="#b7b7b7" stroke-width="1.66863"/><path d="M277.49417,172.42546c1.55642,-1.00741 3.37584,-1.28808 5.05804,-0.92793c1.68225,0.36023 3.22717,1.36148 4.23452,2.91781c1.00741,1.55642 1.28822,3.37587 0.92798,5.05813c-0.36029,1.68217 -1.36139,3.22712 -2.91781,4.23452c-1.55642,1.00741 -3.37593,1.28813 -5.05804,0.92793c-1.68225,-0.36023 -3.22725,-1.36142 -4.23466,-2.91784c-1.00735,-1.55634 -1.28808,-3.37584 -0.92785,-5.0581c0.3602,-1.68212 1.36139,-3.22712 2.91781,-4.23452z" stroke="url(#color-4)" stroke-width="2.41226"/><path d="M277.29504,171.47607c1.89457,-1.22628 4.10933,-1.56808 6.15696,-1.12938c2.04772,0.43828 3.92831,1.65704 5.15459,3.55161c1.22628,1.89457 1.56802,4.10925 1.12933,6.15688c-0.43822,2.0478 -1.65699,3.92839 -3.55155,5.15467c-1.89457,1.22628 -4.10925,1.56802 -6.15693,1.12925c-2.04772,-0.43828 -3.92834,-1.6569 -5.15462,-3.55147c-1.22628,-1.89457 -1.56799,-4.10938 -1.1293,-6.15702c0.43828,-2.04772 1.65696,-3.92825 3.55152,-5.15453z" stroke="#d3d3d3" stroke-width="2.39576"/></g></g><g fill="none"><path d="M222.61028,161.96567c-2.5832,1.23769 -5.63537,1.42728 -8.48766,1.1187c-2.74672,-0.29198 -5.79107,-0.8292 -7.86174,-2.65965c-3.39564,-3.00277 -6.85758,-6.64388 -7.82758,-11.01108c-1.01366,-4.71035 -0.1773,-10.18336 2.31432,-14.21838c2.45503,-3.9756 7.09901,-6.44686 11.43596,-8.12998c2.87734,-1.11635 6.26754,-0.38618 9.26689,0.06366c1.99726,0.29976 4.29027,0.76403 5.6791,2.12979c3.08696,3.04117 6.64063,6.36262 7.45732,10.66872c0.94933,4.99725 -0.38946,10.53305 -2.78937,15.02224c-1.82774,3.41926 -5.67646,5.44867 -9.18724,7.01599z" stroke="#ff7c7c" stroke-width="3.76986" stroke-linecap="round"/><g stroke-linecap="butt"><path d="M219.3251,157.38299c-3.37638,0.72392 -6.72997,0.00854 -9.42013,-1.73221c-2.69059,-1.74012 -4.71788,-4.50563 -5.44171,-7.88206c-0.72392,-3.37638 -0.00854,-6.72997 1.73216,-9.42021c1.74017,-2.6905 4.50568,-4.71779 7.88211,-5.44163c3.37638,-0.72392 6.72991,-0.00862 9.42008,1.73213c2.69064,1.7402 4.71788,4.50563 5.44177,7.88214c0.72392,3.37638 0.00854,6.72997 -1.73221,9.42013c-1.74012,2.69059 -4.50568,4.71779 -7.88206,5.44171z" stroke="#282727" stroke-width="7.00532"/><path d="M220.11346,161.32933c-4.47437,0.9592 -8.91842,0.01132 -12.48363,-2.29515c-3.56524,-2.30634 -6.25167,-5.97113 -7.21101,-10.44553c-0.95928,-4.47431 -0.01132,-8.91842 2.29507,-12.48357c2.30634,-3.56524 5.97122,-6.25173 10.44553,-7.21101c4.4744,-0.95934 8.91842,-0.01132 12.48366,2.29501c3.56521,2.30647 6.25173,5.97122 7.21093,10.44558c0.95934,4.4744 0.01141,8.91836 -2.29501,12.48366c-2.30634,3.56524 -5.97113,6.25167 -10.44553,7.21101z" stroke="#b7b7b7" stroke-width="1.66863"/><path d="M218.69708,152.12154c-1.81281,0.3886 -3.61327,0.00458 -5.05774,-0.92982c-1.44444,-0.93453 -2.53287,-2.41921 -2.92153,-4.23211c-0.38869,-1.81276 -0.00458,-3.61327 0.92987,-5.05765c0.93439,-1.44447 2.41921,-2.53287 4.23197,-2.92156c1.81281,-0.3886 3.61327,-0.00458 5.05774,0.92982c1.44439,0.93445 2.53287,2.41921 2.92148,4.23203c0.38874,1.81284 0.00463,3.61335 -0.92982,5.05774c-0.93439,1.44447 -2.41921,2.53287 -4.23197,2.92156z" stroke="url(#color-5)" stroke-width="2.41226"/><path d="M218.53336,153.04681c-2.20667,0.47319 -4.39831,0.00561 -6.15643,-1.13197c-1.7584,-1.13728 -3.08333,-2.94465 -3.55638,-5.15129c-0.4731,-2.20672 -0.00561,-4.39831 1.13205,-6.15648c1.1372,-1.75834 2.94456,-3.08328 5.1512,-3.55633c2.20672,-0.4731 4.39831,-0.00561 6.15648,1.13205c1.75834,1.1372 3.08328,2.94456 3.55638,5.15129c0.47305,2.20664 0.00561,4.39831 -1.13211,6.1564c-1.13714,1.75843 -2.94456,3.08328 -5.1512,3.55633z" stroke="#d3d3d3" stroke-width="2.39576"/></g></g><path d="M213.96808,171.40699c-1.32515,-2.17817 -3.37617,-3.7519 -5.34323,-5.30707c-1.59619,-1.26228 -3.68456,-1.62553 -5.16241,-2.93963c-1.96617,-1.74777 -3.84203,-3.80451 -5.15633,-6.12382c-1.60545,-2.83355 -3.03971,-5.75135 -3.37835,-8.90443c-0.37919,-3.52601 0.11221,-7.2422 1.12583,-10.66708c0.80988,-2.7372 2.09853,-5.56452 4.24788,-7.44029c3.57413,-3.1184 7.64126,-5.94054 12.1657,-6.9998c4.25267,-1.01737 8.90888,-0.40885 13.00075,1.04632c3.4264,1.21858 6.01852,4.17801 8.53515,6.79904c1.66953,1.7387 3.06154,3.85858 3.88803,6.12984c1.74376,4.79134 1.24712,10.33356 3.57531,14.85919c1.82516,3.54769 4.82979,6.94899 8.53864,8.58572c4.23869,1.82684 9.25423,1.81803 13.88757,1.18799c3.25896,-0.44339 5.77059,-3.33995 8.85319,-4.37879c2.99015,-1.00556 6.24495,-1.854 9.3251,-1.6231c3.72367,0.27954 7.47782,1.34673 10.76941,3.12667c2.80161,1.50125 5.28351,3.836 7.04932,6.4688c2.04796,3.05363 3.84342,6.56813 4.15646,10.22951c0.33414,3.93123 -0.65187,8.02318 -2.24975,11.63303c-1.44251,3.25841 -3.929,6.17337 -6.66728,8.37029c-2.62163,2.10236 -5.87762,3.56623 -9.09385,4.37542c-2.71708,0.68301 -5.54878,0.28808 -8.4221,-0.11409c-2.99386,-0.42076 -5.83106,-1.70147 -8.7421,-2.45124c-2.26134,-0.58244 -4.50247,-1.67969 -6.80386,-1.69827c-2.44494,-0.01917 -4.99083,0.37126 -7.21133,1.38789c-2.93146,1.34375 -5.86722,3.15128 -7.94324,5.53896c-1.64325,1.89006 -2.2747,4.51737 -2.87599,6.94982c-0.80844,3.27184 -0.35276,6.8827 -1.46869,10.01443c-1.72458,4.84076 -3.28628,10.16598 -6.9994,13.75314c-3.45195,3.32795 -8.39212,5.50026 -13.26027,5.80009c-5.21709,0.32021 -10.83391,-1.30075 -15.124,-4.20393c-3.75643,-2.54173 -5.85935,-7.04783 -7.67867,-11.24921c-1.16875,-2.70048 -1.29996,-5.96555 -0.80641,-8.80022c0.67768,-3.87929 1.82409,-7.91079 4.1122,-11.08937c2.53229,-3.70661 7.10466,-5.62966 9.93379,-8.9739c2.03052,-2.39909 3.64075,-5.3058 4.48178,-8.30736c0.62136,-1.98993 0.49549,-4.18912 0.11295,-6.22408c-0.57755,-3.05289 -1.7472,-6.09025 -3.37179,-8.76049z" fill="none" stroke="url(#color-6)" stroke-width="3.67098" stroke-linecap="round"/></g></g></svg>