<svg version="1.1" xmlns="http://www.w3.org/2000/svg" xmlns:xlink="http://www.w3.org/1999/xlink" width="69.00099" height="54.672" viewBox="0,0,69.00099,54.672"><defs><linearGradient x1="4.49951" y1="324" x2="73.5005" y2="324" gradientUnits="userSpaceOnUse" id="color-1"><stop offset="0" stop-color="#66b3e3"/><stop offset="1" stop-color="#1c75bc"/></linearGradient></defs><g transform="translate(-4.49951,-296.664)"><g data-paper-data="{&quot;isPaintingLayer&quot;:true}" fill-rule="nonzero" stroke="none" stroke-width="1" stroke-linecap="butt" stroke-linejoin="miter" stroke-miterlimit="10" stroke-dasharray="" stroke-dashoffset="0" style="mix-blend-mode: normal"><path d="M73.5005,342.731c0,4.752 -2.92227,8.605 -6.52469,8.605h-55.95237c-3.60318,0 -6.52393,-3.854 -6.52393,-8.605v-37.463c0,-4.752 2.92076,-8.604 6.52393,-8.604h55.95161c3.60469,0 6.52469,3.852 6.52469,8.604v37.463z" fill="url(#color-1)"/><path d="M69.92232,305.2695v37.462c0,2.862 -1.70974,5.19 -3.81404,5.19h-54.21729c-2.10209,0 -3.81331,-2.328 -3.81331,-5.19v-37.463c0,-2.862 1.71121,-5.19 3.81331,-5.19h54.21729c2.1043,0 3.81404,2.329 3.81404,5.191z" fill="#27aae1"/><text transform="translate(10.55573,316.28453) scale(0.28575,0.28575)" font-size="40" xml:space="preserve" fill="#000000" fill-rule="nonzero" stroke="none" stroke-width="1" stroke-linecap="butt" stroke-linejoin="miter" stroke-miterlimit="10" stroke-dasharray="" stroke-dashoffset="0" font-family="Sans Serif" font-weight="normal" text-anchor="start" style="mix-blend-mode: normal"><tspan x="0" dy="0">Return to</tspan><tspan x="0" dy="46.15px">main page</tspan></text><text transform="translate(9.66264,337.73729) scale(0.16203,0.16203)" font-size="40" xml:space="preserve" fill="#000000" fill-rule="nonzero" stroke="none" stroke-width="1" stroke-linecap="butt" stroke-linejoin="miter" stroke-miterlimit="10" stroke-dasharray="" stroke-dashoffset="0" font-family="Sans Serif" font-weight="normal" text-anchor="start" style="mix-blend-mode: normal"><tspan x="0" dy="0">dbshorts.github.io</tspan></text></g></g></svg>