<svg version="1.1" xmlns="http://www.w3.org/2000/svg" xmlns:xlink="http://www.w3.org/1999/xlink" width="357.38484" height="289.0858" viewBox="0,0,357.38484,289.0858"><g transform="translate(-120.5,-49.5)"><g data-paper-data="{&quot;isPaintingLayer&quot;:true}" fill-rule="nonzero" stroke-linejoin="miter" stroke-miterlimit="10" stroke-dasharray="" stroke-dashoffset="0" style="mix-blend-mode: normal"><text transform="translate(175.61944,325.68036) scale(0.89003,0.89003)" font-size="40" xml:space="preserve" data-paper-data="{&quot;index&quot;:null}" fill="#ffffff" fill-rule="nonzero" stroke="#000000" stroke-width="1" stroke-linecap="butt" stroke-linejoin="miter" stroke-miterlimit="10" stroke-dasharray="" stroke-dashoffset="0" font-family="Marker" font-weight="normal" text-anchor="start" style="mix-blend-mode: normal"><tspan x="0" dy="0">Pumpkin Carving</tspan></text><path d="M158.88484,299v-237h319v237z" fill="#000000" stroke="none" stroke-width="0" stroke-linecap="butt"/><path d="M327.85537,122.8102c14.284,-0.868 26.926,-14.171 41.6,-12.4c15.685,1.896 32.598,9.663 41.5,23c13.011,16.479 22.274,38.701 19.5,60c-2.999,23.06 -14.788,47.851 -34,61c-24.045,16.456 -55.89,21.782 -85,21c-25.843,-1.13 -53.459,-9.789 -73,-26.5c-17.347,-14.726 -31.866,-39.071 -29.5,-61.5c2.825,-26.747 18.366,-56.154 42,-69c22.288,-12.114 51.16,6.234 76.9,4.4z" fill="#ff9900" stroke="#8c5300" stroke-width="5" stroke-linecap="round"/><path d="M230.80537,135.66019c11.868,-11.966 42.673,-31.698 46.5,-18.5c7.424,24.545 -18.939,61.628 -24,94c-1.265,8.093 1.322,16.272 5.259,23.14c7.699,13.438 29.737,33.022 27.741,37.36c-1.998,4.34 -24.991,-6.9 -35,-14c-12.839,-9.439 -25.585,-21.598 -32,-34.5c-6.213,-12.73 -8.963,-27.918 -7,-42c2.258,-16.198 7.003,-33.914 18.5,-45.5z" fill="#f09100" stroke="none" stroke-width="1" stroke-linecap="round"/><path d="M328.80537,124.2102l3.5,147" fill="none" stroke="#aa6600" stroke-width="5" stroke-linecap="round"/><path d="M349.80537,123.0102c9.041,39.894 10.635,61.54 11.5,88.55c0.564,18.696 -4.5,56 -4.5,56" fill="none" stroke="#aa6600" stroke-width="5" stroke-linecap="round"/><path d="M383.80537,113.2602c0,0 17.527,46.752 20,71c2.266,22.773 -6,67.9 -6,67.9" fill="none" stroke="#aa6600" stroke-width="5" stroke-linecap="round"/><path d="M404.80537,126.1602c0,0 13.042,24.874 15,38.5c3.054,21.143 -0.5,63.5 -0.5,63.5" fill="none" stroke="#aa6600" stroke-width="5" stroke-linecap="round"/><path d="M270.95537,266.5602c0,0 -34.102,-52.247 -35.15,-81.9c-0.869,-24.293 30,-70 30,-70" fill="none" stroke="#aa6600" stroke-width="5" stroke-linecap="round"/><path d="M307.55537,271.6602c0,0 -17.612,-53.269 -18.25,-81c-0.13,-22.495 16,-66 16,-66" fill="none" stroke="#aa6600" stroke-width="5" stroke-linecap="round"/><path d="M328.70537,122.1602c14.158,-1.062 26.837,-14.413 41.1,-12.5c15.659,2.1 32.598,9.663 41.5,23c13.011,16.479 22.274,38.701 19.5,60c-2.999,23.06 -14.788,47.851 -34,61c-24.045,16.456 -55.89,21.782 -85,21c-25.843,-1.13 -53.459,-9.789 -73,-26.5c-17.347,-14.726 -31.866,-39.071 -29.5,-61.5c2.825,-26.747 18.408,-56.081 42,-69c22.508,-12.324 51.538,6.14 77.4,4.5z" fill="none" stroke="#8c5300" stroke-width="5" stroke-linecap="round"/><g stroke="#395c00" stroke-linecap="round"><path d="M326.55537,84.5102c0.916,-2.724 1.819,6.028 4.25,7.75c2.68,2.313 6.568,2.365 10,3.5c2.051,0.683 6.762,0.482 6,2.5c-3.013,7.918 -11.744,14.108 -14.75,20.75c-0.937,2.07 4.571,-3.555 7.25,-3.5c5.314,0.108 16.181,2.097 15.75,3.75c-0.62,1.595 -13.688,0.592 -18.5,4.75c-5.172,4.472 -5.221,16.401 -8.25,19c-1.676,1.425 0.079,-7.632 -1.25,-11.25c-0.528,-0.878 -2.249,-0.357 -3.5,-0.25c-4.88,0.476 -13.154,2.842 -14.5,2.75c-1.172,-0.077 5.994,-1.02 7.75,-3.25c0.897,-1.418 -0.624,-3.674 -1.75,-5c-4.242,-4.972 -15.7,-11.997 -14.5,-13.25c1.201,-1.254 16.102,11.629 21,6.25c7.718,-8.473 1.503,-24.125 5,-34.5z" fill="#497400" stroke-width="2"/><path d="M338.33787,84.2607c3.2905,1.0826 6.9475,2.2186 9.7059,4.4763c1.2098,1.1563 1.7517,3.3577 1.1645,4.8744c-0.7488,1.9303 -2.4288,3.3319 -5.0016,3.9828c-2.573,0.6519 -5.8471,0.5747 -9.2107,-0.3852c-3.3636,-0.96 -6.1853,-2.6224 -8.0267,-4.5341c-1.8416,-1.9108 -2.6217,-4.0054 -2.146,-6.0227c0.4243,-1.765 2.6979,-3.3224 4.7367,-3.6419c2.8815,-0.4484 5.9712,0.328 8.7779,1.2504z" fill="#5f9800" stroke-width="2.01254"/></g><path d="M120.5,52c0,-1.38071 1.11929,-2.5 2.5,-2.5c1.38071,0 2.5,1.11929 2.5,2.5c0,1.38071 -1.11929,2.5 -2.5,2.5c-1.38071,0 -2.5,-1.11929 -2.5,-2.5z" fill="#ffe400" stroke="none" stroke-width="0.5" stroke-linecap="butt"/><path d="M253.66679,214.93394c-0.99515,-1.42238 -1.66679,-3.34234 -1.66679,-5.93394c0,-10 10,-10 10,-10c12,0 24,0 36,0c4.45523,0 11.75536,-0.68182 15.15412,2.11795c3.59941,2.96505 5.1458,9.60998 5.65473,14.86313c1.06373,0.00733 2.12751,0.01893 3.19115,0.01893c3.33261,0 6.66523,0 9.99784,0c0.00108,-0.33334 0.00216,-0.66667 0.00216,-1c0,-2.53763 -0.11082,-8.30765 0.7612,-9.82683c1.73941,-3.0303 4.38166,-5.67255 7.41196,-7.41196c1.98582,-1.13987 4.54058,-0.63534 6.82683,-0.7612c3.32829,-0.18323 6.66667,0 10,0c7,0 14,0 21,0c2.70623,0 6.36721,-0.58995 9,0c3.41151,0.76444 7.59894,0.45681 10.07107,2.92893c3.20819,3.20819 2.92893,8.81262 2.92893,13.07107c0,7.77806 0.50778,15.76179 -2.85486,23.04554c-2.27017,4.91737 -4.05541,5.89354 -7.88783,9.46097c-5.02422,1.9528 -8.85114,3.40166 -14.25731,3.49349c-1.99971,0.03397 -4,0 -6,0c-0.78752,0 -2.61981,0.12245 -3.11966,-0.09401c-0.5577,0.75691 -1.87138,2.20397 -2.62303,2.60051c-2.08232,1.09855 -4.36983,1.79991 -6.65549,2.36437c-0.55991,0.13827 -1.15907,-0.48887 -1.70398,-0.29995c-0.64984,0.22529 -0.89123,1.10054 -1.50433,1.41223c-2.7761,1.41135 -6.26989,1.58162 -9,3c-6.15921,3.1999 -37.80891,4.76375 -39.17168,4.94192c-4.24802,0.55539 -15.93226,-2.92508 -20.22183,-2.92508c-1.41215,0 -18.09589,-7.75042 -19.25731,-8.49349c-1.24321,-0.7954 -9.1486,-5.34198 -11.61356,-12.90469c-0.0561,-1.99921 0.38847,-4.03809 0,-6c-0.73381,-3.70594 -1.94056,-7.70356 -1.12913,-11.60182c0.3827,-1.83857 0.3304,-4.09551 0.66679,-6.06606zM378.72678,228.4939c-0.0422,-0.01683 -0.02275,-0.19872 0.03652,-0.4937c-0.38361,0.00062 -0.76723,0.0026 -1.15085,0.00452c-0.9883,0.40302 -1.96159,0.84289 -2.92805,1.29777c0.58681,-0.02467 1.16019,-0.07839 1.71378,-0.17336c0.79283,-0.13602 1.52532,-0.61174 2.3286,-0.63523z" fill="#ffea00" stroke="none" stroke-width="0.5" stroke-linecap="butt"/><path d="M281.17248,145.55099c0.30368,-1.03763 0.78761,-1.93821 1.64994,-2.54933c1.39197,-2.12639 3.84714,-4.00166 8.17758,-4.00166c2.72955,0 4.71406,0.74504 6.15688,1.82841c2.56866,0.74803 7.69483,6.90135 9.57654,8.83171c1.4296,2.1444 3.47791,3.8544 4.77309,6.08258c1.22234,2.10287 1.49393,4.63884 2.47664,6.8638c0.94367,2.13655 3.43315,3.38062 4.25564,5.56668c2.7694,7.36062 0.1263,17.48174 -5.98148,22.33334c-2.10425,1.67147 -8.01182,1.49349 -11.25731,1.49349c-8.33333,0 -16.66667,0 -25,0c0,0 -10,0 -10,-10c0,-2.87141 0.8245,-4.91832 2,-6.37747v-0.62253c-0.35534,-0.93474 -0.07723,-2.00299 0,-3c0.17684,-2.28287 0.023,-4.65938 0.7612,-6.82683c0.47131,-1.38381 1.99427,-2.16858 2.73229,-3.43048c0.37011,-0.63284 0.17919,-1.48888 0.52336,-2.1362c0.32288,-0.60728 1.20199,-0.84947 1.41223,-1.50433c0.40177,-1.25142 -0.24672,-2.74899 0.33212,-3.92899c1.52023,-3.09908 4.58399,-5.98761 7.41127,-8.62217zM296.33901,172c-0.10329,-0.18957 -0.20458,-0.38007 -0.30394,-0.57135c-0.05137,0.18831 -0.10647,0.37862 -0.16591,0.57135c0.15662,0 0.31323,0 0.46985,0z" fill="#ffea00" stroke="none" stroke-width="0.5" stroke-linecap="butt"/><path d="M351.23726,168.67308c0.27419,-2.61457 -0.53305,-5.70201 -0.10814,-8.2749c0.1487,-0.90038 2.42562,-7.86171 2.88772,-8.79169c2.0598,-4.14533 5.17189,-6.96186 8.26457,-10.42323c5.26322,0.58189 10.79898,-0.02442 15.78965,1.74568c1.36673,0.48475 0.15403,3.07698 1.04135,4.22396c0.64499,0.83373 2.47312,0.08704 3,1c1.11066,1.92452 1.22978,4.25589 1.6102,6.46595c0.08643,0.06216 0.20054,0.16218 0.34845,0.31009c1.20984,1.20984 2.60631,2.3171 3.43544,3.81376c2.2352,4.03477 3.47037,10.56422 2.49349,15.25731c-0.71245,3.42275 -0.45681,7.59894 -2.92893,10.07107c-2.47212,2.47212 -6.65956,2.16449 -10.07107,2.92893c-1.9516,0.43731 -4,0 -6,0c-1.54084,0 -3.08168,0 -4.62253,0c-1.45916,1.1755 -3.50607,2 -6.37747,2c-3.61023,0 -5.91709,-1.30338 -7.39112,-2.96904c-2.68551,-1.14069 -5.60888,-3.62414 -5.60888,-9.03096c0,-4.48974 2.01577,-6.9637 4.23726,-8.32692z" fill="#ffea00" stroke="none" stroke-width="0.5" stroke-linecap="butt"/><path d="M325,185c0,-5.52285 4.47715,-10 10,-10c5.52285,0 10,4.47715 10,10c0,5.52285 -4.47715,10 -10,10c-5.52285,0 -10,-4.47715 -10,-10z" fill="#ffea00" stroke="none" stroke-width="0.5" stroke-linecap="butt"/></g></g></svg>