<svg version="1.1" xmlns="http://www.w3.org/2000/svg" xmlns:xlink="http://www.w3.org/1999/xlink" width="171.66021" height="91.19551" viewBox="0,0,171.66021,91.19551"><defs><radialGradient cx="288.23636" cy="253.81737" r="89.23012" gradientUnits="userSpaceOnUse" id="color-1"><stop offset="0" stop-color="#fcf2b6"/><stop offset="1" stop-color="#fde665"/></radialGradient><linearGradient x1="319.58065" y1="222.21524" x2="319.58065" y2="205.82418" gradientUnits="userSpaceOnUse" id="color-2"><stop offset="0" stop-color="#e8d35d"/><stop offset="1" stop-color="#e8d35d" stop-opacity="0"/></linearGradient></defs><g transform="translate(-233.53674,-178.80139)"><g data-paper-data="{&quot;isPaintingLayer&quot;:true}" fill-rule="nonzero" stroke-linejoin="miter" stroke-miterlimit="10" stroke-dasharray="" stroke-dashoffset="0" style="mix-blend-mode: normal"><path d="M348.28928,202.37584l7.5833,-15.6726c0,0 8.43812,-6.01802 17.79643,-5.30647c4.89778,0.3724 6.72735,-1.59815 11.6781,2.24737c1.79936,1.39767 2.37532,4.60068 2.37532,4.60068c0,0 0.45627,5.56148 0.12851,6.1528c-1.85998,3.35568 -8.21736,12.08907 -8.21736,12.08907l12.13327,-10.79097c0,0 4.63041,-3.50705 9.78016,-1.96321c6.3591,1.90639 1.84756,7.3587 1.84756,7.3587c0,0 -6.67841,6.82446 -10.90341,9.72715c-4.80111,3.29849 -16.39646,9.02858 -16.39646,9.02858c0,0 10.67086,8.72299 7.78939,22.48459c-2.40267,11.47489 -19.30922,20.99217 -19.30922,20.99217c0,0 -10.14716,6.4232 -41.9609,6.4232c-34.77445,0 -43.47756,-6.4232 -43.47756,-6.4232c0,0 -14.98777,-11.15578 -17.14606,-17.38443c-2.50761,-7.23673 2.99057,-23.46709 2.99057,-23.46709l-28.81652,-15.92952c0,0 -6.78631,-9.91242 2.57117,-13.95785c8.21938,-3.55341 16.13429,7.79158 16.13429,7.79158l2.52777,7.45091l-4.04442,-14.38796c0,0 -0.96622,-11.56076 18.50656,-11.64599c22.8417,-0.09998 20.42103,9.84749 20.42103,9.84749l2.52777,10.79097l3.03332,-12.0756c0,0 2.14275,-11.30482 25.78321,-11.30482c26.34665,0 21.73878,11.30482 21.73878,11.30482z" data-paper-data="{&quot;index&quot;:null}" fill="url(#color-1)" stroke="#000000" stroke-width="0.5" stroke-linecap="round"/><path d="M297.84187,231.20771c5.30498,0 9.60551,2.18558 9.60551,4.88163c0,2.69605 -4.30053,4.88163 -9.60551,4.88163c-5.30498,0 -9.60551,-2.18558 -9.60551,-4.88163c0,-2.69605 4.30053,-4.88163 9.60551,-4.88163z" data-paper-data="{&quot;index&quot;:null}" fill="#000000" stroke="#000000" stroke-width="0.5" stroke-linecap="butt"/><path d="M347.83609,230.46515c5.30498,0 9.60551,2.18558 9.60551,4.88163c0,2.69605 -4.30053,4.88163 -9.60551,4.88163c-5.30498,0 -9.60551,-2.18558 -9.60551,-4.88163c0,-2.69605 4.30053,-4.88163 9.60551,-4.88163z" data-paper-data="{&quot;index&quot;:null}" fill="#000000" stroke="#000000" stroke-width="0.5" stroke-linecap="butt"/><path d="M299.86408,236.61731c1.38071,0 2.5,0.56883 2.5,1.27053c0,0.70169 -1.11929,1.27053 -2.5,1.27053c-1.38071,0 -2.5,-0.56883 -2.5,-1.27053c0,-0.70169 1.11929,-1.27053 2.5,-1.27053z" data-paper-data="{&quot;index&quot;:null}" fill="#ffffff" stroke="none" stroke-width="0.5" stroke-linecap="butt"/><path d="M349.91383,236.10346c1.38071,0 2.5,0.56883 2.5,1.27053c0,0.70169 -1.11929,1.27053 -2.5,1.27053c-1.38071,0 -2.5,-0.56883 -2.5,-1.27053c0,-0.70169 1.11929,-1.27053 2.5,-1.27053z" data-paper-data="{&quot;index&quot;:null}" fill="#ffffff" stroke="none" stroke-width="0.5" stroke-linecap="butt"/><path d="M316.54733,229.66615c0,0 -0.2372,-3.08314 5.81386,-3.08314c5.39666,0 5.81386,3.08314 5.81386,3.08314" data-paper-data="{&quot;index&quot;:null}" fill="none" stroke="#000000" stroke-width="1.5" stroke-linecap="round"/><path d="M376.20259,220.41675c0,0 -25.66094,-4.50993 -56.11336,-4.32559c-34.24026,0.20727 -55.61387,6.12409 -55.61387,6.12409l-6.06664,-3.85392c0,0 20.58224,-6.41767 62.2215,-7.33911c41.57461,-0.92001 61.13345,5.54061 61.13345,5.54061z" data-paper-data="{&quot;index&quot;:null}" fill="url(#color-2)" stroke="#000000" stroke-width="0" stroke-linecap="round"/></g></g></svg>