<svg version="1.1" xmlns="http://www.w3.org/2000/svg" xmlns:xlink="http://www.w3.org/1999/xlink" width="69.70524" height="29.31098" viewBox="0,0,69.70524,29.31098"><g transform="translate(-287.98636,-147.6586)"><g data-paper-data="{&quot;isPaintingLayer&quot;:true}" fill-rule="nonzero" stroke-linejoin="miter" stroke-miterlimit="10" stroke-dasharray="" stroke-dashoffset="0" style="mix-blend-mode: normal"><path d="M316.54733,176.21958c0,0 -0.2372,-6.06664 5.81386,-6.06664c5.39666,0 5.81386,6.06664 5.81386,6.06664" data-paper-data="{&quot;index&quot;:null}" fill="none" stroke="#000000" stroke-width="1.5" stroke-linecap="round"/><path d="M288.23636,157.51411c0,-5.30498 4.30053,-9.60551 9.60551,-9.60551c5.30498,0 9.60551,4.30053 9.60551,9.60551c0,5.30498 -4.30053,9.60551 -9.60551,9.60551c-5.30498,0 -9.60551,-4.30053 -9.60551,-9.60551z" fill="#000000" stroke="#000000" stroke-width="0.5" stroke-linecap="butt"/><path d="M338.23058,158.97524c0,-5.30498 4.30053,-9.60551 9.60551,-9.60551c5.30498,0 9.60551,4.30053 9.60551,9.60551c0,5.30498 -4.30053,9.60551 -9.60551,9.60551c-5.30498,0 -9.60551,-4.30053 -9.60551,-9.60551z" fill="#000000" stroke="#000000" stroke-width="0.5" stroke-linecap="butt"/><path d="M297.36409,153.97524c0,-1.38071 1.11929,-2.5 2.5,-2.5c1.38071,0 2.5,1.11929 2.5,2.5c0,1.38071 -1.11929,2.5 -2.5,2.5c-1.38071,0 -2.5,-1.11929 -2.5,-2.5z" fill="#ffffff" stroke="none" stroke-width="0.5" stroke-linecap="butt"/><path d="M347.41385,154.98635c0,-1.38071 1.11929,-2.5 2.5,-2.5c1.38071,0 2.5,1.11929 2.5,2.5c0,1.38071 -1.11929,2.5 -2.5,2.5c-1.38071,0 -2.5,-1.11929 -2.5,-2.5z" fill="#ffffff" stroke="none" stroke-width="0.5" stroke-linecap="butt"/></g></g></svg>