<svg version="1.1" xmlns="http://www.w3.org/2000/svg" xmlns:xlink="http://www.w3.org/1999/xlink" width="53.98906" height="29.07137" viewBox="0,0,53.98906,29.07137"><g transform="translate(-296.32108,-185.15205)"><g data-paper-data="{&quot;isPaintingLayer&quot;:true}" fill-rule="evenodd" stroke-miterlimit="10" stroke-dasharray="" stroke-dashoffset="0" style="mix-blend-mode: normal"><g><path d="M348.86451,190.35476c0.6508,3.06624 0.96936,6.196 0.94954,9.33298c0.17483,4.78863 -0.63747,9.56134 -2.38487,14.01068c-7.55207,0 -15.28081,-7.71374 -16.38481,-8.86071c0.03352,-0.21595 0.03352,-0.43615 0,-0.6521v-6.88163c5.71355,-2.879 11.6797,-5.20553 17.82014,-6.94922z" fill="#14e148" stroke="none" stroke-width="1" stroke-linecap="butt" stroke-linejoin="miter"/><path d="M330.86768,195.14488c0.03352,-0.21595 0.03352,-0.43597 0,-0.65211c1.104,-1.14697 8.85479,-8.86071 16.38482,-8.86071c0.65377,1.51534 1.14252,3.09902 1.45737,4.7227c-6.08747,1.75295 -12.00159,4.0793 -17.6655,6.94922z" fill="#acff74" stroke="none" stroke-width="1" stroke-linecap="butt" stroke-linejoin="miter"/><path d="M349.81405,199.68774c0.14612,4.8116 -0.70414,9.60079 -2.49525,14.05569c-8.12619,0 -16.53947,-8.99573 -16.53947,-8.99573v-10.11992c0,0 8.41327,-8.99573 16.53947,-8.99573c1.79111,4.4549 2.64137,9.24408 2.49525,14.05568z" fill="none" stroke="#149948" stroke-width="0.96" stroke-linecap="butt" stroke-linejoin="miter"/><g fill="none" stroke="#00b82b" stroke-width="0.768" stroke-linecap="round" stroke-linejoin="round"><path d="M340.34087,208.00878c-2.19078,-1.17586 -4.26173,-2.56952 -6.18304,-4.16061"/><path d="M344.55852,209.94268c0,0 -0.70656,-0.24725 -1.81074,-0.69711"/></g></g><g><path d="M315.43241,197.28139c-5.55705,-3.14755 -11.49654,-5.53686 -17.66568,-7.10647c0.33152,-1.54386 0.8123,-3.05049 1.43533,-4.49786c7.55207,0 15.28082,7.71375 16.38482,8.86072c-0.03352,0.21595 -0.03352,0.43615 0,0.6521z" fill="#acff74" stroke="none" stroke-width="1" stroke-linecap="butt" stroke-linejoin="miter"/><path d="M315.60891,204.23061c-0.03334,0.21595 -0.03334,0.43597 0,0.6521c-1.104,1.14697 -8.85479,8.86071 -16.38482,8.86071c-1.76092,-4.46157 -2.581,-9.25038 -2.40691,-14.05569c0.02704,-3.20236 0.39726,-6.39231 1.10419,-9.51282c6.16896,1.5696 12.10845,3.95892 17.6655,7.10647z" fill="#14e148" stroke="none" stroke-width="1" stroke-linecap="butt" stroke-linejoin="miter"/><path d="M299.31243,185.63206c8.12619,0 16.53946,8.99573 16.53946,8.99573v10.11992c0,0 -8.41327,8.99573 -16.53946,8.99573c-1.79111,-4.4549 -2.64138,-9.24409 -2.49525,-14.05569c-0.14612,-4.8116 0.70414,-9.60078 2.49525,-14.05568z" fill="none" stroke="#149948" stroke-width="0.96" stroke-linecap="butt" stroke-linejoin="miter"/><g fill="none" stroke="#00b82b" stroke-width="0.768" stroke-linecap="round" stroke-linejoin="round"><path d="M311.98761,204.14061c-0.54135,0.5032 -1.10901,0.97602 -1.70036,1.41681"/><path d="M308.27779,206.90681c-2.0278,1.23086 -4.17339,2.24819 -6.4038,3.03587"/></g></g><g stroke-linecap="butt" stroke-linejoin="miter"><path d="M330.93399,204.88272c-0.27299,0.80638 -1.01751,1.34792 -1.85501,1.3494h-11.52673c-0.83749,-0.00148 -1.58202,-0.54302 -1.85501,-1.3494l0.15465,-0.13501v-7.30889h14.92744v7.30889z" fill="#14e148" stroke="none" stroke-width="1"/><path d="M315.69725,194.49277c0.27299,-0.80638 1.01751,-1.34792 1.85501,-1.3494h11.52673c0.83749,0.00148 1.58202,0.54302 1.85501,1.3494l-0.15465,0.13501v2.81103h-14.92744v-2.81103z" fill="#acff74" stroke="none" stroke-width="1"/><path d="M317.2982,206.23206c-0.94511,0 -1.71129,0 -1.71129,0v-13.08863c0,0 0.76617,0 1.71129,0h12.05692c0.94511,0 1.71128,0 1.71128,0v13.08863c0,0 -0.76617,0 -1.71128,0z" fill="none" stroke="#149948" stroke-width="0.96"/></g></g></g></svg>