<svg version="1.1" xmlns="http://www.w3.org/2000/svg" xmlns:xlink="http://www.w3.org/1999/xlink" width="171.66021" height="178.96023" viewBox="0,0,171.66021,178.96023"><defs><radialGradient cx="208.23636" cy="122.63095" r="89.23012" gradientUnits="userSpaceOnUse" id="color-1"><stop offset="0" stop-color="#fcf2b6"/><stop offset="1" stop-color="#fde665"/></radialGradient><linearGradient x1="239.58065" y1="184.81398" x2="239.58065" y2="217.06643" gradientUnits="userSpaceOnUse" id="color-2"><stop offset="0" stop-color="#e8d35d"/><stop offset="1" stop-color="#e8d35d" stop-opacity="0"/></linearGradient></defs><g transform="translate(-153.53674,-91.03667)"><g data-paper-data="{&quot;isPaintingLayer&quot;:true}" fill-rule="nonzero" stroke-linejoin="miter" stroke-miterlimit="10" stroke-dasharray="" stroke-dashoffset="0" style="mix-blend-mode: normal"><path d="M163.74769,214.13605l124.36605,-33.87206l30.83874,62.18303h-9.60551l-8.5944,-23.25544l-11.12217,46.51088l-11.62772,-4.04442l-11.12217,-18.70546l-48.02754,3.53887l-11.62772,12.63883l-32.86095,-12.13327l-11.12217,-2.52777z" fill="#f26604" stroke="#000000" stroke-width="0.5" stroke-linecap="round"/><path d="M265.36388,247.50257c0,0 4.60787,22.24433 -21.73878,22.24433c-23.64046,0 -25.78321,-22.24433 -25.78321,-22.24433l-3.03332,-23.76099l-2.52777,21.23323c0,0 2.42067,19.57349 -20.42103,19.37677c-19.47278,-0.1677 -18.50656,-22.91564 -18.50656,-22.91564l4.04442,-28.31097l-2.52777,14.66104c0,0 -7.91491,22.32337 -16.13429,15.33138c-9.35748,-7.96014 -2.57117,-27.46466 -2.57117,-27.46466l28.81652,-31.34429c0,0 -5.49818,-31.93624 -2.99057,-46.17586c2.15829,-12.25601 17.14606,-34.20708 17.14606,-34.20708c0,0 8.70311,-12.63883 43.47756,-12.63883c31.81374,0 41.9609,12.63883 41.9609,12.63883c0,0 16.90655,18.72701 19.30922,41.30597c2.88147,27.07852 -7.78939,44.2426 -7.78939,44.2426c0,0 11.59535,11.27501 16.39646,17.7654c4.225,5.71157 10.90341,19.13997 10.90341,19.13997c0,0 4.51154,10.72842 -1.84756,14.4796c-5.14975,3.03779 -9.78016,-3.86298 -9.78016,-3.86298l-12.13327,-21.23323c0,0 6.35738,17.18458 8.21736,23.78749c0.32776,1.16355 -0.12851,12.10678 -0.12851,12.10678c0,0 -0.57596,6.30251 -2.37532,9.05268c-4.95075,7.56677 -6.78032,3.68935 -11.6781,4.42211c-9.35831,1.4001 -17.79643,-10.44147 -17.79643,-10.44147l-7.5833,-30.83874z" fill="url(#color-1)" stroke="#000000" stroke-width="0.5" stroke-linecap="round"/><path d="M208.23636,157.51411c0,-5.30498 4.30053,-9.60551 9.60551,-9.60551c5.30498,0 9.60551,4.30053 9.60551,9.60551c0,5.30498 -4.30053,9.60551 -9.60551,9.60551c-5.30498,0 -9.60551,-4.30053 -9.60551,-9.60551z" fill="#000000" stroke="#000000" stroke-width="0.5" stroke-linecap="butt"/><path d="M258.23058,158.97524c0,-5.30498 4.30053,-9.60551 9.60551,-9.60551c5.30498,0 9.60551,4.30053 9.60551,9.60551c0,5.30498 -4.30053,9.60551 -9.60551,9.60551c-5.30498,0 -9.60551,-4.30053 -9.60551,-9.60551z" fill="#000000" stroke="#000000" stroke-width="0.5" stroke-linecap="butt"/><path d="M217.36408,153.97524c0,-1.38071 1.11929,-2.5 2.5,-2.5c1.38071,0 2.5,1.11929 2.5,2.5c0,1.38071 -1.11929,2.5 -2.5,2.5c-1.38071,0 -2.5,-1.11929 -2.5,-2.5z" fill="#ffffff" stroke="none" stroke-width="0.5" stroke-linecap="butt"/><path d="M267.41383,154.98635c0,-1.38071 1.11929,-2.5 2.5,-2.5c1.38071,0 2.5,1.11929 2.5,2.5c0,1.38071 -1.11929,2.5 -2.5,2.5c-1.38071,0 -2.5,-1.11929 -2.5,-2.5z" fill="#ffffff" stroke="none" stroke-width="0.5" stroke-linecap="butt"/><path d="M248.17505,170.15294c0,0 -0.4172,6.06664 -5.81386,6.06664c-6.05106,0 -5.81386,-6.06664 -5.81386,-6.06664" fill="none" stroke="#000000" stroke-width="1.5" stroke-linecap="round"/><path d="M301.76367,195.93615c0,0 -19.55884,12.71248 -61.13345,10.90219c-41.63926,-1.8131 -62.2215,-14.44106 -62.2215,-14.44106l6.06664,-7.5833c0,0 21.37361,11.64244 55.61387,12.05028c30.45242,0.36272 56.11336,-8.51141 56.11336,-8.51141z" fill="url(#color-2)" stroke="#000000" stroke-width="0" stroke-linecap="round"/></g></g></svg>