<svg version="1.1" xmlns="http://www.w3.org/2000/svg" xmlns:xlink="http://www.w3.org/1999/xlink" width="76.36316" height="71.04701" viewBox="0,0,76.36316,71.04701"><g transform="translate(-225.89886,-57.60441)"><g data-paper-data="{&quot;isPaintingLayer&quot;:true}" fill-rule="nonzero" stroke="none" stroke-width="1.15528" stroke-linecap="butt" stroke-linejoin="miter" stroke-miterlimit="10" stroke-dasharray="" stroke-dashoffset="0" style="mix-blend-mode: normal"><path d="M246.67237,74.28265l50.94777,19.14863l-33.69903,30.14773l-17.24874,-49.29636" fill="#e4e4e4"/><path d="M255.92729,100.7325l-4.18456,-11.96021c0.30911,-0.38377 0.66103,-0.74302 1.05507,-1.06963c3.1753,-2.63198 7.88471,-2.19138 10.5167,0.98392c2.63205,3.17538 2.1923,7.88394 -0.98392,10.51669c-1.85276,1.53575 -4.22474,2.01777 -6.40329,1.52924z" fill="#8100ff"/><path d="M272.80745,86.06393c0.65996,-0.54703 1.40451,-0.91961 2.18062,-1.13832l6.57067,2.46905c1.6441,2.50123 1.20646,5.88164 -1.15235,7.83685c-2.53228,2.09899 -6.28582,1.74697 -8.3841,-0.78446c-2.09822,-2.53136 -1.74789,-6.28505 0.78516,-8.38312z" fill="#2ec7ff"/><path d="M267.2143,99.87593c1.00772,-0.8353 2.25941,-1.18259 3.46893,-1.07021c1.20938,0.11393 2.37499,0.68745 3.21028,1.69517c0.83529,1.00772 1.18259,2.25941 1.07027,3.46901c-0.11399,1.20931 -0.68737,2.37493 -1.69509,3.21022c-1.0078,0.83536 -2.25954,1.18257 -3.46901,1.07027c-1.20945,-0.11401 -2.37499,-0.68744 -3.21028,-1.69517c-0.83529,-1.00772 -1.18265,-2.25948 -1.07027,-3.46901c0.11393,-1.20938 0.68737,-2.37493 1.69517,-3.21028z" fill="#ffff00"/><path d="M273.31332,114.35031c0.13268,0.16006 0.25232,0.32806 0.36966,0.49486l-9.76188,8.73385l-2.90821,-8.3095c0.42717,-0.70659 0.97134,-1.35885 1.64292,-1.91551c3.21803,-2.6674 7.9908,-2.22087 10.6575,0.99631z" fill="#ffb903"/><path d="M292.67553,97.85545l-9.23614,8.26196c-0.57442,-0.35813 -1.10347,-0.80804 -1.55906,-1.35767c-2.27666,-2.74662 -1.89571,-6.81831 0.85091,-9.09497c2.74662,-2.27666 6.81831,-1.89572 9.09497,0.8509c0.34722,0.4189 0.62412,0.87064 0.84932,1.33977z" fill="#dc5991"/><path d="M251.45963,76.08267l9.03011,3.39408c-0.26366,0.88928 -0.78388,1.71366 -1.55147,2.34991c-2.05995,1.70748 -5.11396,1.42089 -6.82073,-0.6382c-1.22681,-1.48005 -1.40843,-3.46784 -0.65792,-5.10578z" fill="#ff6b00"/><path d="M246.68589,66.37703l6.89793,-0.40566l-5.56972,3.61736l10.40333,4.01891l-10.29848,-0.24649l9.39535,10.12745l-12.81144,-9.14001l-8.13914,9.53307l3.01296,-10.03475l-13.67781,2.23353l13.04243,-6.92131l-7.11515,-6.27934l9.75655,4.312l5.51459,-9.58737l-0.41139,8.77262" fill="#2ec7ff"/><path d="M263.40627,128.65142l-3.69666,-9.51958l6.51038,0.89545l2.0059,-6.11936l3.97897,0.37233l1.35836,-5.3201l4.90812,1.17471l-0.06889,-8.46309l6.80686,0.77881l1.38483,-5.60313l6.72476,-1.3785l-0.31351,-8.91756l9.25664,8.32166l-7.24781,3.90842l-0.86804,6.2266l-6.79983,0.65439l-1.54356,7.3088l-7.88601,1.55627l-0.6914,7.39009l-4.9846,-1.90051l-1.95186,5.55086l-4.6766,-0.58028l-2.20604,3.66375" fill="#2ec7ff"/></g></g></svg>