<svg version="1.1" xmlns="http://www.w3.org/2000/svg" xmlns:xlink="http://www.w3.org/1999/xlink" width="76.58506" height="32.36166" viewBox="0,0,76.58506,32.36166"><g transform="translate(-284.79923,-144.60792)"><g data-paper-data="{&quot;isPaintingLayer&quot;:true}" fill-rule="nonzero" stroke-linejoin="miter" stroke-miterlimit="10" stroke-dasharray="" stroke-dashoffset="0" style="mix-blend-mode: normal"><path d="M316.54733,176.21958c0,0 -0.2372,-6.06664 5.81386,-6.06664c5.39666,0 5.81386,6.06664 5.81386,6.06664" data-paper-data="{&quot;index&quot;:null}" fill="none" stroke="#000000" stroke-width="1.5" stroke-linecap="round"/><path d="M298.51314,167.11963c-5.30498,0 -9.60551,-4.30053 -9.60551,-9.60551c0,-5.30498 7.7297,-5.44565 15.24612,-9.12647c1.10556,-0.54139 3.9649,3.82149 3.9649,9.12647c0,5.30498 -4.30053,9.60551 -9.60551,9.60551z" data-paper-data="{&quot;index&quot;:null}" fill="#000000" stroke="#000000" stroke-width="0.5" stroke-linecap="butt"/><path d="M299.89184,155.99746c0,-1.38071 1.11929,-2.5 2.5,-2.5c1.38071,0 2.5,1.11929 2.5,2.5c0,1.38071 -1.11929,2.5 -2.5,2.5c-1.38071,0 -2.5,-1.11929 -2.5,-2.5z" fill="#ffffff" stroke="none" stroke-width="0.5" stroke-linecap="butt"/><path d="M347.41383,153.54921c0,-1.38071 1.11929,-2.5 2.5,-2.5c1.38071,0 2.5,1.11929 2.5,2.5c0,1.38071 -1.11929,2.5 -2.5,2.5c-1.38071,0 -2.5,-1.11929 -2.5,-2.5z" fill="#ffffff" stroke="none" stroke-width="0.5" stroke-linecap="butt"/><path d="M316.54733,176.21958c0,0 -0.2372,-6.06664 5.81386,-6.06664c5.39666,0 5.81386,6.06664 5.81386,6.06664" data-paper-data="{&quot;index&quot;:null}" fill="none" stroke="#000000" stroke-width="1.5" stroke-linecap="round"/><path d="M338.29845,158.54921c0,-5.30498 3.33839,-10.1469 4.44394,-9.60551c7.51643,3.68082 14.76708,4.30053 14.76708,9.60551c0,5.30498 -4.30053,9.60551 -9.60551,9.60551c-5.30498,0 -9.60551,-4.30053 -9.60551,-9.60551z" data-paper-data="{&quot;index&quot;:null}" fill="#000000" stroke="#000000" stroke-width="0.5" stroke-linecap="butt"/><path d="M286.79923,154.75167l18.68273,-8.14375" data-paper-data="{&quot;index&quot;:null}" fill="none" stroke="#000000" stroke-width="4" stroke-linecap="round"/><path d="M341.65964,147.08696l17.72464,8.6228" data-paper-data="{&quot;index&quot;:null}" fill="none" stroke="#000000" stroke-width="4" stroke-linecap="round"/><path d="M351.00195,158.89445c-1.38071,0 -2.5,-1.11929 -2.5,-2.5c0,-1.38071 1.11929,-2.5 2.5,-2.5c1.38071,0 2.5,1.11929 2.5,2.5c0,1.38071 -1.11929,2.5 -2.5,2.5z" data-paper-data="{&quot;index&quot;:null}" fill="#ffffff" stroke="none" stroke-width="0.5" stroke-linecap="butt"/></g></g></svg>