<svg version="1.1" xmlns="http://www.w3.org/2000/svg" xmlns:xlink="http://www.w3.org/1999/xlink" width="171.66021" height="144.67713" viewBox="0,0,171.66021,144.67713"><defs><radialGradient cx="288.23636" cy="116.60957" r="89.23012" gradientUnits="userSpaceOnUse" id="color-1"><stop offset="0" stop-color="#fcd3b6"/><stop offset="1" stop-color="#fca465"/></radialGradient><linearGradient x1="319.58065" y1="166.84692" x2="319.58065" y2="192.90352" gradientUnits="userSpaceOnUse" id="color-2"><stop offset="0" stop-color="#e8965d"/><stop offset="1" stop-color="#e8965d" stop-opacity="0"/></linearGradient></defs><g transform="translate(-233.53674,-91.03667)"><g data-paper-data="{&quot;isPaintingLayer&quot;:true}" fill-rule="nonzero" stroke-linejoin="miter" stroke-miterlimit="10" stroke-dasharray="" stroke-dashoffset="0" style="mix-blend-mode: normal"><path d="M316.54733,229.66615c0,0 -0.2372,-3.08314 5.81386,-3.08314c5.39666,0 5.81386,3.08314 5.81386,3.08314" data-paper-data="{&quot;index&quot;:null}" fill="none" stroke="#000000" stroke-width="1.5" stroke-linecap="round"/><path d="M347.41383,136.38607c0,-0.97755 1.11929,-1.77001 2.5,-1.77001c1.38071,0 2.5,0.79247 2.5,1.77001c0,0.97755 -1.11929,1.77001 -2.5,1.77001c-1.38071,0 -2.5,-0.79247 -2.5,-1.77001z" data-paper-data="{&quot;index&quot;:null}" fill="#ffffff" stroke="none" stroke-width="0.5" stroke-linecap="butt"/><path d="M345.36386,217.4927c0,0 4.60787,17.9711 -21.73879,17.9711c-23.64046,0 -25.7832,-17.9711 -25.7832,-17.9711l-3.03332,-19.19639l-2.52777,17.15422c0,0 2.42068,15.81333 -20.42102,15.6544c-19.47278,-0.13548 -18.50656,-18.51342 -18.50656,-18.51342l4.04442,-22.8723l-2.52776,11.84458c0,0 -7.91491,18.03494 -16.13429,12.38616c-9.35748,-6.43095 -2.57118,-22.18856 -2.57118,-22.18856l28.81653,-25.32289c0,0 -5.49818,-25.80113 -2.99057,-37.30526c2.15829,-9.90157 17.14606,-27.63573 17.14606,-27.63573c0,0 8.70311,-10.21084 43.47756,-10.21084c31.81374,0 41.9609,10.21084 41.9609,10.21084c0,0 16.90655,15.12947 19.30922,33.37089c2.88147,21.87659 -7.78939,35.74337 -7.78939,35.74337c0,0 11.59535,9.10903 16.39646,14.35259c4.225,4.61435 10.90341,15.46309 10.90341,15.46309c0,0 4.51154,8.66744 -1.84757,11.698c-5.14974,2.45423 -9.78015,-3.12088 -9.78015,-3.12088l-12.13328,-17.15422c0,0 6.35738,13.88333 8.21736,19.2178c0.32776,0.94003 -0.12851,9.781 -0.12851,9.781c0,0 -0.57596,5.09176 -2.37532,7.3136c-4.95074,6.11316 -6.78032,2.98061 -11.6781,3.57261c-9.35831,1.13112 -17.79643,-8.43562 -17.79643,-8.43562l-7.5833,-24.91447z" data-paper-data="{&quot;index&quot;:null}" fill="url(#color-1)" stroke="#000000" stroke-width="0.5" stroke-linecap="round"/><path d="M288.23636,144.79149c0,-4.28587 1.42221,-8.19762 2.52777,-7.76024c7.51642,2.97373 16.68325,3.47438 16.68325,7.76024c0,4.28587 -4.30053,7.76025 -9.60551,7.76025c-5.30498,0 -9.60551,-3.47438 -9.60551,-7.76025z" data-paper-data="{&quot;index&quot;:null}" fill="#000000" stroke="#000000" stroke-width="0.5" stroke-linecap="butt"/><path d="M299.89184,143.5662c0,-1.11548 1.11929,-2.01975 2.5,-2.01975c1.38071,0 2.5,0.90428 2.5,2.01975c0,1.11548 -1.11929,2.01975 -2.5,2.01975c-1.38071,0 -2.5,-0.90429 -2.5,-2.01975z" data-paper-data="{&quot;index&quot;:null}" fill="#ffffff" stroke="none" stroke-width="0.5" stroke-linecap="butt"/><path d="M316.54733,159.90355c0,0 -0.2372,-4.90121 5.81386,-4.90121c5.39666,0 5.81386,4.90121 5.81386,4.90121" data-paper-data="{&quot;index&quot;:null}" fill="none" stroke="#000000" stroke-width="1.5" stroke-linecap="round"/><path d="M381.76368,175.83249c0,0 -19.55884,10.27033 -61.13345,8.80783c-41.63926,-1.4648 -62.2215,-11.66687 -62.2215,-11.66687l6.06664,-6.12652c0,0 21.3736,9.40588 55.61386,9.73537c30.45241,0.29304 56.11336,-6.87633 56.11336,-6.87633z" data-paper-data="{&quot;index&quot;:null}" fill="url(#color-2)" stroke="#000000" stroke-width="0" stroke-linecap="round"/><path d="M348.34164,151.52642c-5.30498,0 -9.60551,-3.04478 -9.60551,-6.80071c0,-3.75593 9.16683,-4.19468 16.68326,-6.80071c1.10555,-0.3833 2.52776,3.04478 2.52776,6.80071c0,3.75593 -4.30053,6.80071 -9.60551,6.80071z" data-paper-data="{&quot;index&quot;:null}" fill="#000000" stroke="#000000" stroke-width="0.5" stroke-linecap="butt"/><path d="M353.39717,143.27432c-1.38071,0 -2.5,-0.79247 -2.5,-1.77001c0,-0.97755 1.11929,-1.77001 2.5,-1.77001c1.38071,0 2.5,0.79247 2.5,1.77001c0,0.97755 -1.11929,1.77001 -2.5,1.77001z" data-paper-data="{&quot;index&quot;:null}" fill="#ffffff" stroke="none" stroke-width="0.5" stroke-linecap="butt"/></g></g></svg>