<svg version="1.1" xmlns="http://www.w3.org/2000/svg" xmlns:xlink="http://www.w3.org/1999/xlink" width="70.76123" height="32.8407" viewBox="0,0,70.76123,32.8407"><defs><radialGradient cx="298.30038" cy="158.09119" r="9.60551" gradientUnits="userSpaceOnUse" id="color-1"><stop offset="0" stop-color="#f67700"/><stop offset="1" stop-color="#000000"/></radialGradient><radialGradient cx="348.39429" cy="158.85794" r="9.62625" gradientUnits="userSpaceOnUse" id="color-2"><stop offset="0" stop-color="#f67700"/><stop offset="1" stop-color="#000000"/></radialGradient><radialGradient cx="348.79383" cy="166.41375" r="9.62625" gradientUnits="userSpaceOnUse" id="color-3"><stop offset="0" stop-color="#ffea00"/><stop offset="1" stop-color="#ffea00" stop-opacity="0"/></radialGradient><radialGradient cx="297.67759" cy="164.88026" r="9.60551" gradientUnits="userSpaceOnUse" id="color-4"><stop offset="0" stop-color="#ffea00"/><stop offset="1" stop-color="#ffea00" stop-opacity="0"/></radialGradient></defs><g transform="translate(-287.43592,-144.12888)"><g data-paper-data="{&quot;isPaintingLayer&quot;:true}" fill-rule="nonzero" stroke-linejoin="miter" stroke-miterlimit="10" stroke-dasharray="" stroke-dashoffset="0" style="mix-blend-mode: normal"><path d="M288.23636,157.51412c0,-5.30498 2.85934,-9.66786 3.9649,-9.12647c7.51642,3.68082 15.24612,3.82149 15.24612,9.12647c0,5.30498 -4.30053,9.60551 -9.60551,9.60551c-5.30498,0 -9.60551,-4.30053 -9.60551,-9.60551z" data-paper-data="{&quot;index&quot;:null}" fill="url(#color-1)" stroke="#000000" stroke-width="0.5" stroke-linecap="butt"/><path d="M347.41383,153.54921c0,-1.38071 1.11929,-2.5 2.5,-2.5c1.38071,0 2.5,1.11929 2.5,2.5c0,1.38071 -1.11929,2.5 -2.5,2.5c-1.38071,0 -2.5,-1.11929 -2.5,-2.5z" fill="#ffffff" stroke="none" stroke-width="0.5" stroke-linecap="butt"/><path d="M316.54733,176.21958c0,0 -0.2372,-6.06664 5.81386,-6.06664c5.39666,0 5.81386,6.06664 5.81386,6.06664" data-paper-data="{&quot;index&quot;:null}" fill="none" stroke="#000000" stroke-width="1.5" stroke-linecap="round"/><path d="M348.34164,168.15472c-5.30498,0 -9.60551,-4.30053 -9.60551,-9.60551c0,-5.30498 7.25065,-5.92469 14.76708,-9.60551c1.10555,-0.54139 4.44394,4.30053 4.44394,9.60551c0,5.30498 -4.30053,9.60551 -9.60551,9.60551z" data-paper-data="{&quot;index&quot;:null}" fill="url(#color-2)" stroke="#000000" stroke-width="0.5" stroke-linecap="butt"/><path d="M308.11865,154.27263l-18.68273,-8.14375" data-paper-data="{&quot;index&quot;:null}" fill="none" stroke="#000000" stroke-width="4" stroke-linecap="round"/><path d="M356.02309,146.60792l-17.72464,8.6228" data-paper-data="{&quot;index&quot;:null}" fill="none" stroke="#000000" stroke-width="4" stroke-linecap="round"/><path d="M348.23002,168.04309c-5.30498,0 -9.60551,-4.30053 -9.60551,-9.60551c0,-5.30498 7.25065,-5.92469 14.76708,-9.60551c1.10555,-0.54139 4.44394,4.30053 4.44394,9.60551c0,5.30498 -4.30053,9.60551 -9.60551,9.60551z" data-paper-data="{&quot;index&quot;:null}" fill="url(#color-3)" stroke="#000000" stroke-width="0.5" stroke-linecap="butt"/><path d="M288.12474,157.40249c0,-5.30498 2.85934,-9.66786 3.9649,-9.12647c7.51642,3.68082 15.24612,3.82149 15.24612,9.12647c0,5.30498 -4.30053,9.60551 -9.60551,9.60551c-5.30498,0 -9.60551,-4.30053 -9.60551,-9.60551z" data-paper-data="{&quot;index&quot;:null}" fill="url(#color-4)" stroke="#000000" stroke-width="0.5" stroke-linecap="butt"/></g></g></svg>