<svg version="1.1" xmlns="http://www.w3.org/2000/svg" xmlns:xlink="http://www.w3.org/1999/xlink" width="126.75478" height="103.12499" viewBox="0,0,126.75478,103.12499"><g transform="translate(-266.97141,-54.18058)"><g data-paper-data="{&quot;isPaintingLayer&quot;:true}" stroke-miterlimit="10" stroke-dasharray="" stroke-dashoffset="0" style="mix-blend-mode: normal"><g><path d="M319.05132,60.28766c0,-3.10775 2.51933,-5.62707 5.62708,-5.62707c3.10775,0 5.62708,2.51932 5.62708,5.62707c0,3.10775 -2.51932,5.62708 -5.62708,5.62708c-3.10775,0 -5.62708,-2.51932 -5.62708,-5.62708z" fill="#c9e2b3" fill-rule="nonzero" stroke="#149948" stroke-width="0.96" stroke-linecap="butt" stroke-linejoin="miter"/><g><path d="M381.85883,122.33361c9.87912,6.47325 15.76005,19.94863 7.38289,27.50077c-8.37716,7.55213 -28.45271,9.30796 -48.44365,3.68088c-11.17571,-3.13491 -21.42046,-8.94322 -29.84891,-16.92355z" fill="#c9e2b3" fill-rule="nonzero" stroke="#149948" stroke-width="0.96" stroke-linecap="butt" stroke-linejoin="miter"/><path d="M359.11782,81.23055c8.31369,11.76187 12.88305,24.793 15.31581,45.94744c-4.78848,2.60006 -9.86484,4.6307 -15.12542,6.05017c-1.09298,-11.47928 -3.09489,-22.85367 -5.9867,-34.01633c-5.18284,-18.8486 -20.94289,-38.07798 -28.6431,-38.07798c5.21528,-0.03649 10.41327,0.60361 15.46389,1.9039c7.34958,4.89655 13.77383,11.05601 18.97553,18.19281z" fill="#ff7bd0" fill-rule="nonzero" stroke="none" stroke-width="1" stroke-linecap="butt" stroke-linejoin="miter"/><path d="M381.9223,122.22784c-2.35819,1.78737 -4.83925,3.40622 -7.42521,4.84436c-2.43276,-21.23905 -7.00212,-34.18556 -15.31581,-45.94743c-5.23008,-7.10454 -11.67566,-13.22787 -19.03899,-18.08704c39.05109,10.23874 42.52042,58.57663 41.78001,59.19011z" fill="#ffa1e2" fill-rule="nonzero" stroke="none" stroke-width="1" stroke-linecap="butt" stroke-linejoin="miter"/><path d="M353.3215,99.00027c2.89181,11.16267 4.89372,22.53706 5.9867,34.01633c-11.31374,2.86537 -22.96137,4.19598 -34.62981,3.95588c-6.90728,0.03808 -13.81014,-0.35751 -20.66788,-1.18465c0.20925,-11.5586 1.34101,-23.08213 3.3847,-34.46057c3.23663,-18.19281 13.28499,-40.19342 17.28318,-40.19342c7.74253,0 23.46027,19.22938 28.6431,37.86644z" fill="#ffff4f" fill-rule="nonzero" stroke="none" stroke-width="1" stroke-linecap="butt" stroke-linejoin="miter"/><path d="M307.39522,101.51765c-2.01073,11.35288 -3.11428,22.84785 -3.30009,34.37596c-14.08886,-1.79812 -26.37957,-5.88093 -36.5337,-13.66577c-0.9731,-0.69809 3.44817,-61.094 57.11697,-61.094c-3.99819,0 -14.04655,22.00061 -17.28318,40.38382z" fill="#149948" fill-rule="nonzero" stroke="none" stroke-width="1" stroke-linecap="butt" stroke-linejoin="miter"/><path d="M381.94345,122.22784c-6.74104,5.05644 -14.39965,8.75652 -22.55063,10.89454c-11.31374,2.86537 -22.96137,4.19599 -34.6298,3.95588c-6.90728,0.03808 -13.81015,-0.35751 -20.66789,-1.18465c-14.08886,-1.79812 -26.37957,-5.88093 -36.5337,-13.66577c-0.9731,-0.69809 3.44817,-61.094 57.11697,-61.094c53.64765,0 58.06892,60.39591 57.26505,61.09401z" fill="none" fill-rule="evenodd" stroke="#149948" stroke-width="0.96" stroke-linecap="butt" stroke-linejoin="miter"/><path d="M388.90326,139.84948c0.29616,2.96162 -1.05772,6.34633 -5.33092,8.60986" fill="none" fill-rule="evenodd" stroke="#ffffff" stroke-width="1.272" stroke-linecap="round" stroke-linejoin="round"/><path d="M386.21665,133.12238c0.6438,0.79188 1.17742,1.66714 1.58658,2.60199" fill="none" fill-rule="evenodd" stroke="#ffffff" stroke-width="1.272" stroke-linecap="round" stroke-linejoin="round"/><path d="M274.5847,119.1816c0.35962,-2.85585 0.71925,-4.48474 0.71925,-4.48474" fill="none" fill-rule="evenodd" stroke="#047f30" stroke-width="1.92" stroke-linecap="round" stroke-linejoin="round"/><path d="M276.57321,108.94286c1.39319,-5.88305 3.63063,-11.53339 6.64249,-16.77546" fill="none" fill-rule="evenodd" stroke="#047f30" stroke-width="1.92" stroke-linecap="round" stroke-linejoin="round"/></g></g></g></g></svg>