<svg version="1.1" xmlns="http://www.w3.org/2000/svg" xmlns:xlink="http://www.w3.org/1999/xlink" width="171.66021" height="88.45285" viewBox="0,0,171.66021,88.45285"><defs><radialGradient cx="288.23636" cy="254.29908" r="89.23012" gradientUnits="userSpaceOnUse" id="color-1"><stop offset="0" stop-color="#fcd3b6"/><stop offset="1" stop-color="#fca465"/></radialGradient><linearGradient x1="319.58065" y1="223.65261" x2="319.58065" y2="207.75722" gradientUnits="userSpaceOnUse" id="color-2"><stop offset="0" stop-color="#e8965d"/><stop offset="1" stop-color="#e8965d" stop-opacity="0"/></linearGradient></defs><g transform="translate(-233.53674,-181.54403)"><g data-paper-data="{&quot;isPaintingLayer&quot;:true}" fill-rule="nonzero" stroke-linejoin="miter" stroke-miterlimit="10" stroke-dasharray="" stroke-dashoffset="0" style="mix-blend-mode: normal"><path d="M348.28927,204.41316l7.5833,-15.19866c0,0 8.43812,-5.83603 17.79643,-5.14601c4.89778,0.36114 6.72736,-1.54982 11.6781,2.17941c1.79936,1.3554 2.37532,4.46154 2.37532,4.46154c0,0 0.45627,5.39329 0.12851,5.96674c-1.85998,3.2542 -8.21736,11.7235 -8.21736,11.7235l12.13328,-10.46465c0,0 4.63041,-3.401 9.78015,-1.90384c6.35911,1.84874 1.84757,7.13617 1.84757,7.13617c0,0 -6.67841,6.61809 -10.90341,9.433c-4.80111,3.19875 -16.39646,8.75556 -16.39646,8.75556c0,0 10.67086,8.4592 7.78939,21.80465c-2.40267,11.12788 -19.30922,20.35736 -19.30922,20.35736c0,0 -10.14716,6.22895 -41.9609,6.22895c-34.77445,0 -43.47756,-6.22895 -43.47756,-6.22895c0,0 -14.98777,-10.81843 -17.14606,-16.85872c-2.50761,-7.0179 2.99057,-22.75745 2.99057,-22.75745l-28.81653,-15.44781c0,0 -6.7863,-9.61267 2.57118,-13.53576c8.21938,-3.44595 16.13429,7.55597 16.13429,7.55597l2.52776,7.22559l-4.04442,-13.95286c0,0 -0.96622,-11.21116 18.50656,-11.29381c22.8417,-0.09695 20.42102,9.54971 20.42102,9.54971l2.52777,10.46465l3.03332,-11.71044c0,0 2.14274,-10.96297 25.7832,-10.96297c26.34666,0 21.73879,10.96297 21.73879,10.96297z" data-paper-data="{&quot;index&quot;:null}" fill="url(#color-1)" stroke="#000000" stroke-width="0.5" stroke-linecap="round"/><path d="M297.84187,232.37315c5.30498,0 9.60551,2.11949 9.60551,4.73401c0,2.61452 -9.16683,2.91994 -16.68325,4.73401c-1.10556,0.26682 -2.52777,-2.11949 -2.52777,-4.73401c0,-2.61452 4.30053,-4.73401 9.60551,-4.73401z" data-paper-data="{&quot;index&quot;:null}" fill="#000000" stroke="#000000" stroke-width="0.5" stroke-linecap="butt"/><path d="M302.39184,236.62252c1.38071,0 2.5,0.55163 2.5,1.23211c0,0.68047 -1.11929,1.23211 -2.5,1.23211c-1.38071,0 -2.5,-0.55163 -2.5,-1.23211c0,-0.68047 1.11929,-1.23211 2.5,-1.23211z" data-paper-data="{&quot;index&quot;:null}" fill="#ffffff" stroke="none" stroke-width="0.5" stroke-linecap="butt"/><path d="M349.91383,237.12084c1.38071,0 2.5,0.55163 2.5,1.23211c0,0.68047 -1.11929,1.23211 -2.5,1.23211c-1.38071,0 -2.5,-0.55163 -2.5,-1.23211c0,-0.68047 1.11929,-1.23211 2.5,-1.23211z" data-paper-data="{&quot;index&quot;:null}" fill="#ffffff" stroke="none" stroke-width="0.5" stroke-linecap="butt"/><path d="M328.17505,227.8883c0,0 -0.4172,2.9899 -5.81386,2.9899c-6.05106,0 -5.81386,-2.9899 -5.81386,-2.9899" data-paper-data="{&quot;index&quot;:null}" fill="none" stroke="#000000" stroke-width="1.5" stroke-linecap="round"/><path d="M376.20259,221.9085c0,0 -25.66095,-4.37355 -56.11336,-4.19479c-34.24026,0.201 -55.61386,5.9389 -55.61386,5.9389l-6.06664,-3.73738c0,0 20.58224,-6.2236 62.2215,-7.11718c41.57461,-0.89218 61.13345,5.37307 61.13345,5.37307z" data-paper-data="{&quot;index&quot;:null}" fill="url(#color-2)" stroke="#000000" stroke-width="0" stroke-linecap="round"/><path d="M357.94715,235.88873c0,2.61452 -1.42221,5.00083 -2.52776,4.73401c-7.51643,-1.81407 -16.68326,-2.11949 -16.68326,-4.73401c0,-2.61452 4.30053,-4.73401 9.60551,-4.73401c5.30498,0 9.60551,2.11949 9.60551,4.73401z" data-paper-data="{&quot;index&quot;:null}" fill="#000000" stroke="#000000" stroke-width="0.5" stroke-linecap="butt"/><path d="M355.89717,238.13116c0,0.68047 -1.11929,1.23211 -2.5,1.23211c-1.38071,0 -2.5,-0.55163 -2.5,-1.23211c0,-0.68047 1.11929,-1.23211 2.5,-1.23211c1.38071,0 2.5,0.55163 2.5,1.23211z" data-paper-data="{&quot;index&quot;:null}" fill="#ffffff" stroke="none" stroke-width="0.5" stroke-linecap="butt"/></g></g></svg>