<svg version="1.1" xmlns="http://www.w3.org/2000/svg" xmlns:xlink="http://www.w3.org/1999/xlink" width="171.66021" height="178.96021" viewBox="0,0,171.66021,178.96021"><defs><radialGradient cx="208.23636" cy="254.29908" r="89.23012" gradientUnits="userSpaceOnUse" id="color-1"><stop offset="0" stop-color="#fcd3b6"/><stop offset="1" stop-color="#fca465"/></radialGradient><linearGradient x1="239.58065" y1="223.65261" x2="239.58065" y2="207.75722" gradientUnits="userSpaceOnUse" id="color-2"><stop offset="0" stop-color="#e8965d"/><stop offset="1" stop-color="#e8965d" stop-opacity="0"/></linearGradient><radialGradient cx="208.23636" cy="115.76656" r="89.23012" gradientUnits="userSpaceOnUse" id="color-3"><stop offset="0" stop-color="#fcf2b6"/><stop offset="1" stop-color="#fde665"/></radialGradient><linearGradient x1="239.58065" y1="164.33154" x2="239.58065" y2="189.52071" gradientUnits="userSpaceOnUse" id="color-4"><stop offset="0" stop-color="#e8d35d"/><stop offset="1" stop-color="#e8d35d" stop-opacity="0"/></linearGradient></defs><g transform="translate(-153.53674,-91.03668)"><g data-paper-data="{&quot;isPaintingLayer&quot;:true}" fill-rule="nonzero" stroke-linejoin="miter" stroke-miterlimit="10" stroke-dasharray="" stroke-dashoffset="0" style="mix-blend-mode: normal"><path d="M163.74769,187.23208l124.36605,-26.45409l30.83874,48.56497h-9.60551l-8.5944,-18.16251l-11.12217,36.32502l-11.62772,-3.15869l-11.12217,-14.60897l-48.02754,2.76386l-11.62772,9.87093l-32.86095,-9.47609l-11.12217,-1.97419z" fill="#f26604" stroke="#000000" stroke-width="0.5" stroke-linecap="round"/><path d="M163.24213,194.25194l11.12216,-1.24579l32.86095,-5.9798l11.62772,6.22896l48.02754,1.74411l11.12217,-9.21885l11.62772,-1.99326l11.12217,22.92256l8.5944,-11.46128h9.60551l-30.83874,30.64647l-124.36606,-16.6936z" data-paper-data="{&quot;index&quot;:null}" fill="#ffe44b" stroke="#000000" stroke-width="0.5" stroke-linecap="round"/><path d="M268.28927,204.41316l7.5833,-15.19866c0,0 8.43812,-5.83603 17.79643,-5.14601c4.89778,0.36114 6.72736,-1.54982 11.6781,2.17941c1.79936,1.3554 2.37532,4.46154 2.37532,4.46154c0,0 0.45627,5.39329 0.12851,5.96674c-1.85998,3.2542 -8.21736,11.7235 -8.21736,11.7235l12.13328,-10.46465c0,0 4.63041,-3.401 9.78015,-1.90384c6.35911,1.84874 1.84757,7.13617 1.84757,7.13617c0,0 -6.67841,6.61809 -10.90341,9.433c-4.80111,3.19875 -16.39646,8.75556 -16.39646,8.75556c0,0 10.67086,8.4592 7.78939,21.80465c-2.40267,11.12788 -19.30922,20.35736 -19.30922,20.35736c0,0 -10.14716,6.22895 -41.9609,6.22895c-34.77445,0 -43.47756,-6.22895 -43.47756,-6.22895c0,0 -14.98777,-10.81843 -17.14606,-16.85872c-2.50761,-7.0179 2.99057,-22.75745 2.99057,-22.75745l-28.81653,-15.44781c0,0 -6.7863,-9.61267 2.57118,-13.53576c8.21938,-3.44595 16.13429,7.55597 16.13429,7.55597l2.52776,7.22559l-4.04442,-13.95286c0,0 -0.96622,-11.21116 18.50656,-11.29381c22.8417,-0.09695 20.42102,9.54971 20.42102,9.54971l2.52777,10.46465l3.03332,-11.71044c0,0 2.14274,-10.96297 25.7832,-10.96297c26.34666,0 21.73879,10.96297 21.73879,10.96297z" data-paper-data="{&quot;index&quot;:null}" fill="url(#color-1)" stroke="#000000" stroke-width="0.5" stroke-linecap="round"/><path d="M217.84187,232.37315c5.30498,0 9.60551,2.11949 9.60551,4.73401c0,2.61452 -9.16683,2.91994 -16.68325,4.73401c-1.10556,0.26682 -2.52777,-2.11949 -2.52777,-4.73401c0,-2.61452 4.30053,-4.73401 9.60551,-4.73401z" data-paper-data="{&quot;index&quot;:null}" fill="#000000" stroke="#000000" stroke-width="0.5" stroke-linecap="butt"/><path d="M222.39184,236.62252c1.38071,0 2.5,0.55163 2.5,1.23211c0,0.68047 -1.11929,1.23211 -2.5,1.23211c-1.38071,0 -2.5,-0.55163 -2.5,-1.23211c0,-0.68047 1.11929,-1.23211 2.5,-1.23211z" data-paper-data="{&quot;index&quot;:null}" fill="#ffffff" stroke="none" stroke-width="0.5" stroke-linecap="butt"/><path d="M269.91383,237.12084c1.38071,0 2.5,0.55163 2.5,1.23211c0,0.68047 -1.11929,1.23211 -2.5,1.23211c-1.38071,0 -2.5,-0.55163 -2.5,-1.23211c0,-0.68047 1.11929,-1.23211 2.5,-1.23211z" data-paper-data="{&quot;index&quot;:null}" fill="#ffffff" stroke="none" stroke-width="0.5" stroke-linecap="butt"/><path d="M248.17505,227.8883c0,0 -0.4172,2.9899 -5.81386,2.9899c-6.05106,0 -5.81386,-2.9899 -5.81386,-2.9899" data-paper-data="{&quot;index&quot;:null}" fill="none" stroke="#000000" stroke-width="1.5" stroke-linecap="round"/><path d="M296.20259,221.9085c0,0 -25.66095,-4.37355 -56.11336,-4.19479c-34.24026,0.201 -55.61386,5.9389 -55.61386,5.9389l-6.06664,-3.73738c0,0 20.58224,-6.2236 62.2215,-7.11718c41.57461,-0.89218 61.13345,5.37307 61.13345,5.37307z" data-paper-data="{&quot;index&quot;:null}" fill="url(#color-2)" stroke="#000000" stroke-width="0" stroke-linecap="round"/><path d="M277.94715,235.88873c0,2.61452 -1.42221,5.00083 -2.52776,4.73401c-7.51643,-1.81407 -16.68326,-2.11949 -16.68326,-4.73401c0,-2.61452 4.30053,-4.73401 9.60551,-4.73401c5.30498,0 9.60551,2.11949 9.60551,4.73401z" data-paper-data="{&quot;index&quot;:null}" fill="#000000" stroke="#000000" stroke-width="0.5" stroke-linecap="butt"/><path d="M275.89717,238.13116c0,0.68047 -1.11929,1.23211 -2.5,1.23211c-1.38071,0 -2.5,-0.55163 -2.5,-1.23211c0,-0.68047 1.11929,-1.23211 2.5,-1.23211c1.38071,0 2.5,0.55163 2.5,1.23211z" data-paper-data="{&quot;index&quot;:null}" fill="#ffffff" stroke="none" stroke-width="0.5" stroke-linecap="butt"/><path d="M265.36388,213.29135c0,0 4.60787,17.37283 -21.73878,17.37283c-23.64046,0 -25.78321,-17.37283 -25.78321,-17.37283l-3.03332,-18.55734l-2.52777,16.58316c0,0 2.42067,15.2869 -20.42103,15.13326c-19.47278,-0.13097 -18.50656,-17.89712 -18.50656,-17.89712l4.04442,-22.11088l-2.52777,11.45028c0,0 -7.91491,17.43456 -16.13429,11.97381c-9.35748,-6.21687 -2.57117,-21.44991 -2.57117,-21.44991l28.81652,-24.4799c0,0 -5.49818,-24.94222 -2.99057,-36.06336c2.15829,-9.57195 17.14606,-26.71574 17.14606,-26.71574c0,0 8.70311,-9.87093 43.47756,-9.87093c31.81374,0 41.9609,9.87093 41.9609,9.87093c0,0 16.90655,14.6258 19.30922,32.25998c2.88147,21.14833 -7.78939,34.55349 -7.78939,34.55349c0,0 11.59535,8.80579 16.39646,13.87478c4.225,4.46074 10.90341,14.94832 10.90341,14.94832c0,0 4.51154,8.3789 -1.84756,11.30857c-5.14975,2.37252 -9.78016,-3.01699 -9.78016,-3.01699l-12.13327,-16.58316c0,0 6.35738,13.42116 8.21736,18.57804c0.32776,0.90873 -0.12851,9.4554 -0.12851,9.4554c0,0 -0.57596,4.92226 -2.37532,7.07015c-4.95075,5.90965 -6.78032,2.88138 -11.6781,3.45367c-9.35831,1.09348 -17.79643,-8.15479 -17.79643,-8.15479l-7.5833,-24.08507z" fill="url(#color-3)" stroke="#000000" stroke-width="0.5" stroke-linecap="round"/><path d="M208.23636,143.01033c0,-4.14319 4.30053,-7.50191 9.60551,-7.50191c5.30498,0 9.60551,3.35872 9.60551,7.50191c0,4.14319 -4.30053,7.50191 -9.60551,7.50191c-5.30498,0 -9.60551,-3.35872 -9.60551,-7.50191z" fill="#000000" stroke="#000000" stroke-width="0.5" stroke-linecap="butt"/><path d="M258.23058,144.15147c0,-4.14319 4.30053,-7.50191 9.60551,-7.50191c5.30498,0 9.60551,3.35872 9.60551,7.50191c0,4.14319 -4.30053,7.50191 -9.60551,7.50191c-5.30498,0 -9.60551,-3.35872 -9.60551,-7.50191z" fill="#000000" stroke="#000000" stroke-width="0.5" stroke-linecap="butt"/><path d="M217.36408,140.24647c0,-1.07834 1.11929,-1.9525 2.5,-1.9525c1.38071,0 2.5,0.87417 2.5,1.9525c0,1.07834 -1.11929,1.9525 -2.5,1.9525c-1.38071,0 -2.5,-0.87417 -2.5,-1.9525z" fill="#ffffff" stroke="none" stroke-width="0.5" stroke-linecap="butt"/><path d="M267.41383,141.03614c0,-1.07834 1.11929,-1.9525 2.5,-1.9525c1.38071,0 2.5,0.87417 2.5,1.9525c0,1.07834 -1.11929,1.9525 -2.5,1.9525c-1.38071,0 -2.5,-0.87417 -2.5,-1.9525z" fill="#ffffff" stroke="none" stroke-width="0.5" stroke-linecap="butt"/><path d="M248.17505,152.88126c0,0 -0.4172,4.73805 -5.81386,4.73805c-6.05106,0 -5.81386,-4.73805 -5.81386,-4.73805" fill="none" stroke="#000000" stroke-width="1.5" stroke-linecap="round"/><path d="M301.76367,173.01795c0,0 -19.55884,9.92845 -61.13345,8.51461c-41.63926,-1.41603 -62.2215,-11.27847 -62.2215,-11.27847l6.06664,-5.92256c0,0 21.37361,9.09275 55.61387,9.41127c30.45242,0.28328 56.11336,-6.64741 56.11336,-6.64741z" fill="url(#color-4)" stroke="#000000" stroke-width="0" stroke-linecap="round"/></g></g></svg>