<svg version="1.1" xmlns="http://www.w3.org/2000/svg" xmlns:xlink="http://www.w3.org/1999/xlink" width="151.47946" height="189.99384" viewBox="0,0,151.47946,189.99384"><g transform="translate(-246.45147,-57.71746)"><g data-paper-data="{&quot;isPaintingLayer&quot;:true}" fill-rule="nonzero" stroke-miterlimit="10" stroke-dasharray="" stroke-dashoffset="0" style="mix-blend-mode: normal"><g><path d="M357.65745,74.73544l-2.96092,-2.21227c-1.44804,-10.09029 7.5644,-16.32179 18.37069,-13.74306c7.87238,1.65329 13.19988,8.55522 12.42723,16.09719c-3.50124,-7.77501 -11.93014,-11.57133 -19.62422,-8.81022c-3.97131,1.60263 -6.97906,4.77748 -8.21278,8.66836z" fill="#c47814" stroke="none" stroke-width="1" stroke-linecap="butt" stroke-linejoin="miter"/><path d="M385.49445,74.8773c-0.15849,1.88465 -0.77085,3.71187 -1.79384,5.33983c-2.45123,3.64939 -6.85478,5.7215 -11.43305,5.38036l-14.61011,-10.86205c1.23372,-3.89088 4.24147,-7.06574 8.21278,-8.66836c7.69408,-2.65978 16.12298,1.03521 19.62422,8.81022z" fill="#e69724" stroke="none" stroke-width="1" stroke-linecap="butt" stroke-linejoin="miter"/><path d="M385.49445,74.8773c-0.15849,1.88465 -0.77085,3.71187 -1.79384,5.33983c-2.45123,3.64939 -6.85478,5.7215 -11.43305,5.38036l-14.61011,-10.86205l-2.96092,-2.21227c-1.44804,-10.09029 7.5644,-16.32179 18.37069,-13.74306c7.87238,1.65329 13.19988,8.55522 12.42723,16.09719z" fill="none" stroke="#723e0a" stroke-width="0.96" stroke-linecap="round" stroke-linejoin="round"/><path d="M363.0822,78.77493c2.78262,-3.62238 7.33207,-5.67082 12.08144,-5.43946" fill="none" stroke="#723e0a" stroke-width="1.272" stroke-linecap="round" stroke-linejoin="round"/></g><g><path d="M278.51218,66.06708c-7.69408,-2.76111 -16.12298,1.03521 -19.62422,8.81022c-0.77265,-7.54197 4.55485,-14.4439 12.42723,-16.09719c10.80629,-2.57872 19.81874,3.65277 18.3707,13.74306l-2.96092,2.21227c-1.23372,-3.89088 -4.24147,-7.06574 -8.21278,-8.66836z" fill="#c47814" stroke="none" stroke-width="1" stroke-linecap="butt" stroke-linejoin="miter"/><path d="M278.51218,66.06708c3.97131,1.60263 6.97906,4.77748 8.21278,8.66836l-14.61011,10.86205c-4.57826,0.34113 -8.98183,-1.73097 -11.43305,-5.38036c-1.02299,-1.62795 -1.63535,-3.45518 -1.79384,-5.33983c3.50124,-7.77501 11.93014,-11.47 19.62422,-8.81022z" fill="#e69724" stroke="none" stroke-width="1" stroke-linecap="butt" stroke-linejoin="miter"/><path d="M271.31519,58.78011c10.80629,-2.57872 19.81874,3.65277 18.3707,13.74306l-2.96092,2.21227l-14.61011,10.86205c-4.57826,0.34113 -8.98183,-1.73097 -11.43305,-5.38036c-1.02299,-1.62795 -1.63535,-3.45518 -1.79384,-5.33983c-0.77265,-7.54197 4.55485,-14.4439 12.42723,-16.09719z" fill="none" stroke="#723e0a" stroke-width="0.96" stroke-linecap="round" stroke-linejoin="round"/><path d="M269.21877,73.33547c4.74937,-0.23136 9.29881,1.81709 12.08143,5.43946" fill="none" stroke="#723e0a" stroke-width="1.272" stroke-linecap="round" stroke-linejoin="round"/></g><g stroke="none" stroke-width="1" stroke-linecap="butt" stroke-linejoin="miter"><path d="M254.19803,173.02248c-9.40147,-12.18096 -9.72566,-42.95678 -0.75644,-64.96291c7.0457,-17.21514 19.27842,-29.94495 34.96915,-37.23191c-7.80214,7.51157 -16.92265,17.39753 -22.23934,26.87818c-9.83373,17.5799 -16.38233,37.51562 -11.97337,75.31664z" fill="#c47814"/><path d="M388.80117,174.566c-1.1923,1.29359 -2.66555,2.33216 -4.32252,3.04482c-10.26598,4.08003 -16.70652,-4.58834 -16.23104,-15.08393c0.32419,-7.24812 0.58354,-13.3175 -4.56025,-20.58589c-3.47962,-4.81125 -9.40148,-8.11952 -17.29007,-10.1494c3.5985,-5.50364 4.82141,-12.09146 3.41479,-18.41415c-2.57189,-13.92544 -15.7988,-18.81776 -27.62088,-18.81776c-11.82208,0 -25.04898,4.89231 -27.62087,18.81776c-1.41382,6.32438 -0.18191,12.91727 3.4364,18.41415c-7.88859,2.02988 -13.83205,5.29761 -17.29006,10.1494c-5.1438,7.26839 -4.88444,13.33776 -4.56025,20.58589c0.49709,10.49559 -5.96507,19.14369 -16.23105,15.08393c-2.31975,-1.00987 -4.2991,-2.5973 -5.72733,-4.58834c-4.40896,-37.80102 2.13964,-57.73674 11.97337,-75.31664c5.31669,-9.48065 14.4372,-19.3666 22.23934,-26.87817c10.52353,-4.7893 22.08625,-7.2211 33.78046,-7.10626c9.1079,-0.05573 18.15637,1.38815 26.73477,4.26409c11.79867,8.71396 21.69002,19.4882 29.13376,31.72996c12.40562,20.8696 14.48042,46.04213 10.74145,74.85055z" fill="#e69724"/><path d="M388.86601,174.64706c3.67414,-28.88948 1.59933,-54.06201 -10.80629,-74.93161c-7.44373,-12.24176 -17.33509,-23.016 -29.13376,-31.72996c19.08391,6.53716 33.95336,20.34101 42.01485,40.07408c9.37986,23.0616 8.5802,55.60385 -2.0748,66.58749z" fill="#f8b547"/></g><g><path d="M276.22125,229.366c-11.64918,-28.46222 -11.64918,-50.48861 -11.64918,-50.48861" fill="#ffffff" stroke="#db20a5" stroke-width="1.272" stroke-linecap="butt" stroke-linejoin="miter"/><path d="M279.11733,227.53877c2.89249,0 5.51301,1.10275 7.40951,2.88607c1.8983,1.78163 3.07259,4.24383 3.07259,6.95935c0,2.7172 -1.17429,5.17772 -3.07259,6.96104c-1.8965,1.78163 -4.51703,2.88608 -7.40951,2.88608c-2.89249,0 -5.513,-1.10444 -7.40951,-2.88608c-1.8983,-1.78332 -3.07259,-4.24384 -3.07259,-6.96104c0,-2.71552 1.17429,-5.17772 3.07259,-6.95935c1.8965,-1.78332 4.51702,-2.88607 7.40951,-2.88607z" fill="#723e0a" stroke="#723e0a" stroke-width="0.96" stroke-linecap="round" stroke-linejoin="round"/></g><g><path d="M379.81034,178.87739c0,0 0,22.02639 -11.64918,50.48861" fill="#ffffff" stroke="#db20a5" stroke-width="1.272" stroke-linecap="butt" stroke-linejoin="miter"/><path d="M365.26507,227.53877c2.89249,0 5.51301,1.10275 7.40951,2.88607c1.8983,1.78163 3.07259,4.24383 3.07259,6.95935c0,2.7172 -1.17429,5.17772 -3.07259,6.96104c-1.8965,1.78163 -4.51703,2.88608 -7.40951,2.88608c-2.89249,0 -5.513,-1.10444 -7.40951,-2.88608c-1.8983,-1.78332 -3.07259,-4.24384 -3.07259,-6.96104c0,-2.71552 1.17429,-5.17772 3.07259,-6.95935c1.8965,-1.78332 4.51702,-2.88607 7.40951,-2.88607z" fill="#723e0a" stroke="#723e0a" stroke-width="0.96" stroke-linecap="round" stroke-linejoin="round"/></g><g><path d="M346.39729,131.87097c-1.13826,-0.28371 -2.32695,-0.54884 -3.56608,-0.79202h-0.54031c1.66417,-4.50728 3.84704,-12.52547 1.81545,-19.52872c-1.78484,-5.98493 -5.50761,-11.29943 -10.655,-15.20552c8.57479,2.22409 14.97752,8.94363 16.38234,17.19487c1.39041,6.29904 0.1603,12.85815 -3.4364,18.3314z" fill="#ffffff" stroke="none" stroke-width="1" stroke-linecap="butt" stroke-linejoin="miter"/><path d="M342.26929,131.07895c-6.61885,-1.16861 -13.34397,-1.72083 -20.07809,-1.64484c-8.15154,-0.15367 -16.28867,0.69239 -24.20608,2.51792c-3.5985,-5.50364 -4.82681,-12.08808 -3.4364,-18.41246c2.59351,-13.92714 15.8204,-18.81945 27.64248,-18.81945c3.49403,-0.00844 6.97006,0.44245 10.33082,1.33918l0.92934,0.2854c5.1474,3.90609 8.87016,9.22059 10.655,15.20552c2.03158,7.00325 -0.15128,15.02145 -1.83706,19.52872z" fill="#ffecbb" stroke="none" stroke-width="1" stroke-linecap="butt" stroke-linejoin="miter"/><path d="M307.79723,77.20102c1.42463,0 2.71598,0.76839 3.65072,2.01131c0.93655,1.24124 1.51468,2.957 1.51468,4.85009c0,1.89309 -0.57813,3.60886 -1.51468,4.85009c-0.93475,1.24292 -2.22609,2.0113 -3.65072,2.0113c-1.42463,0 -2.71598,-0.76838 -3.65073,-2.0113c-0.93655,-1.24124 -1.51468,-2.957 -1.51468,-4.85009c0,-1.89309 0.57813,-3.60886 1.51468,-4.85009c0.93475,-1.24292 2.2261,-2.01131 3.65073,-2.01131z" fill="#723e0a" stroke="#723e0a" stroke-width="0.96" stroke-linecap="round" stroke-linejoin="round"/><path d="M306.41402,80.18504c0.59614,0 1.13646,0.22798 1.52729,0.59444c0.39263,0.36815 0.63396,0.87477 0.63396,1.43544c0,0.56067 -0.24133,1.06729 -0.63396,1.43544c-0.39083,0.36646 -0.93115,0.59444 -1.52729,0.59444c-0.59614,0 -1.13646,-0.22798 -1.52729,-0.59444c-0.39263,-0.36815 -0.63397,-0.87477 -0.63397,-1.43544c0,-0.56067 0.24134,-1.06729 0.63397,-1.43544c0.39083,-0.36646 0.93115,-0.59444 1.52729,-0.59444z" fill="#ffffff" stroke="#ffffff" stroke-width="0.5" stroke-linecap="butt" stroke-linejoin="miter"/><path d="M336.58518,77.20102c1.42463,0 2.71598,0.76839 3.65073,2.01131c0.93655,1.24124 1.51468,2.957 1.51468,4.85009c0,1.89309 -0.57813,3.60886 -1.51468,4.85009c-0.93475,1.24292 -2.2261,2.0113 -3.65073,2.0113c-1.42463,0 -2.71598,-0.76838 -3.65072,-2.0113c-0.93655,-1.24124 -1.51468,-2.957 -1.51468,-4.85009c0,-1.89309 0.57813,-3.60886 1.51468,-4.85009c0.93475,-1.24292 2.22609,-2.01131 3.65072,-2.01131z" fill="#723e0a" stroke="#723e0a" stroke-width="0.96" stroke-linecap="round" stroke-linejoin="round"/><path d="M335.20198,80.18504c0.59614,0 1.13646,0.22798 1.52729,0.59444c0.39263,0.36815 0.63397,0.87477 0.63397,1.43544c0,0.56067 -0.24134,1.06729 -0.63397,1.43544c-0.39083,0.36646 -0.93115,0.59444 -1.52729,0.59444c-0.59614,0 -1.13646,-0.22798 -1.52729,-0.59444c-0.39263,-0.36815 -0.63397,-0.87477 -0.63397,-1.43544c0,-0.56067 0.24134,-1.06729 0.63397,-1.43544c0.39083,-0.36646 0.93115,-0.59444 1.52729,-0.59444z" fill="#ffffff" stroke="#ffffff" stroke-width="0.5" stroke-linecap="butt" stroke-linejoin="miter"/><path d="M334.87779,118.02659c0,0 -2.80964,6.25176 -12.68659,6.25176c-9.87695,0 -12.68658,-6.21123 -12.68658,-6.21123" fill="none" stroke="#723e0a" stroke-width="0.96" stroke-linecap="round" stroke-linejoin="round"/><path d="M322.1912,113.05153v11.26735" fill="none" stroke="#723e0a" stroke-width="0.96" stroke-linecap="round" stroke-linejoin="round"/><path d="M322.1912,99.89784c2.51066,0 4.78539,0.73629 6.43155,1.92686c1.64796,1.19057 2.66735,2.83541 2.66735,4.64914c0,1.81541 -1.01939,3.46025 -2.66735,4.65082c-1.64616,1.19057 -3.92089,1.92686 -6.43155,1.92686c-2.51066,0 -4.78538,-0.73629 -6.43154,-1.92686c-1.64796,-1.19057 -2.66735,-2.83541 -2.66735,-4.65082c0,-1.81372 1.01939,-3.45857 2.66735,-4.64914c1.64616,-1.19057 3.92088,-1.92686 6.43154,-1.92686z" fill="#5e154d" stroke="#5e154d" stroke-width="0.96" stroke-linecap="round" stroke-linejoin="round"/><path d="M328.82626,105.68351c0.19452,0.3445 0.28096,0.50662 0.41064,0.79033" fill="none" stroke="#ffffff" stroke-width="0.96" stroke-linecap="round" stroke-linejoin="round"/><path d="M322.1912,102.11011c1.7164,0.06079 3.37517,0.58937 4.77638,1.52156" fill="none" stroke="#ffffff" stroke-width="0.96" stroke-linecap="round" stroke-linejoin="round"/></g><path d="M384.45705,177.96546c-10.26598,4.10198 -16.70652,-4.58665 -16.23105,-15.08224c0.32419,-7.32918 0.58354,-13.39856 -4.53864,-20.70748c-3.47962,-4.81125 -9.42309,-8.12121 -17.29007,-10.15108c-7.91741,-1.82385 -16.05455,-2.66991 -24.20609,-2.51624c-8.14614,-0.13848 -16.27607,0.72109 -24.18447,2.55677c-7.88859,2.02988 -13.83205,5.2993 -17.29006,10.15108c-5.1438,7.26839 -4.88444,13.33776 -4.56025,20.58588c0.47548,10.49559 -5.96507,19.14369 -16.23105,15.08224c-14.71816,-5.86673 -17.0091,-43.72685 -6.48377,-69.57151c11.51951,-28.27815 36.9575,-44.39728 68.74961,-44.39728c31.7921,0 57.23011,16.11914 68.74962,44.39729c10.52533,25.84466 8.2344,63.70478 -6.48377,69.65257z" fill="none" stroke="#723e0a" stroke-width="0.96" stroke-linecap="round" stroke-linejoin="round"/></g></g></svg>