<svg version="1.1" xmlns="http://www.w3.org/2000/svg" xmlns:xlink="http://www.w3.org/1999/xlink" width="71.02703" height="21.03739" viewBox="0,0,71.02703,21.03739"><g transform="translate(-286.73636,-155.93219)"><g data-paper-data="{&quot;isPaintingLayer&quot;:true}" fill="none" fill-rule="nonzero" stroke="#000000" stroke-linejoin="miter" stroke-miterlimit="10" stroke-dasharray="" stroke-dashoffset="0" style="mix-blend-mode: normal"><path d="M288.23636,157.51411c0,-1.12861 1.07327,9.78119 9.53383,9.55093c9.6775,-0.26338 9.67719,-11.08239 9.67719,-9.55093c0,5.30498 -4.30053,9.60551 -9.60551,9.60551c-5.30498,0 -9.60551,-4.30053 -9.60551,-9.60551z" stroke-width="3" stroke-linecap="butt"/><path d="M316.54735,176.21958c0,0 -0.2372,-6.06664 5.81386,-6.06664c5.39666,0 5.81386,6.06664 5.81386,6.06664" data-paper-data="{&quot;index&quot;:null}" stroke-width="1.5" stroke-linecap="round"/><path d="M337.05238,157.51411c0,-1.1286 1.07327,9.78119 9.53383,9.55093c9.6775,-0.26337 9.67719,-11.0824 9.67719,-9.55093c0,5.30498 -4.30053,9.60551 -9.60551,9.60551c-5.30498,0 -9.60551,-4.30053 -9.60551,-9.60551z" stroke-width="3" stroke-linecap="butt"/></g></g></svg>