<svg version="1.1" xmlns="http://www.w3.org/2000/svg" xmlns:xlink="http://www.w3.org/1999/xlink" width="171.66021" height="178.96022" viewBox="0,0,171.66021,178.96022"><defs><radialGradient cx="208.23636" cy="122.63096" r="89.23012" gradientUnits="userSpaceOnUse" id="color-1"><stop offset="0" stop-color="#fcd3b6"/><stop offset="1" stop-color="#fca465"/></radialGradient><linearGradient x1="239.58065" y1="184.81398" x2="239.58065" y2="217.06643" gradientUnits="userSpaceOnUse" id="color-2"><stop offset="0" stop-color="#e8965d"/><stop offset="1" stop-color="#e8965d" stop-opacity="0"/></linearGradient></defs><g transform="translate(-153.53674,-91.03667)"><g data-paper-data="{&quot;isPaintingLayer&quot;:true}" fill-rule="nonzero" stroke-linejoin="miter" stroke-miterlimit="10" stroke-dasharray="" stroke-dashoffset="0" style="mix-blend-mode: normal"><path d="M163.74767,214.13604l124.36606,-33.87205l30.83874,62.18303h-9.60551l-8.5944,-23.25544l-11.12217,46.51088l-11.62772,-4.04442l-11.12217,-18.70546l-48.02754,3.53887l-11.62772,12.63883l-32.86095,-12.13328l-11.12216,-2.52776z" fill="#ffe44b" stroke="#000000" stroke-width="0.5" stroke-linecap="round"/><path d="M265.36386,247.50255c0,0 4.60787,22.24434 -21.73879,22.24434c-23.64046,0 -25.7832,-22.24434 -25.7832,-22.24434l-3.03332,-23.76099l-2.52777,21.23323c0,0 2.42068,19.57349 -20.42102,19.37677c-19.47278,-0.16771 -18.50656,-22.91564 -18.50656,-22.91564l4.04442,-28.31097l-2.52776,14.66104c0,0 -7.91491,22.32338 -16.13429,15.33139c-9.35748,-7.96013 -2.57118,-27.46466 -2.57118,-27.46466l28.81653,-31.34429c0,0 -5.49818,-31.93624 -2.99057,-46.17586c2.15829,-12.25601 17.14606,-34.20708 17.14606,-34.20708c0,0 8.70311,-12.63882 43.47756,-12.63882c31.81374,0 41.9609,12.63882 41.9609,12.63882c0,0 16.90655,18.72701 19.30922,41.30597c2.88147,27.07852 -7.78939,44.2426 -7.78939,44.2426c0,0 11.59535,11.27501 16.39646,17.76541c4.225,5.71157 10.90341,19.13997 10.90341,19.13997c0,0 4.51154,10.72842 -1.84757,14.4796c-5.14974,3.03779 -9.78015,-3.86298 -9.78015,-3.86298l-12.13328,-21.23323c0,0 6.35738,17.18458 8.21736,23.78749c0.32776,1.16356 -0.12851,12.10678 -0.12851,12.10678c0,0 -0.57596,6.30251 -2.37532,9.05267c-4.95074,7.56678 -6.78032,3.68936 -11.6781,4.42212c-9.35831,1.4001 -17.79643,-10.44147 -17.79643,-10.44147l-7.5833,-30.83874z" fill="url(#color-1)" stroke="#000000" stroke-width="0.5" stroke-linecap="round"/><path d="M208.23636,157.51412c0,-5.30498 1.42221,-10.1469 2.52777,-9.60551c7.51642,3.68082 16.68325,4.30053 16.68325,9.60551c0,5.30498 -4.30053,9.60551 -9.60551,9.60551c-5.30498,0 -9.60551,-4.30053 -9.60551,-9.60551z" fill="#000000" stroke="#000000" stroke-width="0.5" stroke-linecap="butt"/><path d="M219.89184,155.99746c0,-1.38071 1.11929,-2.5 2.5,-2.5c1.38071,0 2.5,1.11929 2.5,2.5c0,1.38071 -1.11929,2.5 -2.5,2.5c-1.38071,0 -2.5,-1.11929 -2.5,-2.5z" fill="#ffffff" stroke="none" stroke-width="0.5" stroke-linecap="butt"/><path d="M267.41383,154.98635c0,-1.38071 1.11929,-2.5 2.5,-2.5c1.38071,0 2.5,1.11929 2.5,2.5c0,1.38071 -1.11929,2.5 -2.5,2.5c-1.38071,0 -2.5,-1.11929 -2.5,-2.5z" fill="#ffffff" stroke="none" stroke-width="0.5" stroke-linecap="butt"/><path d="M236.54733,176.21958c0,0 -0.2372,-6.06664 5.81386,-6.06664c5.39666,0 5.81386,6.06664 5.81386,6.06664" data-paper-data="{&quot;index&quot;:null}" fill="none" stroke="#000000" stroke-width="1.5" stroke-linecap="round"/><path d="M301.76368,195.93615c0,0 -19.55884,12.71247 -61.13345,10.90219c-41.63926,-1.8131 -62.2215,-14.44106 -62.2215,-14.44106l6.06664,-7.5833c0,0 21.3736,11.64244 55.61386,12.05028c30.45241,0.36272 56.11336,-8.51141 56.11336,-8.51141z" fill="url(#color-2)" stroke="#000000" stroke-width="0" stroke-linecap="round"/><path d="M268.34164,169.59186c-5.30498,0 -9.60551,-4.30053 -9.60551,-9.60551c0,-5.30498 9.16683,-5.92469 16.68326,-9.60551c1.10555,-0.54139 2.52776,4.30053 2.52776,9.60551c0,5.30498 -4.30053,9.60551 -9.60551,9.60551z" data-paper-data="{&quot;index&quot;:null}" fill="#000000" stroke="#000000" stroke-width="0.5" stroke-linecap="butt"/><path d="M273.39717,157.93637c-1.38071,0 -2.5,-1.11929 -2.5,-2.5c0,-1.38071 1.11929,-2.5 2.5,-2.5c1.38071,0 2.5,1.11929 2.5,2.5c0,1.38071 -1.11929,2.5 -2.5,2.5z" data-paper-data="{&quot;index&quot;:null}" fill="#ffffff" stroke="none" stroke-width="0.5" stroke-linecap="butt"/></g></g></svg>
