<svg version="1.1" xmlns="http://www.w3.org/2000/svg" xmlns:xlink="http://www.w3.org/1999/xlink" width="179.93125" height="215.29953" viewBox="0,0,179.93125,215.29953"><defs><radialGradient cx="288.86953" cy="122.11418" r="89.23012" gradientUnits="userSpaceOnUse" id="color-1"><stop offset="0" stop-color="#fcd3b6"/><stop offset="1" stop-color="#fca465"/></radialGradient></defs><g transform="translate(-225.89887,-54.18058)"><g data-paper-data="{&quot;isPaintingLayer&quot;:true}" stroke-miterlimit="10" stroke-dasharray="" stroke-dashoffset="0" style="mix-blend-mode: normal"><path d="M345.99703,246.98577c0,0 4.60787,22.24434 -21.73879,22.24434c-23.64046,0 -25.7832,-22.24434 -25.7832,-22.24434l-3.03332,-23.76099l-2.52777,21.23323c0,0 2.42068,19.57349 -20.42102,19.37677c-19.47278,-0.16771 -18.50656,-22.91564 -18.50656,-22.91564l4.04442,-28.31097l-2.52776,14.66104c0,0 -7.91491,22.32338 -16.13429,15.33139c-9.35748,-7.96013 -2.57118,-27.46466 -2.57118,-27.46466l28.81653,-31.34429c0,0 -5.49818,-31.93624 -2.99057,-46.17586c2.15829,-12.25601 17.14606,-34.20708 17.14606,-34.20708c0,0 8.70311,-12.63882 43.47756,-12.63882c31.81374,0 41.9609,12.63882 41.9609,12.63882c0,0 16.90655,18.72701 19.30922,41.30597c2.88147,27.07852 -7.78939,44.2426 -7.78939,44.2426c0,0 11.59535,11.27501 16.39646,17.76541c4.225,5.71157 10.90341,19.13997 10.90341,19.13997c0,0 4.51154,10.72842 -1.84757,14.4796c-5.14974,3.03779 -9.78015,-3.86298 -9.78015,-3.86298l-12.13328,-21.23323c0,0 6.35738,17.18458 8.21736,23.78749c0.32776,1.16356 -0.12851,12.10678 -0.12851,12.10678c0,0 -0.57596,6.30251 -2.37532,9.05267c-4.95074,7.56678 -6.78032,3.68936 -11.6781,4.42212c-9.35831,1.4001 -17.79643,-10.44147 -17.79643,-10.44147l-7.5833,-30.83874z" data-paper-data="{&quot;index&quot;:null}" fill="url(#color-1)" fill-rule="nonzero" stroke="#000000" stroke-width="0.5" stroke-linecap="round" stroke-linejoin="miter"/><path d="M319.8505,155.48248h6.93272" fill="none" fill-rule="evenodd" stroke="#dd3627" stroke-width="2.128" stroke-linecap="butt" stroke-linejoin="miter"/><path d="M279.47921,158.10013c0,-10.33853 8.82551,-18.71955 19.71232,-18.71955c10.88681,0 19.71232,8.38102 19.71232,18.71955c0,10.33853 -8.82551,18.71956 -19.71232,18.71956c-10.88681,0 -19.71232,-8.38103 -19.71232,-18.71956z" fill="none" fill-rule="evenodd" stroke="#dd3627" stroke-width="2.128" stroke-linecap="butt" stroke-linejoin="miter"/><path d="M326.72754,158.10013c0,-10.33853 8.82551,-18.71955 19.71232,-18.71955c10.88681,0 19.71233,8.38102 19.71233,18.71955c0,10.33853 -8.82552,18.71956 -19.71233,18.71956c-10.88681,0 -19.71232,-8.38103 -19.71232,-18.71956z" fill="none" fill-rule="evenodd" stroke="#dd3627" stroke-width="2.128" stroke-linecap="butt" stroke-linejoin="miter"/><path d="M288.23636,157.51413c0,-5.30498 1.42221,-10.1469 2.52777,-9.60551c7.51642,3.68082 16.68325,4.30053 16.68325,9.60551c0,5.30498 -4.30053,9.60551 -9.60551,9.60551c-5.30498,0 -9.60551,-4.30053 -9.60551,-9.60551z" fill="#000000" fill-rule="nonzero" stroke="#000000" stroke-width="0.5" stroke-linecap="butt" stroke-linejoin="miter"/><path d="M299.89184,155.99747c0,-1.38071 1.11929,-2.5 2.5,-2.5c1.38071,0 2.5,1.11929 2.5,2.5c0,1.38071 -1.11929,2.5 -2.5,2.5c-1.38071,0 -2.5,-1.11929 -2.5,-2.5z" fill="#ffffff" fill-rule="nonzero" stroke="none" stroke-width="0.5" stroke-linecap="butt" stroke-linejoin="miter"/><path d="M347.41383,153.54922c0,-1.38071 1.11929,-2.5 2.5,-2.5c1.38071,0 2.5,1.11929 2.5,2.5c0,1.38071 -1.11929,2.5 -2.5,2.5c-1.38071,0 -2.5,-1.11929 -2.5,-2.5z" fill="#ffffff" fill-rule="nonzero" stroke="none" stroke-width="0.5" stroke-linecap="butt" stroke-linejoin="miter"/><path d="M316.54733,176.21959c0,0 -0.2372,-6.06664 5.81386,-6.06664c5.39666,0 5.81386,6.06664 5.81386,6.06664" data-paper-data="{&quot;index&quot;:null}" fill="none" fill-rule="nonzero" stroke="#000000" stroke-width="1.5" stroke-linecap="round" stroke-linejoin="miter"/><path d="M348.34164,168.15473c-5.30498,0 -9.60551,-4.30053 -9.60551,-9.60551c0,-5.30498 9.16683,-5.92469 16.68326,-9.60551c1.10555,-0.54139 2.52776,4.30053 2.52776,9.60551c0,5.30498 -4.30053,9.60551 -9.60551,9.60551z" data-paper-data="{&quot;index&quot;:null}" fill="#000000" fill-rule="nonzero" stroke="#000000" stroke-width="0.5" stroke-linecap="butt" stroke-linejoin="miter"/><path d="M353.39717,156.49924c-1.38071,0 -2.5,-1.11929 -2.5,-2.5c0,-1.38071 1.11929,-2.5 2.5,-2.5c1.38071,0 2.5,1.11929 2.5,2.5c0,1.38071 -1.11929,2.5 -2.5,2.5z" data-paper-data="{&quot;index&quot;:null}" fill="#ffffff" fill-rule="nonzero" stroke="none" stroke-width="0.5" stroke-linecap="butt" stroke-linejoin="miter"/><path d="M246.67236,74.28264l50.94777,19.14863l-33.69903,30.14773l-17.24874,-49.29636" fill="#e4e4e4" fill-rule="nonzero" stroke="none" stroke-width="1.15528" stroke-linecap="butt" stroke-linejoin="miter"/><path d="M255.92728,100.7325l-4.18455,-11.96021c0.30912,-0.38377 0.66104,-0.74302 1.05507,-1.06963c3.1753,-2.63198 7.88471,-2.19138 10.51669,0.98392c2.63205,3.17538 2.19231,7.88394 -0.98392,10.51669c-1.85276,1.53574 -4.22474,2.01777 -6.4033,1.52923z" fill="#8100ff" fill-rule="nonzero" stroke="none" stroke-width="1.15528" stroke-linecap="butt" stroke-linejoin="miter"/><path d="M272.80745,86.06393c0.65996,-0.54703 1.40451,-0.91961 2.18062,-1.13833l6.57068,2.46906c1.6441,2.50122 1.20647,5.88164 -1.15235,7.83685c-2.53228,2.09899 -6.28582,1.74696 -8.3841,-0.78447c-2.09822,-2.53135 -1.74789,-6.28505 0.78516,-8.38312z" fill="#2ec7ff" fill-rule="nonzero" stroke="none" stroke-width="1.15528" stroke-linecap="butt" stroke-linejoin="miter"/><path d="M267.21429,99.87593c1.00772,-0.83529 2.2594,-1.18259 3.46893,-1.07021c1.20938,0.11393 2.37499,0.68745 3.21028,1.69517c0.83529,1.00772 1.18259,2.2594 1.07027,3.46901c-0.11399,1.20931 -0.68737,2.37493 -1.69509,3.21022c-1.0078,0.83536 -2.25955,1.18257 -3.46901,1.07027c-1.20945,-0.11401 -2.37499,-0.68745 -3.21028,-1.69517c-0.83529,-1.00772 -1.18265,-2.25948 -1.07027,-3.46901c0.11393,-1.20938 0.68737,-2.37493 1.69517,-3.21028z" fill="#ffff00" fill-rule="nonzero" stroke="none" stroke-width="1.15528" stroke-linecap="butt" stroke-linejoin="miter"/><path d="M273.31332,114.3503c0.13267,0.16006 0.25232,0.32807 0.36966,0.49486l-9.76188,8.73384l-2.90821,-8.3095c0.42717,-0.70659 0.97134,-1.35884 1.64292,-1.91552c3.21803,-2.6674 7.9908,-2.22087 10.6575,0.99631z" fill="#ffb903" fill-rule="nonzero" stroke="none" stroke-width="1.15528" stroke-linecap="butt" stroke-linejoin="miter"/><path d="M292.67553,97.85545l-9.23615,8.26196c-0.57442,-0.35813 -1.10347,-0.80803 -1.55905,-1.35767c-2.27665,-2.74662 -1.89571,-6.81832 0.8509,-9.09497c2.74662,-2.27665 6.81832,-1.89571 9.09497,0.8509c0.34723,0.4189 0.62412,0.87064 0.84933,1.33977z" fill="#dc5991" fill-rule="nonzero" stroke="none" stroke-width="1.15528" stroke-linecap="butt" stroke-linejoin="miter"/><path d="M251.45962,76.08267l9.03011,3.39408c-0.26366,0.88928 -0.78388,1.71365 -1.55147,2.3499c-2.05994,1.70747 -5.11396,1.4209 -6.82073,-0.6382c-1.22681,-1.48006 -1.40843,-3.46784 -0.65792,-5.10578z" fill="#ff6b00" fill-rule="nonzero" stroke="none" stroke-width="1.15528" stroke-linecap="butt" stroke-linejoin="miter"/><path d="M246.68589,66.37703l6.89794,-0.40566l-5.56973,3.61736l10.40334,4.01891l-10.29848,-0.24649l9.39535,10.12745l-12.81144,-9.14001l-8.13914,9.53308l3.01295,-10.03476l-13.67781,2.23353l13.04243,-6.92131l-7.11515,-6.27934l9.75655,4.312l5.51459,-9.58737l-0.41139,8.77261" fill="#2ec7ff" fill-rule="nonzero" stroke="none" stroke-width="1.15528" stroke-linecap="butt" stroke-linejoin="miter"/><path d="M263.40627,128.65142l-3.69666,-9.51958l6.51038,0.89545l2.0059,-6.11936l3.97897,0.37233l1.35835,-5.32011l4.90812,1.17471l-0.0689,-8.46309l6.80686,0.7788l1.38483,-5.60313l6.72476,-1.3785l-0.31351,-8.91756l9.25664,8.32165l-7.2478,3.90842l-0.86804,6.2266l-6.79983,0.65439l-1.54356,7.3088l-7.88601,1.55627l-0.6914,7.39009l-4.9846,-1.90051l-1.95186,5.55086l-4.6766,-0.58028l-2.20604,3.66374" fill="#2ec7ff" fill-rule="nonzero" stroke="none" stroke-width="1.15528" stroke-linecap="butt" stroke-linejoin="miter"/><g fill-rule="evenodd"><path d="M348.86451,190.35476c0.65081,3.06624 0.96936,6.196 0.94954,9.33299c0.17483,4.78864 -0.63747,9.56134 -2.38487,14.01069c-7.55206,0 -15.28081,-7.71375 -16.38482,-8.86072c0.03352,-0.21595 0.03352,-0.43616 0,-0.6521v-6.88163c5.71354,-2.879 11.67971,-5.20553 17.82015,-6.94923z" fill="#14e148" stroke="none" stroke-width="1" stroke-linecap="butt" stroke-linejoin="miter"/><path d="M330.86768,195.14487c0.03352,-0.21595 0.03352,-0.43597 0,-0.6521c1.104,-1.14697 8.85479,-8.86072 16.38482,-8.86072c0.65377,1.51534 1.14252,3.09902 1.45737,4.7227c-6.08747,1.75296 -12.00159,4.0793 -17.6655,6.94923z" fill="#acff74" stroke="none" stroke-width="1" stroke-linecap="butt" stroke-linejoin="miter"/><path d="M349.81405,199.68774c0.14613,4.8116 -0.70415,9.60079 -2.49525,14.05569c-8.1262,0 -16.53946,-8.99573 -16.53946,-8.99573v-10.11992c0,0 8.41326,-8.99573 16.53946,-8.99573c1.79111,4.4549 2.64138,9.24409 2.49525,14.05569z" fill="none" stroke="#149948" stroke-width="0.96" stroke-linecap="butt" stroke-linejoin="miter"/><g fill="none" stroke="#00b82b" stroke-width="0.768" stroke-linecap="round" stroke-linejoin="round"><path d="M340.34087,208.00877c-2.19078,-1.17586 -4.26173,-2.56952 -6.18304,-4.16061"/><path d="M344.55852,209.94267c0,0 -0.70655,-0.24725 -1.81074,-0.69711"/></g></g><g fill-rule="evenodd"><path d="M315.43241,197.28139c-5.55705,-3.14754 -11.49654,-5.53686 -17.66569,-7.10646c0.33152,-1.54386 0.8123,-3.0505 1.43533,-4.49787c7.55206,0 15.28081,7.71375 16.38482,8.86072c-0.03352,0.21595 -0.03352,0.43616 0,0.6521z" fill="#acff74" stroke="none" stroke-width="1" stroke-linecap="butt" stroke-linejoin="miter"/><path d="M315.6089,204.23061c-0.03334,0.21595 -0.03334,0.43597 0,0.6521c-1.104,1.14697 -8.85479,8.86072 -16.38482,8.86072c-1.76092,-4.46157 -2.581,-9.25039 -2.40691,-14.05569c0.02704,-3.20236 0.39726,-6.39232 1.10419,-9.51282c6.16896,1.5696 12.10845,3.95892 17.6655,7.10646z" fill="#14e148" stroke="none" stroke-width="1" stroke-linecap="butt" stroke-linejoin="miter"/><path d="M299.31243,185.63205c8.1262,0 16.53946,8.99573 16.53946,8.99573v10.11992c0,0 -8.41326,8.99573 -16.53946,8.99573c-1.79111,-4.4549 -2.64138,-9.24409 -2.49525,-14.05569c-0.14613,-4.8116 0.70415,-9.60079 2.49525,-14.05569z" fill="none" stroke="#149948" stroke-width="0.96" stroke-linecap="butt" stroke-linejoin="miter"/><g fill="none" stroke="#00b82b" stroke-width="0.768" stroke-linecap="round" stroke-linejoin="round"><path d="M311.98761,204.1406c-0.54135,0.5032 -1.109,0.97603 -1.70036,1.41681"/><path d="M308.27779,206.90681c-2.0278,1.23087 -4.17339,2.24819 -6.4038,3.03586"/></g></g><g fill-rule="evenodd" stroke-linecap="butt" stroke-linejoin="miter"><path d="M330.93398,204.88272c-0.27299,0.80638 -1.01751,1.34791 -1.855,1.3494h-11.52673c-0.83749,-0.00148 -1.58201,-0.54302 -1.855,-1.3494l0.15465,-0.13501v-7.30889h14.92745v7.30889z" fill="#14e148" stroke="none" stroke-width="1"/><path d="M315.69725,194.49277c0.27299,-0.80638 1.01751,-1.34791 1.855,-1.3494h11.52673c0.83749,0.00148 1.58201,0.54302 1.855,1.3494l-0.15465,0.13501v2.81103h-14.92745v-2.81103z" fill="#acff74" stroke="none" stroke-width="1"/><path d="M317.2982,206.23206c-0.94511,0 -1.71129,0 -1.71129,0v-13.08863c0,0 0.76617,0 1.71129,0h12.05692c0.94511,0 1.71129,0 1.71129,0v13.08863c0,0 -0.76617,0 -1.71129,0z" fill="none" stroke="#149948" stroke-width="0.96"/></g><g fill-rule="nonzero"><path d="M357.65744,74.73544l-2.96092,-2.21226c-1.44804,-10.09029 7.5644,-16.32179 18.37069,-13.74306c7.87238,1.65329 13.19988,8.55522 12.42723,16.09718c-3.50124,-7.77501 -11.93014,-11.57133 -19.62422,-8.81022c-3.97131,1.60263 -6.97906,4.77748 -8.21278,8.66836z" fill="#c47814" stroke="none" stroke-width="1" stroke-linecap="butt" stroke-linejoin="miter"/><path d="M385.49445,74.87729c-0.15849,1.88465 -0.77085,3.71188 -1.79384,5.33983c-2.45123,3.64939 -6.85479,5.72149 -11.43305,5.38036l-14.6101,-10.86205c1.23372,-3.89088 4.24147,-7.06574 8.21278,-8.66836c7.69408,-2.65978 16.12298,1.0352 19.62422,8.81022z" fill="#e69724" stroke="none" stroke-width="1" stroke-linecap="butt" stroke-linejoin="miter"/><path d="M385.49445,74.87729c-0.15849,1.88465 -0.77085,3.71188 -1.79384,5.33983c-2.45123,3.64939 -6.85479,5.72149 -11.43305,5.38036l-14.6101,-10.86205l-2.96092,-2.21226c-1.44804,-10.09029 7.5644,-16.32179 18.37069,-13.74306c7.87238,1.65329 13.19988,8.55522 12.42723,16.09718z" fill="none" stroke="#723e0a" stroke-width="0.96" stroke-linecap="round" stroke-linejoin="round"/><path d="M363.0822,78.77493c2.78262,-3.62237 7.33207,-5.67083 12.08143,-5.43947" fill="none" stroke="#723e0a" stroke-width="1.272" stroke-linecap="round" stroke-linejoin="round"/></g><g fill-rule="nonzero"><path d="M278.51218,66.06708c-7.69408,-2.76111 -16.12298,1.0352 -19.62422,8.81022c-0.77265,-7.54197 4.55485,-14.44389 12.42723,-16.09718c10.80629,-2.57872 19.81874,3.65277 18.37069,13.74306l-2.96092,2.21226c-1.23372,-3.89088 -4.24147,-7.06574 -8.21278,-8.66836z" fill="#c47814" stroke="none" stroke-width="1" stroke-linecap="butt" stroke-linejoin="miter"/><path d="M278.51218,66.06708c3.97131,1.60263 6.97906,4.77748 8.21278,8.66836l-14.6101,10.86205c-4.57826,0.34113 -8.98183,-1.73097 -11.43305,-5.38036c-1.023,-1.62796 -1.63535,-3.45519 -1.79384,-5.33983c3.50124,-7.77501 11.93014,-11.47 19.62422,-8.81022z" fill="#e69724" stroke="none" stroke-width="1" stroke-linecap="butt" stroke-linejoin="miter"/><path d="M271.31519,58.78011c10.80629,-2.57872 19.81874,3.65277 18.37069,13.74306l-2.96092,2.21226l-14.6101,10.86205c-4.57826,0.34113 -8.98183,-1.73097 -11.43305,-5.38036c-1.023,-1.62796 -1.63535,-3.45519 -1.79384,-5.33983c-0.77265,-7.54197 4.55485,-14.44389 12.42723,-16.09718z" fill="none" stroke="#723e0a" stroke-width="0.96" stroke-linecap="round" stroke-linejoin="round"/><path d="M269.21877,73.33546c4.74936,-0.23136 9.29881,1.8171 12.08143,5.43947" fill="none" stroke="#723e0a" stroke-width="1.272" stroke-linecap="round" stroke-linejoin="round"/></g><g fill-rule="nonzero"><path d="M276.22125,229.36599c-11.64918,-28.46222 -11.64918,-50.48861 -11.64918,-50.48861" fill="#ffffff" stroke="#db20a5" stroke-width="1.272" stroke-linecap="butt" stroke-linejoin="miter"/><path d="M279.11733,227.53877c2.89248,0 5.51301,1.10275 7.40951,2.88608c1.8983,1.78163 3.07259,4.24383 3.07259,6.95935c0,2.7172 -1.17428,5.17771 -3.07259,6.96103c-1.8965,1.78163 -4.51703,2.88608 -7.40951,2.88608c-2.89248,0 -5.51301,-1.10444 -7.40951,-2.88608c-1.8983,-1.78332 -3.07259,-4.24383 -3.07259,-6.96103c0,-2.71551 1.17428,-5.17771 3.07259,-6.95935c1.8965,-1.78332 4.51703,-2.88608 7.40951,-2.88608z" fill="#723e0a" stroke="#723e0a" stroke-width="0.96" stroke-linecap="round" stroke-linejoin="round"/></g><g fill-rule="nonzero"><path d="M379.81034,178.87738c0,0 0,22.02639 -11.64918,50.48861" fill="#ffffff" stroke="#db20a5" stroke-width="1.272" stroke-linecap="butt" stroke-linejoin="miter"/><path d="M365.26507,227.53877c2.89248,0 5.51301,1.10275 7.40951,2.88608c1.8983,1.78163 3.07259,4.24383 3.07259,6.95935c0,2.7172 -1.17428,5.17771 -3.07259,6.96103c-1.8965,1.78163 -4.51703,2.88608 -7.40951,2.88608c-2.89248,0 -5.51301,-1.10444 -7.40951,-2.88608c-1.8983,-1.78332 -3.07259,-4.24383 -3.07259,-6.96103c0,-2.71551 1.17428,-5.17771 3.07259,-6.95935c1.8965,-1.78332 4.51703,-2.88608 7.40951,-2.88608z" fill="#723e0a" stroke="#723e0a" stroke-width="0.96" stroke-linecap="round" stroke-linejoin="round"/></g><g fill-rule="nonzero"><path d="M346.39729,131.87098c-1.13826,-0.28371 -2.32695,-0.54884 -3.56608,-0.79202h-0.54031c1.66417,-4.50728 3.84704,-12.52547 1.81546,-19.52873c-1.78484,-5.98494 -5.50761,-11.29944 -10.655,-15.20552c8.57479,2.22409 14.97752,8.94363 16.38234,17.19487c1.39041,6.29904 0.16029,12.85816 -3.4364,18.3314z" fill="#ffffff" stroke="none" stroke-width="1" stroke-linecap="butt" stroke-linejoin="miter"/><path d="M342.26929,131.07895c-6.61885,-1.16862 -13.34397,-1.72084 -20.07809,-1.64484c-8.15154,-0.15368 -16.28868,0.69239 -24.20609,2.51793c-3.59849,-5.50364 -4.82681,-12.08809 -3.4364,-18.41246c2.59351,-13.92714 15.82041,-18.81945 27.64249,-18.81945c3.49403,-0.00844 6.97006,0.44245 10.33081,1.33918l0.92934,0.2854c5.1474,3.90608 8.87016,9.22058 10.655,15.20552c2.03158,7.00325 -0.15129,15.02145 -1.83707,19.52873z" fill="#ffecbb" stroke="none" stroke-width="1" stroke-linecap="butt" stroke-linejoin="miter"/><path d="M307.79722,77.20102c1.42463,0 2.71598,0.76838 3.65072,2.0113c0.93655,1.24123 1.51468,2.957 1.51468,4.8501c0,1.89309 -0.57814,3.60886 -1.51468,4.8501c-0.93474,1.24292 -2.2261,2.0113 -3.65072,2.0113c-1.42463,0 -2.71598,-0.76838 -3.65072,-2.0113c-0.93655,-1.24123 -1.51468,-2.957 -1.51468,-4.8501c0,-1.89309 0.57814,-3.60886 1.51468,-4.8501c0.93474,-1.24292 2.2261,-2.0113 3.65072,-2.0113z" fill="#723e0a" stroke="#723e0a" stroke-width="0.96" stroke-linecap="round" stroke-linejoin="round"/><path d="M306.41402,80.18504c0.59615,0 1.13646,0.22798 1.52729,0.59444c0.39263,0.36815 0.63397,0.87477 0.63397,1.43544c0,0.56067 -0.24134,1.06729 -0.63397,1.43544c-0.39083,0.36646 -0.93114,0.59444 -1.52729,0.59444c-0.59615,0 -1.13646,-0.22798 -1.52729,-0.59444c-0.39263,-0.36815 -0.63397,-0.87477 -0.63397,-1.43544c0,-0.56067 0.24134,-1.06729 0.63397,-1.43544c0.39083,-0.36646 0.93114,-0.59444 1.52729,-0.59444z" fill="#ffffff" stroke="#ffffff" stroke-width="0.5" stroke-linecap="butt" stroke-linejoin="miter"/><path d="M336.58518,77.20102c1.42463,0 2.71598,0.76838 3.65072,2.0113c0.93655,1.24123 1.51468,2.957 1.51468,4.8501c0,1.89309 -0.57814,3.60886 -1.51468,4.8501c-0.93474,1.24292 -2.2261,2.0113 -3.65072,2.0113c-1.42463,0 -2.71598,-0.76838 -3.65072,-2.0113c-0.93655,-1.24123 -1.51468,-2.957 -1.51468,-4.8501c0,-1.89309 0.57814,-3.60886 1.51468,-4.8501c0.93474,-1.24292 2.2261,-2.0113 3.65072,-2.0113z" fill="#723e0a" stroke="#723e0a" stroke-width="0.96" stroke-linecap="round" stroke-linejoin="round"/><path d="M335.20197,80.18504c0.59615,0 1.13646,0.22798 1.52729,0.59444c0.39263,0.36815 0.63397,0.87477 0.63397,1.43544c0,0.56067 -0.24134,1.06729 -0.63397,1.43544c-0.39083,0.36646 -0.93114,0.59444 -1.52729,0.59444c-0.59615,0 -1.13646,-0.22798 -1.52729,-0.59444c-0.39263,-0.36815 -0.63397,-0.87477 -0.63397,-1.43544c0,-0.56067 0.24134,-1.06729 0.63397,-1.43544c0.39083,-0.36646 0.93114,-0.59444 1.52729,-0.59444z" fill="#ffffff" stroke="#ffffff" stroke-width="0.5" stroke-linecap="butt" stroke-linejoin="miter"/><path d="M334.87779,118.02659c0,0 -2.80964,6.25176 -12.68658,6.25176c-9.87695,0 -12.68658,-6.21123 -12.68658,-6.21123" fill="none" stroke="#723e0a" stroke-width="0.96" stroke-linecap="round" stroke-linejoin="round"/><path d="M322.1912,124.31888v-11.26735" fill="none" stroke="#723e0a" stroke-width="0.96" stroke-linecap="round" stroke-linejoin="round"/><path d="M322.1912,99.89784c2.51066,0 4.78539,0.7363 6.43154,1.92687c1.64796,1.19057 2.66735,2.83541 2.66735,4.64913c0,1.81541 -1.01939,3.46025 -2.66735,4.65082c-1.64616,1.19057 -3.92088,1.92687 -6.43154,1.92687c-2.51066,0 -4.78539,-0.7363 -6.43154,-1.92687c-1.64796,-1.19057 -2.66735,-2.83541 -2.66735,-4.65082c0,-1.81372 1.01939,-3.45856 2.66735,-4.64913c1.64616,-1.19057 3.92088,-1.92687 6.43154,-1.92687z" fill="#5e154d" stroke="#5e154d" stroke-width="0.96" stroke-linecap="round" stroke-linejoin="round"/><path d="M328.82626,105.6835c0.19451,0.34451 0.28096,0.50663 0.41064,0.79034" fill="none" stroke="#ffffff" stroke-width="0.96" stroke-linecap="round" stroke-linejoin="round"/><path d="M322.1912,102.1101c1.7164,0.0608 3.37516,0.58937 4.77638,1.52157" fill="none" stroke="#ffffff" stroke-width="0.96" stroke-linecap="round" stroke-linejoin="round"/></g><path d="M384.45704,177.96546c-10.26598,4.10198 -16.70652,-4.58665 -16.23105,-15.08224c0.32419,-7.32918 0.58354,-13.39856 -4.53864,-20.70747c-3.47963,-4.81125 -9.42308,-8.12121 -17.29006,-10.15109c-7.91741,-1.82385 -16.05454,-2.66992 -24.20609,-2.51624c-8.14614,-0.13848 -16.27607,0.7211 -24.18448,2.55677c-7.88859,2.02988 -13.83205,5.2993 -17.29006,10.15109c-5.14379,7.26839 -4.88444,13.33776 -4.56025,20.58588c0.47548,10.49559 -5.96507,19.14369 -16.23105,15.08224c-14.71817,-5.86672 -17.0091,-43.72685 -6.48377,-69.57151c11.5195,-28.27815 36.95751,-44.39728 68.74961,-44.39728c31.7921,0 57.23011,16.11914 68.74961,44.39728c10.52533,25.84466 8.23439,63.70478 -6.48377,69.65257z" fill="none" fill-rule="nonzero" stroke="#723e0a" stroke-width="0.96" stroke-linecap="round" stroke-linejoin="round"/><g><path d="M319.05132,60.28766c0,-3.10775 2.51933,-5.62708 5.62708,-5.62708c3.10775,0 5.62708,2.51933 5.62708,5.62708c0,3.10775 -2.51933,5.62708 -5.62708,5.62708c-3.10775,0 -5.62708,-2.51933 -5.62708,-5.62708z" fill="#c9e2b3" fill-rule="nonzero" stroke="#149948" stroke-width="0.96" stroke-linecap="butt" stroke-linejoin="miter"/><g><path d="M381.85883,122.33361c9.87912,6.47326 15.76005,19.94863 7.3829,27.50076c-8.37716,7.55213 -28.45271,9.30795 -48.44365,3.68087c-11.17571,-3.13491 -21.42045,-8.94321 -29.84891,-16.92355z" fill="#c9e2b3" fill-rule="nonzero" stroke="#149948" stroke-width="0.96" stroke-linecap="butt" stroke-linejoin="miter"/><path d="M359.11781,81.23055c8.31369,11.76187 12.88305,24.793 15.31581,45.94743c-4.78848,2.60006 -9.86484,4.63071 -15.12542,6.05017c-1.09298,-11.47928 -3.09489,-22.85366 -5.9867,-34.01633c-5.18284,-18.8486 -20.94289,-38.07798 -28.6431,-38.07798c5.21527,-0.03649 10.41327,0.60361 15.46389,1.9039c7.34958,4.89655 13.77383,11.05601 18.97553,18.19281z" fill="#ff7bd0" fill-rule="nonzero" stroke="none" stroke-width="1" stroke-linecap="butt" stroke-linejoin="miter"/><path d="M381.92229,122.22784c-2.35819,1.78737 -4.83925,3.40622 -7.42521,4.84437c-2.43276,-21.23905 -7.00212,-34.18557 -15.31581,-45.94743c-5.23008,-7.10454 -11.67566,-13.22787 -19.03899,-18.08704c39.05109,10.23875 42.52041,58.57663 41.78001,59.19011z" fill="#ffa1e2" fill-rule="nonzero" stroke="none" stroke-width="1" stroke-linecap="butt" stroke-linejoin="miter"/><path d="M353.3215,99.00027c2.89181,11.16267 4.89373,22.53705 5.9867,34.01633c-11.31374,2.86537 -22.96138,4.19598 -34.62981,3.95588c-6.90728,0.03808 -13.81014,-0.35751 -20.66788,-1.18465c0.20925,-11.55861 1.34101,-23.08213 3.38471,-34.46057c3.23663,-18.19281 13.28498,-40.19342 17.28317,-40.19342c7.74252,0 23.46027,19.22938 28.6431,37.86644z" fill="#ffff4f" fill-rule="nonzero" stroke="none" stroke-width="1" stroke-linecap="butt" stroke-linejoin="miter"/><path d="M307.39522,101.51765c-2.01073,11.35288 -3.11429,22.84785 -3.30009,34.37596c-14.08885,-1.79813 -26.37958,-5.88093 -36.53371,-13.66576c-0.9731,-0.6981 3.44817,-61.09401 57.11697,-61.09401c-3.99819,0 -14.04654,22.00061 -17.28317,40.38381z" fill="#149948" fill-rule="nonzero" stroke="none" stroke-width="1" stroke-linecap="butt" stroke-linejoin="miter"/><path d="M381.94345,122.22784c-6.74104,5.05644 -14.39965,8.75653 -22.55063,10.89453c-11.31374,2.86537 -22.96138,4.19598 -34.62981,3.95588c-6.90728,0.03808 -13.81014,-0.35751 -20.66788,-1.18465c-14.08885,-1.79813 -26.37958,-5.88093 -36.53371,-13.66576c-0.9731,-0.6981 3.44817,-61.09401 57.11697,-61.09401c53.64764,0 58.06892,60.39591 57.26505,61.09401z" fill="none" fill-rule="evenodd" stroke="#149948" stroke-width="0.96" stroke-linecap="butt" stroke-linejoin="miter"/><path d="M388.90326,139.84948c0.29616,2.96162 -1.05772,6.34633 -5.33092,8.60985" fill="none" fill-rule="evenodd" stroke="#ffffff" stroke-width="1.272" stroke-linecap="round" stroke-linejoin="round"/><path d="M386.21664,133.12237c0.6438,0.79188 1.17742,1.66715 1.58658,2.602" fill="none" fill-rule="evenodd" stroke="#ffffff" stroke-width="1.272" stroke-linecap="round" stroke-linejoin="round"/><path d="M274.5847,119.1816c0.35963,-2.85585 0.71925,-4.48474 0.71925,-4.48474" fill="none" fill-rule="evenodd" stroke="#047f30" stroke-width="1.92" stroke-linecap="round" stroke-linejoin="round"/><path d="M276.57321,108.94286c1.3932,-5.88305 3.63063,-11.5334 6.64249,-16.77547" fill="none" fill-rule="evenodd" stroke="#047f30" stroke-width="1.92" stroke-linecap="round" stroke-linejoin="round"/></g></g></g></g></svg>