<svg version="1.1" xmlns="http://www.w3.org/2000/svg" xmlns:xlink="http://www.w3.org/1999/xlink" width="171.66021" height="140.59152" viewBox="0,0,171.66021,140.59152"><defs><radialGradient cx="288.23636" cy="115.76656" r="89.23012" gradientUnits="userSpaceOnUse" id="color-1"><stop offset="0" stop-color="#fcf2b6"/><stop offset="1" stop-color="#fde665"/></radialGradient><linearGradient x1="319.58065" y1="164.33154" x2="319.58065" y2="189.52071" gradientUnits="userSpaceOnUse" id="color-2"><stop offset="0" stop-color="#e8d35d"/><stop offset="1" stop-color="#e8d35d" stop-opacity="0"/></linearGradient></defs><g transform="translate(-233.53674,-91.03668)"><g data-paper-data="{&quot;isPaintingLayer&quot;:true}" fill-rule="nonzero" stroke-linejoin="miter" stroke-miterlimit="10" stroke-dasharray="" stroke-dashoffset="0" style="mix-blend-mode: normal"><path d="M328.17505,227.8883c0,0 -0.4172,2.9899 -5.81386,2.9899c-6.05106,0 -5.81386,-2.9899 -5.81386,-2.9899" data-paper-data="{&quot;index&quot;:null}" fill="none" stroke="#000000" stroke-width="1.5" stroke-linecap="round"/><path d="M345.36388,213.29135c0,0 4.60787,17.37283 -21.73878,17.37283c-23.64046,0 -25.78321,-17.37283 -25.78321,-17.37283l-3.03332,-18.55734l-2.52777,16.58316c0,0 2.42067,15.2869 -20.42103,15.13326c-19.47278,-0.13097 -18.50656,-17.89712 -18.50656,-17.89712l4.04442,-22.11088l-2.52777,11.45028c0,0 -7.91491,17.43456 -16.13429,11.97381c-9.35748,-6.21687 -2.57117,-21.44991 -2.57117,-21.44991l28.81652,-24.4799c0,0 -5.49818,-24.94222 -2.99057,-36.06336c2.15829,-9.57195 17.14606,-26.71574 17.14606,-26.71574c0,0 8.70311,-9.87093 43.47756,-9.87093c31.81374,0 41.9609,9.87093 41.9609,9.87093c0,0 16.90655,14.6258 19.30922,32.25998c2.88147,21.14833 -7.78939,34.55349 -7.78939,34.55349c0,0 11.59535,8.80579 16.39646,13.87478c4.225,4.46074 10.90341,14.94832 10.90341,14.94832c0,0 4.51154,8.3789 -1.84756,11.30857c-5.14975,2.37252 -9.78016,-3.01699 -9.78016,-3.01699l-12.13327,-16.58316c0,0 6.35738,13.42116 8.21736,18.57804c0.32776,0.90873 -0.12851,9.4554 -0.12851,9.4554c0,0 -0.57596,4.92226 -2.37532,7.07015c-4.95075,5.90965 -6.78032,2.88138 -11.6781,3.45367c-9.35831,1.09348 -17.79643,-8.15479 -17.79643,-8.15479l-7.5833,-24.08507z" fill="url(#color-1)" stroke="#000000" stroke-width="0.5" stroke-linecap="round"/><path d="M288.23636,143.01033c0,-4.14319 4.30053,-7.50191 9.60551,-7.50191c5.30498,0 9.60551,3.35872 9.60551,7.50191c0,4.14319 -4.30053,7.50191 -9.60551,7.50191c-5.30498,0 -9.60551,-3.35872 -9.60551,-7.50191z" fill="#000000" stroke="#000000" stroke-width="0.5" stroke-linecap="butt"/><path d="M338.23058,144.15147c0,-4.14319 4.30053,-7.50191 9.60551,-7.50191c5.30498,0 9.60551,3.35872 9.60551,7.50191c0,4.14319 -4.30053,7.50191 -9.60551,7.50191c-5.30498,0 -9.60551,-3.35872 -9.60551,-7.50191z" fill="#000000" stroke="#000000" stroke-width="0.5" stroke-linecap="butt"/><path d="M297.36408,140.24647c0,-1.07834 1.11929,-1.9525 2.5,-1.9525c1.38071,0 2.5,0.87417 2.5,1.9525c0,1.07834 -1.11929,1.9525 -2.5,1.9525c-1.38071,0 -2.5,-0.87417 -2.5,-1.9525z" fill="#ffffff" stroke="none" stroke-width="0.5" stroke-linecap="butt"/><path d="M347.41383,141.03614c0,-1.07834 1.11929,-1.9525 2.5,-1.9525c1.38071,0 2.5,0.87417 2.5,1.9525c0,1.07834 -1.11929,1.9525 -2.5,1.9525c-1.38071,0 -2.5,-0.87417 -2.5,-1.9525z" fill="#ffffff" stroke="none" stroke-width="0.5" stroke-linecap="butt"/><path d="M328.17505,152.88126c0,0 -0.4172,4.73805 -5.81386,4.73805c-6.05106,0 -5.81386,-4.73805 -5.81386,-4.73805" fill="none" stroke="#000000" stroke-width="1.5" stroke-linecap="round"/><path d="M381.76367,173.01795c0,0 -19.55884,9.92845 -61.13345,8.51461c-41.63926,-1.41603 -62.2215,-11.27847 -62.2215,-11.27847l6.06664,-5.92256c0,0 21.37361,9.09275 55.61387,9.41127c30.45242,0.28328 56.11336,-6.64741 56.11336,-6.64741z" fill="url(#color-2)" stroke="#000000" stroke-width="0" stroke-linecap="round"/></g></g></svg>